<?xml version="1.0" standalone="no"?>
<!DOCTYPE svg PUBLIC "-//W3C//DTD SVG 20010904//EN"
 "http://www.w3.org/TR/2001/REC-SVG-20010904/DTD/svg10.dtd">
<svg version="1.0" xmlns="http://www.w3.org/2000/svg"
 width="1280.000000pt" height="713.000000pt" viewBox="0 0 1280.000000 713.000000"
 preserveAspectRatio="xMidYMid meet">
<metadata>
Created by potrace 1.15, written by Peter Selinger 2001-2017
</metadata>
<g transform="translate(0.000000,713.000000) scale(0.100000,-0.100000)"
fill="#000000" stroke="none">
<path d="M253 7115 c-102 -31 -176 -96 -222 -195 l-26 -55 1 -315 c5 -1304
387 -2565 1112 -3664 785 -1193 1953 -2102 3277 -2552 499 -170 950 -264 1520
-316 184 -17 786 -17 970 0 570 52 1021 146 1520 316 2057 699 3649 2457 4189
4625 138 551 198 1031 200 1591 l1 315 -28 60 c-46 98 -116 159 -217 189 -49
15 -615 16 -6154 15 -5017 0 -6108 -3 -6143 -14z"/>
</g>
</svg>
