<svg width="417" height="142" viewBox="0 0 417 142" fill="none" xmlns="http://www.w3.org/2000/svg">
<path d="M362.343 39.2173C362.343 40.8733 360.999 42.2173 359.343 42.2173C357.681 42.2173 356.343 40.8733 356.343 39.2173C356.343 37.5553 357.681 36.2173 359.343 36.2173C360.999 36.2173 362.343 37.5553 362.343 39.2173Z" fill="#E4B7FF"/>
<path d="M56.3428 21.2173C56.3428 22.8733 54.9988 24.2173 53.3428 24.2173C51.6808 24.2173 50.3428 22.8733 50.3428 21.2173C50.3428 19.5553 51.6808 18.2173 53.3428 18.2173C54.9988 18.2173 56.3428 19.5553 56.3428 21.2173Z" fill="#E4B7FF"/>
<path d="M357.343 138.217C357.343 139.873 355.999 141.217 354.343 141.217C352.681 141.217 351.343 139.873 351.343 138.217C351.343 136.555 352.681 135.217 354.343 135.217C355.999 135.217 357.343 136.555 357.343 138.217Z" fill="#E4B7FF"/>
<path d="M231.343 138.217C231.343 139.873 229.999 141.217 228.343 141.217C226.681 141.217 225.343 139.873 225.343 138.217C225.343 136.555 226.681 135.217 228.343 135.217C229.999 135.217 231.343 136.555 231.343 138.217Z" fill="#E4B7FF"/>
<path d="M222.343 66.2173C222.343 67.8733 220.999 69.2173 219.343 69.2173C217.681 69.2173 216.343 67.8733 216.343 66.2173C216.343 64.5553 217.681 63.2173 219.343 63.2173C220.999 63.2173 222.343 64.5553 222.343 66.2173Z" fill="#E4B7FF"/>
<path d="M51.3428 66.2173C51.3428 67.8733 49.9988 69.2173 48.3428 69.2173C46.6808 69.2173 45.3428 67.8733 45.3428 66.2173C45.3428 64.5553 46.6808 63.2173 48.3428 63.2173C49.9988 63.2173 51.3428 64.5553 51.3428 66.2173Z" fill="#E4B7FF"/>
<path d="M240.343 120.217C240.343 121.873 238.999 123.217 237.343 123.217C235.681 123.217 234.343 121.873 234.343 120.217C234.343 118.555 235.681 117.217 237.343 117.217C238.999 117.217 240.343 118.555 240.343 120.217Z" fill="#E4B7FF"/>
<path d="M393.343 66.2173C393.343 67.8733 391.999 69.2173 390.343 69.2173C388.681 69.2173 387.343 67.8733 387.343 66.2173C387.343 64.5553 388.681 63.2173 390.343 63.2173C391.999 63.2173 393.343 64.5553 393.343 66.2173Z" fill="#E4B7FF"/>
<path d="M213.343 102.217C213.343 103.873 211.999 105.217 210.343 105.217C208.681 105.217 207.343 103.873 207.343 102.217C207.343 100.555 208.681 99.2173 210.343 99.2173C211.999 99.2173 213.343 100.555 213.343 102.217Z" fill="#E4B7FF"/>
<path d="M110.343 111.217C110.343 112.873 108.999 114.217 107.343 114.217C105.681 114.217 104.343 112.873 104.343 111.217C104.343 109.555 105.681 108.217 107.343 108.217C108.999 108.217 110.343 109.555 110.343 111.217Z" fill="#E4B7FF"/>
<path d="M366.343 48.2173C366.343 49.8733 364.999 51.2173 363.343 51.2173C361.681 51.2173 360.343 49.8733 360.343 48.2173C360.343 46.5553 361.681 45.2173 363.343 45.2173C364.999 45.2173 366.343 46.5553 366.343 48.2173Z" fill="#E4B7FF"/>
<path d="M92.3428 111.217C92.3428 112.873 90.9988 114.217 89.3428 114.217C87.6808 114.217 86.3428 112.873 86.3428 111.217C86.3428 109.555 87.6808 108.217 89.3428 108.217C90.9988 108.217 92.3428 109.555 92.3428 111.217Z" fill="#E4B7FF"/>
<path d="M321.343 84.2173C321.343 85.8733 319.999 87.2173 318.343 87.2173C316.681 87.2173 315.343 85.8733 315.343 84.2173C315.343 82.5553 316.681 81.2173 318.343 81.2173C319.999 81.2173 321.343 82.5553 321.343 84.2173Z" fill="#E4B7FF"/>
<path d="M335.343 129.217C335.343 130.873 333.999 132.217 332.343 132.217C330.681 132.217 329.343 130.873 329.343 129.217C329.343 127.555 330.681 126.217 332.343 126.217C333.999 126.217 335.343 127.555 335.343 129.217Z" fill="#E4B7FF"/>
<path d="M267.343 138.217C267.343 139.873 265.999 141.217 264.343 141.217C262.681 141.217 261.343 139.873 261.343 138.217C261.343 136.555 262.681 135.217 264.343 135.217C265.999 135.217 267.343 136.555 267.343 138.217Z" fill="#E4B7FF"/>
<path d="M402.343 138.217C402.343 139.873 400.999 141.217 399.343 141.217C397.681 141.217 396.343 139.873 396.343 138.217C396.343 136.555 397.681 135.217 399.343 135.217C400.999 135.217 402.343 136.555 402.343 138.217Z" fill="#E4B7FF"/>
<path d="M402.343 102.217C402.343 103.873 400.999 105.217 399.343 105.217C397.681 105.217 396.343 103.873 396.343 102.217C396.343 100.555 397.681 99.2173 399.343 99.2173C400.999 99.2173 402.343 100.555 402.343 102.217Z" fill="#E4B7FF"/>
<path d="M254.343 39.2173C254.343 40.8733 252.999 42.2173 251.343 42.2173C249.681 42.2173 248.343 40.8733 248.343 39.2173C248.343 37.5553 249.681 36.2173 251.343 36.2173C252.999 36.2173 254.343 37.5553 254.343 39.2173Z" fill="#E4B7FF"/>
<path d="M96.3428 102.217C96.3428 103.873 94.9988 105.217 93.3428 105.217C91.6808 105.217 90.3428 103.873 90.3428 102.217C90.3428 100.555 91.6808 99.2173 93.3428 99.2173C94.9988 99.2173 96.3428 100.555 96.3428 102.217Z" fill="#E4B7FF"/>
<path d="M74.3428 3.21732C74.3428 4.87332 72.9988 6.21732 71.3428 6.21732C69.6808 6.21732 68.3428 4.87332 68.3428 3.21732C68.3428 1.55532 69.6808 0.217316 71.3428 0.217316C72.9988 0.217316 74.3428 1.55532 74.3428 3.21732Z" fill="#E4B7FF"/>
<path d="M33.3428 84.2173C33.3428 85.8733 31.9988 87.2173 30.3428 87.2173C28.6808 87.2173 27.3428 85.8733 27.3428 84.2173C27.3428 82.5553 28.6808 81.2173 30.3428 81.2173C31.9988 81.2173 33.3428 82.5553 33.3428 84.2173Z" fill="#E4B7FF"/>
<path d="M38.3428 57.2173C38.3428 58.8733 36.9988 60.2173 35.3428 60.2173C33.6808 60.2173 32.3428 58.8733 32.3428 57.2173C32.3428 55.5553 33.6808 54.2173 35.3428 54.2173C36.9988 54.2173 38.3428 55.5553 38.3428 57.2173Z" fill="#E4B7FF"/>
<path d="M159.343 84.2173C159.343 85.8733 157.999 87.2173 156.343 87.2173C154.681 87.2173 153.343 85.8733 153.343 84.2173C153.343 82.5553 154.681 81.2173 156.343 81.2173C157.999 81.2173 159.343 82.5553 159.343 84.2173Z" fill="#E4B7FF"/>
<path d="M69.3428 30.2173C69.3428 31.8733 67.9988 33.2173 66.3428 33.2173C64.6808 33.2173 63.3428 31.8733 63.3428 30.2173C63.3428 28.5553 64.6808 27.2173 66.3428 27.2173C67.9988 27.2173 69.3428 28.5553 69.3428 30.2173Z" fill="#E4B7FF"/>
<path d="M168.343 138.217C168.343 139.873 166.999 141.217 165.343 141.217C163.681 141.217 162.343 139.873 162.343 138.217C162.343 136.555 163.681 135.217 165.343 135.217C166.999 135.217 168.343 136.555 168.343 138.217Z" fill="#E4B7FF"/>
<path d="M51.3428 12.2173C51.3428 13.8733 49.9988 15.2173 48.3428 15.2173C46.6808 15.2173 45.3428 13.8733 45.3428 12.2173C45.3428 10.5553 46.6808 9.21732 48.3428 9.21732C49.9988 9.21732 51.3428 10.5553 51.3428 12.2173Z" fill="#E4B7FF"/>
<path d="M33.3428 138.217C33.3428 139.873 31.9988 141.217 30.3428 141.217C28.6808 141.217 27.3428 139.873 27.3428 138.217C27.3428 136.555 28.6808 135.217 30.3428 135.217C31.9988 135.217 33.3428 136.555 33.3428 138.217Z" fill="#E4B7FF"/>
<path d="M375.343 138.217C375.343 139.873 373.999 141.217 372.343 141.217C370.681 141.217 369.343 139.873 369.343 138.217C369.343 136.555 370.681 135.217 372.343 135.217C373.999 135.217 375.343 136.555 375.343 138.217Z" fill="#E4B7FF"/>
<path d="M348.343 120.217C348.343 121.873 346.999 123.217 345.343 123.217C343.681 123.217 342.343 121.873 342.343 120.217C342.343 118.555 343.681 117.217 345.343 117.217C346.999 117.217 348.343 118.555 348.343 120.217Z" fill="#E4B7FF"/>
<path d="M87.3428 48.2173C87.3428 49.8733 85.9988 51.2173 84.3428 51.2173C82.6808 51.2173 81.3428 49.8733 81.3428 48.2173C81.3428 46.5553 82.6808 45.2173 84.3428 45.2173C85.9988 45.2173 87.3428 46.5553 87.3428 48.2173Z" fill="#E4B7FF"/>
<path d="M254.343 57.2173C254.343 58.8733 252.999 60.2173 251.343 60.2173C249.681 60.2173 248.343 58.8733 248.343 57.2173C248.343 55.5553 249.681 54.2173 251.343 54.2173C252.999 54.2173 254.343 55.5553 254.343 57.2173Z" fill="#E4B7FF"/>
<path d="M101.343 93.2173C101.343 94.8733 99.9988 96.2173 98.3428 96.2173C96.6808 96.2173 95.3428 94.8733 95.3428 93.2173C95.3428 91.5553 96.6808 90.2173 98.3428 90.2173C99.9988 90.2173 101.343 91.5553 101.343 93.2173Z" fill="#E4B7FF"/>
<path d="M389.343 129.217C389.343 130.873 387.999 132.217 386.343 132.217C384.681 132.217 383.343 130.873 383.343 129.217C383.343 127.555 384.681 126.217 386.343 126.217C387.999 126.217 389.343 127.555 389.343 129.217Z" fill="#E4B7FF"/>
<path d="M20.3428 93.2173C20.3428 94.8733 18.9988 96.2173 17.3428 96.2173C15.6808 96.2173 14.3428 94.8733 14.3428 93.2173C14.3428 91.5553 15.6808 90.2173 17.3428 90.2173C18.9988 90.2173 20.3428 91.5553 20.3428 93.2173Z" fill="#E4B7FF"/>
<path d="M42.3428 66.2173C42.3428 67.8733 40.9988 69.2173 39.3428 69.2173C37.6808 69.2173 36.3428 67.8733 36.3428 66.2173C36.3428 64.5553 37.6808 63.2173 39.3428 63.2173C40.9988 63.2173 42.3428 64.5553 42.3428 66.2173Z" fill="#E4B7FF"/>
<path d="M416.343 111.217C416.343 112.873 414.999 114.217 413.343 114.217C411.681 114.217 410.343 112.873 410.343 111.217C410.343 109.555 411.681 108.217 413.343 108.217C414.999 108.217 416.343 109.555 416.343 111.217Z" fill="#E4B7FF"/>
<path d="M285.343 48.2173C285.343 49.8733 283.999 51.2173 282.343 51.2173C280.681 51.2173 279.343 49.8733 279.343 48.2173C279.343 46.5553 280.681 45.2173 282.343 45.2173C283.999 45.2173 285.343 46.5553 285.343 48.2173Z" fill="#E4B7FF"/>
<path d="M173.343 129.217C173.343 130.873 171.999 132.217 170.343 132.217C168.681 132.217 167.343 130.873 167.343 129.217C167.343 127.555 168.681 126.217 170.343 126.217C171.999 126.217 173.343 127.555 173.343 129.217Z" fill="#E4B7FF"/>
<path d="M47.3428 39.2173C47.3428 40.8733 45.9988 42.2173 44.3428 42.2173C42.6808 42.2173 41.3428 40.8733 41.3428 39.2173C41.3428 37.5553 42.6808 36.2173 44.3428 36.2173C45.9988 36.2173 47.3428 37.5553 47.3428 39.2173Z" fill="#E4B7FF"/>
<path d="M47.3428 21.2173C47.3428 22.8733 45.9988 24.2173 44.3428 24.2173C42.6808 24.2173 41.3428 22.8733 41.3428 21.2173C41.3428 19.5553 42.6808 18.2173 44.3428 18.2173C45.9988 18.2173 47.3428 19.5553 47.3428 21.2173Z" fill="#E4B7FF"/>
<path d="M384.343 66.2173C384.343 67.8733 382.999 69.2173 381.343 69.2173C379.681 69.2173 378.343 67.8733 378.343 66.2173C378.343 64.5553 379.681 63.2173 381.343 63.2173C382.999 63.2173 384.343 64.5553 384.343 66.2173Z" fill="#E4B7FF"/>
<path d="M119.343 93.2173C119.343 94.8733 117.999 96.2173 116.343 96.2173C114.681 96.2173 113.343 94.8733 113.343 93.2173C113.343 91.5553 114.681 90.2173 116.343 90.2173C117.999 90.2173 119.343 91.5553 119.343 93.2173Z" fill="#E4B7FF"/>
<path d="M326.343 75.2173C326.343 76.8733 324.999 78.2173 323.343 78.2173C321.681 78.2173 320.343 76.8733 320.343 75.2173C320.343 73.5553 321.681 72.2173 323.343 72.2173C324.999 72.2173 326.343 73.5553 326.343 75.2173Z" fill="#E4B7FF"/>
<path d="M299.343 39.2173C299.343 40.8733 297.999 42.2173 296.343 42.2173C294.681 42.2173 293.343 40.8733 293.343 39.2173C293.343 37.5553 294.681 36.2173 296.343 36.2173C297.999 36.2173 299.343 37.5553 299.343 39.2173Z" fill="#E4B7FF"/>
<path d="M371.343 129.217C371.343 130.873 369.999 132.217 368.343 132.217C366.681 132.217 365.343 130.873 365.343 129.217C365.343 127.555 366.681 126.217 368.343 126.217C369.999 126.217 371.343 127.555 371.343 129.217Z" fill="#E4B7FF"/>
<path d="M317.343 111.217C317.343 112.873 315.999 114.217 314.343 114.217C312.681 114.217 311.343 112.873 311.343 111.217C311.343 109.555 312.681 108.217 314.343 108.217C315.999 108.217 317.343 109.555 317.343 111.217Z" fill="#E4B7FF"/>
<path d="M213.343 138.217C213.343 139.873 211.999 141.217 210.343 141.217C208.681 141.217 207.343 139.873 207.343 138.217C207.343 136.555 208.681 135.217 210.343 135.217C211.999 135.217 213.343 136.555 213.343 138.217Z" fill="#E4B7FF"/>
<path d="M267.343 102.217C267.343 103.873 265.999 105.217 264.343 105.217C262.681 105.217 261.343 103.873 261.343 102.217C261.343 100.555 262.681 99.2173 264.343 99.2173C265.999 99.2173 267.343 100.555 267.343 102.217Z" fill="#E4B7FF"/>
<path d="M164.343 111.217C164.343 112.873 162.999 114.217 161.343 114.217C159.681 114.217 158.343 112.873 158.343 111.217C158.343 109.555 159.681 108.217 161.343 108.217C162.999 108.217 164.343 109.555 164.343 111.217Z" fill="#E4B7FF"/>
<path d="M371.343 57.2173C371.343 58.8733 369.999 60.2173 368.343 60.2173C366.681 60.2173 365.343 58.8733 365.343 57.2173C365.343 55.5553 366.681 54.2173 368.343 54.2173C369.999 54.2173 371.343 55.5553 371.343 57.2173Z" fill="#E4B7FF"/>
<path d="M105.343 102.217C105.343 103.873 103.999 105.217 102.343 105.217C100.681 105.217 99.3428 103.873 99.3428 102.217C99.3428 100.555 100.681 99.2173 102.343 99.2173C103.999 99.2173 105.343 100.555 105.343 102.217Z" fill="#E4B7FF"/>
<path d="M411.343 138.217C411.343 139.873 409.999 141.217 408.343 141.217C406.681 141.217 405.343 139.873 405.343 138.217C405.343 136.555 406.681 135.217 408.343 135.217C409.999 135.217 411.343 136.555 411.343 138.217Z" fill="#E4B7FF"/>
<path d="M168.343 102.217C168.343 103.873 166.999 105.217 165.343 105.217C163.681 105.217 162.343 103.873 162.343 102.217C162.343 100.555 163.681 99.2173 165.343 99.2173C166.999 99.2173 168.343 100.555 168.343 102.217Z" fill="#E4B7FF"/>
<path d="M24.3428 138.217C24.3428 139.873 22.9988 141.217 21.3428 141.217C19.6808 141.217 18.3428 139.873 18.3428 138.217C18.3428 136.555 19.6808 135.217 21.3428 135.217C22.9988 135.217 24.3428 136.555 24.3428 138.217Z" fill="#E4B7FF"/>
<path d="M330.343 84.2173C330.343 85.8733 328.999 87.2173 327.343 87.2173C325.681 87.2173 324.343 85.8733 324.343 84.2173C324.343 82.5553 325.681 81.2173 327.343 81.2173C328.999 81.2173 330.343 82.5553 330.343 84.2173Z" fill="#E4B7FF"/>
<path d="M407.343 111.217C407.343 112.873 405.999 114.217 404.343 114.217C402.681 114.217 401.343 112.873 401.343 111.217C401.343 109.555 402.681 108.217 404.343 108.217C405.999 108.217 407.343 109.555 407.343 111.217Z" fill="#E4B7FF"/>
<path d="M65.3428 39.2173C65.3428 40.8733 63.9988 42.2173 62.3428 42.2173C60.6808 42.2173 59.3428 40.8733 59.3428 39.2173C59.3428 37.5553 60.6808 36.2173 62.3428 36.2173C63.9988 36.2173 65.3428 37.5553 65.3428 39.2173Z" fill="#E4B7FF"/>
<path d="M335.343 111.217C335.343 112.873 333.999 114.217 332.343 114.217C330.681 114.217 329.343 112.873 329.343 111.217C329.343 109.555 330.681 108.217 332.343 108.217C333.999 108.217 335.343 109.555 335.343 111.217Z" fill="#E4B7FF"/>
<path d="M24.3428 120.217C24.3428 121.873 22.9988 123.217 21.3428 123.217C19.6808 123.217 18.3428 121.873 18.3428 120.217C18.3428 118.555 19.6808 117.217 21.3428 117.217C22.9988 117.217 24.3428 118.555 24.3428 120.217Z" fill="#E4B7FF"/>
<path d="M213.343 120.217C213.343 121.873 211.999 123.217 210.343 123.217C208.681 123.217 207.343 121.873 207.343 120.217C207.343 118.555 208.681 117.217 210.343 117.217C211.999 117.217 213.343 118.555 213.343 120.217Z" fill="#E4B7FF"/>
<path d="M186.343 120.217C186.343 121.873 184.999 123.217 183.343 123.217C181.681 123.217 180.343 121.873 180.343 120.217C180.343 118.555 181.681 117.217 183.343 117.217C184.999 117.217 186.343 118.555 186.343 120.217Z" fill="#E4B7FF"/>
<path d="M155.343 57.2173C155.343 58.8733 153.999 60.2173 152.343 60.2173C150.681 60.2173 149.343 58.8733 149.343 57.2173C149.343 55.5553 150.681 54.2173 152.343 54.2173C153.999 54.2173 155.343 55.5553 155.343 57.2173Z" fill="#E4B7FF"/>
<path d="M83.3428 57.2173C83.3428 58.8733 81.9988 60.2173 80.3428 60.2173C78.6808 60.2173 77.3428 58.8733 77.3428 57.2173C77.3428 55.5553 78.6808 54.2173 80.3428 54.2173C81.9988 54.2173 83.3428 55.5553 83.3428 57.2173Z" fill="#E4B7FF"/>
<path d="M290.343 57.2173C290.343 58.8733 288.999 60.2173 287.343 60.2173C285.681 60.2173 284.343 58.8733 284.343 57.2173C284.343 55.5553 285.681 54.2173 287.343 54.2173C288.999 54.2173 290.343 55.5553 290.343 57.2173Z" fill="#E4B7FF"/>
<path d="M110.343 75.2173C110.343 76.8733 108.999 78.2173 107.343 78.2173C105.681 78.2173 104.343 76.8733 104.343 75.2173C104.343 73.5553 105.681 72.2173 107.343 72.2173C108.999 72.2173 110.343 73.5553 110.343 75.2173Z" fill="#E4B7FF"/>
<path d="M344.343 57.2173C344.343 58.8733 342.999 60.2173 341.343 60.2173C339.681 60.2173 338.343 58.8733 338.343 57.2173C338.343 55.5553 339.681 54.2173 341.343 54.2173C342.999 54.2173 344.343 55.5553 344.343 57.2173Z" fill="#E4B7FF"/>
<path d="M114.343 84.2173C114.343 85.8733 112.999 87.2173 111.343 87.2173C109.681 87.2173 108.343 85.8733 108.343 84.2173C108.343 82.5553 109.681 81.2173 111.343 81.2173C112.999 81.2173 114.343 82.5553 114.343 84.2173Z" fill="#E4B7FF"/>
<path d="M258.343 48.2173C258.343 49.8733 256.999 51.2173 255.343 51.2173C253.681 51.2173 252.343 49.8733 252.343 48.2173C252.343 46.5553 253.681 45.2173 255.343 45.2173C256.999 45.2173 258.343 46.5553 258.343 48.2173Z" fill="#E4B7FF"/>
<path d="M258.343 66.2173C258.343 67.8733 256.999 69.2173 255.343 69.2173C253.681 69.2173 252.343 67.8733 252.343 66.2173C252.343 64.5553 253.681 63.2173 255.343 63.2173C256.999 63.2173 258.343 64.5553 258.343 66.2173Z" fill="#E4B7FF"/>
<path d="M150.343 66.2173C150.343 67.8733 148.999 69.2173 147.343 69.2173C145.681 69.2173 144.343 67.8733 144.343 66.2173C144.343 64.5553 145.681 63.2173 147.343 63.2173C148.999 63.2173 150.343 64.5553 150.343 66.2173Z" fill="#E4B7FF"/>
<path d="M380.343 57.2173C380.343 58.8733 378.999 60.2173 377.343 60.2173C375.681 60.2173 374.343 58.8733 374.343 57.2173C374.343 55.5553 375.681 54.2173 377.343 54.2173C378.999 54.2173 380.343 55.5553 380.343 57.2173Z" fill="#E4B7FF"/>
<path d="M65.3428 111.217C65.3428 112.873 63.9988 114.217 62.3428 114.217C60.6808 114.217 59.3428 112.873 59.3428 111.217C59.3428 109.555 60.6808 108.217 62.3428 108.217C63.9988 108.217 65.3428 109.555 65.3428 111.217Z" fill="#E4B7FF"/>
<path d="M402.343 120.217C402.343 121.873 400.999 123.217 399.343 123.217C397.681 123.217 396.343 121.873 396.343 120.217C396.343 118.555 397.681 117.217 399.343 117.217C400.999 117.217 402.343 118.555 402.343 120.217Z" fill="#E4B7FF"/>
<path d="M101.343 129.217C101.343 130.873 99.9988 132.217 98.3428 132.217C96.6808 132.217 95.3428 130.873 95.3428 129.217C95.3428 127.555 96.6808 126.217 98.3428 126.217C99.9988 126.217 101.343 127.555 101.343 129.217Z" fill="#E4B7FF"/>
<path d="M227.343 111.217C227.343 112.873 225.999 114.217 224.343 114.217C222.681 114.217 221.343 112.873 221.343 111.217C221.343 109.555 222.681 108.217 224.343 108.217C225.999 108.217 227.343 109.555 227.343 111.217Z" fill="#E4B7FF"/>
<path d="M389.343 111.217C389.343 112.873 387.999 114.217 386.343 114.217C384.681 114.217 383.343 112.873 383.343 111.217C383.343 109.555 384.681 108.217 386.343 108.217C387.999 108.217 389.343 109.555 389.343 111.217Z" fill="#E4B7FF"/>
<path d="M128.343 129.217C128.343 130.873 126.999 132.217 125.343 132.217C123.681 132.217 122.343 130.873 122.343 129.217C122.343 127.555 123.681 126.217 125.343 126.217C126.999 126.217 128.343 127.555 128.343 129.217Z" fill="#E4B7FF"/>
<path d="M398.343 39.2173C398.343 40.8733 396.999 42.2173 395.343 42.2173C393.681 42.2173 392.343 40.8733 392.343 39.2173C392.343 37.5553 393.681 36.2173 395.343 36.2173C396.999 36.2173 398.343 37.5553 398.343 39.2173Z" fill="#E4B7FF"/>
<path d="M263.343 93.2173C263.343 94.8733 261.999 96.2173 260.343 96.2173C258.681 96.2173 257.343 94.8733 257.343 93.2173C257.343 91.5553 258.681 90.2173 260.343 90.2173C261.999 90.2173 263.343 91.5553 263.343 93.2173Z" fill="#E4B7FF"/>
<path d="M254.343 111.217C254.343 112.873 252.999 114.217 251.343 114.217C249.681 114.217 248.343 112.873 248.343 111.217C248.343 109.555 249.681 108.217 251.343 108.217C252.999 108.217 254.343 109.555 254.343 111.217Z" fill="#E4B7FF"/>
<path d="M371.343 39.2173C371.343 40.8733 369.999 42.2173 368.343 42.2173C366.681 42.2173 365.343 40.8733 365.343 39.2173C365.343 37.5553 366.681 36.2173 368.343 36.2173C369.999 36.2173 371.343 37.5553 371.343 39.2173Z" fill="#E4B7FF"/>
<path d="M335.343 57.2173C335.343 58.8733 333.999 60.2173 332.343 60.2173C330.681 60.2173 329.343 58.8733 329.343 57.2173C329.343 55.5553 330.681 54.2173 332.343 54.2173C333.999 54.2173 335.343 55.5553 335.343 57.2173Z" fill="#E4B7FF"/>
<path d="M155.343 111.217C155.343 112.873 153.999 114.217 152.343 114.217C150.681 114.217 149.343 112.873 149.343 111.217C149.343 109.555 150.681 108.217 152.343 108.217C153.999 108.217 155.343 109.555 155.343 111.217Z" fill="#E4B7FF"/>
<path d="M308.343 57.2173C308.343 58.8733 306.999 60.2173 305.343 60.2173C303.681 60.2173 302.343 58.8733 302.343 57.2173C302.343 55.5553 303.681 54.2173 305.343 54.2173C306.999 54.2173 308.343 55.5553 308.343 57.2173Z" fill="#E4B7FF"/>
<path d="M42.3428 30.2173C42.3428 31.8733 40.9988 33.2173 39.3428 33.2173C37.6808 33.2173 36.3428 31.8733 36.3428 30.2173C36.3428 28.5553 37.6808 27.2173 39.3428 27.2173C40.9988 27.2173 42.3428 28.5553 42.3428 30.2173Z" fill="#E4B7FF"/>
<path d="M294.343 48.2173C294.343 49.8733 292.999 51.2173 291.343 51.2173C289.681 51.2173 288.343 49.8733 288.343 48.2173C288.343 46.5553 289.681 45.2173 291.343 45.2173C292.999 45.2173 294.343 46.5553 294.343 48.2173Z" fill="#E4B7FF"/>
<path d="M96.3428 30.2173C96.3428 31.8733 94.9988 33.2173 93.3428 33.2173C91.6808 33.2173 90.3428 31.8733 90.3428 30.2173C90.3428 28.5553 91.6808 27.2173 93.3428 27.2173C94.9988 27.2173 96.3428 28.5553 96.3428 30.2173Z" fill="#E4B7FF"/>
<path d="M83.3428 93.2173C83.3428 94.8733 81.9988 96.2173 80.3428 96.2173C78.6808 96.2173 77.3428 94.8733 77.3428 93.2173C77.3428 91.5553 78.6808 90.2173 80.3428 90.2173C81.9988 90.2173 83.3428 91.5553 83.3428 93.2173Z" fill="#E4B7FF"/>
<path d="M317.343 93.2173C317.343 94.8733 315.999 96.2173 314.343 96.2173C312.681 96.2173 311.343 94.8733 311.343 93.2173C311.343 91.5553 312.681 90.2173 314.343 90.2173C315.999 90.2173 317.343 91.5553 317.343 93.2173Z" fill="#E4B7FF"/>
<path d="M83.3428 75.2173C83.3428 76.8733 81.9988 78.2173 80.3428 78.2173C78.6808 78.2173 77.3428 76.8733 77.3428 75.2173C77.3428 73.5553 78.6808 72.2173 80.3428 72.2173C81.9988 72.2173 83.3428 73.5553 83.3428 75.2173Z" fill="#E4B7FF"/>
<path d="M398.343 111.217C398.343 112.873 396.999 114.217 395.343 114.217C393.681 114.217 392.343 112.873 392.343 111.217C392.343 109.555 393.681 108.217 395.343 108.217C396.999 108.217 398.343 109.555 398.343 111.217Z" fill="#E4B7FF"/>
<path d="M168.343 66.2173C168.343 67.8733 166.999 69.2173 165.343 69.2173C163.681 69.2173 162.343 67.8733 162.343 66.2173C162.343 64.5553 163.681 63.2173 165.343 63.2173C166.999 63.2173 168.343 64.5553 168.343 66.2173Z" fill="#E4B7FF"/>
<path d="M33.3428 120.217C33.3428 121.873 31.9988 123.217 30.3428 123.217C28.6808 123.217 27.3428 121.873 27.3428 120.217C27.3428 118.555 28.6808 117.217 30.3428 117.217C31.9988 117.217 33.3428 118.555 33.3428 120.217Z" fill="#E4B7FF"/>
<path d="M263.343 57.2173C263.343 58.8733 261.999 60.2173 260.343 60.2173C258.681 60.2173 257.343 58.8733 257.343 57.2173C257.343 55.5553 258.681 54.2173 260.343 54.2173C261.999 54.2173 263.343 55.5553 263.343 57.2173Z" fill="#E4B7FF"/>
<path d="M339.343 102.217C339.343 103.873 337.999 105.217 336.343 105.217C334.681 105.217 333.343 103.873 333.343 102.217C333.343 100.555 334.681 99.2173 336.343 99.2173C337.999 99.2173 339.343 100.555 339.343 102.217Z" fill="#E4B7FF"/>
<path d="M276.343 66.2173C276.343 67.8733 274.999 69.2173 273.343 69.2173C271.681 69.2173 270.343 67.8733 270.343 66.2173C270.343 64.5553 271.681 63.2173 273.343 63.2173C274.999 63.2173 276.343 64.5553 276.343 66.2173Z" fill="#E4B7FF"/>
<path d="M105.343 66.2173C105.343 67.8733 103.999 69.2173 102.343 69.2173C100.681 69.2173 99.3428 67.8733 99.3428 66.2173C99.3428 64.5553 100.681 63.2173 102.343 63.2173C103.999 63.2173 105.343 64.5553 105.343 66.2173Z" fill="#E4B7FF"/>
<path d="M366.343 120.217C366.343 121.873 364.999 123.217 363.343 123.217C361.681 123.217 360.343 121.873 360.343 120.217C360.343 118.555 361.681 117.217 363.343 117.217C364.999 117.217 366.343 118.555 366.343 120.217Z" fill="#E4B7FF"/>
<path d="M78.3428 102.217C78.3428 103.873 76.9988 105.217 75.3428 105.217C73.6808 105.217 72.3428 103.873 72.3428 102.217C72.3428 100.555 73.6808 99.2173 75.3428 99.2173C76.9988 99.2173 78.3428 100.555 78.3428 102.217Z" fill="#E4B7FF"/>
<path d="M87.3428 30.2173C87.3428 31.8733 85.9988 33.2173 84.3428 33.2173C82.6808 33.2173 81.3428 31.8733 81.3428 30.2173C81.3428 28.5553 82.6808 27.2173 84.3428 27.2173C85.9988 27.2173 87.3428 28.5553 87.3428 30.2173Z" fill="#E4B7FF"/>
<path d="M218.343 111.217C218.343 112.873 216.999 114.217 215.343 114.217C213.681 114.217 212.343 112.873 212.343 111.217C212.343 109.555 213.681 108.217 215.343 108.217C216.999 108.217 218.343 109.555 218.343 111.217Z" fill="#E4B7FF"/>
<path d="M38.3428 75.2173C38.3428 76.8733 36.9988 78.2173 35.3428 78.2173C33.6808 78.2173 32.3428 76.8733 32.3428 75.2173C32.3428 73.5553 33.6808 72.2173 35.3428 72.2173C36.9988 72.2173 38.3428 73.5553 38.3428 75.2173Z" fill="#E4B7FF"/>
<path d="M240.343 102.217C240.343 103.873 238.999 105.217 237.343 105.217C235.681 105.217 234.343 103.873 234.343 102.217C234.343 100.555 235.681 99.2173 237.343 99.2173C238.999 99.2173 240.343 100.555 240.343 102.217Z" fill="#E4B7FF"/>
<path d="M146.343 75.2173C146.343 76.8733 144.999 78.2173 143.343 78.2173C141.681 78.2173 140.343 76.8733 140.343 75.2173C140.343 73.5553 141.681 72.2173 143.343 72.2173C144.999 72.2173 146.343 73.5553 146.343 75.2173Z" fill="#E4B7FF"/>
<path d="M276.343 138.217C276.343 139.873 274.999 141.217 273.343 141.217C271.681 141.217 270.343 139.873 270.343 138.217C270.343 136.555 271.681 135.217 273.343 135.217C274.999 135.217 276.343 136.555 276.343 138.217Z" fill="#E4B7FF"/>
<path d="M146.343 93.2173C146.343 94.8733 144.999 96.2173 143.343 96.2173C141.681 96.2173 140.343 94.8733 140.343 93.2173C140.343 91.5553 141.681 90.2173 143.343 90.2173C144.999 90.2173 146.343 91.5553 146.343 93.2173Z" fill="#E4B7FF"/>
<path d="M92.3428 57.2173C92.3428 58.8733 90.9988 60.2173 89.3428 60.2173C87.6808 60.2173 86.3428 58.8733 86.3428 57.2173C86.3428 55.5553 87.6808 54.2173 89.3428 54.2173C90.9988 54.2173 92.3428 55.5553 92.3428 57.2173Z" fill="#E4B7FF"/>
<path d="M51.3428 48.2173C51.3428 49.8733 49.9988 51.2173 48.3428 51.2173C46.6808 51.2173 45.3428 49.8733 45.3428 48.2173C45.3428 46.5553 46.6808 45.2173 48.3428 45.2173C49.9988 45.2173 51.3428 46.5553 51.3428 48.2173Z" fill="#E4B7FF"/>
<path d="M402.343 66.2173C402.343 67.8733 400.999 69.2173 399.343 69.2173C397.681 69.2173 396.343 67.8733 396.343 66.2173C396.343 64.5553 397.681 63.2173 399.343 63.2173C400.999 63.2173 402.343 64.5553 402.343 66.2173Z" fill="#E4B7FF"/>
<path d="M123.343 102.217C123.343 103.873 121.999 105.217 120.343 105.217C118.681 105.217 117.343 103.873 117.343 102.217C117.343 100.555 118.681 99.2173 120.343 99.2173C121.999 99.2173 123.343 100.555 123.343 102.217Z" fill="#E4B7FF"/>
<path d="M74.3428 39.2173C74.3428 40.8733 72.9988 42.2173 71.3428 42.2173C69.6808 42.2173 68.3428 40.8733 68.3428 39.2173C68.3428 37.5553 69.6808 36.2173 71.3428 36.2173C72.9988 36.2173 74.3428 37.5553 74.3428 39.2173Z" fill="#E4B7FF"/>
<path d="M258.343 84.2173C258.343 85.8733 256.999 87.2173 255.343 87.2173C253.681 87.2173 252.343 85.8733 252.343 84.2173C252.343 82.5553 253.681 81.2173 255.343 81.2173C256.999 81.2173 258.343 82.5553 258.343 84.2173Z" fill="#E4B7FF"/>
<path d="M78.3428 48.2173C78.3428 49.8733 76.9988 51.2173 75.3428 51.2173C73.6808 51.2173 72.3428 49.8733 72.3428 48.2173C72.3428 46.5553 73.6808 45.2173 75.3428 45.2173C76.9988 45.2173 78.3428 46.5553 78.3428 48.2173Z" fill="#E4B7FF"/>
<path d="M74.3428 21.2173C74.3428 22.8733 72.9988 24.2173 71.3428 24.2173C69.6808 24.2173 68.3428 22.8733 68.3428 21.2173C68.3428 19.5553 69.6808 18.2173 71.3428 18.2173C72.9988 18.2173 74.3428 19.5553 74.3428 21.2173Z" fill="#E4B7FF"/>
<path d="M227.343 75.2173C227.343 76.8733 225.999 78.2173 224.343 78.2173C222.681 78.2173 221.343 76.8733 221.343 75.2173C221.343 73.5553 222.681 72.2173 224.343 72.2173C225.999 72.2173 227.343 73.5553 227.343 75.2173Z" fill="#E4B7FF"/>
<path d="M416.343 39.2173C416.343 40.8733 414.999 42.2173 413.343 42.2173C411.681 42.2173 410.343 40.8733 410.343 39.2173C410.343 37.5553 411.681 36.2173 413.343 36.2173C414.999 36.2173 416.343 37.5553 416.343 39.2173Z" fill="#E4B7FF"/>
<path d="M74.3428 93.2173C74.3428 94.8733 72.9988 96.2173 71.3428 96.2173C69.6808 96.2173 68.3428 94.8733 68.3428 93.2173C68.3428 91.5553 69.6808 90.2173 71.3428 90.2173C72.9988 90.2173 74.3428 91.5553 74.3428 93.2173Z" fill="#E4B7FF"/>
<path d="M38.3428 111.217C38.3428 112.873 36.9988 114.217 35.3428 114.217C33.6808 114.217 32.3428 112.873 32.3428 111.217C32.3428 109.555 33.6808 108.217 35.3428 108.217C36.9988 108.217 38.3428 109.555 38.3428 111.217Z" fill="#E4B7FF"/>
<path d="M330.343 48.2173C330.343 49.8733 328.999 51.2173 327.343 51.2173C325.681 51.2173 324.343 49.8733 324.343 48.2173C324.343 46.5553 325.681 45.2173 327.343 45.2173C328.999 45.2173 330.343 46.5553 330.343 48.2173Z" fill="#E4B7FF"/>
<path d="M254.343 129.217C254.343 130.873 252.999 132.217 251.343 132.217C249.681 132.217 248.343 130.873 248.343 129.217C248.343 127.555 249.681 126.217 251.343 126.217C252.999 126.217 254.343 127.555 254.343 129.217Z" fill="#E4B7FF"/>
<path d="M105.343 84.2173C105.343 85.8733 103.999 87.2173 102.343 87.2173C100.681 87.2173 99.3428 85.8733 99.3428 84.2173C99.3428 82.5553 100.681 81.2173 102.343 81.2173C103.999 81.2173 105.343 82.5553 105.343 84.2173Z" fill="#E4B7FF"/>
<path d="M78.3428 12.2173C78.3428 13.8733 76.9988 15.2173 75.3428 15.2173C73.6808 15.2173 72.3428 13.8733 72.3428 12.2173C72.3428 10.5553 73.6808 9.21732 75.3428 9.21732C76.9988 9.21732 78.3428 10.5553 78.3428 12.2173Z" fill="#E4B7FF"/>
<path d="M389.343 75.2173C389.343 76.8733 387.999 78.2173 386.343 78.2173C384.681 78.2173 383.343 76.8733 383.343 75.2173C383.343 73.5553 384.681 72.2173 386.343 72.2173C387.999 72.2173 389.343 73.5553 389.343 75.2173Z" fill="#E4B7FF"/>
<path d="M339.343 66.2173C339.343 67.8733 337.999 69.2173 336.343 69.2173C334.681 69.2173 333.343 67.8733 333.343 66.2173C333.343 64.5553 334.681 63.2173 336.343 63.2173C337.999 63.2173 339.343 64.5553 339.343 66.2173Z" fill="#E4B7FF"/>
<path d="M96.3428 48.2173C96.3428 49.8733 94.9988 51.2173 93.3428 51.2173C91.6808 51.2173 90.3428 49.8733 90.3428 48.2173C90.3428 46.5553 91.6808 45.2173 93.3428 45.2173C94.9988 45.2173 96.3428 46.5553 96.3428 48.2173Z" fill="#E4B7FF"/>
<path d="M101.343 111.217C101.343 112.873 99.9988 114.217 98.3428 114.217C96.6808 114.217 95.3428 112.873 95.3428 111.217C95.3428 109.555 96.6808 108.217 98.3428 108.217C99.9988 108.217 101.343 109.555 101.343 111.217Z" fill="#E4B7FF"/>
<path d="M236.343 93.2173C236.343 94.8733 234.999 96.2173 233.343 96.2173C231.681 96.2173 230.343 94.8733 230.343 93.2173C230.343 91.5553 231.681 90.2173 233.343 90.2173C234.999 90.2173 236.343 91.5553 236.343 93.2173Z" fill="#E4B7FF"/>
<path d="M42.3428 48.2173C42.3428 49.8733 40.9988 51.2173 39.3428 51.2173C37.6808 51.2173 36.3428 49.8733 36.3428 48.2173C36.3428 46.5553 37.6808 45.2173 39.3428 45.2173C40.9988 45.2173 42.3428 46.5553 42.3428 48.2173Z" fill="#E4B7FF"/>
<path d="M272.343 75.2173C272.343 76.8733 270.999 78.2173 269.343 78.2173C267.681 78.2173 266.343 76.8733 266.343 75.2173C266.343 73.5553 267.681 72.2173 269.343 72.2173C270.999 72.2173 272.343 73.5553 272.343 75.2173Z" fill="#E4B7FF"/>
<path d="M92.3428 39.2173C92.3428 40.8733 90.9988 42.2173 89.3428 42.2173C87.6808 42.2173 86.3428 40.8733 86.3428 39.2173C86.3428 37.5553 87.6808 36.2173 89.3428 36.2173C90.9988 36.2173 92.3428 37.5553 92.3428 39.2173Z" fill="#E4B7FF"/>
<path d="M393.343 120.217C393.343 121.873 391.999 123.217 390.343 123.217C388.681 123.217 387.343 121.873 387.343 120.217C387.343 118.555 388.681 117.217 390.343 117.217C391.999 117.217 393.343 118.555 393.343 120.217Z" fill="#E4B7FF"/>
<path d="M231.343 84.2173C231.343 85.8733 229.999 87.2173 228.343 87.2173C226.681 87.2173 225.343 85.8733 225.343 84.2173C225.343 82.5553 226.681 81.2173 228.343 81.2173C229.999 81.2173 231.343 82.5553 231.343 84.2173Z" fill="#E4B7FF"/>
<path d="M92.3428 21.2173C92.3428 22.8733 90.9988 24.2173 89.3428 24.2173C87.6808 24.2173 86.3428 22.8733 86.3428 21.2173C86.3428 19.5553 87.6808 18.2173 89.3428 18.2173C90.9988 18.2173 92.3428 19.5553 92.3428 21.2173Z" fill="#E4B7FF"/>
<path d="M87.3428 66.2173C87.3428 67.8733 85.9988 69.2173 84.3428 69.2173C82.6808 69.2173 81.3428 67.8733 81.3428 66.2173C81.3428 64.5553 82.6808 63.2173 84.3428 63.2173C85.9988 63.2173 87.3428 64.5553 87.3428 66.2173Z" fill="#E4B7FF"/>
<path d="M60.3428 12.2173C60.3428 13.8733 58.9988 15.2173 57.3428 15.2173C55.6808 15.2173 54.3428 13.8733 54.3428 12.2173C54.3428 10.5553 55.6808 9.21732 57.3428 9.21732C58.9988 9.21732 60.3428 10.5553 60.3428 12.2173Z" fill="#E4B7FF"/>
<path d="M168.343 120.217C168.343 121.873 166.999 123.217 165.343 123.217C163.681 123.217 162.343 121.873 162.343 120.217C162.343 118.555 163.681 117.217 165.343 117.217C166.999 117.217 168.343 118.555 168.343 120.217Z" fill="#E4B7FF"/>
<path d="M321.343 102.217C321.343 103.873 319.999 105.217 318.343 105.217C316.681 105.217 315.343 103.873 315.343 102.217C315.343 100.555 316.681 99.2173 318.343 99.2173C319.999 99.2173 321.343 100.555 321.343 102.217Z" fill="#E4B7FF"/>
<path d="M51.3428 30.2173C51.3428 31.8733 49.9988 33.2173 48.3428 33.2173C46.6808 33.2173 45.3428 31.8733 45.3428 30.2173C45.3428 28.5553 46.6808 27.2173 48.3428 27.2173C49.9988 27.2173 51.3428 28.5553 51.3428 30.2173Z" fill="#E4B7FF"/>
<path d="M231.343 120.217C231.343 121.873 229.999 123.217 228.343 123.217C226.681 123.217 225.343 121.873 225.343 120.217C225.343 118.555 226.681 117.217 228.343 117.217C229.999 117.217 231.343 118.555 231.343 120.217Z" fill="#E4B7FF"/>
<path d="M222.343 120.217C222.343 121.873 220.999 123.217 219.343 123.217C217.681 123.217 216.343 121.873 216.343 120.217C216.343 118.555 217.681 117.217 219.343 117.217C220.999 117.217 222.343 118.555 222.343 120.217Z" fill="#E4B7FF"/>
<path d="M353.343 129.217C353.343 130.873 351.999 132.217 350.343 132.217C348.681 132.217 347.343 130.873 347.343 129.217C347.343 127.555 348.681 126.217 350.343 126.217C351.999 126.217 353.343 127.555 353.343 129.217Z" fill="#E4B7FF"/>
<path d="M393.343 84.2173C393.343 85.8733 391.999 87.2173 390.343 87.2173C388.681 87.2173 387.343 85.8733 387.343 84.2173C387.343 82.5553 388.681 81.2173 390.343 81.2173C391.999 81.2173 393.343 82.5553 393.343 84.2173Z" fill="#E4B7FF"/>
<path d="M398.343 75.2173C398.343 76.8733 396.999 78.2173 395.343 78.2173C393.681 78.2173 392.343 76.8733 392.343 75.2173C392.343 73.5553 393.681 72.2173 395.343 72.2173C396.999 72.2173 398.343 73.5553 398.343 75.2173Z" fill="#E4B7FF"/>
<path d="M344.343 111.217C344.343 112.873 342.999 114.217 341.343 114.217C339.681 114.217 338.343 112.873 338.343 111.217C338.343 109.555 339.681 108.217 341.343 108.217C342.999 108.217 344.343 109.555 344.343 111.217Z" fill="#E4B7FF"/>
<path d="M222.343 138.217C222.343 139.873 220.999 141.217 219.343 141.217C217.681 141.217 216.343 139.873 216.343 138.217C216.343 136.555 217.681 135.217 219.343 135.217C220.999 135.217 222.343 136.555 222.343 138.217Z" fill="#E4B7FF"/>
<path d="M33.3428 66.2173C33.3428 67.8733 31.9988 69.2173 30.3428 69.2173C28.6808 69.2173 27.3428 67.8733 27.3428 66.2173C27.3428 64.5553 28.6808 63.2173 30.3428 63.2173C31.9988 63.2173 33.3428 64.5553 33.3428 66.2173Z" fill="#E4B7FF"/>
<path d="M65.3428 93.2173C65.3428 94.8733 63.9988 96.2173 62.3428 96.2173C60.6808 96.2173 59.3428 94.8733 59.3428 93.2173C59.3428 91.5553 60.6808 90.2173 62.3428 90.2173C63.9988 90.2173 65.3428 91.5553 65.3428 93.2173Z" fill="#E4B7FF"/>
<path d="M213.343 66.2173C213.343 67.8733 211.999 69.2173 210.343 69.2173C208.681 69.2173 207.343 67.8733 207.343 66.2173C207.343 64.5553 208.681 63.2173 210.343 63.2173C211.999 63.2173 213.343 64.5553 213.343 66.2173Z" fill="#E4B7FF"/>
<path d="M267.343 84.2173C267.343 85.8733 265.999 87.2173 264.343 87.2173C262.681 87.2173 261.343 85.8733 261.343 84.2173C261.343 82.5553 262.681 81.2173 264.343 81.2173C265.999 81.2173 267.343 82.5553 267.343 84.2173Z" fill="#E4B7FF"/>
<path d="M330.343 120.217C330.343 121.873 328.999 123.217 327.343 123.217C325.681 123.217 324.343 121.873 324.343 120.217C324.343 118.555 325.681 117.217 327.343 117.217C328.999 117.217 330.343 118.555 330.343 120.217Z" fill="#E4B7FF"/>
<path d="M407.343 129.217C407.343 130.873 405.999 132.217 404.343 132.217C402.681 132.217 401.343 130.873 401.343 129.217C401.343 127.555 402.681 126.217 404.343 126.217C405.999 126.217 407.343 127.555 407.343 129.217Z" fill="#E4B7FF"/>
<path d="M218.343 93.2173C218.343 94.8733 216.999 96.2173 215.343 96.2173C213.681 96.2173 212.343 94.8733 212.343 93.2173C212.343 91.5553 213.681 90.2173 215.343 90.2173C216.999 90.2173 218.343 91.5553 218.343 93.2173Z" fill="#E4B7FF"/>
<path d="M110.343 93.2173C110.343 94.8733 108.999 96.2173 107.343 96.2173C105.681 96.2173 104.343 94.8733 104.343 93.2173C104.343 91.5553 105.681 90.2173 107.343 90.2173C108.999 90.2173 110.343 91.5553 110.343 93.2173Z" fill="#E4B7FF"/>
<path d="M380.343 129.217C380.343 130.873 378.999 132.217 377.343 132.217C375.681 132.217 374.343 130.873 374.343 129.217C374.343 127.555 375.681 126.217 377.343 126.217C378.999 126.217 380.343 127.555 380.343 129.217Z" fill="#E4B7FF"/>
<path d="M191.343 129.217C191.343 130.873 189.999 132.217 188.343 132.217C186.681 132.217 185.343 130.873 185.343 129.217C185.343 127.555 186.681 126.217 188.343 126.217C189.999 126.217 191.343 127.555 191.343 129.217Z" fill="#E4B7FF"/>
<path d="M60.3428 30.2173C60.3428 31.8733 58.9988 33.2173 57.3428 33.2173C55.6808 33.2173 54.3428 31.8733 54.3428 30.2173C54.3428 28.5553 55.6808 27.2173 57.3428 27.2173C58.9988 27.2173 60.3428 28.5553 60.3428 30.2173Z" fill="#E4B7FF"/>
<path d="M407.343 93.2173C407.343 94.8733 405.999 96.2173 404.343 96.2173C402.681 96.2173 401.343 94.8733 401.343 93.2173C401.343 91.5553 402.681 90.2173 404.343 90.2173C405.999 90.2173 407.343 91.5553 407.343 93.2173Z" fill="#E4B7FF"/>
<path d="M101.343 57.2173C101.343 58.8733 99.9988 60.2173 98.3428 60.2173C96.6808 60.2173 95.3428 58.8733 95.3428 57.2173C95.3428 55.5553 96.6808 54.2173 98.3428 54.2173C99.9988 54.2173 101.343 55.5553 101.343 57.2173Z" fill="#E4B7FF"/>
<path d="M87.3428 84.2173C87.3428 85.8733 85.9988 87.2173 84.3428 87.2173C82.6808 87.2173 81.3428 85.8733 81.3428 84.2173C81.3428 82.5553 82.6808 81.2173 84.3428 81.2173C85.9988 81.2173 87.3428 82.5553 87.3428 84.2173Z" fill="#E4B7FF"/>
<path d="M164.343 75.2173C164.343 76.8733 162.999 78.2173 161.343 78.2173C159.681 78.2173 158.343 76.8733 158.343 75.2173C158.343 73.5553 159.681 72.2173 161.343 72.2173C162.999 72.2173 164.343 73.5553 164.343 75.2173Z" fill="#E4B7FF"/>
<path d="M132.343 138.217C132.343 139.873 130.999 141.217 129.343 141.217C127.681 141.217 126.343 139.873 126.343 138.217C126.343 136.555 127.681 135.217 129.343 135.217C130.999 135.217 132.343 136.555 132.343 138.217Z" fill="#E4B7FF"/>
<path d="M146.343 57.2173C146.343 58.8733 144.999 60.2173 143.343 60.2173C141.681 60.2173 140.343 58.8733 140.343 57.2173C140.343 55.5553 141.681 54.2173 143.343 54.2173C144.999 54.2173 146.343 55.5553 146.343 57.2173Z" fill="#E4B7FF"/>
<path d="M56.3428 3.21732C56.3428 4.87332 54.9988 6.21732 53.3428 6.21732C51.6808 6.21732 50.3428 4.87332 50.3428 3.21732C50.3428 1.55532 51.6808 0.217316 53.3428 0.217316C54.9988 0.217316 56.3428 1.55532 56.3428 3.21732Z" fill="#E4B7FF"/>
<path d="M263.343 111.217C263.343 112.873 261.999 114.217 260.343 114.217C258.681 114.217 257.343 112.873 257.343 111.217C257.343 109.555 258.681 108.217 260.343 108.217C261.999 108.217 263.343 109.555 263.343 111.217Z" fill="#E4B7FF"/>
<path d="M254.343 93.2173C254.343 94.8733 252.999 96.2173 251.343 96.2173C249.681 96.2173 248.343 94.8733 248.343 93.2173C248.343 91.5553 249.681 90.2173 251.343 90.2173C252.999 90.2173 254.343 91.5553 254.343 93.2173Z" fill="#E4B7FF"/>
<path d="M335.343 75.2173C335.343 76.8733 333.999 78.2173 332.343 78.2173C330.681 78.2173 329.343 76.8733 329.343 75.2173C329.343 73.5553 330.681 72.2173 332.343 72.2173C333.999 72.2173 335.343 73.5553 335.343 75.2173Z" fill="#E4B7FF"/>
<path d="M240.343 84.2173C240.343 85.8733 238.999 87.2173 237.343 87.2173C235.681 87.2173 234.343 85.8733 234.343 84.2173C234.343 82.5553 235.681 81.2173 237.343 81.2173C238.999 81.2173 240.343 82.5553 240.343 84.2173Z" fill="#E4B7FF"/>
<path d="M51.3428 102.217C51.3428 103.873 49.9988 105.217 48.3428 105.217C46.6808 105.217 45.3428 103.873 45.3428 102.217C45.3428 100.555 46.6808 99.2173 48.3428 99.2173C49.9988 99.2173 51.3428 100.555 51.3428 102.217Z" fill="#E4B7FF"/>
<path d="M218.343 75.2173C218.343 76.8733 216.999 78.2173 215.343 78.2173C213.681 78.2173 212.343 76.8733 212.343 75.2173C212.343 73.5553 213.681 72.2173 215.343 72.2173C216.999 72.2173 218.343 73.5553 218.343 75.2173Z" fill="#E4B7FF"/>
<path d="M123.343 120.217C123.343 121.873 121.999 123.217 120.343 123.217C118.681 123.217 117.343 121.873 117.343 120.217C117.343 118.555 118.681 117.217 120.343 117.217C121.999 117.217 123.343 118.555 123.343 120.217Z" fill="#E4B7FF"/>
<path d="M231.343 48.2173C231.343 49.8733 229.999 51.2173 228.343 51.2173C226.681 51.2173 225.343 49.8733 225.343 48.2173C225.343 46.5553 226.681 45.2173 228.343 45.2173C229.999 45.2173 231.343 46.5553 231.343 48.2173Z" fill="#E4B7FF"/>
<path d="M20.3428 129.217C20.3428 130.873 18.9988 132.217 17.3428 132.217C15.6808 132.217 14.3428 130.873 14.3428 129.217C14.3428 127.555 15.6808 126.217 17.3428 126.217C18.9988 126.217 20.3428 127.555 20.3428 129.217Z" fill="#E4B7FF"/>
<path d="M114.343 102.217C114.343 103.873 112.999 105.217 111.343 105.217C109.681 105.217 108.343 103.873 108.343 102.217C108.343 100.555 109.681 99.2173 111.343 99.2173C112.999 99.2173 114.343 100.555 114.343 102.217Z" fill="#E4B7FF"/>
<path d="M227.343 39.2173C227.343 40.8733 225.999 42.2173 224.343 42.2173C222.681 42.2173 221.343 40.8733 221.343 39.2173C221.343 37.5553 222.681 36.2173 224.343 36.2173C225.999 36.2173 227.343 37.5553 227.343 39.2173Z" fill="#E4B7FF"/>
<path d="M114.343 138.217C114.343 139.873 112.999 141.217 111.343 141.217C109.681 141.217 108.343 139.873 108.343 138.217C108.343 136.555 109.681 135.217 111.343 135.217C112.999 135.217 114.343 136.555 114.343 138.217Z" fill="#E4B7FF"/>
<path d="M357.343 120.217C357.343 121.873 355.999 123.217 354.343 123.217C352.681 123.217 351.343 121.873 351.343 120.217C351.343 118.555 352.681 117.217 354.343 117.217C355.999 117.217 357.343 118.555 357.343 120.217Z" fill="#E4B7FF"/>
<path d="M173.343 111.217C173.343 112.873 171.999 114.217 170.343 114.217C168.681 114.217 167.343 112.873 167.343 111.217C167.343 109.555 168.681 108.217 170.343 108.217C171.999 108.217 173.343 109.555 173.343 111.217Z" fill="#E4B7FF"/>
<path d="M96.3428 66.2173C96.3428 67.8733 94.9988 69.2173 93.3428 69.2173C91.6808 69.2173 90.3428 67.8733 90.3428 66.2173C90.3428 64.5553 91.6808 63.2173 93.3428 63.2173C94.9988 63.2173 96.3428 64.5553 96.3428 66.2173Z" fill="#E4B7FF"/>
<path d="M357.343 48.2173C357.343 49.8733 355.999 51.2173 354.343 51.2173C352.681 51.2173 351.343 49.8733 351.343 48.2173C351.343 46.5553 352.681 45.2173 354.343 45.2173C355.999 45.2173 357.343 46.5553 357.343 48.2173Z" fill="#E4B7FF"/>
<path d="M236.343 129.217C236.343 130.873 234.999 132.217 233.343 132.217C231.681 132.217 230.343 130.873 230.343 129.217C230.343 127.555 231.681 126.217 233.343 126.217C234.999 126.217 236.343 127.555 236.343 129.217Z" fill="#E4B7FF"/>
<path d="M155.343 39.2173C155.343 40.8733 153.999 42.2173 152.343 42.2173C150.681 42.2173 149.343 40.8733 149.343 39.2173C149.343 37.5553 150.681 36.2173 152.343 36.2173C153.999 36.2173 155.343 37.5553 155.343 39.2173Z" fill="#E4B7FF"/>
<path d="M267.343 120.217C267.343 121.873 265.999 123.217 264.343 123.217C262.681 123.217 261.343 121.873 261.343 120.217C261.343 118.555 262.681 117.217 264.343 117.217C265.999 117.217 267.343 118.555 267.343 120.217Z" fill="#E4B7FF"/>
<path d="M83.3428 39.2173C83.3428 40.8733 81.9988 42.2173 80.3428 42.2173C78.6808 42.2173 77.3428 40.8733 77.3428 39.2173C77.3428 37.5553 78.6808 36.2173 80.3428 36.2173C81.9988 36.2173 83.3428 37.5553 83.3428 39.2173Z" fill="#E4B7FF"/>
<path d="M407.343 75.2173C407.343 76.8733 405.999 78.2173 404.343 78.2173C402.681 78.2173 401.343 76.8733 401.343 75.2173C401.343 73.5553 402.681 72.2173 404.343 72.2173C405.999 72.2173 407.343 73.5553 407.343 75.2173Z" fill="#E4B7FF"/>
<path d="M393.343 138.217C393.343 139.873 391.999 141.217 390.343 141.217C388.681 141.217 387.343 139.873 387.343 138.217C387.343 136.555 388.681 135.217 390.343 135.217C391.999 135.217 393.343 136.555 393.343 138.217Z" fill="#E4B7FF"/>
<path d="M195.343 138.217C195.343 139.873 193.999 141.217 192.343 141.217C190.681 141.217 189.343 139.873 189.343 138.217C189.343 136.555 190.681 135.217 192.343 135.217C193.999 135.217 195.343 136.555 195.343 138.217Z" fill="#E4B7FF"/>
<path d="M344.343 129.217C344.343 130.873 342.999 132.217 341.343 132.217C339.681 132.217 338.343 130.873 338.343 129.217C338.343 127.555 339.681 126.217 341.343 126.217C342.999 126.217 344.343 127.555 344.343 129.217Z" fill="#E4B7FF"/>
<path d="M213.343 84.2173C213.343 85.8733 211.999 87.2173 210.343 87.2173C208.681 87.2173 207.343 85.8733 207.343 84.2173C207.343 82.5553 208.681 81.2173 210.343 81.2173C211.999 81.2173 213.343 82.5553 213.343 84.2173Z" fill="#E4B7FF"/>
<path d="M114.343 120.217C114.343 121.873 112.999 123.217 111.343 123.217C109.681 123.217 108.343 121.873 108.343 120.217C108.343 118.555 109.681 117.217 111.343 117.217C112.999 117.217 114.343 118.555 114.343 120.217Z" fill="#E4B7FF"/>
<path d="M65.3428 3.21732C65.3428 4.87332 63.9988 6.21732 62.3428 6.21732C60.6808 6.21732 59.3428 4.87332 59.3428 3.21732C59.3428 1.55532 60.6808 0.217316 62.3428 0.217316C63.9988 0.217316 65.3428 1.55532 65.3428 3.21732Z" fill="#E4B7FF"/>
<path d="M56.3428 111.217C56.3428 112.873 54.9988 114.217 53.3428 114.217C51.6808 114.217 50.3428 112.873 50.3428 111.217C50.3428 109.555 51.6808 108.217 53.3428 108.217C54.9988 108.217 56.3428 109.555 56.3428 111.217Z" fill="#E4B7FF"/>
<path d="M348.343 138.217C348.343 139.873 346.999 141.217 345.343 141.217C343.681 141.217 342.343 139.873 342.343 138.217C342.343 136.555 343.681 135.217 345.343 135.217C346.999 135.217 348.343 136.555 348.343 138.217Z" fill="#E4B7FF"/>
<path d="M411.343 120.217C411.343 121.873 409.999 123.217 408.343 123.217C406.681 123.217 405.343 121.873 405.343 120.217C405.343 118.555 406.681 117.217 408.343 117.217C409.999 117.217 411.343 118.555 411.343 120.217Z" fill="#E4B7FF"/>
<path d="M56.3428 39.2173C56.3428 40.8733 54.9988 42.2173 53.3428 42.2173C51.6808 42.2173 50.3428 40.8733 50.3428 39.2173C50.3428 37.5553 51.6808 36.2173 53.3428 36.2173C54.9988 36.2173 56.3428 37.5553 56.3428 39.2173Z" fill="#E4B7FF"/>
<path d="M47.3428 111.217C47.3428 112.873 45.9988 114.217 44.3428 114.217C42.6808 114.217 41.3428 112.873 41.3428 111.217C41.3428 109.555 42.6808 108.217 44.3428 108.217C45.9988 108.217 47.3428 109.555 47.3428 111.217Z" fill="#E4B7FF"/>
<path d="M384.343 48.2173C384.343 49.8733 382.999 51.2173 381.343 51.2173C379.681 51.2173 378.343 49.8733 378.343 48.2173C378.343 46.5553 379.681 45.2173 381.343 45.2173C382.999 45.2173 384.343 46.5553 384.343 48.2173Z" fill="#E4B7FF"/>
<path d="M312.343 102.217C312.343 103.873 310.999 105.217 309.343 105.217C307.681 105.217 306.343 103.873 306.343 102.217C306.343 100.555 307.681 99.2173 309.343 99.2173C310.999 99.2173 312.343 100.555 312.343 102.217Z" fill="#E4B7FF"/>
<path d="M326.343 111.217C326.343 112.873 324.999 114.217 323.343 114.217C321.681 114.217 320.343 112.873 320.343 111.217C320.343 109.555 321.681 108.217 323.343 108.217C324.999 108.217 326.343 109.555 326.343 111.217Z" fill="#E4B7FF"/>
<path d="M218.343 57.2173C218.343 58.8733 216.999 60.2173 215.343 60.2173C213.681 60.2173 212.343 58.8733 212.343 57.2173C212.343 55.5553 213.681 54.2173 215.343 54.2173C216.999 54.2173 218.343 55.5553 218.343 57.2173Z" fill="#E4B7FF"/>
<path d="M375.343 120.217C375.343 121.873 373.999 123.217 372.343 123.217C370.681 123.217 369.343 121.873 369.343 120.217C369.343 118.555 370.681 117.217 372.343 117.217C373.999 117.217 375.343 118.555 375.343 120.217Z" fill="#E4B7FF"/>
<path d="M272.343 57.2173C272.343 58.8733 270.999 60.2173 269.343 60.2173C267.681 60.2173 266.343 58.8733 266.343 57.2173C266.343 55.5553 267.681 54.2173 269.343 54.2173C270.999 54.2173 272.343 55.5553 272.343 57.2173Z" fill="#E4B7FF"/>
<path d="M258.343 102.217C258.343 103.873 256.999 105.217 255.343 105.217C253.681 105.217 252.343 103.873 252.343 102.217C252.343 100.555 253.681 99.2173 255.343 99.2173C256.999 99.2173 258.343 100.555 258.343 102.217Z" fill="#E4B7FF"/>
<path d="M330.343 66.2173C330.343 67.8733 328.999 69.2173 327.343 69.2173C325.681 69.2173 324.343 67.8733 324.343 66.2173C324.343 64.5553 325.681 63.2173 327.343 63.2173C328.999 63.2173 330.343 64.5553 330.343 66.2173Z" fill="#E4B7FF"/>
<path d="M119.343 111.217C119.343 112.873 117.999 114.217 116.343 114.217C114.681 114.217 113.343 112.873 113.343 111.217C113.343 109.555 114.681 108.217 116.343 108.217C117.999 108.217 119.343 109.555 119.343 111.217Z" fill="#E4B7FF"/>
<path d="M29.3428 75.2173C29.3428 76.8733 27.9988 78.2173 26.3428 78.2173C24.6808 78.2173 23.3428 76.8733 23.3428 75.2173C23.3428 73.5553 24.6808 72.2173 26.3428 72.2173C27.9988 72.2173 29.3428 73.5553 29.3428 75.2173Z" fill="#E4B7FF"/>
<path d="M317.343 75.2173C317.343 76.8733 315.999 78.2173 314.343 78.2173C312.681 78.2173 311.343 76.8733 311.343 75.2173C311.343 73.5553 312.681 72.2173 314.343 72.2173C315.999 72.2173 317.343 73.5553 317.343 75.2173Z" fill="#E4B7FF"/>
<path d="M182.343 129.217C182.343 130.873 180.999 132.217 179.343 132.217C177.681 132.217 176.343 130.873 176.343 129.217C176.343 127.555 177.681 126.217 179.343 126.217C180.999 126.217 182.343 127.555 182.343 129.217Z" fill="#E4B7FF"/>
<path d="M407.343 57.2173C407.343 58.8733 405.999 60.2173 404.343 60.2173C402.681 60.2173 401.343 58.8733 401.343 57.2173C401.343 55.5553 402.681 54.2173 404.343 54.2173C405.999 54.2173 407.343 55.5553 407.343 57.2173Z" fill="#E4B7FF"/>
<path d="M272.343 111.217C272.343 112.873 270.999 114.217 269.343 114.217C267.681 114.217 266.343 112.873 266.343 111.217C266.343 109.555 267.681 108.217 269.343 108.217C270.999 108.217 272.343 109.555 272.343 111.217Z" fill="#E4B7FF"/>
<path d="M231.343 66.2173C231.343 67.8733 229.999 69.2173 228.343 69.2173C226.681 69.2173 225.343 67.8733 225.343 66.2173C225.343 64.5553 226.681 63.2173 228.343 63.2173C229.999 63.2173 231.343 64.5553 231.343 66.2173Z" fill="#E4B7FF"/>
<path d="M209.343 129.217C209.343 130.873 207.999 132.217 206.343 132.217C204.681 132.217 203.343 130.873 203.343 129.217C203.343 127.555 204.681 126.217 206.343 126.217C207.999 126.217 209.343 127.555 209.343 129.217Z" fill="#E4B7FF"/>
<path d="M168.343 84.2173C168.343 85.8733 166.999 87.2173 165.343 87.2173C163.681 87.2173 162.343 85.8733 162.343 84.2173C162.343 82.5553 163.681 81.2173 165.343 81.2173C166.999 81.2173 168.343 82.5553 168.343 84.2173Z" fill="#E4B7FF"/>
<path d="M213.343 48.2173C213.343 49.8733 211.999 51.2173 210.343 51.2173C208.681 51.2173 207.343 49.8733 207.343 48.2173C207.343 46.5553 208.681 45.2173 210.343 45.2173C211.999 45.2173 213.343 46.5553 213.343 48.2173Z" fill="#E4B7FF"/>
<path d="M263.343 39.2173C263.343 40.8733 261.999 42.2173 260.343 42.2173C258.681 42.2173 257.343 40.8733 257.343 39.2173C257.343 37.5553 258.681 36.2173 260.343 36.2173C261.999 36.2173 263.343 37.5553 263.343 39.2173Z" fill="#E4B7FF"/>
<path d="M411.343 102.217C411.343 103.873 409.999 105.217 408.343 105.217C406.681 105.217 405.343 103.873 405.343 102.217C405.343 100.555 406.681 99.2173 408.343 99.2173C409.999 99.2173 411.343 100.555 411.343 102.217Z" fill="#E4B7FF"/>
<path d="M159.343 66.2173C159.343 67.8733 157.999 69.2173 156.343 69.2173C154.681 69.2173 153.343 67.8733 153.343 66.2173C153.343 64.5553 154.681 63.2173 156.343 63.2173C157.999 63.2173 159.343 64.5553 159.343 66.2173Z" fill="#E4B7FF"/>
<path d="M78.3428 30.2173C78.3428 31.8733 76.9988 33.2173 75.3428 33.2173C73.6808 33.2173 72.3428 31.8733 72.3428 30.2173C72.3428 28.5553 73.6808 27.2173 75.3428 27.2173C76.9988 27.2173 78.3428 28.5553 78.3428 30.2173Z" fill="#E4B7FF"/>
<path d="M416.343 129.217C416.343 130.873 414.999 132.217 413.343 132.217C411.681 132.217 410.343 130.873 410.343 129.217C410.343 127.555 411.681 126.217 413.343 126.217C414.999 126.217 416.343 127.555 416.343 129.217Z" fill="#E4B7FF"/>
<path d="M164.343 39.2173C164.343 40.8733 162.999 42.2173 161.343 42.2173C159.681 42.2173 158.343 40.8733 158.343 39.2173C158.343 37.5553 159.681 36.2173 161.343 36.2173C162.999 36.2173 164.343 37.5553 164.343 39.2173Z" fill="#E4B7FF"/>
<path d="M42.3428 102.217C42.3428 103.873 40.9988 105.217 39.3428 105.217C37.6808 105.217 36.3428 103.873 36.3428 102.217C36.3428 100.555 37.6808 99.2173 39.3428 99.2173C40.9988 99.2173 42.3428 100.555 42.3428 102.217Z" fill="#E4B7FF"/>
<path d="M236.343 75.2173C236.343 76.8733 234.999 78.2173 233.343 78.2173C231.681 78.2173 230.343 76.8733 230.343 75.2173C230.343 73.5553 231.681 72.2173 233.343 72.2173C234.999 72.2173 236.343 73.5553 236.343 75.2173Z" fill="#E4B7FF"/>
<path d="M11.3428 129.217C11.3428 130.873 9.99877 132.217 8.34277 132.217C6.68077 132.217 5.34277 130.873 5.34277 129.217C5.34277 127.555 6.68077 126.217 8.34277 126.217C9.99877 126.217 11.3428 127.555 11.3428 129.217Z" fill="#E4B7FF"/>
<path d="M29.3428 93.2173C29.3428 94.8733 27.9988 96.2173 26.3428 96.2173C24.6808 96.2173 23.3428 94.8733 23.3428 93.2173C23.3428 91.5553 24.6808 90.2173 26.3428 90.2173C27.9988 90.2173 29.3428 91.5553 29.3428 93.2173Z" fill="#E4B7FF"/>
<path d="M384.343 120.217C384.343 121.873 382.999 123.217 381.343 123.217C379.681 123.217 378.343 121.873 378.343 120.217C378.343 118.555 379.681 117.217 381.343 117.217C382.999 117.217 384.343 118.555 384.343 120.217Z" fill="#E4B7FF"/>
<path d="M236.343 57.2173C236.343 58.8733 234.999 60.2173 233.343 60.2173C231.681 60.2173 230.343 58.8733 230.343 57.2173C230.343 55.5553 231.681 54.2173 233.343 54.2173C234.999 54.2173 236.343 55.5553 236.343 57.2173Z" fill="#E4B7FF"/>
<path d="M240.343 138.217C240.343 139.873 238.999 141.217 237.343 141.217C235.681 141.217 234.343 139.873 234.343 138.217C234.343 136.555 235.681 135.217 237.343 135.217C238.999 135.217 240.343 136.555 240.343 138.217Z" fill="#E4B7FF"/>
<path d="M65.3428 21.2173C65.3428 22.8733 63.9988 24.2173 62.3428 24.2173C60.6808 24.2173 59.3428 22.8733 59.3428 21.2173C59.3428 19.5553 60.6808 18.2173 62.3428 18.2173C63.9988 18.2173 65.3428 19.5553 65.3428 21.2173Z" fill="#E4B7FF"/>
<path d="M24.3428 102.217C24.3428 103.873 22.9988 105.217 21.3428 105.217C19.6808 105.217 18.3428 103.873 18.3428 102.217C18.3428 100.555 19.6808 99.2173 21.3428 99.2173C22.9988 99.2173 24.3428 100.555 24.3428 102.217Z" fill="#E4B7FF"/>
<path d="M276.343 120.217C276.343 121.873 274.999 123.217 273.343 123.217C271.681 123.217 270.343 121.873 270.343 120.217C270.343 118.555 271.681 117.217 273.343 117.217C274.999 117.217 276.343 118.555 276.343 120.217Z" fill="#E4B7FF"/>
<path d="M56.3428 57.2173C56.3428 58.8733 54.9988 60.2173 53.3428 60.2173C51.6808 60.2173 50.3428 58.8733 50.3428 57.2173C50.3428 55.5553 51.6808 54.2173 53.3428 54.2173C54.9988 54.2173 56.3428 55.5553 56.3428 57.2173Z" fill="#E4B7FF"/>
<path d="M119.343 129.217C119.343 130.873 117.999 132.217 116.343 132.217C114.681 132.217 113.343 130.873 113.343 129.217C113.343 127.555 114.681 126.217 116.343 126.217C117.999 126.217 119.343 127.555 119.343 129.217Z" fill="#E4B7FF"/>
<path d="M159.343 120.217C159.343 121.873 157.999 123.217 156.343 123.217C154.681 123.217 153.343 121.873 153.343 120.217C153.343 118.555 154.681 117.217 156.343 117.217C157.999 117.217 159.343 118.555 159.343 120.217Z" fill="#E4B7FF"/>
<path d="M209.343 111.217C209.343 112.873 207.999 114.217 206.343 114.217C204.681 114.217 203.343 112.873 203.343 111.217C203.343 109.555 204.681 108.217 206.343 108.217C207.999 108.217 209.343 109.555 209.343 111.217Z" fill="#E4B7FF"/>
<path d="M312.343 84.2173C312.343 85.8733 310.999 87.2173 309.343 87.2173C307.681 87.2173 306.343 85.8733 306.343 84.2173C306.343 82.5553 307.681 81.2173 309.343 81.2173C310.999 81.2173 312.343 82.5553 312.343 84.2173Z" fill="#E4B7FF"/>
<path d="M240.343 48.2173C240.343 49.8733 238.999 51.2173 237.343 51.2173C235.681 51.2173 234.343 49.8733 234.343 48.2173C234.343 46.5553 235.681 45.2173 237.343 45.2173C238.999 45.2173 240.343 46.5553 240.343 48.2173Z" fill="#E4B7FF"/>
<path d="M60.3428 102.217C60.3428 103.873 58.9988 105.217 57.3428 105.217C55.6808 105.217 54.3428 103.873 54.3428 102.217C54.3428 100.555 55.6808 99.2173 57.3428 99.2173C58.9988 99.2173 60.3428 100.555 60.3428 102.217Z" fill="#E4B7FF"/>
<path d="M87.3428 12.2173C87.3428 13.8733 85.9988 15.2173 84.3428 15.2173C82.6808 15.2173 81.3428 13.8733 81.3428 12.2173C81.3428 10.5553 82.6808 9.21732 84.3428 9.21732C85.9988 9.21732 87.3428 10.5553 87.3428 12.2173Z" fill="#E4B7FF"/>
<path d="M263.343 129.217C263.343 130.873 261.999 132.217 260.343 132.217C258.681 132.217 257.343 130.873 257.343 129.217C257.343 127.555 258.681 126.217 260.343 126.217C261.999 126.217 263.343 127.555 263.343 129.217Z" fill="#E4B7FF"/>
<path d="M281.343 57.2173C281.343 58.8733 279.999 60.2173 278.343 60.2173C276.681 60.2173 275.343 58.8733 275.343 57.2173C275.343 55.5553 276.681 54.2173 278.343 54.2173C279.999 54.2173 281.343 55.5553 281.343 57.2173Z" fill="#E4B7FF"/>
<path d="M348.343 66.2173C348.343 67.8733 346.999 69.2173 345.343 69.2173C343.681 69.2173 342.343 67.8733 342.343 66.2173C342.343 64.5553 343.681 63.2173 345.343 63.2173C346.999 63.2173 348.343 64.5553 348.343 66.2173Z" fill="#E4B7FF"/>
<path d="M204.343 120.217C204.343 121.873 202.999 123.217 201.343 123.217C199.681 123.217 198.343 121.873 198.343 120.217C198.343 118.555 199.681 117.217 201.343 117.217C202.999 117.217 204.343 118.555 204.343 120.217Z" fill="#E4B7FF"/>
<path d="M389.343 57.2173C389.343 58.8733 387.999 60.2173 386.343 60.2173C384.681 60.2173 383.343 58.8733 383.343 57.2173C383.343 55.5553 384.681 54.2173 386.343 54.2173C387.999 54.2173 389.343 55.5553 389.343 57.2173Z" fill="#E4B7FF"/>
<path d="M366.343 138.217C366.343 139.873 364.999 141.217 363.343 141.217C361.681 141.217 360.343 139.873 360.343 138.217C360.343 136.555 361.681 135.217 363.343 135.217C364.999 135.217 366.343 136.555 366.343 138.217Z" fill="#E4B7FF"/>
<path d="M227.343 129.217C227.343 130.873 225.999 132.217 224.343 132.217C222.681 132.217 221.343 130.873 221.343 129.217C221.343 127.555 222.681 126.217 224.343 126.217C225.999 126.217 227.343 127.555 227.343 129.217Z" fill="#E4B7FF"/>
<path d="M227.343 93.2173C227.343 94.8733 225.999 96.2173 224.343 96.2173C222.681 96.2173 221.343 94.8733 221.343 93.2173C221.343 91.5553 222.681 90.2173 224.343 90.2173C225.999 90.2173 227.343 91.5553 227.343 93.2173Z" fill="#E4B7FF"/>
<path d="M101.343 75.2173C101.343 76.8733 99.9988 78.2173 98.3428 78.2173C96.6808 78.2173 95.3428 76.8733 95.3428 75.2173C95.3428 73.5553 96.6808 72.2173 98.3428 72.2173C99.9988 72.2173 101.343 73.5553 101.343 75.2173Z" fill="#E4B7FF"/>
<path d="M348.343 48.2173C348.343 49.8733 346.999 51.2173 345.343 51.2173C343.681 51.2173 342.343 49.8733 342.343 48.2173C342.343 46.5553 343.681 45.2173 345.343 45.2173C346.999 45.2173 348.343 46.5553 348.343 48.2173Z" fill="#E4B7FF"/>
<path d="M303.343 48.2173C303.343 49.8733 301.999 51.2173 300.343 51.2173C298.681 51.2173 297.343 49.8733 297.343 48.2173C297.343 46.5553 298.681 45.2173 300.343 45.2173C301.999 45.2173 303.343 46.5553 303.343 48.2173Z" fill="#E4B7FF"/>
<path d="M222.343 102.217C222.343 103.873 220.999 105.217 219.343 105.217C217.681 105.217 216.343 103.873 216.343 102.217C216.343 100.555 217.681 99.2173 219.343 99.2173C220.999 99.2173 222.343 100.555 222.343 102.217Z" fill="#E4B7FF"/>
<path d="M276.343 102.217C276.343 103.873 274.999 105.217 273.343 105.217C271.681 105.217 270.343 103.873 270.343 102.217C270.343 100.555 271.681 99.2173 273.343 99.2173C274.999 99.2173 276.343 100.555 276.343 102.217Z" fill="#E4B7FF"/>
<path d="M222.343 84.2173C222.343 85.8733 220.999 87.2173 219.343 87.2173C217.681 87.2173 216.343 85.8733 216.343 84.2173C216.343 82.5553 217.681 81.2173 219.343 81.2173C220.999 81.2173 222.343 82.5553 222.343 84.2173Z" fill="#E4B7FF"/>
<path d="M83.3428 3.21732C83.3428 4.87332 81.9988 6.21732 80.3428 6.21732C78.6808 6.21732 77.3428 4.87332 77.3428 3.21732C77.3428 1.55532 78.6808 0.217316 80.3428 0.217316C81.9988 0.217316 83.3428 1.55532 83.3428 3.21732Z" fill="#E4B7FF"/>
<path d="M398.343 129.217C398.343 130.873 396.999 132.217 395.343 132.217C393.681 132.217 392.343 130.873 392.343 129.217C392.343 127.555 393.681 126.217 395.343 126.217C396.999 126.217 398.343 127.555 398.343 129.217Z" fill="#E4B7FF"/>
<path d="M402.343 84.2173C402.343 85.8733 400.999 87.2173 399.343 87.2173C397.681 87.2173 396.343 85.8733 396.343 84.2173C396.343 82.5553 397.681 81.2173 399.343 81.2173C400.999 81.2173 402.343 82.5553 402.343 84.2173Z" fill="#E4B7FF"/>
<path d="M272.343 129.217C272.343 130.873 270.999 132.217 269.343 132.217C267.681 132.217 266.343 130.873 266.343 129.217C266.343 127.555 267.681 126.217 269.343 126.217C270.999 126.217 272.343 127.555 272.343 129.217Z" fill="#E4B7FF"/>
<path d="M105.343 138.217C105.343 139.873 103.999 141.217 102.343 141.217C100.681 141.217 99.3428 139.873 99.3428 138.217C99.3428 136.555 100.681 135.217 102.343 135.217C103.999 135.217 105.343 136.555 105.343 138.217Z" fill="#E4B7FF"/>
<path d="M339.343 48.2173C339.343 49.8733 337.999 51.2173 336.343 51.2173C334.681 51.2173 333.343 49.8733 333.343 48.2173C333.343 46.5553 334.681 45.2173 336.343 45.2173C337.999 45.2173 339.343 46.5553 339.343 48.2173Z" fill="#E4B7FF"/>
<path d="M402.343 48.2173C402.343 49.8733 400.999 51.2173 399.343 51.2173C397.681 51.2173 396.343 49.8733 396.343 48.2173C396.343 46.5553 397.681 45.2173 399.343 45.2173C400.999 45.2173 402.343 46.5553 402.343 48.2173Z" fill="#E4B7FF"/>
<path d="M168.343 48.2173C168.343 49.8733 166.999 51.2173 165.343 51.2173C163.681 51.2173 162.343 49.8733 162.343 48.2173C162.343 46.5553 163.681 45.2173 165.343 45.2173C166.999 45.2173 168.343 46.5553 168.343 48.2173Z" fill="#E4B7FF"/>
<path d="M56.3428 93.2173C56.3428 94.8733 54.9988 96.2173 53.3428 96.2173C51.6808 96.2173 50.3428 94.8733 50.3428 93.2173C50.3428 91.5553 51.6808 90.2173 53.3428 90.2173C54.9988 90.2173 56.3428 91.5553 56.3428 93.2173Z" fill="#E4B7FF"/>
<path d="M218.343 129.217C218.343 130.873 216.999 132.217 215.343 132.217C213.681 132.217 212.343 130.873 212.343 129.217C212.343 127.555 213.681 126.217 215.343 126.217C216.999 126.217 218.343 127.555 218.343 129.217Z" fill="#E4B7FF"/>
<path d="M236.343 39.2173C236.343 40.8733 234.999 42.2173 233.343 42.2173C231.681 42.2173 230.343 40.8733 230.343 39.2173C230.343 37.5553 231.681 36.2173 233.343 36.2173C234.999 36.2173 236.343 37.5553 236.343 39.2173Z" fill="#E4B7FF"/>
<path d="M200.343 129.217C200.343 130.873 198.999 132.217 197.343 132.217C195.681 132.217 194.343 130.873 194.343 129.217C194.343 127.555 195.681 126.217 197.343 126.217C198.999 126.217 200.343 127.555 200.343 129.217Z" fill="#E4B7FF"/>
<path d="M155.343 75.2173C155.343 76.8733 153.999 78.2173 152.343 78.2173C150.681 78.2173 149.343 76.8733 149.343 75.2173C149.343 73.5553 150.681 72.2173 152.343 72.2173C153.999 72.2173 155.343 73.5553 155.343 75.2173Z" fill="#E4B7FF"/>
<path d="M321.343 66.2173C321.343 67.8733 319.999 69.2173 318.343 69.2173C316.681 69.2173 315.343 67.8733 315.343 66.2173C315.343 64.5553 316.681 63.2173 318.343 63.2173C319.999 63.2173 321.343 64.5553 321.343 66.2173Z" fill="#E4B7FF"/>
<path d="M69.3428 102.217C69.3428 103.873 67.9988 105.217 66.3428 105.217C64.6808 105.217 63.3428 103.873 63.3428 102.217C63.3428 100.555 64.6808 99.2173 66.3428 99.2173C67.9988 99.2173 69.3428 100.555 69.3428 102.217Z" fill="#E4B7FF"/>
<path d="M74.3428 111.217C74.3428 112.873 72.9988 114.217 71.3428 114.217C69.6808 114.217 68.3428 112.873 68.3428 111.217C68.3428 109.555 69.6808 108.217 71.3428 108.217C72.9988 108.217 74.3428 109.555 74.3428 111.217Z" fill="#E4B7FF"/>
<path d="M321.343 120.217C321.343 121.873 319.999 123.217 318.343 123.217C316.681 123.217 315.343 121.873 315.343 120.217C315.343 118.555 316.681 117.217 318.343 117.217C319.999 117.217 321.343 118.555 321.343 120.217Z" fill="#E4B7FF"/>
<path d="M15.3428 102.217C15.3428 103.873 13.9988 105.217 12.3428 105.217C10.6808 105.217 9.34277 103.873 9.34277 102.217C9.34277 100.555 10.6808 99.2173 12.3428 99.2173C13.9988 99.2173 15.3428 100.555 15.3428 102.217Z" fill="#E4B7FF"/>
<path d="M362.343 129.217C362.343 130.873 360.999 132.217 359.343 132.217C357.681 132.217 356.343 130.873 356.343 129.217C356.343 127.555 357.681 126.217 359.343 126.217C360.999 126.217 362.343 127.555 362.343 129.217Z" fill="#E4B7FF"/>
<path d="M353.343 57.2173C353.343 58.8733 351.999 60.2173 350.343 60.2173C348.681 60.2173 347.343 58.8733 347.343 57.2173C347.343 55.5553 348.681 54.2173 350.343 54.2173C351.999 54.2173 353.343 55.5553 353.343 57.2173Z" fill="#E4B7FF"/>
<path d="M326.343 93.2173C326.343 94.8733 324.999 96.2173 323.343 96.2173C321.681 96.2173 320.343 94.8733 320.343 93.2173C320.343 91.5553 321.681 90.2173 323.343 90.2173C324.999 90.2173 326.343 91.5553 326.343 93.2173Z" fill="#E4B7FF"/>
<path d="M164.343 93.2173C164.343 94.8733 162.999 96.2173 161.343 96.2173C159.681 96.2173 158.343 94.8733 158.343 93.2173C158.343 91.5553 159.681 90.2173 161.343 90.2173C162.999 90.2173 164.343 91.5553 164.343 93.2173Z" fill="#E4B7FF"/>
<path d="M398.343 93.2173C398.343 94.8733 396.999 96.2173 395.343 96.2173C393.681 96.2173 392.343 94.8733 392.343 93.2173C392.343 91.5553 393.681 90.2173 395.343 90.2173C396.999 90.2173 398.343 91.5553 398.343 93.2173Z" fill="#E4B7FF"/>
<path d="M254.343 75.2173C254.343 76.8733 252.999 78.2173 251.343 78.2173C249.681 78.2173 248.343 76.8733 248.343 75.2173C248.343 73.5553 249.681 72.2173 251.343 72.2173C252.999 72.2173 254.343 73.5553 254.343 75.2173Z" fill="#E4B7FF"/>
<path d="M159.343 48.2173C159.343 49.8733 157.999 51.2173 156.343 51.2173C154.681 51.2173 153.343 49.8733 153.343 48.2173C153.343 46.5553 154.681 45.2173 156.343 45.2173C157.999 45.2173 159.343 46.5553 159.343 48.2173Z" fill="#E4B7FF"/>
<path d="M83.3428 111.217C83.3428 112.873 81.9988 114.217 80.3428 114.217C78.6808 114.217 77.3428 112.873 77.3428 111.217C77.3428 109.555 78.6808 108.217 80.3428 108.217C81.9988 108.217 83.3428 109.555 83.3428 111.217Z" fill="#E4B7FF"/>
<path d="M272.343 93.2173C272.343 94.8733 270.999 96.2173 269.343 96.2173C267.681 96.2173 266.343 94.8733 266.343 93.2173C266.343 91.5553 267.681 90.2173 269.343 90.2173C270.999 90.2173 272.343 91.5553 272.343 93.2173Z" fill="#E4B7FF"/>
<path d="M272.343 39.2173C272.343 40.8733 270.999 42.2173 269.343 42.2173C267.681 42.2173 266.343 40.8733 266.343 39.2173C266.343 37.5553 267.681 36.2173 269.343 36.2173C270.999 36.2173 272.343 37.5553 272.343 39.2173Z" fill="#E4B7FF"/>
<path d="M362.343 57.2173C362.343 58.8733 360.999 60.2173 359.343 60.2173C357.681 60.2173 356.343 58.8733 356.343 57.2173C356.343 55.5553 357.681 54.2173 359.343 54.2173C360.999 54.2173 362.343 55.5553 362.343 57.2173Z" fill="#E4B7FF"/>
<path d="M29.3428 111.217C29.3428 112.873 27.9988 114.217 26.3428 114.217C24.6808 114.217 23.3428 112.873 23.3428 111.217C23.3428 109.555 24.6808 108.217 26.3428 108.217C27.9988 108.217 29.3428 109.555 29.3428 111.217Z" fill="#E4B7FF"/>
<path d="M231.343 102.217C231.343 103.873 229.999 105.217 228.343 105.217C226.681 105.217 225.343 103.873 225.343 102.217C225.343 100.555 226.681 99.2173 228.343 99.2173C229.999 99.2173 231.343 100.555 231.343 102.217Z" fill="#E4B7FF"/>
<path d="M195.343 120.217C195.343 121.873 193.999 123.217 192.343 123.217C190.681 123.217 189.343 121.873 189.343 120.217C189.343 118.555 190.681 117.217 192.343 117.217C193.999 117.217 195.343 118.555 195.343 120.217Z" fill="#E4B7FF"/>
<path d="M281.343 75.2173C281.343 76.8733 279.999 78.2173 278.343 78.2173C276.681 78.2173 275.343 76.8733 275.343 75.2173C275.343 73.5553 276.681 72.2173 278.343 72.2173C279.999 72.2173 281.343 73.5553 281.343 75.2173Z" fill="#E4B7FF"/>
<path d="M42.3428 84.2173C42.3428 85.8733 40.9988 87.2173 39.3428 87.2173C37.6808 87.2173 36.3428 85.8733 36.3428 84.2173C36.3428 82.5553 37.6808 81.2173 39.3428 81.2173C40.9988 81.2173 42.3428 82.5553 42.3428 84.2173Z" fill="#E4B7FF"/>
<path d="M393.343 102.217C393.343 103.873 391.999 105.217 390.343 105.217C388.681 105.217 387.343 103.873 387.343 102.217C387.343 100.555 388.681 99.2173 390.343 99.2173C391.999 99.2173 393.343 100.555 393.343 102.217Z" fill="#E4B7FF"/>
<path d="M267.343 66.2173C267.343 67.8733 265.999 69.2173 264.343 69.2173C262.681 69.2173 261.343 67.8733 261.343 66.2173C261.343 64.5553 262.681 63.2173 264.343 63.2173C265.999 63.2173 267.343 64.5553 267.343 66.2173Z" fill="#E4B7FF"/>
<path d="M177.343 120.217C177.343 121.873 175.999 123.217 174.343 123.217C172.681 123.217 171.343 121.873 171.343 120.217C171.343 118.555 172.681 117.217 174.343 117.217C175.999 117.217 177.343 118.555 177.343 120.217Z" fill="#E4B7FF"/>
<path d="M164.343 57.2173C164.343 58.8733 162.999 60.2173 161.343 60.2173C159.681 60.2173 158.343 58.8733 158.343 57.2173C158.343 55.5553 159.681 54.2173 161.343 54.2173C162.999 54.2173 164.343 55.5553 164.343 57.2173Z" fill="#E4B7FF"/>
<path d="M150.343 48.2173C150.343 49.8733 148.999 51.2173 147.343 51.2173C145.681 51.2173 144.343 49.8733 144.343 48.2173C144.343 46.5553 145.681 45.2173 147.343 45.2173C148.999 45.2173 150.343 46.5553 150.343 48.2173Z" fill="#E4B7FF"/>
<path d="M276.343 48.2173C276.343 49.8733 274.999 51.2173 273.343 51.2173C271.681 51.2173 270.343 49.8733 270.343 48.2173C270.343 46.5553 271.681 45.2173 273.343 45.2173C274.999 45.2173 276.343 46.5553 276.343 48.2173Z" fill="#E4B7FF"/>
<path d="M411.343 84.2173C411.343 85.8733 409.999 87.2173 408.343 87.2173C406.681 87.2173 405.343 85.8733 405.343 84.2173C405.343 82.5553 406.681 81.2173 408.343 81.2173C409.999 81.2173 411.343 82.5553 411.343 84.2173Z" fill="#E4B7FF"/>
<path d="M353.343 39.2173C353.343 40.8733 351.999 42.2173 350.343 42.2173C348.681 42.2173 347.343 40.8733 347.343 39.2173C347.343 37.5553 348.681 36.2173 350.343 36.2173C351.999 36.2173 353.343 37.5553 353.343 39.2173Z" fill="#E4B7FF"/>
<path d="M330.343 102.217C330.343 103.873 328.999 105.217 327.343 105.217C325.681 105.217 324.343 103.873 324.343 102.217C324.343 100.555 325.681 99.2173 327.343 99.2173C328.999 99.2173 330.343 100.555 330.343 102.217Z" fill="#E4B7FF"/>
<path d="M339.343 120.217C339.343 121.873 337.999 123.217 336.343 123.217C334.681 123.217 333.343 121.873 333.343 120.217C333.343 118.555 334.681 117.217 336.343 117.217C337.999 117.217 339.343 118.555 339.343 120.217Z" fill="#E4B7FF"/>
<path d="M47.3428 93.2173C47.3428 94.8733 45.9988 96.2173 44.3428 96.2173C42.6808 96.2173 41.3428 94.8733 41.3428 93.2173C41.3428 91.5553 42.6808 90.2173 44.3428 90.2173C45.9988 90.2173 47.3428 91.5553 47.3428 93.2173Z" fill="#E4B7FF"/>
<path d="M218.343 39.2173C218.343 40.8733 216.999 42.2173 215.343 42.2173C213.681 42.2173 212.343 40.8733 212.343 39.2173C212.343 37.5553 213.681 36.2173 215.343 36.2173C216.999 36.2173 218.343 37.5553 218.343 39.2173Z" fill="#E4B7FF"/>
<path d="M240.343 66.2173C240.343 67.8733 238.999 69.2173 237.343 69.2173C235.681 69.2173 234.343 67.8733 234.343 66.2173C234.343 64.5553 235.681 63.2173 237.343 63.2173C238.999 63.2173 240.343 64.5553 240.343 66.2173Z" fill="#E4B7FF"/>
<path d="M96.3428 84.2173C96.3428 85.8733 94.9988 87.2173 93.3428 87.2173C91.6808 87.2173 90.3428 85.8733 90.3428 84.2173C90.3428 82.5553 91.6808 81.2173 93.3428 81.2173C94.9988 81.2173 96.3428 82.5553 96.3428 84.2173Z" fill="#E4B7FF"/>
<path d="M105.343 120.217C105.343 121.873 103.999 123.217 102.343 123.217C100.681 123.217 99.3428 121.873 99.3428 120.217C99.3428 118.555 100.681 117.217 102.343 117.217C103.999 117.217 105.343 118.555 105.343 120.217Z" fill="#E4B7FF"/>
<path d="M33.3428 102.217C33.3428 103.873 31.9988 105.217 30.3428 105.217C28.6808 105.217 27.3428 103.873 27.3428 102.217C27.3428 100.555 28.6808 99.2173 30.3428 99.2173C31.9988 99.2173 33.3428 100.555 33.3428 102.217Z" fill="#E4B7FF"/>
<path d="M155.343 93.2173C155.343 94.8733 153.999 96.2173 152.343 96.2173C150.681 96.2173 149.343 94.8733 149.343 93.2173C149.343 91.5553 150.681 90.2173 152.343 90.2173C153.999 90.2173 155.343 91.5553 155.343 93.2173Z" fill="#E4B7FF"/>
<path d="M375.343 48.2173C375.343 49.8733 373.999 51.2173 372.343 51.2173C370.681 51.2173 369.343 49.8733 369.343 48.2173C369.343 46.5553 370.681 45.2173 372.343 45.2173C373.999 45.2173 375.343 46.5553 375.343 48.2173Z" fill="#E4B7FF"/>
<path d="M299.343 57.2173C299.343 58.8733 297.999 60.2173 296.343 60.2173C294.681 60.2173 293.343 58.8733 293.343 57.2173C293.343 55.5553 294.681 54.2173 296.343 54.2173C297.999 54.2173 299.343 55.5553 299.343 57.2173Z" fill="#E4B7FF"/>
<path d="M227.343 57.2173C227.343 58.8733 225.999 60.2173 224.343 60.2173C222.681 60.2173 221.343 58.8733 221.343 57.2173C221.343 55.5553 222.681 54.2173 224.343 54.2173C225.999 54.2173 227.343 55.5553 227.343 57.2173Z" fill="#E4B7FF"/>
<path d="M308.343 39.2173C308.343 40.8733 306.999 42.2173 305.343 42.2173C303.681 42.2173 302.343 40.8733 302.343 39.2173C302.343 37.5553 303.681 36.2173 305.343 36.2173C306.999 36.2173 308.343 37.5553 308.343 39.2173Z" fill="#E4B7FF"/>
<path d="M276.343 84.2173C276.343 85.8733 274.999 87.2173 273.343 87.2173C271.681 87.2173 270.343 85.8733 270.343 84.2173C270.343 82.5553 271.681 81.2173 273.343 81.2173C274.999 81.2173 276.343 82.5553 276.343 84.2173Z" fill="#E4B7FF"/>
<path d="M60.3428 48.2173C60.3428 49.8733 58.9988 51.2173 57.3428 51.2173C55.6808 51.2173 54.3428 49.8733 54.3428 48.2173C54.3428 46.5553 55.6808 45.2173 57.3428 45.2173C58.9988 45.2173 60.3428 46.5553 60.3428 48.2173Z" fill="#E4B7FF"/>
<path d="M87.3428 102.217C87.3428 103.873 85.9988 105.217 84.3428 105.217C82.6808 105.217 81.3428 103.873 81.3428 102.217C81.3428 100.555 82.6808 99.2173 84.3428 99.2173C85.9988 99.2173 87.3428 100.555 87.3428 102.217Z" fill="#E4B7FF"/>
<path d="M177.343 138.217C177.343 139.873 175.999 141.217 174.343 141.217C172.681 141.217 171.343 139.873 171.343 138.217C171.343 136.555 172.681 135.217 174.343 135.217C175.999 135.217 177.343 136.555 177.343 138.217Z" fill="#E4B7FF"/>
<path d="M92.3428 75.2173C92.3428 76.8733 90.9988 78.2173 89.3428 78.2173C87.6808 78.2173 86.3428 76.8733 86.3428 75.2173C86.3428 73.5553 87.6808 72.2173 89.3428 72.2173C90.9988 72.2173 92.3428 73.5553 92.3428 75.2173Z" fill="#E4B7FF"/>
<path d="M29.3428 129.217C29.3428 130.873 27.9988 132.217 26.3428 132.217C24.6808 132.217 23.3428 130.873 23.3428 129.217C23.3428 127.555 24.6808 126.217 26.3428 126.217C27.9988 126.217 29.3428 127.555 29.3428 129.217Z" fill="#E4B7FF"/>
<path d="M398.343 57.2173C398.343 58.8733 396.999 60.2173 395.343 60.2173C393.681 60.2173 392.343 58.8733 392.343 57.2173C392.343 55.5553 393.681 54.2173 395.343 54.2173C396.999 54.2173 398.343 55.5553 398.343 57.2173Z" fill="#E4B7FF"/>
<path d="M326.343 57.2173C326.343 58.8733 324.999 60.2173 323.343 60.2173C321.681 60.2173 320.343 58.8733 320.343 57.2173C320.343 55.5553 321.681 54.2173 323.343 54.2173C324.999 54.2173 326.343 55.5553 326.343 57.2173Z" fill="#E4B7FF"/>
<path d="M24.3428 84.2173C24.3428 85.8733 22.9988 87.2173 21.3428 87.2173C19.6808 87.2173 18.3428 85.8733 18.3428 84.2173C18.3428 82.5553 19.6808 81.2173 21.3428 81.2173C22.9988 81.2173 24.3428 82.5553 24.3428 84.2173Z" fill="#E4B7FF"/>
<path d="M38.3428 39.2173C38.3428 40.8733 36.9988 42.2173 35.3428 42.2173C33.6808 42.2173 32.3428 40.8733 32.3428 39.2173C32.3428 37.5553 33.6808 36.2173 35.3428 36.2173C36.9988 36.2173 38.3428 37.5553 38.3428 39.2173Z" fill="#E4B7FF"/>
<path d="M267.343 48.2173C267.343 49.8733 265.999 51.2173 264.343 51.2173C262.681 51.2173 261.343 49.8733 261.343 48.2173C261.343 46.5553 262.681 45.2173 264.343 45.2173C265.999 45.2173 267.343 46.5553 267.343 48.2173Z" fill="#E4B7FF"/>
<path d="M15.3428 138.217C15.3428 139.873 13.9988 141.217 12.3428 141.217C10.6808 141.217 9.34277 139.873 9.34277 138.217C9.34277 136.555 10.6808 135.217 12.3428 135.217C13.9988 135.217 15.3428 136.555 15.3428 138.217Z" fill="#E4B7FF"/>
<path d="M222.343 48.2173C222.343 49.8733 220.999 51.2173 219.343 51.2173C217.681 51.2173 216.343 49.8733 216.343 48.2173C216.343 46.5553 217.681 45.2173 219.343 45.2173C220.999 45.2173 222.343 46.5553 222.343 48.2173Z" fill="#E4B7FF"/>
<path d="M285.343 66.2173C285.343 67.8733 283.999 69.2173 282.343 69.2173C280.681 69.2173 279.343 67.8733 279.343 66.2173C279.343 64.5553 280.681 63.2173 282.343 63.2173C283.999 63.2173 285.343 64.5553 285.343 66.2173Z" fill="#E4B7FF"/>
<path d="M155.343 129.217C155.343 130.873 153.999 132.217 152.343 132.217C150.681 132.217 149.343 130.873 149.343 129.217C149.343 127.555 150.681 126.217 152.343 126.217C153.999 126.217 155.343 127.555 155.343 129.217Z" fill="#E4B7FF"/>
<path d="M393.343 48.2173C393.343 49.8733 391.999 51.2173 390.343 51.2173C388.681 51.2173 387.343 49.8733 387.343 48.2173C387.343 46.5553 388.681 45.2173 390.343 45.2173C391.999 45.2173 393.343 46.5553 393.343 48.2173Z" fill="#E4B7FF"/>
<path d="M47.3428 75.2173C47.3428 76.8733 45.9988 78.2173 44.3428 78.2173C42.6808 78.2173 41.3428 76.8733 41.3428 75.2173C41.3428 73.5553 42.6808 72.2173 44.3428 72.2173C45.9988 72.2173 47.3428 73.5553 47.3428 75.2173Z" fill="#E4B7FF"/>
<path d="M146.343 111.217C146.343 112.873 144.999 114.217 143.343 114.217C141.681 114.217 140.343 112.873 140.343 111.217C140.343 109.555 141.681 108.217 143.343 108.217C144.999 108.217 146.343 109.555 146.343 111.217Z" fill="#E4B7FF"/>
<path d="M150.343 84.2173C150.343 85.8733 148.999 87.2173 147.343 87.2173C145.681 87.2173 144.343 85.8733 144.343 84.2173C144.343 82.5553 145.681 81.2173 147.343 81.2173C148.999 81.2173 150.343 82.5553 150.343 84.2173Z" fill="#E4B7FF"/>
<path d="M186.343 138.217C186.343 139.873 184.999 141.217 183.343 141.217C181.681 141.217 180.343 139.873 180.343 138.217C180.343 136.555 181.681 135.217 183.343 135.217C184.999 135.217 186.343 136.555 186.343 138.217Z" fill="#E4B7FF"/>
<path d="M38.3428 93.2173C38.3428 94.8733 36.9988 96.2173 35.3428 96.2173C33.6808 96.2173 32.3428 94.8733 32.3428 93.2173C32.3428 91.5553 33.6808 90.2173 35.3428 90.2173C36.9988 90.2173 38.3428 91.5553 38.3428 93.2173Z" fill="#E4B7FF"/>
<path d="M159.343 102.217C159.343 103.873 157.999 105.217 156.343 105.217C154.681 105.217 153.343 103.873 153.343 102.217C153.343 100.555 154.681 99.2173 156.343 99.2173C157.999 99.2173 159.343 100.555 159.343 102.217Z" fill="#E4B7FF"/>
<path d="M411.343 48.2173C411.343 49.8733 409.999 51.2173 408.343 51.2173C406.681 51.2173 405.343 49.8733 405.343 48.2173C405.343 46.5553 406.681 45.2173 408.343 45.2173C409.999 45.2173 411.343 46.5553 411.343 48.2173Z" fill="#E4B7FF"/>
<path d="M47.3428 57.2173C47.3428 58.8733 45.9988 60.2173 44.3428 60.2173C42.6808 60.2173 41.3428 58.8733 41.3428 57.2173C41.3428 55.5553 42.6808 54.2173 44.3428 54.2173C45.9988 54.2173 47.3428 55.5553 47.3428 57.2173Z" fill="#E4B7FF"/>
<path d="M83.3428 21.2173C83.3428 22.8733 81.9988 24.2173 80.3428 24.2173C78.6808 24.2173 77.3428 22.8733 77.3428 21.2173C77.3428 19.5553 78.6808 18.2173 80.3428 18.2173C81.9988 18.2173 83.3428 19.5553 83.3428 21.2173Z" fill="#E4B7FF"/>
<path d="M294.343 66.2173C294.343 67.8733 292.999 69.2173 291.343 69.2173C289.681 69.2173 288.343 67.8733 288.343 66.2173C288.343 64.5553 289.681 63.2173 291.343 63.2173C292.999 63.2173 294.343 64.5553 294.343 66.2173Z" fill="#E4B7FF"/>
<path d="M150.343 102.217C150.343 103.873 148.999 105.217 147.343 105.217C145.681 105.217 144.343 103.873 144.343 102.217C144.343 100.555 145.681 99.2173 147.343 99.2173C148.999 99.2173 150.343 100.555 150.343 102.217Z" fill="#E4B7FF"/>
<path d="M146.343 39.2173C146.343 40.8733 144.999 42.2173 143.343 42.2173C141.681 42.2173 140.343 40.8733 140.343 39.2173C140.343 37.5553 141.681 36.2173 143.343 36.2173C144.999 36.2173 146.343 37.5553 146.343 39.2173Z" fill="#E4B7FF"/>
<path d="M164.343 129.217C164.343 130.873 162.999 132.217 161.343 132.217C159.681 132.217 158.343 130.873 158.343 129.217C158.343 127.555 159.681 126.217 161.343 126.217C162.999 126.217 164.343 127.555 164.343 129.217Z" fill="#E4B7FF"/>
<path d="M101.343 39.2173C101.343 40.8733 99.9988 42.2173 98.3428 42.2173C96.6808 42.2173 95.3428 40.8733 95.3428 39.2173C95.3428 37.5553 96.6808 36.2173 98.3428 36.2173C99.9988 36.2173 101.343 37.5553 101.343 39.2173Z" fill="#E4B7FF"/>
<path d="M236.343 111.217C236.343 112.873 234.999 114.217 233.343 114.217C231.681 114.217 230.343 112.873 230.343 111.217C230.343 109.555 231.681 108.217 233.343 108.217C234.999 108.217 236.343 109.555 236.343 111.217Z" fill="#E4B7FF"/>
<path d="M411.343 66.2173C411.343 67.8733 409.999 69.2173 408.343 69.2173C406.681 69.2173 405.343 67.8733 405.343 66.2173C405.343 64.5553 406.681 63.2173 408.343 63.2173C409.999 63.2173 411.343 64.5553 411.343 66.2173Z" fill="#E4B7FF"/>
<path d="M258.343 120.217C258.343 121.873 256.999 123.217 255.343 123.217C253.681 123.217 252.343 121.873 252.343 120.217C252.343 118.555 253.681 117.217 255.343 117.217C256.999 117.217 258.343 118.555 258.343 120.217Z" fill="#E4B7FF"/>
<path d="M335.343 93.2173C335.343 94.8733 333.999 96.2173 332.343 96.2173C330.681 96.2173 329.343 94.8733 329.343 93.2173C329.343 91.5553 330.681 90.2173 332.343 90.2173C333.999 90.2173 335.343 91.5553 335.343 93.2173Z" fill="#E4B7FF"/>
<path d="M92.3428 93.2173C92.3428 94.8733 90.9988 96.2173 89.3428 96.2173C87.6808 96.2173 86.3428 94.8733 86.3428 93.2173C86.3428 91.5553 87.6808 90.2173 89.3428 90.2173C90.9988 90.2173 92.3428 91.5553 92.3428 93.2173Z" fill="#E4B7FF"/>
<path d="M416.343 75.2173C416.343 76.8733 414.999 78.2173 413.343 78.2173C411.681 78.2173 410.343 76.8733 410.343 75.2173C410.343 73.5553 411.681 72.2173 413.343 72.2173C414.999 72.2173 416.343 73.5553 416.343 75.2173Z" fill="#E4B7FF"/>
<path d="M150.343 120.217C150.343 121.873 148.999 123.217 147.343 123.217C145.681 123.217 144.343 121.873 144.343 120.217C144.343 118.555 145.681 117.217 147.343 117.217C148.999 117.217 150.343 118.555 150.343 120.217Z" fill="#E4B7FF"/>
<path d="M407.343 39.2173C407.343 40.8733 405.999 42.2173 404.343 42.2173C402.681 42.2173 401.343 40.8733 401.343 39.2173C401.343 37.5553 402.681 36.2173 404.343 36.2173C405.999 36.2173 407.343 37.5553 407.343 39.2173Z" fill="#E4B7FF"/>
<path d="M69.3428 12.2173C69.3428 13.8733 67.9988 15.2173 66.3428 15.2173C64.6808 15.2173 63.3428 13.8733 63.3428 12.2173C63.3428 10.5553 64.6808 9.21732 66.3428 9.21732C67.9988 9.21732 69.3428 10.5553 69.3428 12.2173Z" fill="#E4B7FF"/>
<path d="M416.343 57.2173C416.343 58.8733 414.999 60.2173 413.343 60.2173C411.681 60.2173 410.343 58.8733 410.343 57.2173C410.343 55.5553 411.681 54.2173 413.343 54.2173C414.999 54.2173 416.343 55.5553 416.343 57.2173Z" fill="#E4B7FF"/>
<path d="M263.343 75.2173C263.343 76.8733 261.999 78.2173 260.343 78.2173C258.681 78.2173 257.343 76.8733 257.343 75.2173C257.343 73.5553 258.681 72.2173 260.343 72.2173C261.999 72.2173 263.343 73.5553 263.343 75.2173Z" fill="#E4B7FF"/>
<path d="M110.343 129.217C110.343 130.873 108.999 132.217 107.343 132.217C105.681 132.217 104.343 130.873 104.343 129.217C104.343 127.555 105.681 126.217 107.343 126.217C108.999 126.217 110.343 127.555 110.343 129.217Z" fill="#E4B7FF"/>
<path d="M20.3428 111.217C20.3428 112.873 18.9988 114.217 17.3428 114.217C15.6808 114.217 14.3428 112.873 14.3428 111.217C14.3428 109.555 15.6808 108.217 17.3428 108.217C18.9988 108.217 20.3428 109.555 20.3428 111.217Z" fill="#E4B7FF"/>
<path d="M123.343 138.217C123.343 139.873 121.999 141.217 120.343 141.217C118.681 141.217 117.343 139.873 117.343 138.217C117.343 136.555 118.681 135.217 120.343 135.217C121.999 135.217 123.343 136.555 123.343 138.217Z" fill="#E4B7FF"/>
<path d="M15.3428 120.217C15.3428 121.873 13.9988 123.217 12.3428 123.217C10.6808 123.217 9.34277 121.873 9.34277 120.217C9.34277 118.555 10.6808 117.217 12.3428 117.217C13.9988 117.217 15.3428 118.555 15.3428 120.217Z" fill="#E4B7FF"/>
<path d="M258.343 138.217C258.343 139.873 256.999 141.217 255.343 141.217C253.681 141.217 252.343 139.873 252.343 138.217C252.343 136.555 253.681 135.217 255.343 135.217C256.999 135.217 258.343 136.555 258.343 138.217Z" fill="#E4B7FF"/>
<path d="M416.343 93.2173C416.343 94.8733 414.999 96.2173 413.343 96.2173C411.681 96.2173 410.343 94.8733 410.343 93.2173C410.343 91.5553 411.681 90.2173 413.343 90.2173C414.999 90.2173 416.343 91.5553 416.343 93.2173Z" fill="#E4B7FF"/>
<path d="M51.3428 84.2173C51.3428 85.8733 49.9988 87.2173 48.3428 87.2173C46.6808 87.2173 45.3428 85.8733 45.3428 84.2173C45.3428 82.5553 46.6808 81.2173 48.3428 81.2173C49.9988 81.2173 51.3428 82.5553 51.3428 84.2173Z" fill="#E4B7FF"/>
<path d="M6.34277 138.217C6.34277 139.873 4.99877 141.217 3.34277 141.217C1.68077 141.217 0.342773 139.873 0.342773 138.217C0.342773 136.555 1.68077 135.217 3.34277 135.217C4.99877 135.217 6.34277 136.555 6.34277 138.217Z" fill="#E4B7FF"/>
</svg>
