<svg width="30" height="34" viewBox="0 0 30 34" fill="none" xmlns="http://www.w3.org/2000/svg">
<path d="M13.2552 31.4673C13.2552 32.5719 14.1507 33.4673 15.2552 33.4673C16.3598 33.4673 17.2552 32.5719 17.2552 31.4673L13.2552 31.4673ZM16.6695 0.831759C15.8884 0.0507088 14.6221 0.0507087 13.841 0.831758L1.11311 13.5597C0.332065 14.3407 0.332065 15.6071 1.11311 16.3881C1.89416 17.1692 3.16049 17.1692 3.94154 16.3881L15.2553 5.0744L26.569 16.3881C27.35 17.1692 28.6163 17.1692 29.3974 16.3881C30.1784 15.6071 30.1784 14.3407 29.3974 13.5597L16.6695 0.831759ZM17.2552 31.4673L17.2553 2.24597L13.2553 2.24597L13.2552 31.4673L17.2552 31.4673Z" fill="#E4B7FF"/>
</svg>
