<svg width="117" height="137" viewBox="0 0 117 137" fill="none" xmlns="http://www.w3.org/2000/svg">
<ellipse cx="1.20711" cy="14.1669" rx="2.14534" ry="2.14745" fill="#3C3C3C"/>
<ellipse cx="0.803786" cy="20.5126" rx="2.14534" ry="2.14745" fill="#3C3C3C"/>
<ellipse cx="0.0244894" cy="26.7389" rx="2.14534" ry="2.14745" fill="#3C3C3C"/>
<ellipse cx="-0.330735" cy="33.0696" rx="2.14534" ry="2.14745" fill="#3C3C3C"/>
<ellipse cx="0.723952" cy="39.8192" rx="2.14534" ry="2.14745" fill="#3C3C3C"/>
<ellipse cx="2.26497" cy="46.5843" rx="2.14534" ry="2.14745" fill="#3C3C3C"/>
<ellipse cx="2.08211" cy="52.9961" rx="2.14534" ry="2.14745" fill="#3C3C3C"/>
<ellipse cx="0.0154562" cy="58.9479" rx="2.14534" ry="2.14745" fill="#3C3C3C"/>
<ellipse cx="-2.12199" cy="132.948" rx="2.14534" ry="2.14745" fill="#3C3C3C"/>
<ellipse cx="-1.6093" cy="138.121" rx="2.14534" ry="2.14745" fill="#3C3C3C"/>
<ellipse cx="7.06013" cy="14.0238" rx="2.14534" ry="2.14745" fill="#3C3C3C"/>
<ellipse cx="6.84358" cy="20.4076" rx="2.14534" ry="2.14745" fill="#3C3C3C"/>
<ellipse cx="6.4344" cy="26.7309" rx="2.14534" ry="2.14745" fill="#3C3C3C"/>
<ellipse cx="6.27327" cy="33.1233" rx="2.14534" ry="2.14745" fill="#3C3C3C"/>
<ellipse cx="7.10115" cy="39.8039" rx="2.14534" ry="2.14745" fill="#3C3C3C"/>
<ellipse cx="8.22737" cy="46.5007" rx="2.14534" ry="2.14745" fill="#3C3C3C"/>
<ellipse cx="7.94319" cy="52.8861" rx="2.14534" ry="2.14745" fill="#3C3C3C"/>
<ellipse cx="5.81746" cy="58.7424" rx="2.14534" ry="2.14745" fill="#3C3C3C"/>
<ellipse cx="2.47615" cy="63.6153" rx="2.14534" ry="2.14745" fill="#3C3C3C"/>
<ellipse cx="-0.998704" cy="67.2826" rx="2.14534" ry="2.14745" fill="#3C3C3C"/>
<ellipse cx="3.326" cy="118.381" rx="2.14534" ry="2.14745" fill="#3C3C3C"/>
<ellipse cx="3.49544" cy="123.277" rx="2.14534" ry="2.14745" fill="#3C3C3C"/>
<ellipse cx="3.77571" cy="128.304" rx="2.14534" ry="2.14745" fill="#3C3C3C"/>
<ellipse cx="4.26228" cy="133.094" rx="2.14534" ry="2.14745" fill="#3C3C3C"/>
<ellipse cx="4.82063" cy="138.135" rx="2.14534" ry="2.14745" fill="#3C3C3C"/>
<ellipse cx="11.491" cy="13.3624" rx="2.14534" ry="2.14745" fill="#3C3C3C"/>
<ellipse cx="11.6383" cy="19.8627" rx="2.14534" ry="2.14745" fill="#3C3C3C"/>
<ellipse cx="11.9676" cy="26.4291" rx="2.14534" ry="2.14745" fill="#3C3C3C"/>
<ellipse cx="12.2376" cy="32.9675" rx="2.14534" ry="2.14745" fill="#3C3C3C"/>
<ellipse cx="12.6915" cy="39.5602" rx="2.14534" ry="2.14745" fill="#3C3C3C"/>
<ellipse cx="13.0907" cy="46.1234" rx="2.14534" ry="2.14745" fill="#3C3C3C"/>
<ellipse cx="12.6766" cy="52.4402" rx="2.14534" ry="2.14745" fill="#3C3C3C"/>
<ellipse cx="10.6082" cy="58.0781" rx="2.14534" ry="2.14745" fill="#3C3C3C"/>
<ellipse cx="7.576" cy="62.7168" rx="2.14534" ry="2.14745" fill="#3C3C3C"/>
<ellipse cx="4.89461" cy="66.6951" rx="2.14534" ry="2.14745" fill="#3C3C3C"/>
<ellipse cx="3.02864" cy="70.5874" rx="2.14534" ry="2.14745" fill="#3C3C3C"/>
<ellipse cx="1.87825" cy="74.7493" rx="2.14534" ry="2.14745" fill="#3C3C3C"/>
<ellipse cx="1.13582" cy="79.0072" rx="2.14534" ry="2.14745" fill="#3C3C3C"/>
<ellipse cx="0.586257" cy="82.1459" rx="2.14534" ry="2.14745" fill="#3C3C3C"/>
<ellipse cx="0.668288" cy="85.3314" rx="2.14534" ry="2.14745" fill="#3C3C3C"/>
<ellipse cx="0.990798" cy="89.925" rx="2.14534" ry="2.14745" fill="#3C3C3C"/>
<ellipse cx="9.66634" cy="116.31" rx="2.14534" ry="2.14745" fill="#3C3C3C"/>
<ellipse cx="9.66634" cy="122.255" rx="2.14534" ry="2.14745" fill="#3C3C3C"/>
<ellipse cx="1.15608" cy="95.7101" rx="2.14534" ry="2.14745" fill="#3C3C3C"/>
<ellipse cx="10.3365" cy="127.818" rx="2.14534" ry="2.14745" fill="#3C3C3C"/>
<ellipse cx="1.45906" cy="101.157" rx="2.14534" ry="2.14745" fill="#3C3C3C"/>
<ellipse cx="10.6395" cy="133.264" rx="2.14534" ry="2.14745" fill="#3C3C3C"/>
<ellipse cx="2.12166" cy="105.927" rx="2.14534" ry="2.14745" fill="#3C3C3C"/>
<ellipse cx="11.3021" cy="138.034" rx="2.14534" ry="2.14745" fill="#3C3C3C"/>
<ellipse cx="2.51106" cy="111.572" rx="2.14534" ry="2.14745" fill="#3C3C3C"/>
<ellipse cx="14.4046" cy="11.461" rx="2.14534" ry="2.14745" fill="#3C3C3C"/>
<ellipse cx="14.7022" cy="18.107" rx="2.14534" ry="2.14745" fill="#3C3C3C"/>
<ellipse cx="15.3814" cy="24.9814" rx="2.14534" ry="2.14745" fill="#3C3C3C"/>
<ellipse cx="15.9713" cy="31.7643" rx="2.14534" ry="2.14745" fill="#3C3C3C"/>
<ellipse cx="16.4688" cy="38.4707" rx="2.14534" ry="2.14745" fill="#3C3C3C"/>
<ellipse cx="16.7799" cy="45.0677" rx="2.14534" ry="2.14745" fill="#3C3C3C"/>
<ellipse cx="16.5218" cy="51.3823" rx="2.14534" ry="2.14745" fill="#3C3C3C"/>
<ellipse cx="14.9954" cy="56.953" rx="2.14534" ry="2.14745" fill="#3C3C3C"/>
<ellipse cx="12.8402" cy="61.7661" rx="2.14534" ry="2.14745" fill="#3C3C3C"/>
<ellipse cx="11.1278" cy="66.4607" rx="2.14534" ry="2.14745" fill="#3C3C3C"/>
<ellipse cx="10.014" cy="71.4444" rx="2.14534" ry="2.14745" fill="#3C3C3C"/>
<ellipse cx="9.16389" cy="76.5087" rx="2.14534" ry="2.14745" fill="#3C3C3C"/>
<ellipse cx="8.22005" cy="80.9609" rx="2.14534" ry="2.14745" fill="#3C3C3C"/>
<ellipse cx="7.16804" cy="83.4952" rx="2.14534" ry="2.14745" fill="#3C3C3C"/>
<ellipse cx="7.06087" cy="85.7345" rx="2.14534" ry="2.14745" fill="#3C3C3C"/>
<ellipse cx="7.47249" cy="89.7318" rx="2.14534" ry="2.14745" fill="#3C3C3C"/>
<ellipse cx="16.148" cy="116.117" rx="2.14534" ry="2.14745" fill="#3C3C3C"/>
<ellipse cx="16.148" cy="122.062" rx="2.14534" ry="2.14745" fill="#3C3C3C"/>
<ellipse cx="7.67927" cy="95.402" rx="2.14534" ry="2.14745" fill="#3C3C3C"/>
<ellipse cx="16.8597" cy="127.51" rx="2.14534" ry="2.14745" fill="#3C3C3C"/>
<ellipse cx="7.99446" cy="100.871" rx="2.14534" ry="2.14745" fill="#3C3C3C"/>
<ellipse cx="17.1749" cy="132.979" rx="2.14534" ry="2.14745" fill="#3C3C3C"/>
<ellipse cx="8.76912" cy="105.481" rx="2.14534" ry="2.14745" fill="#3C3C3C"/>
<ellipse cx="17.9495" cy="137.589" rx="2.14534" ry="2.14745" fill="#3C3C3C"/>
<ellipse cx="9.3741" cy="110.799" rx="2.14534" ry="2.14745" fill="#3C3C3C"/>
<ellipse cx="17.5338" cy="8.44432" rx="2.14534" ry="2.14745" fill="#3C3C3C"/>
<ellipse cx="17.5531" cy="14.9094" rx="2.14534" ry="2.14745" fill="#3C3C3C"/>
<ellipse cx="17.711" cy="21.5354" rx="2.14534" ry="2.14745" fill="#3C3C3C"/>
<ellipse cx="18.1776" cy="28.4908" rx="2.14534" ry="2.14745" fill="#3C3C3C"/>
<ellipse cx="18.942" cy="35.6926" rx="2.14534" ry="2.14745" fill="#3C3C3C"/>
<ellipse cx="19.6361" cy="42.7493" rx="2.14534" ry="2.14745" fill="#3C3C3C"/>
<ellipse cx="19.7533" cy="49.2889" rx="2.14534" ry="2.14745" fill="#3C3C3C"/>
<ellipse cx="19.4429" cy="55.4695" rx="2.14534" ry="2.14745" fill="#3C3C3C"/>
<ellipse cx="18.8783" cy="61.4021" rx="2.14534" ry="2.14745" fill="#3C3C3C"/>
<ellipse cx="18.1561" cy="67.1221" rx="2.14534" ry="2.14745" fill="#3C3C3C"/>
<ellipse cx="17.5025" cy="72.8307" rx="2.14534" ry="2.14745" fill="#3C3C3C"/>
<ellipse cx="16.7633" cy="78.3303" rx="2.14534" ry="2.14745" fill="#3C3C3C"/>
<ellipse cx="15.6898" cy="83.1111" rx="2.14534" ry="2.14745" fill="#3C3C3C"/>
<ellipse cx="14.2298" cy="86.2101" rx="2.14534" ry="2.14745" fill="#3C3C3C"/>
<ellipse cx="13.4578" cy="88.5814" rx="2.14534" ry="2.14745" fill="#3C3C3C"/>
<ellipse cx="22.6383" cy="120.689" rx="2.14534" ry="2.14745" fill="#3C3C3C"/>
<ellipse cx="22.0094" cy="114.086" rx="2.14534" ry="2.14745" fill="#3C3C3C"/>
<ellipse cx="13.5596" cy="91.618" rx="2.14534" ry="2.14745" fill="#3C3C3C"/>
<ellipse cx="42.4115" cy="135.242" rx="2.14534" ry="2.14745" fill="#3C3C3C"/>
<ellipse cx="14.1541" cy="95.2696" rx="2.14534" ry="2.14745" fill="#3C3C3C"/>
<ellipse cx="23.0992" cy="126.389" rx="2.14534" ry="2.14745" fill="#3C3C3C"/>
<ellipse cx="15.0526" cy="99.3566" rx="2.14534" ry="2.14745" fill="#3C3C3C"/>
<ellipse cx="24.233" cy="131.464" rx="2.14534" ry="2.14745" fill="#3C3C3C"/>
<ellipse cx="16.064" cy="103.938" rx="2.14534" ry="2.14745" fill="#3C3C3C"/>
<ellipse cx="25.2445" cy="136.046" rx="2.14534" ry="2.14745" fill="#3C3C3C"/>
<ellipse cx="16.7252" cy="109.399" rx="2.14534" ry="2.14745" fill="#3C3C3C"/>
<ellipse cx="21.8421" cy="5.28343" rx="2.14534" ry="2.14745" fill="#3C3C3C"/>
<ellipse cx="21.6012" cy="11.248" rx="2.14534" ry="2.14745" fill="#3C3C3C"/>
<ellipse cx="21.2786" cy="16.9866" rx="2.14534" ry="2.14745" fill="#3C3C3C"/>
<ellipse cx="21.4876" cy="23.8941" rx="2.14534" ry="2.14745" fill="#3C3C3C"/>
<ellipse cx="22.2594" cy="31.8032" rx="2.14534" ry="2.14745" fill="#3C3C3C"/>
<ellipse cx="23.1546" cy="39.615" rx="2.14534" ry="2.14745" fill="#3C3C3C"/>
<ellipse cx="23.5689" cy="46.6069" rx="2.14534" ry="2.14745" fill="#3C3C3C"/>
<ellipse cx="24.3653" cy="53.9925" rx="2.14534" ry="2.14745" fill="#3C3C3C"/>
<ellipse cx="25.3748" cy="61.4592" rx="2.14534" ry="2.14745" fill="#3C3C3C"/>
<ellipse cx="25.5448" cy="68.0581" rx="2.14534" ry="2.14745" fill="#3C3C3C"/>
<ellipse cx="25.172" cy="74.1509" rx="2.14534" ry="2.14745" fill="#3C3C3C"/>
<ellipse cx="24.4327" cy="79.8356" rx="2.14534" ry="2.14745" fill="#3C3C3C"/>
<ellipse cx="23.349" cy="84.9748" rx="2.14534" ry="2.14745" fill="#3C3C3C"/>
<ellipse cx="21.8682" cy="89.0832" rx="2.14534" ry="2.14745" fill="#3C3C3C"/>
<ellipse cx="20.5357" cy="92.2223" rx="2.14534" ry="2.14745" fill="#3C3C3C"/>
<ellipse cx="19.8641" cy="94.4426" rx="2.14534" ry="2.14745" fill="#3C3C3C"/>
<ellipse cx="29.0445" cy="126.55" rx="2.14534" ry="2.14745" fill="#3C3C3C"/>
<ellipse cx="29.3656" cy="132.599" rx="2.14534" ry="2.14745" fill="#3C3C3C"/>
<ellipse cx="37.8726" cy="133.557" rx="2.14534" ry="2.14745" fill="#3C3C3C"/>
<ellipse cx="34.2869" cy="129.263" rx="2.14534" ry="2.14745" fill="#3C3C3C"/>
<ellipse cx="33.5819" cy="136.363" rx="2.14534" ry="2.14745" fill="#3C3C3C"/>
<ellipse cx="27.2203" cy="121.976" rx="2.14534" ry="2.14745" fill="#3C3C3C"/>
<ellipse cx="20.554" cy="95.3926" rx="2.14534" ry="2.14745" fill="#3C3C3C"/>
<ellipse cx="22.3983" cy="97.6606" rx="2.14534" ry="2.14745" fill="#3C3C3C"/>
<ellipse cx="23.6995" cy="102.252" rx="2.14534" ry="2.14745" fill="#3C3C3C"/>
<ellipse cx="24.3736" cy="107.906" rx="2.14534" ry="2.14745" fill="#3C3C3C"/>
<ellipse cx="27.0655" cy="2.343" rx="2.14534" ry="2.14745" fill="#3C3C3C"/>
<ellipse cx="26.8905" cy="8.18077" rx="2.14534" ry="2.14745" fill="#3C3C3C"/>
<ellipse cx="26.6783" cy="13.7473" rx="2.14534" ry="2.14745" fill="#3C3C3C"/>
<ellipse cx="26.825" cy="20.8161" rx="2.14534" ry="2.14745" fill="#3C3C3C"/>
<ellipse cx="27.4254" cy="29.1586" rx="2.14534" ry="2.14745" fill="#3C3C3C"/>
<ellipse cx="28.2562" cy="37.4529" rx="2.14534" ry="2.14745" fill="#3C3C3C"/>
<ellipse cx="28.8016" cy="44.8662" rx="2.14534" ry="2.14745" fill="#3C3C3C"/>
<ellipse cx="29.9566" cy="52.9872" rx="2.14534" ry="2.14745" fill="#3C3C3C"/>
<ellipse cx="31.5543" cy="61.2145" rx="2.14534" ry="2.14745" fill="#3C3C3C"/>
<ellipse cx="32.1817" cy="68.2379" rx="2.14534" ry="2.14745" fill="#3C3C3C"/>
<ellipse cx="32.0679" cy="74.5792" rx="2.14534" ry="2.14745" fill="#3C3C3C"/>
<ellipse cx="31.4669" cy="80.4562" rx="2.14534" ry="2.14745" fill="#3C3C3C"/>
<ellipse cx="30.4759" cy="85.8349" rx="2.14534" ry="2.14745" fill="#3C3C3C"/>
<ellipse cx="29.0445" cy="90.3524" rx="2.14534" ry="2.14745" fill="#3C3C3C"/>
<ellipse cx="27.5247" cy="93.8368" rx="2.14534" ry="2.14745" fill="#3C3C3C"/>
<ellipse cx="26.4156" cy="95.9278" rx="2.14534" ry="2.14745" fill="#3C3C3C"/>
<ellipse cx="26.8055" cy="96.0732" rx="2.14534" ry="2.14745" fill="#3C3C3C"/>
<ellipse cx="28.8031" cy="97.7121" rx="2.14534" ry="2.14745" fill="#3C3C3C"/>
<ellipse cx="30.1768" cy="102.201" rx="2.14534" ry="2.14745" fill="#3C3C3C"/>
<ellipse cx="30.8802" cy="107.829" rx="2.14534" ry="2.14745" fill="#3C3C3C"/>
<ellipse cx="2.14539" cy="2.1474" rx="2.14539" ry="2.1474" transform="matrix(0.988082 0.153926 -0.153631 0.988128 29.4629 117.03)" fill="#3C3C3C"/>
<ellipse cx="2.14539" cy="2.1474" rx="2.14539" ry="2.1474" transform="matrix(0.988082 0.153926 -0.153631 0.988128 27.8801 111.125)" fill="#3C3C3C"/>
<ellipse cx="2.14539" cy="2.1474" rx="2.14539" ry="2.1474" transform="matrix(0.988082 0.153926 -0.153631 0.988128 34.6423 115.037)" fill="#3C3C3C"/>
<ellipse cx="32.7642" cy="4.80479" rx="2.14534" ry="2.14745" fill="#3C3C3C"/>
<ellipse cx="32.8765" cy="12.3777" rx="2.14534" ry="2.14745" fill="#3C3C3C"/>
<ellipse cx="33.1449" cy="20.3286" rx="2.14534" ry="2.14745" fill="#3C3C3C"/>
<ellipse cx="33.4295" cy="27.8732" rx="2.14534" ry="2.14745" fill="#3C3C3C"/>
<ellipse cx="33.6461" cy="35.0012" rx="2.14534" ry="2.14745" fill="#3C3C3C"/>
<ellipse cx="34.002" cy="42.4009" rx="2.14534" ry="2.14745" fill="#3C3C3C"/>
<ellipse cx="35.2283" cy="51.2928" rx="2.14534" ry="2.14745" fill="#3C3C3C"/>
<ellipse cx="37.1041" cy="60.2864" rx="2.14534" ry="2.14745" fill="#3C3C3C"/>
<ellipse cx="38.0318" cy="67.6971" rx="2.14534" ry="2.14745" fill="#3C3C3C"/>
<ellipse cx="33.8441" cy="93.536" rx="2.14534" ry="2.14745" fill="#3C3C3C"/>
<ellipse cx="32.8844" cy="96.1833" rx="2.14534" ry="2.14745" fill="#3C3C3C"/>
<ellipse cx="32.9017" cy="97.8105" rx="2.14534" ry="2.14745" fill="#3C3C3C"/>
<ellipse cx="33.9825" cy="100.227" rx="2.14534" ry="2.14745" fill="#3C3C3C"/>
<ellipse cx="35.0064" cy="104.55" rx="2.14534" ry="2.14745" fill="#3C3C3C"/>
<ellipse cx="35.4974" cy="110.183" rx="2.14534" ry="2.14745" fill="#3C3C3C"/>
<ellipse cx="2.14539" cy="2.1474" rx="2.14539" ry="2.1474" transform="matrix(0.988082 0.153926 -0.153631 0.988128 33.6631 120.066)" fill="#3C3C3C"/>
<ellipse cx="39.2081" cy="11.3573" rx="2.14534" ry="2.14745" fill="#3C3C3C"/>
<ellipse cx="39.5658" cy="20.2605" rx="2.14534" ry="2.14745" fill="#3C3C3C"/>
<ellipse cx="39.5294" cy="26.5333" rx="2.14534" ry="2.14745" fill="#3C3C3C"/>
<ellipse cx="39.3302" cy="31.831" rx="2.14534" ry="2.14745" fill="#3C3C3C"/>
<ellipse cx="39.4515" cy="39.0216" rx="2.14534" ry="2.14745" fill="#3C3C3C"/>
<ellipse cx="40.4342" cy="48.8338" rx="2.14534" ry="2.14745" fill="#3C3C3C"/>
<ellipse cx="42.3665" cy="58.8076" rx="2.14534" ry="2.14745" fill="#3C3C3C"/>
<ellipse cx="43.5106" cy="66.6949" rx="2.14534" ry="2.14745" fill="#3C3C3C"/>
<ellipse cx="40.066" cy="92.9349" rx="2.14534" ry="2.14745" fill="#3C3C3C"/>
<ellipse cx="39.378" cy="96.5747" rx="2.14534" ry="2.14745" fill="#3C3C3C"/>
<ellipse cx="39.1619" cy="100.409" rx="2.14534" ry="2.14745" fill="#3C3C3C"/>
<ellipse cx="39.346" cy="104.195" rx="2.14534" ry="2.14745" fill="#3C3C3C"/>
<ellipse cx="39.8184" cy="108.428" rx="2.14534" ry="2.14745" fill="#3C3C3C"/>
<ellipse cx="2.14539" cy="2.1474" rx="2.14539" ry="2.1474" transform="matrix(0.988082 0.153926 -0.153631 0.988128 38.2026 118.997)" fill="#3C3C3C"/>
<ellipse cx="40.0601" cy="114.086" rx="2.14534" ry="2.14745" fill="#3C3C3C"/>
<ellipse cx="2.14539" cy="2.1474" rx="2.14539" ry="2.1474" transform="matrix(0.988082 0.153926 -0.153631 0.988128 37.572 124.625)" fill="#3C3C3C"/>
<ellipse cx="47.7606" cy="57.1467" rx="2.14534" ry="2.14745" fill="#3C3C3C"/>
<ellipse cx="48.9481" cy="65.4519" rx="2.14534" ry="2.14745" fill="#3C3C3C"/>
<ellipse cx="46.7833" cy="93.711" rx="2.14534" ry="2.14745" fill="#3C3C3C"/>
<ellipse cx="46.1961" cy="98.364" rx="2.14534" ry="2.14745" fill="#3C3C3C"/>
<ellipse cx="45.8565" cy="103.272" rx="2.14534" ry="2.14745" fill="#3C3C3C"/>
<ellipse cx="45.6224" cy="107.654" rx="2.14534" ry="2.14745" fill="#3C3C3C"/>
<ellipse cx="2.14539" cy="2.1474" rx="2.14539" ry="2.1474" transform="matrix(0.988082 0.153926 -0.153631 0.988128 44.0562 119.126)" fill="#3C3C3C"/>
<ellipse cx="45.6524" cy="111.785" rx="2.14534" ry="2.14745" fill="#3C3C3C"/>
<ellipse cx="2.14539" cy="2.1474" rx="2.14539" ry="2.1474" transform="matrix(0.988082 0.153926 -0.153631 0.988128 43.4514 123.213)" fill="#3C3C3C"/>
<ellipse cx="45.7825" cy="117.076" rx="2.14534" ry="2.14745" fill="#3C3C3C"/>
<ellipse cx="2.14539" cy="2.1474" rx="2.14539" ry="2.1474" transform="matrix(0.988082 0.153926 -0.153631 0.988128 42.7668 128.461)" fill="#3C3C3C"/>
<ellipse cx="53.3004" cy="55.2618" rx="2.14534" ry="2.14745" fill="#3C3C3C"/>
<ellipse cx="54.3287" cy="63.824" rx="2.14534" ry="2.14745" fill="#3C3C3C"/>
<ellipse cx="54.3746" cy="96.1156" rx="2.14534" ry="2.14745" fill="#3C3C3C"/>
<ellipse cx="53.8863" cy="101.654" rx="2.14534" ry="2.14745" fill="#3C3C3C"/>
<ellipse cx="53.2398" cy="106.648" rx="2.14534" ry="2.14745" fill="#3C3C3C"/>
<ellipse cx="52.5504" cy="110.933" rx="2.14534" ry="2.14745" fill="#3C3C3C"/>
<ellipse cx="2.14539" cy="2.1474" rx="2.14539" ry="2.1474" transform="matrix(0.988082 0.153926 -0.153631 0.988128 50.3984 123.432)" fill="#3C3C3C"/>
<ellipse cx="52.1182" cy="114.882" rx="2.14534" ry="2.14745" fill="#3C3C3C"/>
<ellipse cx="2.14539" cy="2.1474" rx="2.14539" ry="2.1474" transform="matrix(0.988082 0.153926 -0.153631 0.988128 49.3647 127.268)" fill="#3C3C3C"/>
<ellipse cx="52.0367" cy="119.281" rx="2.14534" ry="2.14745" fill="#3C3C3C"/>
<ellipse cx="2.14539" cy="2.1474" rx="2.14539" ry="2.1474" transform="matrix(0.988082 0.153926 -0.153631 0.988128 48.6084 131.602)" fill="#3C3C3C"/>
<ellipse cx="59.9796" cy="62.2761" rx="2.14534" ry="2.14745" fill="#3C3C3C"/>
<ellipse cx="62.3248" cy="97.3077" rx="2.14534" ry="2.14745" fill="#3C3C3C"/>
<ellipse cx="62.0636" cy="104.431" rx="2.14534" ry="2.14745" fill="#3C3C3C"/>
<ellipse cx="61.0199" cy="109.352" rx="2.14534" ry="2.14745" fill="#3C3C3C"/>
<ellipse cx="2.14539" cy="2.1474" rx="2.14539" ry="2.1474" transform="matrix(0.988082 0.153926 -0.153631 0.988128 59.01 123.174)" fill="#3C3C3C"/>
<ellipse cx="59.8524" cy="113.523" rx="2.14534" ry="2.14745" fill="#3C3C3C"/>
<ellipse cx="2.14539" cy="2.1474" rx="2.14539" ry="2.1474" transform="matrix(0.988082 0.153926 -0.153631 0.988128 57.2153 127.115)" fill="#3C3C3C"/>
<ellipse cx="59.0023" cy="117.44" rx="2.14534" ry="2.14745" fill="#3C3C3C"/>
<ellipse cx="2.14539" cy="2.1474" rx="2.14539" ry="2.1474" transform="matrix(0.988082 0.153926 -0.153631 0.988128 55.7739 130.855)" fill="#3C3C3C"/>
<ellipse cx="58.5377" cy="121.146" rx="2.14534" ry="2.14745" fill="#3C3C3C"/>
<ellipse cx="2.14539" cy="2.1474" rx="2.14539" ry="2.1474" transform="matrix(0.988082 0.153926 -0.153631 0.988128 54.7454 134.445)" fill="#3C3C3C"/>
<ellipse cx="69.3658" cy="98.0182" rx="2.14534" ry="2.14745" fill="#3C3C3C"/>
<ellipse cx="69.2645" cy="105.36" rx="2.14534" ry="2.14745" fill="#3C3C3C"/>
<ellipse cx="68.202" cy="110.474" rx="2.14534" ry="2.14745" fill="#3C3C3C"/>
<ellipse cx="2.14539" cy="2.1474" rx="2.14539" ry="2.1474" transform="matrix(0.988082 0.153926 -0.153631 0.988128 65.9343 125.388)" fill="#3C3C3C"/>
<ellipse cx="66.9298" cy="114.87" rx="2.14534" ry="2.14745" fill="#3C3C3C"/>
<ellipse cx="2.14539" cy="2.1474" rx="2.14539" ry="2.1474" transform="matrix(0.988082 0.153926 -0.153631 0.988128 64.002 129.536)" fill="#3C3C3C"/>
<ellipse cx="65.9146" cy="119.007" rx="2.14534" ry="2.14745" fill="#3C3C3C"/>
<ellipse cx="2.14539" cy="2.1474" rx="2.14539" ry="2.1474" transform="matrix(0.988082 0.153926 -0.153631 0.988128 62.3633 133.467)" fill="#3C3C3C"/>
<ellipse cx="65.192" cy="122.752" rx="2.14534" ry="2.14745" fill="#3C3C3C"/>
<ellipse cx="76.1627" cy="98.4073" rx="2.14534" ry="2.14745" fill="#3C3C3C"/>
<ellipse cx="75.9595" cy="105.647" rx="2.14534" ry="2.14745" fill="#3C3C3C"/>
<ellipse cx="74.869" cy="110.786" rx="2.14534" ry="2.14745" fill="#3C3C3C"/>
<ellipse cx="2.14539" cy="2.1474" rx="2.14539" ry="2.1474" transform="matrix(0.988082 0.153926 -0.153631 0.988128 72.4739 126.722)" fill="#3C3C3C"/>
<ellipse cx="73.6214" cy="115.336" rx="2.14534" ry="2.14745" fill="#3C3C3C"/>
<ellipse cx="2.14539" cy="2.1474" rx="2.14539" ry="2.1474" transform="matrix(0.988082 0.153926 -0.153631 0.988128 70.542 131.026)" fill="#3C3C3C"/>
<ellipse cx="72.5797" cy="119.613" rx="2.14534" ry="2.14745" fill="#3C3C3C"/>
<ellipse cx="2.14539" cy="2.1474" rx="2.14539" ry="2.1474" transform="matrix(0.988082 0.153926 -0.153631 0.988128 68.856 135.092)" fill="#3C3C3C"/>
<ellipse cx="71.7176" cy="123.206" rx="2.14534" ry="2.14745" fill="#3C3C3C"/>
<ellipse cx="83.2471" cy="100.064" rx="2.14534" ry="2.14745" fill="#3C3C3C"/>
<ellipse cx="82.7542" cy="106.024" rx="2.14534" ry="2.14745" fill="#3C3C3C"/>
<ellipse cx="81.5023" cy="111.042" rx="2.14534" ry="2.14745" fill="#3C3C3C"/>
<ellipse cx="2.14539" cy="2.1474" rx="2.14539" ry="2.1474" transform="matrix(0.988082 0.153926 -0.153631 0.988128 78.989 127.996)" fill="#3C3C3C"/>
<ellipse cx="80.254" cy="115.672" rx="2.14534" ry="2.14745" fill="#3C3C3C"/>
<ellipse cx="2.14539" cy="2.1474" rx="2.14539" ry="2.1474" transform="matrix(0.988082 0.153926 -0.153631 0.988128 77.0444 132.379)" fill="#3C3C3C"/>
<ellipse cx="79.2371" cy="120.143" rx="2.14534" ry="2.14745" fill="#3C3C3C"/>
<ellipse cx="2.14539" cy="2.1474" rx="2.14539" ry="2.1474" transform="matrix(0.988082 0.153926 -0.153631 0.988128 75.3523 136.641)" fill="#3C3C3C"/>
<ellipse cx="78.2784" cy="123.753" rx="2.14534" ry="2.14745" fill="#3C3C3C"/>
<ellipse cx="91.1082" cy="94.8266" rx="2.14534" ry="2.14745" fill="#3C3C3C"/>
<ellipse cx="90.4097" cy="100.711" rx="2.14534" ry="2.14745" fill="#3C3C3C"/>
<ellipse cx="89.63" cy="106.457" rx="2.14534" ry="2.14745" fill="#3C3C3C"/>
<ellipse cx="88.366" cy="111.565" rx="2.14534" ry="2.14745" fill="#3C3C3C"/>
<ellipse cx="2.14539" cy="2.1474" rx="2.14539" ry="2.1474" transform="matrix(0.988082 0.153926 -0.153631 0.988128 85.6908 129.569)" fill="#3C3C3C"/>
<ellipse cx="87.2105" cy="116.488" rx="2.14534" ry="2.14745" fill="#3C3C3C"/>
<ellipse cx="2.14539" cy="2.1474" rx="2.14539" ry="2.1474" transform="matrix(0.988082 0.153926 -0.153631 0.988128 83.7928 134.257)" fill="#3C3C3C"/>
<ellipse cx="86.2616" cy="121.357" rx="2.14534" ry="2.14745" fill="#3C3C3C"/>
<ellipse cx="85.2581" cy="125.547" rx="2.14534" ry="2.14745" fill="#3C3C3C"/>
<ellipse cx="97.797" cy="95.0144" rx="2.14534" ry="2.14745" fill="#3C3C3C"/>
<ellipse cx="96.1329" cy="100.077" rx="2.14534" ry="2.14745" fill="#3C3C3C"/>
<ellipse cx="95.3607" cy="105.747" rx="2.14534" ry="2.14745" fill="#3C3C3C"/>
<ellipse cx="94.9588" cy="111.746" rx="2.14534" ry="2.14745" fill="#3C3C3C"/>
<ellipse cx="2.14539" cy="2.1474" rx="2.14539" ry="2.1474" transform="matrix(0.988082 0.153926 -0.153631 0.988128 92.1772 130.763)" fill="#3C3C3C"/>
<ellipse cx="94.4918" cy="117.632" rx="2.14534" ry="2.14745" fill="#3C3C3C"/>
<ellipse cx="2.14539" cy="2.1474" rx="2.14539" ry="2.1474" transform="matrix(0.988082 0.153926 -0.153631 0.988128 90.8118 136.508)" fill="#3C3C3C"/>
<ellipse cx="93.6849" cy="122.987" rx="2.14534" ry="2.14745" fill="#3C3C3C"/>
<ellipse cx="92.755" cy="127.906" rx="2.14534" ry="2.14745" fill="#3C3C3C"/>
<ellipse cx="101.574" cy="99.0625" rx="2.14534" ry="2.14745" fill="#3C3C3C"/>
<ellipse cx="101.001" cy="104.837" rx="2.14534" ry="2.14745" fill="#3C3C3C"/>
<ellipse cx="101.377" cy="111.726" rx="2.14534" ry="2.14745" fill="#3C3C3C"/>
<ellipse cx="101.603" cy="118.422" rx="2.14534" ry="2.14745" fill="#3C3C3C"/>
<ellipse cx="101.006" cy="124.171" rx="2.14534" ry="2.14745" fill="#3C3C3C"/>
<ellipse cx="107.847" cy="98.879" rx="2.14534" ry="2.14745" fill="#3C3C3C"/>
<ellipse cx="107.475" cy="104.884" rx="2.14534" ry="2.14745" fill="#3C3C3C"/>
<ellipse cx="107.891" cy="111.815" rx="2.14534" ry="2.14745" fill="#3C3C3C"/>
<ellipse cx="108.206" cy="118.603" rx="2.14534" ry="2.14745" fill="#3C3C3C"/>
<ellipse cx="107.052" cy="130.117" rx="2.14534" ry="2.14745" fill="#3C3C3C"/>
<ellipse cx="114.533" cy="105.601" rx="2.14534" ry="2.14745" fill="#3C3C3C"/>
<ellipse cx="114.467" cy="111.97" rx="2.14534" ry="2.14745" fill="#3C3C3C"/>
<ellipse cx="114.452" cy="118.397" rx="2.14534" ry="2.14745" fill="#3C3C3C"/>
<ellipse cx="114.061" cy="124.391" rx="2.14534" ry="2.14745" fill="#3C3C3C"/>
</svg>
