<svg width="64" height="239" viewBox="0 0 64 239" fill="none" xmlns="http://www.w3.org/2000/svg">
<ellipse cx="43.6177" cy="97.099" rx="2.05217" ry="2.04869" transform="rotate(180 43.6177 97.099)" fill="#3C3C3C"/>
<ellipse cx="43.3165" cy="90.6107" rx="2.05217" ry="2.04869" transform="rotate(180 43.3165 90.6107)" fill="#3C3C3C"/>
<ellipse cx="42.5316" cy="83.6339" rx="2.05217" ry="2.04869" transform="rotate(180 42.5316 83.6339)" fill="#3C3C3C"/>
<ellipse cx="41.5914" cy="76.5921" rx="2.05217" ry="2.04869" transform="rotate(180 41.5914 76.5921)" fill="#3C3C3C"/>
<ellipse cx="40.9322" cy="69.8743" rx="2.05217" ry="2.04869" transform="rotate(180 40.9322 69.8743)" fill="#3C3C3C"/>
<ellipse cx="40.8372" cy="63.6492" rx="2.05217" ry="2.04869" transform="rotate(180 40.8372 63.6492)" fill="#3C3C3C"/>
<ellipse cx="41.2542" cy="57.8561" rx="2.05217" ry="2.04869" transform="rotate(180 41.2542 57.8561)" fill="#3C3C3C"/>
<ellipse cx="42.1932" cy="52.5696" rx="2.05217" ry="2.04869" transform="rotate(180 42.1932 52.5696)" fill="#3C3C3C"/>
<ellipse cx="43.7926" cy="48.135" rx="2.05217" ry="2.04869" transform="rotate(180 43.7926 48.135)" fill="#3C3C3C"/>
<ellipse cx="45.6358" cy="44.4981" rx="2.05217" ry="2.04869" transform="rotate(180 45.6358 44.4981)" fill="#3C3C3C"/>
<ellipse cx="47.3245" cy="41.5298" rx="2.05217" ry="2.04869" transform="rotate(180 47.3245 41.5298)" fill="#3C3C3C"/>
<ellipse cx="48.6121" cy="39.2337" rx="2.05217" ry="2.04869" transform="rotate(180 48.6121 39.2337)" fill="#3C3C3C"/>
<ellipse cx="49.1436" cy="36.2875" rx="2.05217" ry="2.04869" transform="rotate(180 49.1436 36.2875)" fill="#3C3C3C"/>
<ellipse cx="38.0167" cy="97.767" rx="2.05217" ry="2.04869" transform="rotate(180 38.0167 97.767)" fill="#3C3C3C"/>
<ellipse cx="37.8514" cy="91.4166" rx="2.05217" ry="2.04869" transform="rotate(180 37.8514 91.4166)" fill="#3C3C3C"/>
<ellipse cx="37.3895" cy="84.724" rx="2.05217" ry="2.04869" transform="rotate(180 37.3895 84.724)" fill="#3C3C3C"/>
<ellipse cx="36.7447" cy="77.869" rx="2.05217" ry="2.04869" transform="rotate(180 36.7447 77.869)" fill="#3C3C3C"/>
<ellipse cx="36.0482" cy="71.0188" rx="2.05217" ry="2.04869" transform="rotate(180 36.0482 71.0188)" fill="#3C3C3C"/>
<ellipse cx="35.5206" cy="64.3772" rx="2.05217" ry="2.04869" transform="rotate(180 35.5206 64.3772)" fill="#3C3C3C"/>
<ellipse cx="35.6073" cy="58.3106" rx="2.05217" ry="2.04869" transform="rotate(180 35.6073 58.3106)" fill="#3C3C3C"/>
<ellipse cx="36.5211" cy="53.0518" rx="2.05217" ry="2.04869" transform="rotate(180 36.5211 53.0518)" fill="#3C3C3C"/>
<ellipse cx="38.0552" cy="48.6463" rx="2.05217" ry="2.04869" transform="rotate(180 38.0552 48.6463)" fill="#3C3C3C"/>
<ellipse cx="39.7926" cy="45.0049" rx="2.05217" ry="2.04869" transform="rotate(180 39.7926 45.0049)" fill="#3C3C3C"/>
<ellipse cx="41.3372" cy="41.9284" rx="2.05217" ry="2.04869" transform="rotate(180 41.3372 41.9284)" fill="#3C3C3C"/>
<ellipse cx="42.46" cy="39.2523" rx="2.05217" ry="2.04869" transform="rotate(180 42.46 39.2523)" fill="#3C3C3C"/>
<ellipse cx="42.9527" cy="35.9502" rx="2.05217" ry="2.04869" transform="rotate(180 42.9527 35.9502)" fill="#3C3C3C"/>
<ellipse cx="43.0758" cy="31.5079" rx="2.05217" ry="2.04869" transform="rotate(180 43.0758 31.5079)" fill="#3C3C3C"/>
<ellipse cx="43.0316" cy="27.8147" rx="2.05217" ry="2.04869" transform="rotate(180 43.0316 27.8147)" fill="#3C3C3C"/>
<ellipse cx="42.6768" cy="24.3771" rx="2.05217" ry="2.04869" transform="rotate(180 42.6768 24.3771)" fill="#3C3C3C"/>
<ellipse cx="42.2359" cy="20.1058" rx="2.05217" ry="2.04869" transform="rotate(180 42.2359 20.1058)" fill="#3C3C3C"/>
<ellipse cx="32.9205" cy="99.2013" rx="2.05217" ry="2.04869" transform="rotate(180 32.9205 99.2013)" fill="#3C3C3C"/>
<ellipse cx="33.0125" cy="93.1917" rx="2.05217" ry="2.04869" transform="rotate(180 33.0125 93.1917)" fill="#3C3C3C"/>
<ellipse cx="33.1478" cy="87.2495" rx="2.05217" ry="2.04869" transform="rotate(180 33.1478 87.2495)" fill="#3C3C3C"/>
<ellipse cx="33.0672" cy="80.9812" rx="2.05217" ry="2.04869" transform="rotate(180 33.0672 80.9812)" fill="#3C3C3C"/>
<ellipse cx="32.4256" cy="73.9187" rx="2.05217" ry="2.04869" transform="rotate(180 32.4256 73.9187)" fill="#3C3C3C"/>
<ellipse cx="31.2589" cy="66.3156" rx="2.05217" ry="2.04869" transform="rotate(180 31.2589 66.3156)" fill="#3C3C3C"/>
<ellipse cx="30.7882" cy="59.6444" rx="2.05217" ry="2.04869" transform="rotate(180 30.7882 59.6444)" fill="#3C3C3C"/>
<ellipse cx="31.6414" cy="54.4752" rx="2.05217" ry="2.04869" transform="rotate(180 31.6414 54.4752)" fill="#3C3C3C"/>
<ellipse cx="32.9915" cy="50.1378" rx="2.05217" ry="2.04869" transform="rotate(180 32.9915 50.1378)" fill="#3C3C3C"/>
<ellipse cx="34.4429" cy="46.4663" rx="2.05217" ry="2.04869" transform="rotate(180 34.4429 46.4663)" fill="#3C3C3C"/>
<ellipse cx="35.6351" cy="43.1196" rx="2.05217" ry="2.04869" transform="rotate(180 35.6351 43.1196)" fill="#3C3C3C"/>
<ellipse cx="36.3856" cy="39.6095" rx="2.05217" ry="2.04869" transform="rotate(180 36.3856 39.6095)" fill="#3C3C3C"/>
<ellipse cx="36.7486" cy="35.5474" rx="2.05217" ry="2.04869" transform="rotate(180 36.7486 35.5474)" fill="#3C3C3C"/>
<ellipse cx="36.8951" cy="30.9879" rx="2.05217" ry="2.04869" transform="rotate(180 36.8951 30.9879)" fill="#3C3C3C"/>
<ellipse cx="36.9068" cy="27.2863" rx="2.05217" ry="2.04869" transform="rotate(180 36.9068 27.2863)" fill="#3C3C3C"/>
<ellipse cx="36.6307" cy="23.7553" rx="2.05217" ry="2.04869" transform="rotate(180 36.6307 23.7553)" fill="#3C3C3C"/>
<ellipse cx="36.2904" cy="19.296" rx="2.05217" ry="2.04869" transform="rotate(180 36.2904 19.296)" fill="#3C3C3C"/>
<ellipse cx="27.283" cy="99.9983" rx="2.05217" ry="2.04869" transform="rotate(180 27.283 99.9983)" fill="#3C3C3C"/>
<ellipse cx="27.5452" cy="94.2837" rx="2.05217" ry="2.04869" transform="rotate(180 27.5452 94.2837)" fill="#3C3C3C"/>
<ellipse cx="28.0628" cy="89.0584" rx="2.05217" ry="2.04869" transform="rotate(180 28.0628 89.0584)" fill="#3C3C3C"/>
<ellipse cx="28.3741" cy="83.518" rx="2.05217" ry="2.04869" transform="rotate(180 28.3741 83.518)" fill="#3C3C3C"/>
<ellipse cx="27.9993" cy="76.6478" rx="2.05217" ry="2.04869" transform="rotate(180 27.9993 76.6478)" fill="#3C3C3C"/>
<ellipse cx="26.8577" cy="68.61" rx="2.05217" ry="2.04869" transform="rotate(180 26.8577 68.61)" fill="#3C3C3C"/>
<ellipse cx="26.2991" cy="61.6674" rx="2.05217" ry="2.04869" transform="rotate(180 26.2991 61.6674)" fill="#3C3C3C"/>
<ellipse cx="27.0853" cy="56.6635" rx="2.05217" ry="2.04869" transform="rotate(180 27.0853 56.6635)" fill="#3C3C3C"/>
<ellipse cx="28.1754" cy="52.3959" rx="2.05217" ry="2.04869" transform="rotate(180 28.1754 52.3959)" fill="#3C3C3C"/>
<ellipse cx="29.2503" cy="48.6428" rx="2.05217" ry="2.04869" transform="rotate(180 29.2503 48.6428)" fill="#3C3C3C"/>
<ellipse cx="30.0489" cy="45.0026" rx="2.05217" ry="2.04869" transform="rotate(180 30.0489 45.0026)" fill="#3C3C3C"/>
<ellipse cx="30.4698" cy="40.8551" rx="2.05217" ry="2.04869" transform="rotate(180 30.4698 40.8551)" fill="#3C3C3C"/>
<ellipse cx="30.6715" cy="36.2595" rx="2.05217" ry="2.04869" transform="rotate(180 30.6715 36.2595)" fill="#3C3C3C"/>
<ellipse cx="30.7659" cy="31.6077" rx="2.05217" ry="2.04869" transform="rotate(180 30.7659 31.6077)" fill="#3C3C3C"/>
<ellipse cx="30.7203" cy="27.7897" rx="2.05217" ry="2.04869" transform="rotate(180 30.7203 27.7897)" fill="#3C3C3C"/>
<ellipse cx="30.4329" cy="24" rx="2.05217" ry="2.04869" transform="rotate(180 30.4329 24)" fill="#3C3C3C"/>
<ellipse cx="30.1595" cy="19.1879" rx="2.05217" ry="2.04869" transform="rotate(180 30.1595 19.1879)" fill="#3C3C3C"/>
<ellipse cx="21.1453" cy="100.028" rx="2.05217" ry="2.04869" transform="rotate(180 21.1453 100.028)" fill="#3C3C3C"/>
<ellipse cx="21.439" cy="94.3692" rx="2.05217" ry="2.04869" transform="rotate(180 21.439 94.3692)" fill="#3C3C3C"/>
<ellipse cx="22.0672" cy="89.3661" rx="2.05217" ry="2.04869" transform="rotate(180 22.0672 89.3661)" fill="#3C3C3C"/>
<ellipse cx="22.5899" cy="84.3067" rx="2.05217" ry="2.04869" transform="rotate(180 22.5899 84.3067)" fill="#3C3C3C"/>
<ellipse cx="22.6253" cy="78.2399" rx="2.05217" ry="2.04869" transform="rotate(180 22.6253 78.2399)" fill="#3C3C3C"/>
<ellipse cx="22.1695" cy="71.1292" rx="2.05217" ry="2.04869" transform="rotate(180 22.1695 71.1292)" fill="#3C3C3C"/>
<ellipse cx="22.0838" cy="64.8142" rx="2.05217" ry="2.04869" transform="rotate(180 22.0838 64.8142)" fill="#3C3C3C"/>
<ellipse cx="22.7293" cy="60.0391" rx="2.05217" ry="2.04869" transform="rotate(180 22.7293 60.0391)" fill="#3C3C3C"/>
<ellipse cx="23.419" cy="55.6946" rx="2.05217" ry="2.04869" transform="rotate(180 23.419 55.6946)" fill="#3C3C3C"/>
<ellipse cx="24.0296" cy="51.7114" rx="2.05217" ry="2.04869" transform="rotate(180 24.0296 51.7114)" fill="#3C3C3C"/>
<ellipse cx="24.4298" cy="47.7952" rx="2.05217" ry="2.04869" transform="rotate(180 24.4298 47.7952)" fill="#3C3C3C"/>
<ellipse cx="24.5767" cy="43.1925" rx="2.05217" ry="2.04869" transform="rotate(180 24.5767 43.1925)" fill="#3C3C3C"/>
<ellipse cx="24.6192" cy="38.2435" rx="2.05217" ry="2.04869" transform="rotate(180 24.6192 38.2435)" fill="#3C3C3C"/>
<ellipse cx="24.5914" cy="33.4784" rx="2.05217" ry="2.04869" transform="rotate(180 24.5914 33.4784)" fill="#3C3C3C"/>
<ellipse cx="24.418" cy="29.2249" rx="2.05217" ry="2.04869" transform="rotate(180 24.418 29.2249)" fill="#3C3C3C"/>
<ellipse cx="24.1168" cy="24.8261" rx="2.05217" ry="2.04869" transform="rotate(180 24.1168 24.8261)" fill="#3C3C3C"/>
<ellipse cx="23.9114" cy="19.5618" rx="2.05217" ry="2.04869" transform="rotate(180 23.9114 19.5618)" fill="#3C3C3C"/>
<ellipse cx="15.0533" cy="100.133" rx="2.05217" ry="2.04869" transform="rotate(180 15.0533 100.133)" fill="#3C3C3C"/>
<ellipse cx="15.2813" cy="94.3671" rx="2.05217" ry="2.04869" transform="rotate(180 15.2813 94.3671)" fill="#3C3C3C"/>
<ellipse cx="15.836" cy="89.2218" rx="2.05217" ry="2.04869" transform="rotate(180 15.836 89.2218)" fill="#3C3C3C"/>
<ellipse cx="16.4632" cy="84.3731" rx="2.05217" ry="2.04869" transform="rotate(180 16.4632 84.3731)" fill="#3C3C3C"/>
<ellipse cx="16.9364" cy="79.3706" rx="2.05217" ry="2.04869" transform="rotate(180 16.9364 79.3706)" fill="#3C3C3C"/>
<ellipse cx="17.2413" cy="74.0702" rx="2.05217" ry="2.04869" transform="rotate(180 17.2413 74.0702)" fill="#3C3C3C"/>
<ellipse cx="17.597" cy="69.0715" rx="2.05217" ry="2.04869" transform="rotate(180 17.597 69.0715)" fill="#3C3C3C"/>
<ellipse cx="17.9847" cy="64.5133" rx="2.05217" ry="2.04869" transform="rotate(180 17.9847 64.5133)" fill="#3C3C3C"/>
<ellipse cx="18.2379" cy="59.8259" rx="2.05217" ry="2.04869" transform="rotate(180 18.2379 59.8259)" fill="#3C3C3C"/>
<ellipse cx="18.4163" cy="55.4201" rx="2.05217" ry="2.04869" transform="rotate(180 18.4163 55.4201)" fill="#3C3C3C"/>
<ellipse cx="18.4595" cy="51.2037" rx="2.05217" ry="2.04869" transform="rotate(180 18.4595 51.2037)" fill="#3C3C3C"/>
<ellipse cx="18.4285" cy="45.8888" rx="2.05217" ry="2.04869" transform="rotate(180 18.4285 45.8888)" fill="#3C3C3C"/>
<ellipse cx="18.389" cy="40.3245" rx="2.05217" ry="2.04869" transform="rotate(180 18.389 40.3245)" fill="#3C3C3C"/>
<ellipse cx="18.265" cy="35.3455" rx="2.05217" ry="2.04869" transform="rotate(180 18.265 35.3455)" fill="#3C3C3C"/>
<ellipse cx="18.0885" cy="30.322" rx="2.05217" ry="2.04869" transform="rotate(180 18.0885 30.322)" fill="#3C3C3C"/>
<ellipse cx="17.9244" cy="24.9918" rx="2.05217" ry="2.04869" transform="rotate(180 17.9244 24.9918)" fill="#3C3C3C"/>
<ellipse cx="17.8167" cy="19.3128" rx="2.05217" ry="2.04869" transform="rotate(180 17.8167 19.3128)" fill="#3C3C3C"/>
<ellipse cx="17.6209" cy="13.9199" rx="2.05217" ry="2.04869" transform="rotate(180 17.6209 13.9199)" fill="#3C3C3C"/>
<ellipse cx="17.4219" cy="8.45045" rx="2.05217" ry="2.04869" transform="rotate(180 17.4219 8.45045)" fill="#3C3C3C"/>
<ellipse cx="17.4447" cy="2.2306" rx="2.05217" ry="2.04869" transform="rotate(180 17.4447 2.2306)" fill="#3C3C3C"/>
<ellipse cx="8.55037" cy="93.4393" rx="2.05217" ry="2.04869" transform="rotate(180 8.55037 93.4393)" fill="#3C3C3C"/>
<ellipse cx="9.08186" cy="88.1483" rx="2.05217" ry="2.04869" transform="rotate(180 9.08186 88.1483)" fill="#3C3C3C"/>
<ellipse cx="9.83821" cy="83.3854" rx="2.05217" ry="2.04869" transform="rotate(180 9.83821 83.3854)" fill="#3C3C3C"/>
<ellipse cx="10.6693" cy="79.0875" rx="2.05217" ry="2.04869" transform="rotate(180 10.6693 79.0875)" fill="#3C3C3C"/>
<ellipse cx="11.4093" cy="75.1072" rx="2.05217" ry="2.04869" transform="rotate(180 11.4093 75.1072)" fill="#3C3C3C"/>
<ellipse cx="11.9215" cy="71.1364" rx="2.05217" ry="2.04869" transform="rotate(180 11.9215 71.1364)" fill="#3C3C3C"/>
<ellipse cx="12.1829" cy="66.7998" rx="2.05217" ry="2.04869" transform="rotate(180 12.1829 66.7998)" fill="#3C3C3C"/>
<ellipse cx="12.2816" cy="61.96" rx="2.05217" ry="2.04869" transform="rotate(180 12.2816 61.96)" fill="#3C3C3C"/>
<ellipse cx="12.3026" cy="57.3716" rx="2.05217" ry="2.04869" transform="rotate(180 12.3026 57.3716)" fill="#3C3C3C"/>
<ellipse cx="12.192" cy="53.0651" rx="2.05217" ry="2.04869" transform="rotate(180 12.192 53.0651)" fill="#3C3C3C"/>
<ellipse cx="12.1434" cy="47.3606" rx="2.05217" ry="2.04869" transform="rotate(180 12.1434 47.3606)" fill="#3C3C3C"/>
<ellipse cx="12.1168" cy="41.4281" rx="2.05217" ry="2.04869" transform="rotate(180 12.1168 41.4281)" fill="#3C3C3C"/>
<ellipse cx="11.9608" cy="36.3067" rx="2.05217" ry="2.04869" transform="rotate(180 11.9608 36.3067)" fill="#3C3C3C"/>
<ellipse cx="11.8468" cy="30.765" rx="2.05217" ry="2.04869" transform="rotate(180 11.8468 30.765)" fill="#3C3C3C"/>
<ellipse cx="11.8072" cy="24.8098" rx="2.05217" ry="2.04869" transform="rotate(180 11.8072 24.8098)" fill="#3C3C3C"/>
<ellipse cx="11.7655" cy="18.8571" rx="2.05217" ry="2.04869" transform="rotate(180 11.7655 18.8571)" fill="#3C3C3C"/>
<ellipse cx="11.4732" cy="13.8883" rx="2.05217" ry="2.04869" transform="rotate(180 11.4732 13.8883)" fill="#3C3C3C"/>
<ellipse cx="11.0833" cy="9.01112" rx="2.05217" ry="2.04869" transform="rotate(180 11.0833 9.01112)" fill="#3C3C3C"/>
<ellipse cx="11.1036" cy="2.80446" rx="2.05217" ry="2.04869" transform="rotate(180 11.1036 2.80446)" fill="#3C3C3C"/>
<ellipse cx="2.63899" cy="81.5315" rx="2.05217" ry="2.04869" transform="rotate(180 2.63899 81.5315)" fill="#3C3C3C"/>
<ellipse cx="3.73469" cy="77.345" rx="2.05217" ry="2.04869" transform="rotate(180 3.73469 77.345)" fill="#3C3C3C"/>
<ellipse cx="4.76399" cy="73.6017" rx="2.05217" ry="2.04869" transform="rotate(180 4.76399 73.6017)" fill="#3C3C3C"/>
<ellipse cx="5.50496" cy="69.9166" rx="2.05217" ry="2.04869" transform="rotate(180 5.50496 69.9166)" fill="#3C3C3C"/>
<ellipse cx="5.89363" cy="65.757" rx="2.05217" ry="2.04869" transform="rotate(180 5.89363 65.757)" fill="#3C3C3C"/>
<ellipse cx="6.04768" cy="60.8683" rx="2.05217" ry="2.04869" transform="rotate(180 6.04768 60.8683)" fill="#3C3C3C"/>
<ellipse cx="6.14192" cy="56.2645" rx="2.05217" ry="2.04869" transform="rotate(180 6.14192 56.2645)" fill="#3C3C3C"/>
<ellipse cx="6.10456" cy="52.2212" rx="2.05217" ry="2.04869" transform="rotate(180 6.10456 52.2212)" fill="#3C3C3C"/>
<ellipse cx="6.02205" cy="47.049" rx="2.05217" ry="2.04869" transform="rotate(180 6.02205 47.049)" fill="#3C3C3C"/>
<ellipse cx="5.94416" cy="41.5504" rx="2.05217" ry="2.04869" transform="rotate(180 5.94416 41.5504)" fill="#3C3C3C"/>
<ellipse cx="5.76765" cy="36.5114" rx="2.05217" ry="2.04869" transform="rotate(180 5.76765 36.5114)" fill="#3C3C3C"/>
<ellipse cx="5.61531" cy="31.1199" rx="2.05217" ry="2.04869" transform="rotate(180 5.61531 31.1199)" fill="#3C3C3C"/>
<ellipse cx="5.54499" cy="25.2842" rx="2.05217" ry="2.04869" transform="rotate(180 5.54499 25.2842)" fill="#3C3C3C"/>
<ellipse cx="5.52546" cy="19.2212" rx="2.05217" ry="2.04869" transform="rotate(180 5.52546 19.2212)" fill="#3C3C3C"/>
<ellipse cx="5.31819" cy="13.8829" rx="2.05217" ry="2.04869" transform="rotate(180 5.31819 13.8829)" fill="#3C3C3C"/>
<ellipse cx="5.06575" cy="8.58754" rx="2.05217" ry="2.04869" transform="rotate(180 5.06575 8.58754)" fill="#3C3C3C"/>
<ellipse cx="-1.13591" cy="68.2024" rx="2.05217" ry="2.04869" transform="rotate(180 -1.13591 68.2024)" fill="#3C3C3C"/>
<ellipse cx="-0.600025" cy="63.9874" rx="2.05217" ry="2.04869" transform="rotate(180 -0.600025 63.9874)" fill="#3C3C3C"/>
<ellipse cx="-0.485767" cy="58.3628" rx="2.05217" ry="2.04869" transform="rotate(180 -0.485767 58.3628)" fill="#3C3C3C"/>
<ellipse cx="-0.305836" cy="53.1917" rx="2.05217" ry="2.04869" transform="rotate(180 -0.305836 53.1917)" fill="#3C3C3C"/>
<ellipse cx="-0.0348396" cy="49.5945" rx="2.05217" ry="2.04869" transform="rotate(180 -0.0348396 49.5945)" fill="#3C3C3C"/>
<ellipse cx="-0.0468025" cy="45.9904" rx="2.05217" ry="2.04869" transform="rotate(180 -0.0468025 45.9904)" fill="#3C3C3C"/>
<ellipse cx="-0.258472" cy="41.8742" rx="2.05217" ry="2.04869" transform="rotate(180 -0.258472 41.8742)" fill="#3C3C3C"/>
<ellipse cx="-0.513843" cy="37.1395" rx="2.05217" ry="2.04869" transform="rotate(180 -0.513843 37.1395)" fill="#3C3C3C"/>
<ellipse cx="-0.869801" cy="32.4335" rx="2.05217" ry="2.04869" transform="rotate(180 -0.869801 32.4335)" fill="#3C3C3C"/>
<ellipse cx="-1.17083" cy="27.2733" rx="2.05217" ry="2.04869" transform="rotate(180 -1.17083 27.2733)" fill="#3C3C3C"/>
<ellipse cx="-1.17693" cy="21.1455" rx="2.05217" ry="2.04869" transform="rotate(180 -1.17693 21.1455)" fill="#3C3C3C"/>
<ellipse cx="-1.11956" cy="14.824" rx="2.05217" ry="2.04869" transform="rotate(180 -1.11956 14.824)" fill="#3C3C3C"/>
<ellipse cx="-1.02214" cy="8.36769" rx="2.05217" ry="2.04869" transform="rotate(180 -1.02214 8.36769)" fill="#3C3C3C"/>
<ellipse cx="2.21128" cy="2.20892" rx="2.21128" ry="2.20892" transform="matrix(1.19249e-08 1 1 -1.19249e-08 -0.135254 105.47)" fill="#3C3C3C"/>
<ellipse cx="2.21128" cy="2.20892" rx="2.21128" ry="2.20892" transform="matrix(1.19249e-08 1 1 -1.19249e-08 6.33813 102.802)" fill="#3C3C3C"/>
<ellipse cx="2.21128" cy="2.20892" rx="2.21128" ry="2.20892" transform="matrix(1.19249e-08 1 1 -1.19249e-08 12.8999 102.477)" fill="#3C3C3C"/>
<ellipse cx="2.21128" cy="2.20892" rx="2.21128" ry="2.20892" transform="matrix(1.19249e-08 1 1 -1.19249e-08 19.7585 104.946)" fill="#3C3C3C"/>
<ellipse cx="2.21128" cy="2.20892" rx="2.21128" ry="2.20892" transform="matrix(1.19249e-08 1 1 -1.19249e-08 26.2292 106.636)" fill="#3C3C3C"/>
<ellipse cx="2.21128" cy="2.20892" rx="2.21128" ry="2.20892" transform="matrix(1.19249e-08 1 1 -1.19249e-08 32.8535 102.906)" fill="#3C3C3C"/>
<ellipse cx="2.21128" cy="2.20892" rx="2.21128" ry="2.20892" transform="matrix(1.19249e-08 1 1 -1.19249e-08 39.187 101.628)" fill="#3C3C3C"/>
<ellipse cx="2.21128" cy="2.20892" rx="2.21128" ry="2.20892" transform="matrix(1.19249e-08 1 1 -1.19249e-08 44.6204 98.9164)" fill="#3C3C3C"/>
<ellipse cx="2.21128" cy="2.20892" rx="2.21128" ry="2.20892" transform="matrix(1.19249e-08 1 1 -1.19249e-08 48.5916 95.9161)" fill="#3C3C3C"/>
<ellipse cx="2.21128" cy="2.20892" rx="2.21128" ry="2.20892" transform="matrix(1.19249e-08 1 1 -1.19249e-08 52.1035 94.1793)" fill="#3C3C3C"/>
<ellipse cx="2.21128" cy="2.20892" rx="2.21128" ry="2.20892" transform="matrix(1.19249e-08 1 1 -1.19249e-08 -0.373535 108.995)" fill="#3C3C3C"/>
<ellipse cx="2.21128" cy="2.20892" rx="2.21128" ry="2.20892" transform="matrix(1.19249e-08 1 1 -1.19249e-08 6.06201 108.25)" fill="#3C3C3C"/>
<ellipse cx="2.21128" cy="2.20892" rx="2.21128" ry="2.20892" transform="matrix(1.19249e-08 1 1 -1.19249e-08 13.0596 110.094)" fill="#3C3C3C"/>
<ellipse cx="2.21128" cy="2.20892" rx="2.21128" ry="2.20892" transform="matrix(1.19249e-08 1 1 -1.19249e-08 19.7598 111.464)" fill="#3C3C3C"/>
<ellipse cx="2.21128" cy="2.20892" rx="2.21128" ry="2.20892" transform="matrix(1.19249e-08 1 1 -1.19249e-08 26.2366 109.582)" fill="#3C3C3C"/>
<ellipse cx="2.21128" cy="2.20892" rx="2.21128" ry="2.20892" transform="matrix(1.19249e-08 1 1 -1.19249e-08 32.6448 108.559)" fill="#3C3C3C"/>
<ellipse cx="2.21128" cy="2.20892" rx="2.21128" ry="2.20892" transform="matrix(1.19249e-08 1 1 -1.19249e-08 37.6416 105.001)" fill="#3C3C3C"/>
<ellipse cx="2.21128" cy="2.20892" rx="2.21128" ry="2.20892" transform="matrix(1.19249e-08 1 1 -1.19249e-08 43.7231 104.277)" fill="#3C3C3C"/>
<ellipse cx="2.21128" cy="2.20892" rx="2.21128" ry="2.20892" transform="matrix(1.19249e-08 1 1 -1.19249e-08 48.093 102.176)" fill="#3C3C3C"/>
<ellipse cx="2.21128" cy="2.20892" rx="2.21128" ry="2.20892" transform="matrix(1.19249e-08 1 1 -1.19249e-08 51.8457 100.72)" fill="#3C3C3C"/>
<ellipse cx="2.21128" cy="2.20892" rx="2.21128" ry="2.20892" transform="matrix(1.19249e-08 1 1 -1.19249e-08 -2.84058 110.678)" fill="#3C3C3C"/>
<ellipse cx="2.21128" cy="2.20892" rx="2.21128" ry="2.20892" transform="matrix(1.19249e-08 1 1 -1.19249e-08 5.09814 112.567)" fill="#3C3C3C"/>
<ellipse cx="2.21128" cy="2.20892" rx="2.21128" ry="2.20892" transform="matrix(1.19249e-08 1 1 -1.19249e-08 12.7256 115.02)" fill="#3C3C3C"/>
<ellipse cx="2.21128" cy="2.20892" rx="2.21128" ry="2.20892" transform="matrix(1.19249e-08 1 1 -1.19249e-08 19.582 116.037)" fill="#3C3C3C"/>
<ellipse cx="2.21128" cy="2.20892" rx="2.21128" ry="2.20892" transform="matrix(1.19249e-08 1 1 -1.19249e-08 25.46 113.56)" fill="#3C3C3C"/>
<ellipse cx="2.21128" cy="2.20892" rx="2.21128" ry="2.20892" transform="matrix(1.19249e-08 1 1 -1.19249e-08 31.4836 112.369)" fill="#3C3C3C"/>
<ellipse cx="2.21128" cy="2.20892" rx="2.21128" ry="2.20892" transform="matrix(1.19249e-08 1 1 -1.19249e-08 36.1265 109.859)" fill="#3C3C3C"/>
<ellipse cx="2.21128" cy="2.20892" rx="2.21128" ry="2.20892" transform="matrix(1.19249e-08 1 1 -1.19249e-08 42.3708 109.513)" fill="#3C3C3C"/>
<ellipse cx="2.21128" cy="2.20892" rx="2.21128" ry="2.20892" transform="matrix(1.19249e-08 1 1 -1.19249e-08 47.7371 108.568)" fill="#3C3C3C"/>
<ellipse cx="2.21128" cy="2.20892" rx="2.21128" ry="2.20892" transform="matrix(1.19249e-08 1 1 -1.19249e-08 54.8562 108.907)" fill="#3C3C3C"/>
<ellipse cx="2.21128" cy="2.20892" rx="2.21128" ry="2.20892" transform="matrix(1.19249e-08 1 1 -1.19249e-08 3.01416 116.5)" fill="#3C3C3C"/>
<ellipse cx="2.21128" cy="2.20892" rx="2.21128" ry="2.20892" transform="matrix(1.19249e-08 1 1 -1.19249e-08 10.9167 117.946)" fill="#3C3C3C"/>
<ellipse cx="2.21128" cy="2.20892" rx="2.21128" ry="2.20892" transform="matrix(1.19249e-08 1 1 -1.19249e-08 18.2656 119.053)" fill="#3C3C3C"/>
<ellipse cx="2.21128" cy="2.20892" rx="2.21128" ry="2.20892" transform="matrix(1.19249e-08 1 1 -1.19249e-08 24.2908 118.118)" fill="#3C3C3C"/>
<ellipse cx="2.21128" cy="2.20892" rx="2.21128" ry="2.20892" transform="matrix(1.19249e-08 1 1 -1.19249e-08 29.9153 116.904)" fill="#3C3C3C"/>
<ellipse cx="2.21128" cy="2.20892" rx="2.21128" ry="2.20892" transform="matrix(1.19249e-08 1 1 -1.19249e-08 35.1086 115.631)" fill="#3C3C3C"/>
<ellipse cx="2.21128" cy="2.20892" rx="2.21128" ry="2.20892" transform="matrix(1.19249e-08 1 1 -1.19249e-08 41.5549 115.501)" fill="#3C3C3C"/>
<ellipse cx="2.21128" cy="2.20892" rx="2.21128" ry="2.20892" transform="matrix(1.19249e-08 1 1 -1.19249e-08 47.6177 115.123)" fill="#3C3C3C"/>
<ellipse cx="2.21128" cy="2.20892" rx="2.21128" ry="2.20892" transform="matrix(1.19249e-08 1 1 -1.19249e-08 55.7004 116.216)" fill="#3C3C3C"/>
<ellipse cx="2.21128" cy="2.20892" rx="2.21128" ry="2.20892" transform="matrix(1.19249e-08 1 1 -1.19249e-08 -1.36621 120.544)" fill="#3C3C3C"/>
<ellipse cx="2.21128" cy="2.20892" rx="2.21128" ry="2.20892" transform="matrix(1.19249e-08 1 1 -1.19249e-08 5.36377 120.578)" fill="#3C3C3C"/>
<ellipse cx="2.21128" cy="2.20892" rx="2.21128" ry="2.20892" transform="matrix(1.19249e-08 1 1 -1.19249e-08 14.0442 121.485)" fill="#3C3C3C"/>
<ellipse cx="2.21128" cy="2.20892" rx="2.21128" ry="2.20892" transform="matrix(1.19249e-08 1 1 -1.19249e-08 22.885 123.129)" fill="#3C3C3C"/>
<ellipse cx="2.21128" cy="2.20892" rx="2.21128" ry="2.20892" transform="matrix(1.19249e-08 1 1 -1.19249e-08 28.8364 122.537)" fill="#3C3C3C"/>
<ellipse cx="2.21128" cy="2.20892" rx="2.21128" ry="2.20892" transform="matrix(1.19249e-08 1 1 -1.19249e-08 35.0627 122.229)" fill="#3C3C3C"/>
<ellipse cx="2.21128" cy="2.20892" rx="2.21128" ry="2.20892" transform="matrix(1.19249e-08 1 1 -1.19249e-08 41.7859 122.302)" fill="#3C3C3C"/>
<ellipse cx="2.21128" cy="2.20892" rx="2.21128" ry="2.20892" transform="matrix(1.19249e-08 1 1 -1.19249e-08 47.9573 121.977)" fill="#3C3C3C"/>
<ellipse cx="2.21128" cy="2.20892" rx="2.21128" ry="2.20892" transform="matrix(1.19249e-08 1 1 -1.19249e-08 54.4607 121.896)" fill="#3C3C3C"/>
<ellipse cx="2.21128" cy="2.20892" rx="2.21128" ry="2.20892" transform="matrix(1.19249e-08 1 1 -1.19249e-08 -0.775391 126.971)" fill="#3C3C3C"/>
<ellipse cx="2.21128" cy="2.20892" rx="2.21128" ry="2.20892" transform="matrix(1.19249e-08 1 1 -1.19249e-08 8.64087 126.656)" fill="#3C3C3C"/>
<ellipse cx="2.21128" cy="2.20892" rx="2.21128" ry="2.20892" transform="matrix(1.19249e-08 1 1 -1.19249e-08 19.3713 127.488)" fill="#3C3C3C"/>
<ellipse cx="2.21128" cy="2.20892" rx="2.21128" ry="2.20892" transform="matrix(1.19249e-08 1 1 -1.19249e-08 27.3149 128.129)" fill="#3C3C3C"/>
<ellipse cx="2.21128" cy="2.20892" rx="2.21128" ry="2.20892" transform="matrix(1.19249e-08 1 1 -1.19249e-08 34.2441 128.309)" fill="#3C3C3C"/>
<ellipse cx="2.21128" cy="2.20892" rx="2.21128" ry="2.20892" transform="matrix(1.19249e-08 1 1 -1.19249e-08 41.9587 129.068)" fill="#3C3C3C"/>
<ellipse cx="2.21128" cy="2.20892" rx="2.21128" ry="2.20892" transform="matrix(1.19249e-08 1 1 -1.19249e-08 48.458 128.97)" fill="#3C3C3C"/>
<ellipse cx="2.21128" cy="2.20892" rx="2.21128" ry="2.20892" transform="matrix(1.19249e-08 1 1 -1.19249e-08 53.7324 128.083)" fill="#3C3C3C"/>
<ellipse cx="2.21128" cy="2.20892" rx="2.21128" ry="2.20892" transform="matrix(1.19249e-08 1 1 -1.19249e-08 0.797363 133.338)" fill="#3C3C3C"/>
<ellipse cx="2.21128" cy="2.20892" rx="2.21128" ry="2.20892" transform="matrix(1.19249e-08 1 1 -1.19249e-08 10.6223 133.489)" fill="#3C3C3C"/>
<ellipse cx="2.21128" cy="2.20892" rx="2.21128" ry="2.20892" transform="matrix(1.19249e-08 1 1 -1.19249e-08 20.709 134.771)" fill="#3C3C3C"/>
<ellipse cx="2.21128" cy="2.20892" rx="2.21128" ry="2.20892" transform="matrix(1.19249e-08 1 1 -1.19249e-08 28.9253 135.873)" fill="#3C3C3C"/>
<ellipse cx="2.21128" cy="2.20892" rx="2.21128" ry="2.20892" transform="matrix(1.19249e-08 1 1 -1.19249e-08 34.4888 135.094)" fill="#3C3C3C"/>
<ellipse cx="2.21128" cy="2.20892" rx="2.21128" ry="2.20892" transform="matrix(1.19249e-08 1 1 -1.19249e-08 41.8843 135.641)" fill="#3C3C3C"/>
<ellipse cx="2.21128" cy="2.20892" rx="2.21128" ry="2.20892" transform="matrix(1.19249e-08 1 1 -1.19249e-08 48.9968 136.041)" fill="#3C3C3C"/>
<ellipse cx="2.21128" cy="2.20892" rx="2.21128" ry="2.20892" transform="matrix(1.19249e-08 1 1 -1.19249e-08 55.2666 135.746)" fill="#3C3C3C"/>
<ellipse cx="2.21128" cy="2.20892" rx="2.21128" ry="2.20892" transform="matrix(1.19249e-08 1 1 -1.19249e-08 2.42358 139.931)" fill="#3C3C3C"/>
<ellipse cx="2.21128" cy="2.20892" rx="2.21128" ry="2.20892" transform="matrix(1.19249e-08 1 1 -1.19249e-08 11.1829 140.243)" fill="#3C3C3C"/>
<ellipse cx="2.21128" cy="2.20892" rx="2.21128" ry="2.20892" transform="matrix(1.19249e-08 1 1 -1.19249e-08 19.1045 140.646)" fill="#3C3C3C"/>
<ellipse cx="2.21128" cy="2.20892" rx="2.21128" ry="2.20892" transform="matrix(1.19249e-08 1 1 -1.19249e-08 27.7019 141.622)" fill="#3C3C3C"/>
<ellipse cx="2.21128" cy="2.20892" rx="2.21128" ry="2.20892" transform="matrix(1.19249e-08 1 1 -1.19249e-08 33.7466 141.284)" fill="#3C3C3C"/>
<ellipse cx="2.21128" cy="2.20892" rx="2.21128" ry="2.20892" transform="matrix(1.19249e-08 1 1 -1.19249e-08 40.8218 141.543)" fill="#3C3C3C"/>
<ellipse cx="2.21128" cy="2.20892" rx="2.21128" ry="2.20892" transform="matrix(1.19249e-08 1 1 -1.19249e-08 48.7026 142.426)" fill="#3C3C3C"/>
<ellipse cx="2.21128" cy="2.20892" rx="2.21128" ry="2.20892" transform="matrix(1.19249e-08 1 1 -1.19249e-08 56.0681 143.082)" fill="#3C3C3C"/>
<ellipse cx="2.21128" cy="2.20892" rx="2.21128" ry="2.20892" transform="matrix(1.19249e-08 1 1 -1.19249e-08 1.81836 146.549)" fill="#3C3C3C"/>
<ellipse cx="2.21128" cy="2.20892" rx="2.21128" ry="2.20892" transform="matrix(1.19249e-08 1 1 -1.19249e-08 9.59717 146.603)" fill="#3C3C3C"/>
<ellipse cx="2.21128" cy="2.20892" rx="2.21128" ry="2.20892" transform="matrix(1.19249e-08 1 1 -1.19249e-08 16.9067 146.691)" fill="#3C3C3C"/>
<ellipse cx="2.21128" cy="2.20892" rx="2.21128" ry="2.20892" transform="matrix(1.19249e-08 1 1 -1.19249e-08 26.1658 147.453)" fill="#3C3C3C"/>
<ellipse cx="2.21128" cy="2.20892" rx="2.21128" ry="2.20892" transform="matrix(1.19249e-08 1 1 -1.19249e-08 32.6887 147.41)" fill="#3C3C3C"/>
<ellipse cx="2.21128" cy="2.20892" rx="2.21128" ry="2.20892" transform="matrix(1.19249e-08 1 1 -1.19249e-08 40.8357 148.183)" fill="#3C3C3C"/>
<ellipse cx="2.21128" cy="2.20892" rx="2.21128" ry="2.20892" transform="matrix(1.19249e-08 1 1 -1.19249e-08 49.614 149.881)" fill="#3C3C3C"/>
<ellipse cx="2.21128" cy="2.20892" rx="2.21128" ry="2.20892" transform="matrix(1.19249e-08 1 1 -1.19249e-08 57.4075 151.268)" fill="#3C3C3C"/>
<ellipse cx="2.21128" cy="2.20892" rx="2.21128" ry="2.20892" transform="matrix(1.19249e-08 1 1 -1.19249e-08 1.49756 153.187)" fill="#3C3C3C"/>
<ellipse cx="2.21128" cy="2.20892" rx="2.21128" ry="2.20892" transform="matrix(1.19249e-08 1 1 -1.19249e-08 9.0437 153.194)" fill="#3C3C3C"/>
<ellipse cx="2.21128" cy="2.20892" rx="2.21128" ry="2.20892" transform="matrix(1.19249e-08 1 1 -1.19249e-08 16.9385 153.328)" fill="#3C3C3C"/>
<ellipse cx="2.21128" cy="2.20892" rx="2.21128" ry="2.20892" transform="matrix(1.19249e-08 1 1 -1.19249e-08 26.7581 154.358)" fill="#3C3C3C"/>
<ellipse cx="2.21128" cy="2.20892" rx="2.21128" ry="2.20892" transform="matrix(1.19249e-08 1 1 -1.19249e-08 32.9846 154.17)" fill="#3C3C3C"/>
<ellipse cx="2.21128" cy="2.20892" rx="2.21128" ry="2.20892" transform="matrix(1.19249e-08 1 1 -1.19249e-08 41.9917 155.619)" fill="#3C3C3C"/>
<ellipse cx="2.21128" cy="2.20892" rx="2.21128" ry="2.20892" transform="matrix(1.19249e-08 1 1 -1.19249e-08 51.123 158.404)" fill="#3C3C3C"/>
<ellipse cx="2.21128" cy="2.20892" rx="2.21128" ry="2.20892" transform="matrix(1.19249e-08 1 1 -1.19249e-08 58.7971 160.516)" fill="#3C3C3C"/>
<ellipse cx="2.21128" cy="2.20892" rx="2.21128" ry="2.20892" transform="matrix(1.19249e-08 1 1 -1.19249e-08 2.93921 159.863)" fill="#3C3C3C"/>
<ellipse cx="2.21128" cy="2.20892" rx="2.21128" ry="2.20892" transform="matrix(1.19249e-08 1 1 -1.19249e-08 10.4058 159.975)" fill="#3C3C3C"/>
<ellipse cx="2.21128" cy="2.20892" rx="2.21128" ry="2.20892" transform="matrix(1.19249e-08 1 1 -1.19249e-08 16.1914 159.863)" fill="#3C3C3C"/>
<ellipse cx="2.21128" cy="2.20892" rx="2.21128" ry="2.20892" transform="matrix(1.19249e-08 1 1 -1.19249e-08 26.7295 160.976)" fill="#3C3C3C"/>
<ellipse cx="2.21128" cy="2.20892" rx="2.21128" ry="2.20892" transform="matrix(1.19249e-08 1 1 -1.19249e-08 34.6775 161.745)" fill="#3C3C3C"/>
<ellipse cx="2.21128" cy="2.20892" rx="2.21128" ry="2.20892" transform="matrix(1.19249e-08 1 1 -1.19249e-08 41.2559 161.714)" fill="#3C3C3C"/>
<ellipse cx="2.21128" cy="2.20892" rx="2.21128" ry="2.20892" transform="matrix(1.19249e-08 1 1 -1.19249e-08 50.0767 163.64)" fill="#3C3C3C"/>
<ellipse cx="2.21128" cy="2.20892" rx="2.21128" ry="2.20892" transform="matrix(1.19249e-08 1 1 -1.19249e-08 58.6768 166.838)" fill="#3C3C3C"/>
<ellipse cx="2.21128" cy="2.20892" rx="2.21128" ry="2.20892" transform="matrix(1.19249e-08 1 1 -1.19249e-08 -0.338867 166.664)" fill="#3C3C3C"/>
<ellipse cx="2.21128" cy="2.20892" rx="2.21128" ry="2.20892" transform="matrix(1.19249e-08 1 1 -1.19249e-08 6.16577 166.688)" fill="#3C3C3C"/>
<ellipse cx="2.21128" cy="2.20892" rx="2.21128" ry="2.20892" transform="matrix(1.19249e-08 1 1 -1.19249e-08 15.2285 166.444)" fill="#3C3C3C"/>
<ellipse cx="2.21128" cy="2.20892" rx="2.21128" ry="2.20892" transform="matrix(1.19249e-08 1 1 -1.19249e-08 27.0464 167.77)" fill="#3C3C3C"/>
<ellipse cx="2.21128" cy="2.20892" rx="2.21128" ry="2.20892" transform="matrix(1.19249e-08 1 1 -1.19249e-08 35.7759 169.223)" fill="#3C3C3C"/>
<ellipse cx="2.21128" cy="2.20892" rx="2.21128" ry="2.20892" transform="matrix(1.19249e-08 1 1 -1.19249e-08 42.615 169.415)" fill="#3C3C3C"/>
<ellipse cx="2.21128" cy="2.20892" rx="2.21128" ry="2.20892" transform="matrix(1.19249e-08 1 1 -1.19249e-08 51.187 171.769)" fill="#3C3C3C"/>
<ellipse cx="2.21128" cy="2.20892" rx="2.21128" ry="2.20892" transform="matrix(1.19249e-08 1 1 -1.19249e-08 59.3311 175.734)" fill="#3C3C3C"/>
<ellipse cx="2.21128" cy="2.20892" rx="2.21128" ry="2.20892" transform="matrix(1.19249e-08 1 1 -1.19249e-08 -3.9812 174.719)" fill="#3C3C3C"/>
<ellipse cx="2.21128" cy="2.20892" rx="2.21128" ry="2.20892" transform="matrix(1.19249e-08 1 1 -1.19249e-08 2.93677 174.546)" fill="#3C3C3C"/>
<ellipse cx="2.21128" cy="2.20892" rx="2.21128" ry="2.20892" transform="matrix(1.19249e-08 1 1 -1.19249e-08 14.2976 173.105)" fill="#3C3C3C"/>
<ellipse cx="2.21128" cy="2.20892" rx="2.21128" ry="2.20892" transform="matrix(1.19249e-08 1 1 -1.19249e-08 26.6333 174.192)" fill="#3C3C3C"/>
<ellipse cx="2.21128" cy="2.20892" rx="2.21128" ry="2.20892" transform="matrix(1.19249e-08 1 1 -1.19249e-08 37.1335 177.266)" fill="#3C3C3C"/>
<ellipse cx="2.21128" cy="2.20892" rx="2.21128" ry="2.20892" transform="matrix(1.19249e-08 1 1 -1.19249e-08 44.8796 178.945)" fill="#3C3C3C"/>
<ellipse cx="2.21128" cy="2.20892" rx="2.21128" ry="2.20892" transform="matrix(1.19249e-08 1 1 -1.19249e-08 52.5671 181.701)" fill="#3C3C3C"/>
<ellipse cx="2.21128" cy="2.20892" rx="2.21128" ry="2.20892" transform="matrix(1.19249e-08 1 1 -1.19249e-08 59.5029 184.648)" fill="#3C3C3C"/>
<ellipse cx="2.21128" cy="2.20892" rx="2.21128" ry="2.20892" transform="matrix(1.19249e-08 1 1 -1.19249e-08 -3.76123 181.22)" fill="#3C3C3C"/>
<ellipse cx="2.21128" cy="2.20892" rx="2.21128" ry="2.20892" transform="matrix(1.19249e-08 1 1 -1.19249e-08 3.57495 180.841)" fill="#3C3C3C"/>
<ellipse cx="2.21128" cy="2.20892" rx="2.21128" ry="2.20892" transform="matrix(1.19249e-08 1 1 -1.19249e-08 14.5872 179.719)" fill="#3C3C3C"/>
<ellipse cx="2.21128" cy="2.20892" rx="2.21128" ry="2.20892" transform="matrix(1.19249e-08 1 1 -1.19249e-08 25.5691 180.376)" fill="#3C3C3C"/>
<ellipse cx="2.21128" cy="2.20892" rx="2.21128" ry="2.20892" transform="matrix(1.19249e-08 1 1 -1.19249e-08 35.7551 182.468)" fill="#3C3C3C"/>
<ellipse cx="2.21128" cy="2.20892" rx="2.21128" ry="2.20892" transform="matrix(1.19249e-08 1 1 -1.19249e-08 44.2917 184.616)" fill="#3C3C3C"/>
<ellipse cx="2.21128" cy="2.20892" rx="2.21128" ry="2.20892" transform="matrix(1.19249e-08 1 1 -1.19249e-08 52.3953 187.701)" fill="#3C3C3C"/>
<ellipse cx="2.21128" cy="2.20892" rx="2.21128" ry="2.20892" transform="matrix(1.19249e-08 1 1 -1.19249e-08 59.5015 190.638)" fill="#3C3C3C"/>
<ellipse cx="2.21128" cy="2.20892" rx="2.21128" ry="2.20892" transform="matrix(1.19249e-08 1 1 -1.19249e-08 0.445801 186.429)" fill="#3C3C3C"/>
<ellipse cx="2.21128" cy="2.20892" rx="2.21128" ry="2.20892" transform="matrix(1.19249e-08 1 1 -1.19249e-08 7.81909 186.359)" fill="#3C3C3C"/>
<ellipse cx="2.21128" cy="2.20892" rx="2.21128" ry="2.20892" transform="matrix(1.19249e-08 1 1 -1.19249e-08 14.8464 186.342)" fill="#3C3C3C"/>
<ellipse cx="2.21128" cy="2.20892" rx="2.21128" ry="2.20892" transform="matrix(1.19249e-08 1 1 -1.19249e-08 22.469 186.361)" fill="#3C3C3C"/>
<ellipse cx="2.21128" cy="2.20892" rx="2.21128" ry="2.20892" transform="matrix(1.19249e-08 1 1 -1.19249e-08 30.1201 186.475)" fill="#3C3C3C"/>
<ellipse cx="2.21128" cy="2.20892" rx="2.21128" ry="2.20892" transform="matrix(1.19249e-08 1 1 -1.19249e-08 40.8586 187.986)" fill="#3C3C3C"/>
<ellipse cx="2.21128" cy="2.20892" rx="2.21128" ry="2.20892" transform="matrix(1.19249e-08 1 1 -1.19249e-08 50.7319 190.986)" fill="#3C3C3C"/>
<ellipse cx="2.21128" cy="2.20892" rx="2.21128" ry="2.20892" transform="matrix(1.19249e-08 1 1 -1.19249e-08 59.113 194.656)" fill="#3C3C3C"/>
<ellipse cx="2.21128" cy="2.20892" rx="2.21128" ry="2.20892" transform="matrix(1.19249e-08 1 1 -1.19249e-08 -3.42261 193.048)" fill="#3C3C3C"/>
<ellipse cx="2.21128" cy="2.20892" rx="2.21128" ry="2.20892" transform="matrix(1.19249e-08 1 1 -1.19249e-08 6.47412 193.953)" fill="#3C3C3C"/>
<ellipse cx="2.21128" cy="2.20892" rx="2.21128" ry="2.20892" transform="matrix(1.19249e-08 1 1 -1.19249e-08 12.2649 193.619)" fill="#3C3C3C"/>
<ellipse cx="2.21128" cy="2.20892" rx="2.21128" ry="2.20892" transform="matrix(1.19249e-08 1 1 -1.19249e-08 14.7319 192.977)" fill="#3C3C3C"/>
<ellipse cx="2.21128" cy="2.20892" rx="2.21128" ry="2.20892" transform="matrix(1.19249e-08 1 1 -1.19249e-08 21.6926 192.97)" fill="#3C3C3C"/>
<ellipse cx="2.21128" cy="2.20892" rx="2.21128" ry="2.20892" transform="matrix(1.19249e-08 1 1 -1.19249e-08 26.7769 193.083)" fill="#3C3C3C"/>
<ellipse cx="2.21128" cy="2.20892" rx="2.21128" ry="2.20892" transform="matrix(1.19249e-08 1 1 -1.19249e-08 38.3762 193.49)" fill="#3C3C3C"/>
<ellipse cx="2.21128" cy="2.20892" rx="2.21128" ry="2.20892" transform="matrix(1.19249e-08 1 1 -1.19249e-08 47.4568 194.602)" fill="#3C3C3C"/>
<ellipse cx="2.21128" cy="2.20892" rx="2.21128" ry="2.20892" transform="matrix(1.19249e-08 1 1 -1.19249e-08 54.9465 195.183)" fill="#3C3C3C"/>
<ellipse cx="2.21128" cy="2.20892" rx="2.21128" ry="2.20892" transform="matrix(1.19249e-08 1 1 -1.19249e-08 -0.487793 200.44)" fill="#3C3C3C"/>
<ellipse cx="2.21128" cy="2.20892" rx="2.21128" ry="2.20892" transform="matrix(1.19249e-08 1 1 -1.19249e-08 6.93066 200.802)" fill="#3C3C3C"/>
<ellipse cx="2.21128" cy="2.20892" rx="2.21128" ry="2.20892" transform="matrix(1.19249e-08 1 1 -1.19249e-08 12.5383 200.352)" fill="#3C3C3C"/>
<ellipse cx="2.21128" cy="2.20892" rx="2.21128" ry="2.20892" transform="matrix(1.19249e-08 1 1 -1.19249e-08 16.4807 199.684)" fill="#3C3C3C"/>
<ellipse cx="2.21128" cy="2.20892" rx="2.21128" ry="2.20892" transform="matrix(1.19249e-08 1 1 -1.19249e-08 20.5496 199.665)" fill="#3C3C3C"/>
<ellipse cx="2.21128" cy="2.20892" rx="2.21128" ry="2.20892" transform="matrix(1.19249e-08 1 1 -1.19249e-08 25.4568 199.986)" fill="#3C3C3C"/>
<ellipse cx="2.21128" cy="2.20892" rx="2.21128" ry="2.20892" transform="matrix(1.19249e-08 1 1 -1.19249e-08 33.9106 199.654)" fill="#3C3C3C"/>
<ellipse cx="2.21128" cy="2.20892" rx="2.21128" ry="2.20892" transform="matrix(1.19249e-08 1 1 -1.19249e-08 42.6868 199.652)" fill="#3C3C3C"/>
<ellipse cx="2.21128" cy="2.20892" rx="2.21128" ry="2.20892" transform="matrix(1.19249e-08 1 1 -1.19249e-08 51.7773 200.17)" fill="#3C3C3C"/>
<ellipse cx="2.21128" cy="2.20892" rx="2.21128" ry="2.20892" transform="matrix(1.19249e-08 1 1 -1.19249e-08 -3.11865 209.84)" fill="#3C3C3C"/>
<ellipse cx="2.21128" cy="2.20892" rx="2.21128" ry="2.20892" transform="matrix(1.19249e-08 1 1 -1.19249e-08 4.01782 210.432)" fill="#3C3C3C"/>
<ellipse cx="2.21128" cy="2.20892" rx="2.21128" ry="2.20892" transform="matrix(1.19249e-08 1 1 -1.19249e-08 8.82788 208.639)" fill="#3C3C3C"/>
<ellipse cx="2.21128" cy="2.20892" rx="2.21128" ry="2.20892" transform="matrix(1.19249e-08 1 1 -1.19249e-08 13.7769 207.548)" fill="#3C3C3C"/>
<ellipse cx="2.21128" cy="2.20892" rx="2.21128" ry="2.20892" transform="matrix(1.19249e-08 1 1 -1.19249e-08 18.4631 206.74)" fill="#3C3C3C"/>
<ellipse cx="2.21128" cy="2.20892" rx="2.21128" ry="2.20892" transform="matrix(1.19249e-08 1 1 -1.19249e-08 21.8142 206.233)" fill="#3C3C3C"/>
<ellipse cx="2.21128" cy="2.20892" rx="2.21128" ry="2.20892" transform="matrix(1.19249e-08 1 1 -1.19249e-08 24.1023 207.074)" fill="#3C3C3C"/>
<ellipse cx="2.21128" cy="2.20892" rx="2.21128" ry="2.20892" transform="matrix(1.19249e-08 1 1 -1.19249e-08 29.02 207.951)" fill="#3C3C3C"/>
<ellipse cx="2.21128" cy="2.20892" rx="2.21128" ry="2.20892" transform="matrix(1.19249e-08 1 1 -1.19249e-08 35.4639 208.067)" fill="#3C3C3C"/>
<ellipse cx="2.21128" cy="2.20892" rx="2.21128" ry="2.20892" transform="matrix(1.19249e-08 1 1 -1.19249e-08 42.731 207.677)" fill="#3C3C3C"/>
<ellipse cx="2.21128" cy="2.20892" rx="2.21128" ry="2.20892" transform="matrix(1.19249e-08 1 1 -1.19249e-08 -0.554688 221.013)" fill="#3C3C3C"/>
<ellipse cx="2.21128" cy="2.20892" rx="2.21128" ry="2.20892" transform="matrix(1.19249e-08 1 1 -1.19249e-08 6.28271 221.88)" fill="#3C3C3C"/>
<ellipse cx="2.21128" cy="2.20892" rx="2.21128" ry="2.20892" transform="matrix(1.19249e-08 1 1 -1.19249e-08 11.6807 218.596)" fill="#3C3C3C"/>
<ellipse cx="2.21128" cy="2.20892" rx="2.21128" ry="2.20892" transform="matrix(1.19249e-08 1 1 -1.19249e-08 16.8027 216.523)" fill="#3C3C3C"/>
<ellipse cx="2.21128" cy="2.20892" rx="2.21128" ry="2.20892" transform="matrix(1.19249e-08 1 1 -1.19249e-08 21.6321 214.938)" fill="#3C3C3C"/>
<ellipse cx="2.21128" cy="2.20892" rx="2.21128" ry="2.20892" transform="matrix(1.19249e-08 1 1 -1.19249e-08 24.4163 213.186)" fill="#3C3C3C"/>
<ellipse cx="2.21128" cy="2.20892" rx="2.21128" ry="2.20892" transform="matrix(1.19249e-08 1 1 -1.19249e-08 25.5505 213.224)" fill="#3C3C3C"/>
<ellipse cx="2.21128" cy="2.20892" rx="2.21128" ry="2.20892" transform="matrix(1.19249e-08 1 1 -1.19249e-08 27.8167 215.453)" fill="#3C3C3C"/>
<ellipse cx="2.21128" cy="2.20892" rx="2.21128" ry="2.20892" transform="matrix(1.19249e-08 1 1 -1.19249e-08 32.5049 217.519)" fill="#3C3C3C"/>
<ellipse cx="2.21128" cy="2.20892" rx="2.21128" ry="2.20892" transform="matrix(1.19249e-08 1 1 -1.19249e-08 38.5867 218.341)" fill="#3C3C3C"/>
<ellipse cx="2.21128" cy="2.20892" rx="2.21128" ry="2.20892" transform="matrix(1.19249e-08 1 1 -1.19249e-08 -0.167236 231.871)" fill="#3C3C3C"/>
<ellipse cx="2.21128" cy="2.20892" rx="2.21128" ry="2.20892" transform="matrix(1.19249e-08 1 1 -1.19249e-08 6.12476 233.697)" fill="#3C3C3C"/>
<ellipse cx="2.21128" cy="2.20892" rx="2.21128" ry="2.20892" transform="matrix(1.19249e-08 1 1 -1.19249e-08 13.1355 230.783)" fill="#3C3C3C"/>
<ellipse cx="2.21128" cy="2.20892" rx="2.21128" ry="2.20892" transform="matrix(1.19249e-08 1 1 -1.19249e-08 19.4082 227.974)" fill="#3C3C3C"/>
<ellipse cx="2.21128" cy="2.20892" rx="2.21128" ry="2.20892" transform="matrix(1.19249e-08 1 1 -1.19249e-08 24.668 224.787)" fill="#3C3C3C"/>
<ellipse cx="2.21128" cy="2.20892" rx="2.21128" ry="2.20892" transform="matrix(1.19249e-08 1 1 -1.19249e-08 27.6614 221.175)" fill="#3C3C3C"/>
<ellipse cx="2.21128" cy="2.20892" rx="2.21128" ry="2.20892" transform="matrix(1.19249e-08 1 1 -1.19249e-08 28.9243 219.51)" fill="#3C3C3C"/>
<ellipse cx="2.21128" cy="2.20892" rx="2.21128" ry="2.20892" transform="matrix(1.19249e-08 1 1 -1.19249e-08 27.8816 222.031)" fill="#3C3C3C"/>
<ellipse cx="2.21128" cy="2.20892" rx="2.21128" ry="2.20892" transform="matrix(1.19249e-08 1 1 -1.19249e-08 31.3452 226.156)" fill="#3C3C3C"/>
<ellipse cx="2.21128" cy="2.20892" rx="2.21128" ry="2.20892" transform="matrix(1.19249e-08 1 1 -1.19249e-08 37.2805 228.198)" fill="#3C3C3C"/>
</svg>
