<svg width="82" height="489" viewBox="0 0 82 489" fill="none" xmlns="http://www.w3.org/2000/svg">
<ellipse cx="2.21128" cy="2.21993" rx="2.21128" ry="2.21993" transform="matrix(-1 -8.74228e-08 -8.74228e-08 1 66.4143 244.386)" fill="#3C3C3C"/>
<ellipse cx="2.21128" cy="2.21993" rx="2.21128" ry="2.21993" transform="matrix(-1 -8.74228e-08 -8.74228e-08 1 66.4856 251.153)" fill="#3C3C3C"/>
<ellipse cx="2.21128" cy="2.21993" rx="2.21128" ry="2.21993" transform="matrix(-1 -8.74228e-08 -8.74228e-08 1 68.1047 261.929)" fill="#3C3C3C"/>
<ellipse cx="2.21128" cy="2.21993" rx="2.21128" ry="2.21993" transform="matrix(-1 -8.74228e-08 -8.74228e-08 1 67.8147 273.835)" fill="#3C3C3C"/>
<ellipse cx="2.21128" cy="2.21993" rx="2.21128" ry="2.21993" transform="matrix(-1 -8.74228e-08 -8.74228e-08 1 64.3484 285.851)" fill="#3C3C3C"/>
<ellipse cx="2.21128" cy="2.21993" rx="2.21128" ry="2.21993" transform="matrix(-1 -8.74228e-08 -8.74228e-08 1 61.7468 294.187)" fill="#3C3C3C"/>
<ellipse cx="2.21128" cy="2.21993" rx="2.21128" ry="2.21993" transform="matrix(-1 -8.74228e-08 -8.74228e-08 1 58.4961 301.793)" fill="#3C3C3C"/>
<ellipse cx="2.21128" cy="2.21993" rx="2.21128" ry="2.21993" transform="matrix(-1 -8.74228e-08 -8.74228e-08 1 56.5645 308.54)" fill="#3C3C3C"/>
<ellipse cx="2.21128" cy="2.21993" rx="2.21128" ry="2.21993" transform="matrix(-1 -8.74228e-08 -8.74228e-08 1 55.9348 315.154)" fill="#3C3C3C"/>
<ellipse cx="2.21128" cy="2.21993" rx="2.21128" ry="2.21993" transform="matrix(-1 -8.74228e-08 -8.74228e-08 1 55.1458 321.708)" fill="#3C3C3C"/>
<ellipse cx="2.21128" cy="2.21993" rx="2.21128" ry="2.21993" transform="matrix(-1 -8.74228e-08 -8.74228e-08 1 56.3118 328.5)" fill="#3C3C3C"/>
<ellipse cx="2.21128" cy="2.21993" rx="2.21128" ry="2.21993" transform="matrix(-1 -8.74228e-08 -8.74228e-08 1 58.98 335.005)" fill="#3C3C3C"/>
<ellipse cx="2.21128" cy="2.21993" rx="2.21128" ry="2.21993" transform="matrix(-1 -8.74228e-08 -8.74228e-08 1 59.3047 341.6)" fill="#3C3C3C"/>
<ellipse cx="2.21128" cy="2.21993" rx="2.21128" ry="2.21993" transform="matrix(-1 -8.74228e-08 -8.74228e-08 1 59.6143 244.137)" fill="#3C3C3C"/>
<ellipse cx="2.21128" cy="2.21993" rx="2.21128" ry="2.21993" transform="matrix(-1 -8.74228e-08 -8.74228e-08 1 60.9443 253.337)" fill="#3C3C3C"/>
<ellipse cx="2.21128" cy="2.21993" rx="2.21128" ry="2.21993" transform="matrix(-1 -8.74228e-08 -8.74228e-08 1 61.5837 262.689)" fill="#3C3C3C"/>
<ellipse cx="2.21128" cy="2.21993" rx="2.21128" ry="2.21993" transform="matrix(-1 -8.74228e-08 -8.74228e-08 1 61.2444 273.621)" fill="#3C3C3C"/>
<ellipse cx="2.21128" cy="2.21993" rx="2.21128" ry="2.21993" transform="matrix(-1 -8.74228e-08 -8.74228e-08 1 58.1318 285.476)" fill="#3C3C3C"/>
<ellipse cx="2.21128" cy="2.21993" rx="2.21128" ry="2.21993" transform="matrix(-1 -8.74228e-08 -8.74228e-08 1 56.4673 293.442)" fill="#3C3C3C"/>
<ellipse cx="2.21128" cy="2.21993" rx="2.21128" ry="2.21993" transform="matrix(-1 -8.74228e-08 -8.74228e-08 1 54.0039 301.291)" fill="#3C3C3C"/>
<ellipse cx="2.21128" cy="2.21993" rx="2.21128" ry="2.21993" transform="matrix(-1 -8.74228e-08 -8.74228e-08 1 50.6042 308.547)" fill="#3C3C3C"/>
<ellipse cx="2.21128" cy="2.21993" rx="2.21128" ry="2.21993" transform="matrix(-1 -8.74228e-08 -8.74228e-08 1 50.2241 315.205)" fill="#3C3C3C"/>
<ellipse cx="2.21128" cy="2.21993" rx="2.21128" ry="2.21993" transform="matrix(-1 -8.74228e-08 -8.74228e-08 1 51.6626 321.79)" fill="#3C3C3C"/>
<ellipse cx="2.21128" cy="2.21993" rx="2.21128" ry="2.21993" transform="matrix(-1 -8.74228e-08 -8.74228e-08 1 52.7869 328.26)" fill="#3C3C3C"/>
<ellipse cx="2.21128" cy="2.21993" rx="2.21128" ry="2.21993" transform="matrix(-1 -8.74228e-08 -8.74228e-08 1 53.5317 334.728)" fill="#3C3C3C"/>
<ellipse cx="2.21128" cy="2.21993" rx="2.21128" ry="2.21993" transform="matrix(-1 -8.74228e-08 -8.74228e-08 1 51.6882 341.76)" fill="#3C3C3C"/>
<ellipse cx="2.21128" cy="2.21993" rx="2.21128" ry="2.21993" transform="matrix(-1 -8.74228e-08 -8.74228e-08 1 53.9258 245.761)" fill="#3C3C3C"/>
<ellipse cx="2.21128" cy="2.21993" rx="2.21128" ry="2.21993" transform="matrix(-1 -8.74228e-08 -8.74228e-08 1 53.9785 252.531)" fill="#3C3C3C"/>
<ellipse cx="2.21128" cy="2.21993" rx="2.21128" ry="2.21993" transform="matrix(-1 -8.74228e-08 -8.74228e-08 1 54.9021 262.3)" fill="#3C3C3C"/>
<ellipse cx="2.21128" cy="2.21993" rx="2.21128" ry="2.21993" transform="matrix(-1 -8.74228e-08 -8.74228e-08 1 54.8281 272.69)" fill="#3C3C3C"/>
<ellipse cx="2.21128" cy="2.21993" rx="2.21128" ry="2.21993" transform="matrix(-1 -8.74228e-08 -8.74228e-08 1 53.4302 283.057)" fill="#3C3C3C"/>
<ellipse cx="2.21128" cy="2.21993" rx="2.21128" ry="2.21993" transform="matrix(-1 -8.74228e-08 -8.74228e-08 1 50.9397 292.632)" fill="#3C3C3C"/>
<ellipse cx="2.21128" cy="2.21993" rx="2.21128" ry="2.21993" transform="matrix(-1 -8.74228e-08 -8.74228e-08 1 47.9412 301.079)" fill="#3C3C3C"/>
<ellipse cx="2.21128" cy="2.21993" rx="2.21128" ry="2.21993" transform="matrix(-1 -8.74228e-08 -8.74228e-08 1 46.0137 308.318)" fill="#3C3C3C"/>
<ellipse cx="2.21128" cy="2.21993" rx="2.21128" ry="2.21993" transform="matrix(-1 -8.74228e-08 -8.74228e-08 1 47.1924 314.665)" fill="#3C3C3C"/>
<ellipse cx="2.21128" cy="2.21993" rx="2.21128" ry="2.21993" transform="matrix(-1 -8.74228e-08 -8.74228e-08 1 50.0486 319.931)" fill="#3C3C3C"/>
<ellipse cx="2.21128" cy="2.21993" rx="2.21128" ry="2.21993" transform="matrix(-1 -8.74228e-08 -8.74228e-08 1 51.1033 325.781)" fill="#3C3C3C"/>
<ellipse cx="2.21128" cy="2.21993" rx="2.21128" ry="2.21993" transform="matrix(-1 -8.74228e-08 -8.74228e-08 1 49.2153 333.759)" fill="#3C3C3C"/>
<ellipse cx="2.21128" cy="2.21993" rx="2.21128" ry="2.21993" transform="matrix(-1 -8.74228e-08 -8.74228e-08 1 46.7622 341.424)" fill="#3C3C3C"/>
<ellipse cx="2.21128" cy="2.21993" rx="2.21128" ry="2.21993" transform="matrix(-1 -8.74228e-08 -8.74228e-08 1 47.7136 246.768)" fill="#3C3C3C"/>
<ellipse cx="2.21128" cy="2.21993" rx="2.21128" ry="2.21993" transform="matrix(-1 -8.74228e-08 -8.74228e-08 1 47.4866 252.847)" fill="#3C3C3C"/>
<ellipse cx="2.21128" cy="2.21993" rx="2.21128" ry="2.21993" transform="matrix(-1 -8.74228e-08 -8.74228e-08 1 48.2063 261.908)" fill="#3C3C3C"/>
<ellipse cx="2.21128" cy="2.21993" rx="2.21128" ry="2.21993" transform="matrix(-1 -8.74228e-08 -8.74228e-08 1 48.301 272.021)" fill="#3C3C3C"/>
<ellipse cx="2.21128" cy="2.21993" rx="2.21128" ry="2.21993" transform="matrix(-1 -8.74228e-08 -8.74228e-08 1 47.158 282.404)" fill="#3C3C3C"/>
<ellipse cx="2.21128" cy="2.21993" rx="2.21128" ry="2.21993" transform="matrix(-1 -8.74228e-08 -8.74228e-08 1 45.3044 291.696)" fill="#3C3C3C"/>
<ellipse cx="2.21128" cy="2.21993" rx="2.21128" ry="2.21993" transform="matrix(-1 -8.74228e-08 -8.74228e-08 1 43.1077 300.161)" fill="#3C3C3C"/>
<ellipse cx="2.21128" cy="2.21993" rx="2.21128" ry="2.21993" transform="matrix(-1 -8.74228e-08 -8.74228e-08 1 41.6306 307.602)" fill="#3C3C3C"/>
<ellipse cx="2.21128" cy="2.21993" rx="2.21128" ry="2.21993" transform="matrix(-1 -8.74228e-08 -8.74228e-08 1 43.1423 313.454)" fill="#3C3C3C"/>
<ellipse cx="2.21128" cy="2.21993" rx="2.21128" ry="2.21993" transform="matrix(-1 -8.74228e-08 -8.74228e-08 1 45.9653 317.559)" fill="#3C3C3C"/>
<ellipse cx="2.21128" cy="2.21993" rx="2.21128" ry="2.21993" transform="matrix(-1 -8.74228e-08 -8.74228e-08 1 47.2688 322.124)" fill="#3C3C3C"/>
<ellipse cx="2.21128" cy="2.21993" rx="2.21128" ry="2.21993" transform="matrix(-1 -8.74228e-08 -8.74228e-08 1 45.2822 331.664)" fill="#3C3C3C"/>
<ellipse cx="2.21128" cy="2.21993" rx="2.21128" ry="2.21993" transform="matrix(-1 -8.74228e-08 -8.74228e-08 1 43.8359 339.606)" fill="#3C3C3C"/>
<ellipse cx="2.21128" cy="2.21993" rx="2.21128" ry="2.21993" transform="matrix(-1 -8.74228e-08 -8.74228e-08 1 41.447 247.985)" fill="#3C3C3C"/>
<ellipse cx="2.21128" cy="2.21993" rx="2.21128" ry="2.21993" transform="matrix(-1 -8.74228e-08 -8.74228e-08 1 41.6455 255.686)" fill="#3C3C3C"/>
<ellipse cx="2.21128" cy="2.21993" rx="2.21128" ry="2.21993" transform="matrix(-1 -8.74228e-08 -8.74228e-08 1 41.7014 262.807)" fill="#3C3C3C"/>
<ellipse cx="2.21128" cy="2.21993" rx="2.21128" ry="2.21993" transform="matrix(-1 -8.74228e-08 -8.74228e-08 1 41.5999 272.494)" fill="#3C3C3C"/>
<ellipse cx="2.21128" cy="2.21993" rx="2.21128" ry="2.21993" transform="matrix(-1 -8.74228e-08 -8.74228e-08 1 40.1245 283.128)" fill="#3C3C3C"/>
<ellipse cx="2.21128" cy="2.21993" rx="2.21128" ry="2.21993" transform="matrix(-1 -8.74228e-08 -8.74228e-08 1 40.1587 289.728)" fill="#3C3C3C"/>
<ellipse cx="2.21128" cy="2.21993" rx="2.21128" ry="2.21993" transform="matrix(-1 -8.74228e-08 -8.74228e-08 1 39.4011 297.5)" fill="#3C3C3C"/>
<ellipse cx="2.21128" cy="2.21993" rx="2.21128" ry="2.21993" transform="matrix(-1 -8.74228e-08 -8.74228e-08 1 36.9609 306.495)" fill="#3C3C3C"/>
<ellipse cx="2.21128" cy="2.21993" rx="2.21128" ry="2.21993" transform="matrix(-1 -8.74228e-08 -8.74228e-08 1 37.772 312.524)" fill="#3C3C3C"/>
<ellipse cx="2.21128" cy="2.21993" rx="2.21128" ry="2.21993" transform="matrix(-1 -8.74228e-08 -8.74228e-08 1 40.3853 315.959)" fill="#3C3C3C"/>
<ellipse cx="2.21128" cy="2.21993" rx="2.21128" ry="2.21993" transform="matrix(-1 -8.74228e-08 -8.74228e-08 1 41.7258 318.066)" fill="#3C3C3C"/>
<ellipse cx="2.21128" cy="2.21993" rx="2.21128" ry="2.21993" transform="matrix(-1 -8.74228e-08 -8.74228e-08 1 41.2375 327.262)" fill="#3C3C3C"/>
<ellipse cx="2.21128" cy="2.21993" rx="2.21128" ry="2.21993" transform="matrix(-1 -8.74228e-08 -8.74228e-08 1 41.2036 334.026)" fill="#3C3C3C"/>
<ellipse cx="2.21128" cy="2.21993" rx="2.21128" ry="2.21993" transform="matrix(-1 -8.74228e-08 -8.74228e-08 1 34.9199 248.469)" fill="#3C3C3C"/>
<ellipse cx="2.21128" cy="2.21993" rx="2.21128" ry="2.21993" transform="matrix(-1 -8.74228e-08 -8.74228e-08 1 35.1204 257.685)" fill="#3C3C3C"/>
<ellipse cx="2.21128" cy="2.21993" rx="2.21128" ry="2.21993" transform="matrix(-1 -8.74228e-08 -8.74228e-08 1 34.8867 266.269)" fill="#3C3C3C"/>
<ellipse cx="2.21128" cy="2.21993" rx="2.21128" ry="2.21993" transform="matrix(-1 -8.74228e-08 -8.74228e-08 1 34.6609 273.822)" fill="#3C3C3C"/>
<ellipse cx="2.21128" cy="2.21993" rx="2.21128" ry="2.21993" transform="matrix(-1 -8.74228e-08 -8.74228e-08 1 34.9241 279.396)" fill="#3C3C3C"/>
<ellipse cx="2.21128" cy="2.21993" rx="2.21128" ry="2.21993" transform="matrix(-1 -8.74228e-08 -8.74228e-08 1 33.8225 289.202)" fill="#3C3C3C"/>
<ellipse cx="2.21128" cy="2.21993" rx="2.21128" ry="2.21993" transform="matrix(-1 -8.74228e-08 -8.74228e-08 1 33.5776 296.3)" fill="#3C3C3C"/>
<ellipse cx="2.21128" cy="2.21993" rx="2.21128" ry="2.21993" transform="matrix(-1 -8.74228e-08 -8.74228e-08 1 33.2512 303.483)" fill="#3C3C3C"/>
<ellipse cx="2.21128" cy="2.21993" rx="2.21128" ry="2.21993" transform="matrix(-1 -8.74228e-08 -8.74228e-08 1 34.187 308.414)" fill="#3C3C3C"/>
<ellipse cx="2.21128" cy="2.21993" rx="2.21128" ry="2.21993" transform="matrix(-1 -8.74228e-08 -8.74228e-08 1 34.9727 312.414)" fill="#3C3C3C"/>
<ellipse cx="2.21128" cy="2.21993" rx="2.21128" ry="2.21993" transform="matrix(-1 -8.74228e-08 -8.74228e-08 1 35.0693 316.058)" fill="#3C3C3C"/>
<ellipse cx="2.21128" cy="2.21993" rx="2.21128" ry="2.21993" transform="matrix(-1 -8.74228e-08 -8.74228e-08 1 34.8728 321.47)" fill="#3C3C3C"/>
<ellipse cx="2.21128" cy="2.21993" rx="2.21128" ry="2.21993" transform="matrix(-1 -8.74228e-08 -8.74228e-08 1 34.8105 327.856)" fill="#3C3C3C"/>
<ellipse cx="2.21128" cy="2.21993" rx="2.21128" ry="2.21993" transform="matrix(-1 -8.74228e-08 -8.74228e-08 1 35.1262 337.319)" fill="#3C3C3C"/>
<ellipse cx="2.21128" cy="2.21993" rx="2.21128" ry="2.21993" transform="matrix(-1 -8.74228e-08 -8.74228e-08 1 35.5608 345.864)" fill="#3C3C3C"/>
<ellipse cx="2.21128" cy="2.21993" rx="2.21128" ry="2.21993" transform="matrix(-1 -8.74228e-08 -8.74228e-08 1 28.1318 247.777)" fill="#3C3C3C"/>
<ellipse cx="2.21128" cy="2.21993" rx="2.21128" ry="2.21993" transform="matrix(-1 -8.74228e-08 -8.74228e-08 1 28.4807 256.704)" fill="#3C3C3C"/>
<ellipse cx="2.21128" cy="2.21993" rx="2.21128" ry="2.21993" transform="matrix(-1 -8.74228e-08 -8.74228e-08 1 28.2261 266.403)" fill="#3C3C3C"/>
<ellipse cx="2.21128" cy="2.21993" rx="2.21128" ry="2.21993" transform="matrix(-1 -8.74228e-08 -8.74228e-08 1 27.5981 275.026)" fill="#3C3C3C"/>
<ellipse cx="2.21128" cy="2.21993" rx="2.21128" ry="2.21993" transform="matrix(-1 -8.74228e-08 -8.74228e-08 1 27.2249 282.479)" fill="#3C3C3C"/>
<ellipse cx="2.21128" cy="2.21993" rx="2.21128" ry="2.21993" transform="matrix(-1 -8.74228e-08 -8.74228e-08 1 27.4241 288.732)" fill="#3C3C3C"/>
<ellipse cx="2.21128" cy="2.21993" rx="2.21128" ry="2.21993" transform="matrix(-1 -8.74228e-08 -8.74228e-08 1 26.5493 296.931)" fill="#3C3C3C"/>
<ellipse cx="2.21128" cy="2.21993" rx="2.21128" ry="2.21993" transform="matrix(-1 -8.74228e-08 -8.74228e-08 1 26.6414 303.45)" fill="#3C3C3C"/>
<ellipse cx="2.21128" cy="2.21993" rx="2.21128" ry="2.21993" transform="matrix(-1 -8.74228e-08 -8.74228e-08 1 27.9419 307.391)" fill="#3C3C3C"/>
<ellipse cx="2.21128" cy="2.21993" rx="2.21128" ry="2.21993" transform="matrix(-1 -8.74228e-08 -8.74228e-08 1 28.4863 310.085)" fill="#3C3C3C"/>
<ellipse cx="2.21128" cy="2.21993" rx="2.21128" ry="2.21993" transform="matrix(-1 -8.74228e-08 -8.74228e-08 1 28.374 315.546)" fill="#3C3C3C"/>
<ellipse cx="2.21128" cy="2.21993" rx="2.21128" ry="2.21993" transform="matrix(-1 -8.74228e-08 -8.74228e-08 1 28.3154 321.846)" fill="#3C3C3C"/>
<ellipse cx="2.21128" cy="2.21993" rx="2.21128" ry="2.21993" transform="matrix(-1 -8.74228e-08 -8.74228e-08 1 28.4438 329.437)" fill="#3C3C3C"/>
<ellipse cx="2.21128" cy="2.21993" rx="2.21128" ry="2.21993" transform="matrix(-1 -8.74228e-08 -8.74228e-08 1 28.2932 339.311)" fill="#3C3C3C"/>
<ellipse cx="2.21128" cy="2.21993" rx="2.21128" ry="2.21993" transform="matrix(-1 -8.74228e-08 -8.74228e-08 1 27.2942 344.776)" fill="#3C3C3C"/>
<ellipse cx="2.21128" cy="2.21993" rx="2.21128" ry="2.21993" transform="matrix(-1 -8.74228e-08 -8.74228e-08 1 26.1042 349.682)" fill="#3C3C3C"/>
<ellipse cx="2.21128" cy="2.21993" rx="2.21128" ry="2.21993" transform="matrix(-1 -8.74228e-08 -8.74228e-08 1 21.6794 248.588)" fill="#3C3C3C"/>
<ellipse cx="2.21128" cy="2.21993" rx="2.21128" ry="2.21993" transform="matrix(-1 -8.74228e-08 -8.74228e-08 1 15.8218 244.137)" fill="#3C3C3C"/>
<ellipse cx="2.21128" cy="2.21993" rx="2.21128" ry="2.21993" transform="matrix(-1 -8.74228e-08 -8.74228e-08 1 21.8259 258.216)" fill="#3C3C3C"/>
<ellipse cx="2.21128" cy="2.21993" rx="2.21128" ry="2.21993" transform="matrix(-1 -8.74228e-08 -8.74228e-08 1 21.3059 267.461)" fill="#3C3C3C"/>
<ellipse cx="2.21128" cy="2.21993" rx="2.21128" ry="2.21993" transform="matrix(-1 -8.74228e-08 -8.74228e-08 1 21.0098 274.924)" fill="#3C3C3C"/>
<ellipse cx="2.21128" cy="2.21993" rx="2.21128" ry="2.21993" transform="matrix(-1 -8.74228e-08 -8.74228e-08 1 20.3149 282.984)" fill="#3C3C3C"/>
<ellipse cx="2.21128" cy="2.21993" rx="2.21128" ry="2.21993" transform="matrix(-1 -8.74228e-08 -8.74228e-08 1 19.3252 291.072)" fill="#3C3C3C"/>
<ellipse cx="2.21128" cy="2.21993" rx="2.21128" ry="2.21993" transform="matrix(-1 -8.74228e-08 -8.74228e-08 1 20.6692 295.645)" fill="#3C3C3C"/>
<ellipse cx="2.21128" cy="2.21993" rx="2.21128" ry="2.21993" transform="matrix(-1 -8.74228e-08 -8.74228e-08 1 21.1948 301.073)" fill="#3C3C3C"/>
<ellipse cx="2.21128" cy="2.21993" rx="2.21128" ry="2.21993" transform="matrix(-1 -8.74228e-08 -8.74228e-08 1 21.7903 305.182)" fill="#3C3C3C"/>
<ellipse cx="2.21128" cy="2.21993" rx="2.21128" ry="2.21993" transform="matrix(-1 -8.74228e-08 -8.74228e-08 1 21.728 308.792)" fill="#3C3C3C"/>
<ellipse cx="2.21128" cy="2.21993" rx="2.21128" ry="2.21993" transform="matrix(-1 -8.74228e-08 -8.74228e-08 1 21.8486 316.615)" fill="#3C3C3C"/>
<ellipse cx="2.21128" cy="2.21993" rx="2.21128" ry="2.21993" transform="matrix(-1 -8.74228e-08 -8.74228e-08 1 21.842 323.152)" fill="#3C3C3C"/>
<ellipse cx="2.21128" cy="2.21993" rx="2.21128" ry="2.21993" transform="matrix(-1 -8.74228e-08 -8.74228e-08 1 21.8508 331.071)" fill="#3C3C3C"/>
<ellipse cx="2.21128" cy="2.21993" rx="2.21128" ry="2.21993" transform="matrix(-1 -8.74228e-08 -8.74228e-08 1 21.5391 339.874)" fill="#3C3C3C"/>
<ellipse cx="2.21128" cy="2.21993" rx="2.21128" ry="2.21993" transform="matrix(-1 -8.74228e-08 -8.74228e-08 1 14.1833 344.87)" fill="#3C3C3C"/>
<ellipse cx="2.21128" cy="2.21993" rx="2.21128" ry="2.21993" transform="matrix(-1 -8.74228e-08 -8.74228e-08 1 18.7417 349.549)" fill="#3C3C3C"/>
<ellipse cx="2.21128" cy="2.21993" rx="2.21128" ry="2.21993" transform="matrix(-1 -8.74228e-08 -8.74228e-08 1 15.2307 250.418)" fill="#3C3C3C"/>
<ellipse cx="2.21128" cy="2.21993" rx="2.21128" ry="2.21993" transform="matrix(-1 -8.74228e-08 -8.74228e-08 1 7.41821 245.557)" fill="#3C3C3C"/>
<ellipse cx="2.21128" cy="2.21993" rx="2.21128" ry="2.21993" transform="matrix(-1 -8.74228e-08 -8.74228e-08 1 15.0054 259.547)" fill="#3C3C3C"/>
<ellipse cx="2.21128" cy="2.21993" rx="2.21128" ry="2.21993" transform="matrix(-1 -8.74228e-08 -8.74228e-08 1 14.646 267.547)" fill="#3C3C3C"/>
<ellipse cx="2.21128" cy="2.21993" rx="2.21128" ry="2.21993" transform="matrix(-1 -8.74228e-08 -8.74228e-08 1 14.7903 273.74)" fill="#3C3C3C"/>
<ellipse cx="2.21128" cy="2.21993" rx="2.21128" ry="2.21993" transform="matrix(-1 -8.74228e-08 -8.74228e-08 1 14.5344 281.18)" fill="#3C3C3C"/>
<ellipse cx="2.21128" cy="2.21993" rx="2.21128" ry="2.21993" transform="matrix(-1 -8.74228e-08 -8.74228e-08 1 13.7192 289.581)" fill="#3C3C3C"/>
<ellipse cx="2.21128" cy="2.21993" rx="2.21128" ry="2.21993" transform="matrix(-1 -8.74228e-08 -8.74228e-08 1 14.9954 292.883)" fill="#3C3C3C"/>
<ellipse cx="2.21128" cy="2.21993" rx="2.21128" ry="2.21993" transform="matrix(-1 -8.74228e-08 -8.74228e-08 1 15.1646 298.472)" fill="#3C3C3C"/>
<ellipse cx="2.21128" cy="2.21993" rx="2.21128" ry="2.21993" transform="matrix(-1 -8.74228e-08 -8.74228e-08 1 15.2253 303.484)" fill="#3C3C3C"/>
<ellipse cx="2.21128" cy="2.21993" rx="2.21128" ry="2.21993" transform="matrix(-1 -8.74228e-08 -8.74228e-08 1 14.9636 308.087)" fill="#3C3C3C"/>
<ellipse cx="2.21128" cy="2.21993" rx="2.21128" ry="2.21993" transform="matrix(-1 -8.74228e-08 -8.74228e-08 1 15.2322 317.117)" fill="#3C3C3C"/>
<ellipse cx="2.21128" cy="2.21993" rx="2.21128" ry="2.21993" transform="matrix(-1 -8.74228e-08 -8.74228e-08 1 15.2129 323.192)" fill="#3C3C3C"/>
<ellipse cx="2.21128" cy="2.21993" rx="2.21128" ry="2.21993" transform="matrix(-1 -8.74228e-08 -8.74228e-08 1 15.2324 330.463)" fill="#3C3C3C"/>
<ellipse cx="2.21128" cy="2.21993" rx="2.21128" ry="2.21993" transform="matrix(-1 -8.74228e-08 -8.74228e-08 1 15.1787 338.28)" fill="#3C3C3C"/>
<ellipse cx="2.21128" cy="2.21993" rx="2.21128" ry="2.21993" transform="matrix(-1 -8.74228e-08 -8.74228e-08 1 11.3792 350.414)" fill="#3C3C3C"/>
<ellipse cx="2.21128" cy="2.21993" rx="2.21128" ry="2.21993" transform="matrix(-1 -8.74228e-08 -8.74228e-08 1 8.52319 251.958)" fill="#3C3C3C"/>
<ellipse cx="2.21128" cy="2.21993" rx="2.21128" ry="2.21993" transform="matrix(-1 -8.74228e-08 -8.74228e-08 1 23.8037 243.541)" fill="#3C3C3C"/>
<ellipse cx="2.21128" cy="2.21993" rx="2.21128" ry="2.21993" transform="matrix(-1 -8.74228e-08 -8.74228e-08 1 8.35327 259.647)" fill="#3C3C3C"/>
<ellipse cx="2.21128" cy="2.21993" rx="2.21128" ry="2.21993" transform="matrix(-1 -8.74228e-08 -8.74228e-08 1 8.46216 265.715)" fill="#3C3C3C"/>
<ellipse cx="2.21128" cy="2.21993" rx="2.21128" ry="2.21993" transform="matrix(-1 -8.74228e-08 -8.74228e-08 1 8.58716 271.163)" fill="#3C3C3C"/>
<ellipse cx="2.21128" cy="2.21993" rx="2.21128" ry="2.21993" transform="matrix(-1 -8.74228e-08 -8.74228e-08 1 8.49805 278.785)" fill="#3C3C3C"/>
<ellipse cx="2.21128" cy="2.21993" rx="2.21128" ry="2.21993" transform="matrix(-1 -8.74228e-08 -8.74228e-08 1 8.37915 286.151)" fill="#3C3C3C"/>
<ellipse cx="2.21128" cy="2.21993" rx="2.21128" ry="2.21993" transform="matrix(-1 -8.74228e-08 -8.74228e-08 1 8.59766 290.296)" fill="#3C3C3C"/>
<ellipse cx="2.21128" cy="2.21993" rx="2.21128" ry="2.21993" transform="matrix(-1 -8.74228e-08 -8.74228e-08 1 8.40503 295.129)" fill="#3C3C3C"/>
<ellipse cx="2.21128" cy="2.21993" rx="2.21128" ry="2.21993" transform="matrix(-1 -8.74228e-08 -8.74228e-08 1 8.21191 300.94)" fill="#3C3C3C"/>
<ellipse cx="2.21128" cy="2.21993" rx="2.21128" ry="2.21993" transform="matrix(-1 -8.74228e-08 -8.74228e-08 1 7.93018 306.699)" fill="#3C3C3C"/>
<ellipse cx="2.21128" cy="2.21993" rx="2.21128" ry="2.21993" transform="matrix(-1 -8.74228e-08 -8.74228e-08 1 8.50537 315.73)" fill="#3C3C3C"/>
<ellipse cx="2.21128" cy="2.21993" rx="2.21128" ry="2.21993" transform="matrix(-1 -8.74228e-08 -8.74228e-08 1 8.45947 322.072)" fill="#3C3C3C"/>
<ellipse cx="2.21128" cy="2.21993" rx="2.21128" ry="2.21993" transform="matrix(-1 -8.74228e-08 -8.74228e-08 1 8.59473 330.14)" fill="#3C3C3C"/>
<ellipse cx="2.21128" cy="2.21993" rx="2.21128" ry="2.21993" transform="matrix(-1 -8.74228e-08 -8.74228e-08 1 8.58789 337.724)" fill="#3C3C3C"/>
<ellipse cx="2.21128" cy="2.21993" rx="2.21128" ry="2.21993" transform="matrix(-1 -8.74228e-08 -8.74228e-08 1 5.21094 351.973)" fill="#3C3C3C"/>
<ellipse cx="2.21128" cy="2.21993" rx="2.21128" ry="2.21993" transform="matrix(-1 -8.74228e-08 -8.74228e-08 1 6.22925 343.533)" fill="#3C3C3C"/>
<ellipse cx="2.21128" cy="2.21993" rx="2.21128" ry="2.21993" transform="matrix(-1 -8.74228e-08 -8.74228e-08 1 1.89136 251.96)" fill="#3C3C3C"/>
<ellipse cx="2.21128" cy="2.21993" rx="2.21128" ry="2.21993" transform="matrix(-1 -8.74228e-08 -8.74228e-08 1 1.26538 261.224)" fill="#3C3C3C"/>
<ellipse cx="2.21128" cy="2.21993" rx="2.21128" ry="2.21993" transform="matrix(-1 -8.74228e-08 -8.74228e-08 1 1.95703 264.474)" fill="#3C3C3C"/>
<ellipse cx="2.21128" cy="2.21993" rx="2.21128" ry="2.21993" transform="matrix(-1 -8.74228e-08 -8.74228e-08 1 1.86084 269.033)" fill="#3C3C3C"/>
<ellipse cx="2.21128" cy="2.21993" rx="2.21128" ry="2.21993" transform="matrix(-1 -8.74228e-08 -8.74228e-08 1 1.95972 277.734)" fill="#3C3C3C"/>
<ellipse cx="2.21128" cy="2.21993" rx="2.21128" ry="2.21993" transform="matrix(-1 -8.74228e-08 -8.74228e-08 1 1.96948 283.881)" fill="#3C3C3C"/>
<ellipse cx="2.21128" cy="2.21993" rx="2.21128" ry="2.21993" transform="matrix(-1 -8.74228e-08 -8.74228e-08 1 1.85132 288.939)" fill="#3C3C3C"/>
<ellipse cx="2.21128" cy="2.21993" rx="2.21128" ry="2.21993" transform="matrix(-1 -8.74228e-08 -8.74228e-08 1 1.29834 293.384)" fill="#3C3C3C"/>
<ellipse cx="2.21128" cy="2.21993" rx="2.21128" ry="2.21993" transform="matrix(-1 -8.74228e-08 -8.74228e-08 1 1.19507 299.766)" fill="#3C3C3C"/>
<ellipse cx="2.21128" cy="2.21993" rx="2.21128" ry="2.21993" transform="matrix(-1 -8.74228e-08 -8.74228e-08 1 1.07471 306.127)" fill="#3C3C3C"/>
<ellipse cx="2.21128" cy="2.21993" rx="2.21128" ry="2.21993" transform="matrix(-1 -8.74228e-08 -8.74228e-08 1 0.78833 312.16)" fill="#3C3C3C"/>
<ellipse cx="2.21128" cy="2.21993" rx="2.21128" ry="2.21993" transform="matrix(-1 -8.74228e-08 -8.74228e-08 1 1.39624 320.298)" fill="#3C3C3C"/>
<ellipse cx="2.21128" cy="2.21993" rx="2.21128" ry="2.21993" transform="matrix(-1 -8.74228e-08 -8.74228e-08 1 1.91895 331.589)" fill="#3C3C3C"/>
<ellipse cx="2.21128" cy="2.21993" rx="2.21128" ry="2.21993" transform="matrix(-1 -8.74228e-08 -8.74228e-08 1 1.80664 339.093)" fill="#3C3C3C"/>
<circle cx="-0.0421399" cy="486.357" r="2.21128" transform="rotate(-90 -0.0421399 486.357)" fill="#3C3C3C"/>
<circle cx="9.13486" cy="484.634" r="2.21128" transform="rotate(-90 9.13486 484.634)" fill="#3C3C3C"/>
<circle cx="18.7491" cy="480.311" r="2.21128" transform="rotate(-90 18.7491 480.311)" fill="#3C3C3C"/>
<circle cx="25.1673" cy="480.824" r="2.21128" transform="rotate(-90 25.1673 480.824)" fill="#3C3C3C"/>
<circle cx="1.13779" cy="479.052" r="2.21128" transform="rotate(-90 1.13779 479.052)" fill="#3C3C3C"/>
<circle cx="9.86826" cy="477.281" r="2.21128" transform="rotate(-90 9.86826 477.281)" fill="#3C3C3C"/>
<circle cx="16.2464" cy="477.545" r="2.21128" transform="rotate(-90 16.2464 477.545)" fill="#3C3C3C"/>
<circle cx="23.0467" cy="477.371" r="2.21128" transform="rotate(-90 23.0467 477.371)" fill="#3C3C3C"/>
<circle cx="51.9869" cy="475.989" r="2.21128" transform="rotate(-90 51.9869 475.989)" fill="#3C3C3C"/>
<circle cx="56.787" cy="471.408" r="2.21128" transform="rotate(-90 56.787 471.408)" fill="#3C3C3C"/>
<circle cx="1.35947" cy="472.272" r="2.21128" transform="rotate(-90 1.35947 472.272)" fill="#3C3C3C"/>
<circle cx="8.21714" cy="472.112" r="2.21128" transform="rotate(-90 8.21714 472.112)" fill="#3C3C3C"/>
<circle cx="13.0731" cy="473.165" r="2.21128" transform="rotate(-90 13.0731 473.165)" fill="#3C3C3C"/>
<circle cx="20.2357" cy="472.896" r="2.21128" transform="rotate(-90 20.2357 472.896)" fill="#3C3C3C"/>
<circle cx="27.9344" cy="472.238" r="2.21128" transform="rotate(-90 27.9344 472.238)" fill="#3C3C3C"/>
<circle cx="34.6107" cy="472.207" r="2.21128" transform="rotate(-90 34.6107 472.207)" fill="#3C3C3C"/>
<circle cx="41.5321" cy="471.996" r="2.21128" transform="rotate(-90 41.5321 471.996)" fill="#3C3C3C"/>
<circle cx="44.8441" cy="473.715" r="2.21128" transform="rotate(-90 44.8441 473.715)" fill="#3C3C3C"/>
<circle cx="47.7735" cy="474.255" r="2.21128" transform="rotate(-90 47.7735 474.255)" fill="#3C3C3C"/>
<circle cx="48.6522" cy="472.527" r="2.21128" transform="rotate(-90 48.6522 472.527)" fill="#3C3C3C"/>
<circle cx="52.0985" cy="469.518" r="2.21128" transform="rotate(-90 52.0985 469.518)" fill="#3C3C3C"/>
<circle cx="57.419" cy="467.093" r="2.21128" transform="rotate(-90 57.419 467.093)" fill="#3C3C3C"/>
<circle cx="2.13364" cy="465.057" r="2.21128" transform="rotate(-90 2.13364 465.057)" fill="#3C3C3C"/>
<circle cx="7.13462" cy="466.175" r="2.21128" transform="rotate(-90 7.13462 466.175)" fill="#3C3C3C"/>
<circle cx="11.6485" cy="467.096" r="2.21128" transform="rotate(-90 11.6485 467.096)" fill="#3C3C3C"/>
<circle cx="19.3663" cy="466.688" r="2.21128" transform="rotate(-90 19.3663 466.688)" fill="#3C3C3C"/>
<circle cx="26.7335" cy="466.335" r="2.21128" transform="rotate(-90 26.7335 466.335)" fill="#3C3C3C"/>
<circle cx="32.3853" cy="466.791" r="2.21128" transform="rotate(-90 32.3853 466.791)" fill="#3C3C3C"/>
<circle cx="38.211" cy="467.084" r="2.21128" transform="rotate(-90 38.211 467.084)" fill="#3C3C3C"/>
<circle cx="40.5982" cy="467.598" r="2.21128" transform="rotate(-90 40.5982 467.598)" fill="#3C3C3C"/>
<circle cx="43.5238" cy="466.689" r="2.21128" transform="rotate(-90 43.5238 466.689)" fill="#3C3C3C"/>
<circle cx="46.4706" cy="464.106" r="2.21128" transform="rotate(-90 46.4706 464.106)" fill="#3C3C3C"/>
<circle cx="51.2994" cy="461.584" r="2.21128" transform="rotate(-90 51.2994 461.584)" fill="#3C3C3C"/>
<circle cx="57.2154" cy="459.898" r="2.21128" transform="rotate(-90 57.2154 459.898)" fill="#3C3C3C"/>
<circle cx="-1.31021" cy="454.188" r="2.21128" transform="rotate(-90 -1.31021 454.188)" fill="#3C3C3C"/>
<circle cx="3.90171" cy="456.6" r="2.21128" transform="rotate(-90 3.90171 456.6)" fill="#3C3C3C"/>
<circle cx="5.96348" cy="460.116" r="2.21128" transform="rotate(-90 5.96348 460.116)" fill="#3C3C3C"/>
<circle cx="9.88266" cy="460.873" r="2.21128" transform="rotate(-90 9.88266 460.873)" fill="#3C3C3C"/>
<circle cx="18.6942" cy="460.324" r="2.21128" transform="rotate(-90 18.6942 460.324)" fill="#3C3C3C"/>
<circle cx="25.2396" cy="460.354" r="2.21128" transform="rotate(-90 25.2396 460.354)" fill="#3C3C3C"/>
<circle cx="29.088" cy="460.953" r="2.21128" transform="rotate(-90 29.088 460.953)" fill="#3C3C3C"/>
<circle cx="31.5455" cy="460.526" r="2.21128" transform="rotate(-90 31.5455 460.526)" fill="#3C3C3C"/>
<circle cx="34.2591" cy="458.452" r="2.21128" transform="rotate(-90 34.2591 458.452)" fill="#3C3C3C"/>
<circle cx="38.3561" cy="455.522" r="2.21128" transform="rotate(-90 38.3561 455.522)" fill="#3C3C3C"/>
<circle cx="44.971" cy="455.494" r="2.21128" transform="rotate(-90 44.971 455.494)" fill="#3C3C3C"/>
<circle cx="50.796" cy="453.852" r="2.21128" transform="rotate(-90 50.796 453.852)" fill="#3C3C3C"/>
<circle cx="56.8582" cy="451.911" r="2.21128" transform="rotate(-90 56.8582 451.911)" fill="#3C3C3C"/>
<circle cx="-1.67617" cy="448.323" r="2.21128" transform="rotate(-90 -1.67617 448.323)" fill="#3C3C3C"/>
<circle cx="3.00498" cy="450.997" r="2.21128" transform="rotate(-90 3.00498 450.997)" fill="#3C3C3C"/>
<circle cx="5.78306" cy="453.559" r="2.21128" transform="rotate(-90 5.78306 453.559)" fill="#3C3C3C"/>
<circle cx="11.9569" cy="453.73" r="2.21128" transform="rotate(-90 11.9569 453.73)" fill="#3C3C3C"/>
<circle cx="17.0306" cy="454.152" r="2.21128" transform="rotate(-90 17.0306 454.152)" fill="#3C3C3C"/>
<circle cx="23.6122" cy="454.162" r="2.21128" transform="rotate(-90 23.6122 454.162)" fill="#3C3C3C"/>
<circle cx="27.0753" cy="454.314" r="2.21128" transform="rotate(-90 27.0753 454.314)" fill="#3C3C3C"/>
<circle cx="28.1288" cy="452.207" r="2.21128" transform="rotate(-90 28.1288 452.207)" fill="#3C3C3C"/>
<circle cx="31.6048" cy="448.686" r="2.21128" transform="rotate(-90 31.6048 448.686)" fill="#3C3C3C"/>
<circle cx="37.8551" cy="447.96" r="2.21128" transform="rotate(-90 37.8551 447.96)" fill="#3C3C3C"/>
<circle cx="44.8492" cy="448.653" r="2.21128" transform="rotate(-90 44.8492 448.653)" fill="#3C3C3C"/>
<circle cx="50.599" cy="446.68" r="2.21128" transform="rotate(-90 50.599 446.68)" fill="#3C3C3C"/>
<circle cx="56.7789" cy="444.831" r="2.21128" transform="rotate(-90 56.7789 444.831)" fill="#3C3C3C"/>
<circle cx="3.46665" cy="443.868" r="2.21128" transform="rotate(-90 3.46665 443.868)" fill="#3C3C3C"/>
<circle cx="6.66782" cy="446.529" r="2.21128" transform="rotate(-90 6.66782 446.529)" fill="#3C3C3C"/>
<circle cx="11.7594" cy="447.166" r="2.21128" transform="rotate(-90 11.7594 447.166)" fill="#3C3C3C"/>
<circle cx="16.2513" cy="447.646" r="2.21128" transform="rotate(-90 16.2513 447.646)" fill="#3C3C3C"/>
<circle cx="23.6251" cy="447.528" r="2.21128" transform="rotate(-90 23.6251 447.528)" fill="#3C3C3C"/>
<circle cx="27.9642" cy="447.73" r="2.21128" transform="rotate(-90 27.9642 447.73)" fill="#3C3C3C"/>
<circle cx="29.92" cy="446.64" r="2.21128" transform="rotate(-90 29.92 446.64)" fill="#3C3C3C"/>
<circle cx="32.8436" cy="443.809" r="2.21128" transform="rotate(-90 32.8436 443.809)" fill="#3C3C3C"/>
<circle cx="38.2877" cy="442.143" r="2.21128" transform="rotate(-90 38.2877 442.143)" fill="#3C3C3C"/>
<circle cx="44.9098" cy="442.127" r="2.21128" transform="rotate(-90 44.9098 442.127)" fill="#3C3C3C"/>
<circle cx="50.7071" cy="440.355" r="2.21128" transform="rotate(-90 50.7071 440.355)" fill="#3C3C3C"/>
<circle cx="56.7811" cy="438.213" r="2.21128" transform="rotate(-90 56.7811 438.213)" fill="#3C3C3C"/>
<circle cx="-0.448878" cy="440.127" r="2.21128" transform="rotate(-90 -0.448878 440.127)" fill="#3C3C3C"/>
<circle cx="4.07334" cy="440.825" r="2.21128" transform="rotate(-90 4.07334 440.825)" fill="#3C3C3C"/>
<circle cx="10.002" cy="440.96" r="2.21128" transform="rotate(-90 10.002 440.96)" fill="#3C3C3C"/>
<circle cx="15.6739" cy="441.071" r="2.21128" transform="rotate(-90 15.6739 441.071)" fill="#3C3C3C"/>
<circle cx="21.4454" cy="441.1" r="2.21128" transform="rotate(-90 21.4454 441.1)" fill="#3C3C3C"/>
<circle cx="26.4959" cy="440.981" r="2.21128" transform="rotate(-90 26.4959 440.981)" fill="#3C3C3C"/>
<circle cx="32.1913" cy="440.803" r="2.21128" transform="rotate(-90 32.1913 440.803)" fill="#3C3C3C"/>
<circle cx="36.0653" cy="439.762" r="2.21128" transform="rotate(-90 36.0653 439.762)" fill="#3C3C3C"/>
<circle cx="40.2723" cy="438.013" r="2.21128" transform="rotate(-90 40.2723 438.013)" fill="#3C3C3C"/>
<circle cx="44.8968" cy="435.473" r="2.21128" transform="rotate(-90 44.8968 435.473)" fill="#3C3C3C"/>
<circle cx="50.9613" cy="434.354" r="2.21128" transform="rotate(-90 50.9613 434.354)" fill="#3C3C3C"/>
<circle cx="57.4952" cy="434.125" r="2.21128" transform="rotate(-90 57.4952 434.125)" fill="#3C3C3C"/>
<circle cx="3.32822" cy="434.335" r="2.21128" transform="rotate(-90 3.32822 434.335)" fill="#3C3C3C"/>
<circle cx="8.9293" cy="434.447" r="2.21128" transform="rotate(-90 8.9293 434.447)" fill="#3C3C3C"/>
<circle cx="16.3397" cy="434.371" r="2.21128" transform="rotate(-90 16.3397 434.371)" fill="#3C3C3C"/>
<circle cx="21.1036" cy="434.461" r="2.21128" transform="rotate(-90 21.1036 434.461)" fill="#3C3C3C"/>
<circle cx="26.2672" cy="434.314" r="2.21128" transform="rotate(-90 26.2672 434.314)" fill="#3C3C3C"/>
<circle cx="33.127" cy="434.349" r="2.21128" transform="rotate(-90 33.127 434.349)" fill="#3C3C3C"/>
<circle cx="37.181" cy="433.653" r="2.21128" transform="rotate(-90 37.181 433.653)" fill="#3C3C3C"/>
<circle cx="41.3478" cy="432.28" r="2.21128" transform="rotate(-90 41.3478 432.28)" fill="#3C3C3C"/>
<circle cx="45.6959" cy="430.039" r="2.21128" transform="rotate(-90 45.6959 430.039)" fill="#3C3C3C"/>
<circle cx="52.1839" cy="429.847" r="2.21128" transform="rotate(-90 52.1839 429.847)" fill="#3C3C3C"/>
<circle cx="59.5584" cy="430.759" r="2.21128" transform="rotate(-90 59.5584 430.759)" fill="#3C3C3C"/>
<circle cx="6.11509" cy="426.894" r="2.21128" transform="rotate(-90 6.11509 426.894)" fill="#3C3C3C"/>
<circle cx="11.7022" cy="427.29" r="2.21128" transform="rotate(-90 11.7022 427.29)" fill="#3C3C3C"/>
<circle cx="20.3998" cy="426.384" r="2.21128" transform="rotate(-90 20.3998 426.384)" fill="#3C3C3C"/>
<circle cx="24.3377" cy="427.473" r="2.21128" transform="rotate(-90 24.3377 427.473)" fill="#3C3C3C"/>
<circle cx="28.7872" cy="427.817" r="2.21128" transform="rotate(-90 28.7872 427.817)" fill="#3C3C3C"/>
<circle cx="34.1214" cy="427.819" r="2.21128" transform="rotate(-90 34.1214 427.819)" fill="#3C3C3C"/>
<circle cx="37.4974" cy="427.143" r="2.21128" transform="rotate(-90 37.4974 427.143)" fill="#3C3C3C"/>
<circle cx="41.7555" cy="425.934" r="2.21128" transform="rotate(-90 41.7555 425.934)" fill="#3C3C3C"/>
<circle cx="47.0289" cy="424.867" r="2.21128" transform="rotate(-90 47.0289 424.867)" fill="#3C3C3C"/>
<circle cx="53.9554" cy="425.128" r="2.21128" transform="rotate(-90 53.9554 425.128)" fill="#3C3C3C"/>
<circle cx="61.8673" cy="426.076" r="2.21128" transform="rotate(-90 61.8673 426.076)" fill="#3C3C3C"/>
<circle cx="5.01572" cy="420.676" r="2.21128" transform="rotate(-90 5.01572 420.676)" fill="#3C3C3C"/>
<circle cx="13.9037" cy="419.675" r="2.21128" transform="rotate(-90 13.9037 419.675)" fill="#3C3C3C"/>
<circle cx="22.4972" cy="418.228" r="2.21128" transform="rotate(-90 22.4972 418.228)" fill="#3C3C3C"/>
<circle cx="27.9776" cy="419.156" r="2.21128" transform="rotate(-90 27.9776 419.156)" fill="#3C3C3C"/>
<circle cx="32.0819" cy="420.489" r="2.21128" transform="rotate(-90 32.0819 420.489)" fill="#3C3C3C"/>
<circle cx="34.4393" cy="421.201" r="2.21128" transform="rotate(-90 34.4393 421.201)" fill="#3C3C3C"/>
<circle cx="40.8802" cy="421.194" r="2.21128" transform="rotate(-90 40.8802 421.194)" fill="#3C3C3C"/>
<circle cx="45.0001" cy="420.792" r="2.21128" transform="rotate(-90 45.0001 420.792)" fill="#3C3C3C"/>
<circle cx="49.3246" cy="419.866" r="2.21128" transform="rotate(-90 49.3246 419.866)" fill="#3C3C3C"/>
<circle cx="55.0626" cy="419.332" r="2.21128" transform="rotate(-90 55.0626 419.332)" fill="#3C3C3C"/>
<circle cx="61.7047" cy="419.339" r="2.21128" transform="rotate(-90 61.7047 419.339)" fill="#3C3C3C"/>
<circle cx="6.22861" cy="413.58" r="2.21128" transform="rotate(-90 6.22861 413.58)" fill="#3C3C3C"/>
<circle cx="12.7823" cy="413.615" r="2.21128" transform="rotate(-90 12.7823 413.615)" fill="#3C3C3C"/>
<circle cx="21.1979" cy="412.627" r="2.21128" transform="rotate(-90 21.1979 412.627)" fill="#3C3C3C"/>
<circle cx="27.6771" cy="412.728" r="2.21128" transform="rotate(-90 27.6771 412.728)" fill="#3C3C3C"/>
<circle cx="32.8424" cy="413.54" r="2.21128" transform="rotate(-90 32.8424 413.54)" fill="#3C3C3C"/>
<circle cx="36.5663" cy="414.428" r="2.21128" transform="rotate(-90 36.5663 414.428)" fill="#3C3C3C"/>
<circle cx="40.6969" cy="414.552" r="2.21128" transform="rotate(-90 40.6969 414.552)" fill="#3C3C3C"/>
<circle cx="43.1493" cy="413.466" r="2.21128" transform="rotate(-90 43.1493 413.466)" fill="#3C3C3C"/>
<circle cx="50.0001" cy="413.568" r="2.21128" transform="rotate(-90 50.0001 413.568)" fill="#3C3C3C"/>
<circle cx="56.734" cy="413.614" r="2.21128" transform="rotate(-90 56.734 413.614)" fill="#3C3C3C"/>
<circle cx="63.3282" cy="413.598" r="2.21128" transform="rotate(-90 63.3282 413.598)" fill="#3C3C3C"/>
<circle cx="1.92881" cy="405.538" r="2.21128" transform="rotate(-90 1.92881 405.538)" fill="#3C3C3C"/>
<circle cx="7.16709" cy="406.473" r="2.21128" transform="rotate(-90 7.16709 406.473)" fill="#3C3C3C"/>
<circle cx="10.8517" cy="407.634" r="2.21128" transform="rotate(-90 10.8517 407.634)" fill="#3C3C3C"/>
<circle cx="19.7542" cy="406.826" r="2.21128" transform="rotate(-90 19.7542 406.826)" fill="#3C3C3C"/>
<circle cx="25.5799" cy="407.177" r="2.21128" transform="rotate(-90 25.5799 407.177)" fill="#3C3C3C"/>
<circle cx="30.4439" cy="407.702" r="2.21128" transform="rotate(-90 30.4439 407.702)" fill="#3C3C3C"/>
<circle cx="35.5589" cy="407.914" r="2.21128" transform="rotate(-90 35.5589 407.914)" fill="#3C3C3C"/>
<circle cx="39.5619" cy="407.793" r="2.21128" transform="rotate(-90 39.5619 407.793)" fill="#3C3C3C"/>
<circle cx="45.1109" cy="407.56" r="2.21128" transform="rotate(-90 45.1109 407.56)" fill="#3C3C3C"/>
<circle cx="53.1024" cy="407.835" r="2.21128" transform="rotate(-90 53.1024 407.835)" fill="#3C3C3C"/>
<circle cx="59.7457" cy="407.836" r="2.21128" transform="rotate(-90 59.7457 407.836)" fill="#3C3C3C"/>
<circle cx="66.4193" cy="407.842" r="2.21128" transform="rotate(-90 66.4193 407.842)" fill="#3C3C3C"/>
<circle cx="3.6229" cy="397.264" r="2.21128" transform="rotate(-90 3.6229 397.264)" fill="#3C3C3C"/>
<circle cx="8.71543" cy="398.783" r="2.21128" transform="rotate(-90 8.71543 398.783)" fill="#3C3C3C"/>
<circle cx="13.15" cy="400.182" r="2.21128" transform="rotate(-90 13.15 400.182)" fill="#3C3C3C"/>
<circle cx="21.1141" cy="399.42" r="2.21128" transform="rotate(-90 21.1141 399.42)" fill="#3C3C3C"/>
<circle cx="26.87" cy="399.948" r="2.21128" transform="rotate(-90 26.87 399.948)" fill="#3C3C3C"/>
<circle cx="31.3023" cy="400.854" r="2.21128" transform="rotate(-90 31.3023 400.854)" fill="#3C3C3C"/>
<circle cx="35.6371" cy="401.276" r="2.21128" transform="rotate(-90 35.6371 401.276)" fill="#3C3C3C"/>
<circle cx="39.9627" cy="401.22" r="2.21128" transform="rotate(-90 39.9627 401.22)" fill="#3C3C3C"/>
<circle cx="47.6378" cy="401.304" r="2.21128" transform="rotate(-90 47.6378 401.304)" fill="#3C3C3C"/>
<circle cx="55.4591" cy="401.282" r="2.21128" transform="rotate(-90 55.4591 401.282)" fill="#3C3C3C"/>
<circle cx="61.9271" cy="401.292" r="2.21128" transform="rotate(-90 61.9271 401.292)" fill="#3C3C3C"/>
<circle cx="68.8075" cy="401.275" r="2.21128" transform="rotate(-90 68.8075 401.275)" fill="#3C3C3C"/>
<circle cx="2.19468" cy="392.06" r="2.21128" transform="rotate(-90 2.19468 392.06)" fill="#3C3C3C"/>
<circle cx="9.78501" cy="391.16" r="2.21128" transform="rotate(-90 9.78501 391.16)" fill="#3C3C3C"/>
<circle cx="17.2789" cy="390.134" r="2.21128" transform="rotate(-90 17.2789 390.134)" fill="#3C3C3C"/>
<circle cx="23.6046" cy="390.527" r="2.21128" transform="rotate(-90 23.6046 390.527)" fill="#3C3C3C"/>
<circle cx="30.1388" cy="390.644" r="2.21128" transform="rotate(-90 30.1388 390.644)" fill="#3C3C3C"/>
<circle cx="34.6104" cy="392.629" r="2.21128" transform="rotate(-90 34.6104 392.629)" fill="#3C3C3C"/>
<circle cx="35.8263" cy="394.628" r="2.21128" transform="rotate(-90 35.8263 394.628)" fill="#3C3C3C"/>
<circle cx="39.9291" cy="394.584" r="2.21128" transform="rotate(-90 39.9291 394.584)" fill="#3C3C3C"/>
<circle cx="48.7972" cy="394.652" r="2.21128" transform="rotate(-90 48.7972 394.652)" fill="#3C3C3C"/>
<circle cx="56.058" cy="394.591" r="2.21128" transform="rotate(-90 56.058 394.591)" fill="#3C3C3C"/>
<circle cx="62.5604" cy="394.607" r="2.21128" transform="rotate(-90 62.5604 394.607)" fill="#3C3C3C"/>
<circle cx="69.5599" cy="394.559" r="2.21128" transform="rotate(-90 69.5599 394.559)" fill="#3C3C3C"/>
<circle cx="2.11387" cy="385.496" r="2.21128" transform="rotate(-90 2.11387 385.496)" fill="#3C3C3C"/>
<circle cx="11.7059" cy="381.774" r="2.21128" transform="rotate(-90 11.7059 381.774)" fill="#3C3C3C"/>
<circle cx="19.2733" cy="379.057" r="2.21128" transform="rotate(-90 19.2733 379.057)" fill="#3C3C3C"/>
<circle cx="25.4598" cy="380.626" r="2.21128" transform="rotate(-90 25.4598 380.626)" fill="#3C3C3C"/>
<circle cx="31.9437" cy="381.01" r="2.21128" transform="rotate(-90 31.9437 381.01)" fill="#3C3C3C"/>
<circle cx="37.3556" cy="383.25" r="2.21128" transform="rotate(-90 37.3556 383.25)" fill="#3C3C3C"/>
<circle cx="39.2635" cy="387.109" r="2.21128" transform="rotate(-90 39.2635 387.109)" fill="#3C3C3C"/>
<circle cx="40.5772" cy="388.018" r="2.21128" transform="rotate(-90 40.5772 388.018)" fill="#3C3C3C"/>
<circle cx="50.2057" cy="387.834" r="2.21128" transform="rotate(-90 50.2057 387.834)" fill="#3C3C3C"/>
<circle cx="56.4002" cy="387.911" r="2.21128" transform="rotate(-90 56.4002 387.911)" fill="#3C3C3C"/>
<circle cx="63.6815" cy="387.79" r="2.21128" transform="rotate(-90 63.6815 387.79)" fill="#3C3C3C"/>
<circle cx="72.4328" cy="387.104" r="2.21128" transform="rotate(-90 72.4328 387.104)" fill="#3C3C3C"/>
<circle cx="2.38047" cy="378.638" r="2.21128" transform="rotate(-90 2.38047 378.638)" fill="#3C3C3C"/>
<circle cx="11.972" cy="374.564" r="2.21128" transform="rotate(-90 11.972 374.564)" fill="#3C3C3C"/>
<circle cx="19.2276" cy="372.636" r="2.21128" transform="rotate(-90 19.2276 372.636)" fill="#3C3C3C"/>
<circle cx="25.1878" cy="374.673" r="2.21128" transform="rotate(-90 25.1878 374.673)" fill="#3C3C3C"/>
<circle cx="31.9911" cy="374.26" r="2.21128" transform="rotate(-90 31.9911 374.26)" fill="#3C3C3C"/>
<circle cx="38.1292" cy="375.345" r="2.21128" transform="rotate(-90 38.1292 375.345)" fill="#3C3C3C"/>
<circle cx="42.6993" cy="378.146" r="2.21128" transform="rotate(-90 42.6993 378.146)" fill="#3C3C3C"/>
<circle cx="46.8497" cy="380.006" r="2.21128" transform="rotate(-90 46.8497 380.006)" fill="#3C3C3C"/>
<circle cx="53.806" cy="379.819" r="2.21128" transform="rotate(-90 53.806 379.819)" fill="#3C3C3C"/>
<circle cx="61.5968" cy="379.025" r="2.21128" transform="rotate(-90 61.5968 379.025)" fill="#3C3C3C"/>
<circle cx="69.3949" cy="377.974" r="2.21128" transform="rotate(-90 69.3949 377.974)" fill="#3C3C3C"/>
<circle cx="77.1751" cy="376.575" r="2.21128" transform="rotate(-90 77.1751 376.575)" fill="#3C3C3C"/>
<circle cx="1.12803" cy="372.954" r="2.21128" transform="rotate(-90 1.12803 372.954)" fill="#3C3C3C"/>
<circle cx="9.95005" cy="371.087" r="2.21128" transform="rotate(-90 9.95005 371.087)" fill="#3C3C3C"/>
<circle cx="16.9947" cy="370.605" r="2.21128" transform="rotate(-90 16.9947 370.605)" fill="#3C3C3C"/>
<circle cx="23.9813" cy="370.143" r="2.21128" transform="rotate(-90 23.9813 370.143)" fill="#3C3C3C"/>
<circle cx="31.4989" cy="368.711" r="2.21128" transform="rotate(-90 31.4989 368.711)" fill="#3C3C3C"/>
<circle cx="38.5106" cy="367.903" r="2.21128" transform="rotate(-90 38.5106 367.903)" fill="#3C3C3C"/>
<circle cx="45.4" cy="367.236" r="2.21128" transform="rotate(-90 45.4 367.236)" fill="#3C3C3C"/>
<circle cx="51.256" cy="368.967" r="2.21128" transform="rotate(-90 51.256 368.967)" fill="#3C3C3C"/>
<circle cx="58.4627" cy="367.764" r="2.21128" transform="rotate(-90 58.4627 367.764)" fill="#3C3C3C"/>
<circle cx="65.5929" cy="366.238" r="2.21128" transform="rotate(-90 65.5929 366.238)" fill="#3C3C3C"/>
<circle cx="72.3797" cy="365.514" r="2.21128" transform="rotate(-90 72.3797 365.514)" fill="#3C3C3C"/>
<circle cx="79.1051" cy="364.897" r="2.21128" transform="rotate(-90 79.1051 364.897)" fill="#3C3C3C"/>
<circle cx="-0.0841321" cy="367.01" r="2.21128" transform="rotate(-90 -0.0841321 367.01)" fill="#3C3C3C"/>
<circle cx="8.15171" cy="366.055" r="2.21128" transform="rotate(-90 8.15171 366.055)" fill="#3C3C3C"/>
<circle cx="15.2115" cy="365.734" r="2.21128" transform="rotate(-90 15.2115 365.734)" fill="#3C3C3C"/>
<circle cx="22.9232" cy="364.763" r="2.21128" transform="rotate(-90 22.9232 364.763)" fill="#3C3C3C"/>
<circle cx="31.5545" cy="361.971" r="2.21128" transform="rotate(-90 31.5545 361.971)" fill="#3C3C3C"/>
<circle cx="39.0926" cy="359.5" r="2.21128" transform="rotate(-90 39.0926 359.5)" fill="#3C3C3C"/>
<circle cx="46.0069" cy="357.648" r="2.21128" transform="rotate(-90 46.0069 357.648)" fill="#3C3C3C"/>
<circle cx="52.5965" cy="358.115" r="2.21128" transform="rotate(-90 52.5965 358.115)" fill="#3C3C3C"/>
<circle cx="59.1908" cy="355.343" r="2.21128" transform="rotate(-90 59.1908 355.343)" fill="#3C3C3C"/>
<circle cx="65.8153" cy="355.292" r="2.21128" transform="rotate(-90 65.8153 355.292)" fill="#3C3C3C"/>
<circle cx="72.5167" cy="355.902" r="2.21128" transform="rotate(-90 72.5167 355.902)" fill="#3C3C3C"/>
<circle cx="79.136" cy="355.769" r="2.21128" transform="rotate(-90 79.136 355.769)" fill="#3C3C3C"/>
<circle cx="0.0174304" cy="360.329" r="2.21128" transform="rotate(-90 0.0174304 360.329)" fill="#3C3C3C"/>
<circle cx="8.73374" cy="358.979" r="2.21128" transform="rotate(-90 8.73374 358.979)" fill="#3C3C3C"/>
<circle cx="16.5304" cy="357.88" r="2.21128" transform="rotate(-90 16.5304 357.88)" fill="#3C3C3C"/>
<circle cx="22.8717" cy="358.184" r="2.21128" transform="rotate(-90 22.8717 358.184)" fill="#3C3C3C"/>
<circle cx="31.9696" cy="354.42" r="2.21128" transform="rotate(-90 31.9696 354.42)" fill="#3C3C3C"/>
<circle cx="39.3753" cy="351.016" r="2.21128" transform="rotate(-90 39.3753 351.016)" fill="#3C3C3C"/>
<circle cx="46.0328" cy="350.326" r="2.21128" transform="rotate(-90 46.0328 350.326)" fill="#3C3C3C"/>
<circle cx="52.5257" cy="348.485" r="2.21128" transform="rotate(-90 52.5257 348.485)" fill="#3C3C3C"/>
<circle cx="65.8373" cy="348.824" r="2.21128" transform="rotate(-90 65.8373 348.824)" fill="#3C3C3C"/>
<circle cx="72.5538" cy="350.586" r="2.21128" transform="rotate(-90 72.5538 350.586)" fill="#3C3C3C"/>
<circle cx="79.1095" cy="348.897" r="2.21128" transform="rotate(-90 79.1095 348.897)" fill="#3C3C3C"/>
<ellipse cx="1.80038" cy="208.297" rx="2.13656" ry="2.14272" fill="#3C3C3C"/>
<ellipse cx="4.54111" cy="213.575" rx="2.13656" ry="2.14272" fill="#3C3C3C"/>
<ellipse cx="4.69394" cy="219.93" rx="2.13656" ry="2.14272" fill="#3C3C3C"/>
<ellipse cx="2.51254" cy="227.31" rx="2.13656" ry="2.14272" fill="#3C3C3C"/>
<ellipse cx="0.763761" cy="234.372" rx="2.13656" ry="2.14272" fill="#3C3C3C"/>
<ellipse cx="1.29477" cy="240.619" rx="2.13656" ry="2.14272" fill="#3C3C3C"/>
<ellipse cx="-0.473299" cy="197.371" rx="2.13656" ry="2.14272" fill="#3C3C3C"/>
<ellipse cx="5.5516" cy="202.723" rx="2.13656" ry="2.14272" fill="#3C3C3C"/>
<ellipse cx="9.37338" cy="207.844" rx="2.13656" ry="2.14272" fill="#3C3C3C"/>
<ellipse cx="11.6222" cy="213.248" rx="2.13656" ry="2.14272" fill="#3C3C3C"/>
<ellipse cx="12.7203" cy="219.1" rx="2.13656" ry="2.14272" fill="#3C3C3C"/>
<ellipse cx="12.0157" cy="225.904" rx="2.13656" ry="2.14272" fill="#3C3C3C"/>
<ellipse cx="9.55478" cy="233.481" rx="2.13656" ry="2.14272" fill="#3C3C3C"/>
<ellipse cx="8.18735" cy="240.446" rx="2.13656" ry="2.14272" fill="#3C3C3C"/>
<ellipse cx="-1.85318" cy="190.685" rx="2.13656" ry="2.14272" fill="#3C3C3C"/>
<ellipse cx="6.07016" cy="197.359" rx="2.13656" ry="2.14272" fill="#3C3C3C"/>
<ellipse cx="12.4486" cy="202.585" rx="2.13656" ry="2.14272" fill="#3C3C3C"/>
<ellipse cx="16.9344" cy="207.345" rx="2.13656" ry="2.14272" fill="#3C3C3C"/>
<ellipse cx="19.485" cy="212.474" rx="2.13656" ry="2.14272" fill="#3C3C3C"/>
<ellipse cx="20.023" cy="218.592" rx="2.13656" ry="2.14272" fill="#3C3C3C"/>
<ellipse cx="18.5186" cy="225.855" rx="2.13656" ry="2.14272" fill="#3C3C3C"/>
<ellipse cx="15.7472" cy="233.571" rx="2.13656" ry="2.14272" fill="#3C3C3C"/>
<ellipse cx="13.9627" cy="240.672" rx="2.13656" ry="2.14272" fill="#3C3C3C"/>
<ellipse cx="1.86239" cy="119.452" rx="2.13656" ry="2.14272" fill="#3C3C3C"/>
<ellipse cx="0.804289" cy="125.61" rx="2.13656" ry="2.14272" fill="#3C3C3C"/>
<ellipse cx="-1.25015" cy="131.407" rx="2.13656" ry="2.14272" fill="#3C3C3C"/>
<ellipse cx="0.253507" cy="189.737" rx="2.13656" ry="2.14272" fill="#3C3C3C"/>
<ellipse cx="11.0221" cy="197.456" rx="2.13656" ry="2.14272" fill="#3C3C3C"/>
<ellipse cx="18.4586" cy="202.699" rx="2.13656" ry="2.14272" fill="#3C3C3C"/>
<ellipse cx="24.4354" cy="206.822" rx="2.13656" ry="2.14272" fill="#3C3C3C"/>
<ellipse cx="27.7398" cy="211.351" rx="2.13656" ry="2.14272" fill="#3C3C3C"/>
<ellipse cx="27.5977" cy="217.872" rx="2.13656" ry="2.14272" fill="#3C3C3C"/>
<ellipse cx="24.9327" cy="225.852" rx="2.13656" ry="2.14272" fill="#3C3C3C"/>
<ellipse cx="21.7064" cy="233.752" rx="2.13656" ry="2.14272" fill="#3C3C3C"/>
<ellipse cx="19.2559" cy="241.035" rx="2.13656" ry="2.14272" fill="#3C3C3C"/>
<ellipse cx="5.7789" cy="118.756" rx="2.13656" ry="2.14272" fill="#3C3C3C"/>
<ellipse cx="4.76498" cy="124.841" rx="2.13656" ry="2.14272" fill="#3C3C3C"/>
<ellipse cx="2.95785" cy="130.563" rx="2.13656" ry="2.14272" fill="#3C3C3C"/>
<ellipse cx="1.80649" cy="136.476" rx="2.13656" ry="2.14272" fill="#3C3C3C"/>
<ellipse cx="-0.511385" cy="141.702" rx="2.13656" ry="2.14272" fill="#3C3C3C"/>
<ellipse cx="-1.55802" cy="147.508" rx="2.13656" ry="2.14272" fill="#3C3C3C"/>
<ellipse cx="-1.38687" cy="154.042" rx="2.13656" ry="2.14272" fill="#3C3C3C"/>
<ellipse cx="-1.47208" cy="160.417" rx="2.13656" ry="2.14272" fill="#3C3C3C"/>
<ellipse cx="-1.52579" cy="166.813" rx="2.13656" ry="2.14272" fill="#3C3C3C"/>
<ellipse cx="-1.90396" cy="173.004" rx="2.13656" ry="2.14272" fill="#3C3C3C"/>
<ellipse cx="-1.56143" cy="179.647" rx="2.13656" ry="2.14272" fill="#3C3C3C"/>
<ellipse cx="3.89999" cy="188.799" rx="2.13656" ry="2.14272" fill="#3C3C3C"/>
<ellipse cx="14.5265" cy="197.459" rx="2.13656" ry="2.14272" fill="#3C3C3C"/>
<ellipse cx="22.6392" cy="203.237" rx="2.13656" ry="2.14272" fill="#3C3C3C"/>
<ellipse cx="29.7918" cy="207.327" rx="2.13656" ry="2.14272" fill="#3C3C3C"/>
<ellipse cx="33.742" cy="211.614" rx="2.13656" ry="2.14272" fill="#3C3C3C"/>
<ellipse cx="33.4288" cy="218.238" rx="2.13656" ry="2.14272" fill="#3C3C3C"/>
<ellipse cx="30.2557" cy="226.395" rx="2.13656" ry="2.14272" fill="#3C3C3C"/>
<ellipse cx="26.7538" cy="234.254" rx="2.13656" ry="2.14272" fill="#3C3C3C"/>
<ellipse cx="24.077" cy="241.478" rx="2.13656" ry="2.14272" fill="#3C3C3C"/>
<ellipse cx="8.99936" cy="117.548" rx="2.13656" ry="2.14272" fill="#3C3C3C"/>
<ellipse cx="7.68564" cy="123.365" rx="2.13656" ry="2.14272" fill="#3C3C3C"/>
<ellipse cx="5.53305" cy="128.635" rx="2.13656" ry="2.14272" fill="#3C3C3C"/>
<ellipse cx="4.65683" cy="134.53" rx="2.13656" ry="2.14272" fill="#3C3C3C"/>
<ellipse cx="2.85776" cy="139.744" rx="2.13656" ry="2.14272" fill="#3C3C3C"/>
<ellipse cx="1.7745" cy="145.354" rx="2.13656" ry="2.14272" fill="#3C3C3C"/>
<ellipse cx="3.17074" cy="152.824" rx="2.13656" ry="2.14272" fill="#3C3C3C"/>
<ellipse cx="5.64633" cy="160.841" rx="2.13656" ry="2.14272" fill="#3C3C3C"/>
<ellipse cx="5.96054" cy="167.45" rx="2.13656" ry="2.14272" fill="#3C3C3C"/>
<ellipse cx="5.25229" cy="173.465" rx="2.13656" ry="2.14272" fill="#3C3C3C"/>
<ellipse cx="5.2767" cy="179.908" rx="2.13656" ry="2.14272" fill="#3C3C3C"/>
<ellipse cx="8.02109" cy="187.809" rx="2.13656" ry="2.14272" fill="#3C3C3C"/>
<ellipse cx="14.098" cy="196.446" rx="2.13656" ry="2.14272" fill="#3C3C3C"/>
<ellipse cx="22.2613" cy="203.917" rx="2.13656" ry="2.14272" fill="#3C3C3C"/>
<ellipse cx="32.2691" cy="208.834" rx="2.13656" ry="2.14272" fill="#3C3C3C"/>
<ellipse cx="37.9579" cy="212.888" rx="2.13656" ry="2.14272" fill="#3C3C3C"/>
<ellipse cx="36.9837" cy="219.813" rx="2.13656" ry="2.14272" fill="#3C3C3C"/>
<ellipse cx="32.2899" cy="228.112" rx="2.13656" ry="2.14272" fill="#3C3C3C"/>
<ellipse cx="28.3883" cy="235.507" rx="2.13656" ry="2.14272" fill="#3C3C3C"/>
<ellipse cx="25.7782" cy="242.31" rx="2.13656" ry="2.14272" fill="#3C3C3C"/>
<ellipse cx="14.9273" cy="117.332" rx="2.13656" ry="2.14272" fill="#3C3C3C"/>
<ellipse cx="13.3355" cy="122.979" rx="2.13656" ry="2.14272" fill="#3C3C3C"/>
<ellipse cx="10.7396" cy="127.894" rx="2.13656" ry="2.14272" fill="#3C3C3C"/>
<ellipse cx="9.7225" cy="133.639" rx="2.13656" ry="2.14272" fill="#3C3C3C"/>
<ellipse cx="7.91415" cy="138.711" rx="2.13656" ry="2.14272" fill="#3C3C3C"/>
<ellipse cx="6.57895" cy="144.006" rx="2.13656" ry="2.14272" fill="#3C3C3C"/>
<ellipse cx="8.42221" cy="151.968" rx="2.13656" ry="2.14272" fill="#3C3C3C"/>
<ellipse cx="12.1434" cy="160.892" rx="2.13656" ry="2.14272" fill="#3C3C3C"/>
<ellipse cx="12.4024" cy="167.468" rx="2.13656" ry="2.14272" fill="#3C3C3C"/>
<ellipse cx="11.2767" cy="173.23" rx="2.13656" ry="2.14272" fill="#3C3C3C"/>
<ellipse cx="10.9847" cy="179.476" rx="2.13656" ry="2.14272" fill="#3C3C3C"/>
<ellipse cx="12.0033" cy="186.523" rx="2.13656" ry="2.14272" fill="#3C3C3C"/>
<ellipse cx="15.2799" cy="194.628" rx="2.13656" ry="2.14272" fill="#3C3C3C"/>
<ellipse cx="23.2015" cy="203.447" rx="2.13656" ry="2.14272" fill="#3C3C3C"/>
<ellipse cx="34.9752" cy="209.761" rx="2.13656" ry="2.14272" fill="#3C3C3C"/>
<ellipse cx="41.9869" cy="214.033" rx="2.13656" ry="2.14272" fill="#3C3C3C"/>
<ellipse cx="40.7481" cy="220.969" rx="2.13656" ry="2.14272" fill="#3C3C3C"/>
<ellipse cx="35.2508" cy="228.992" rx="2.13656" ry="2.14272" fill="#3C3C3C"/>
<ellipse cx="31.3175" cy="235.96" rx="2.13656" ry="2.14272" fill="#3C3C3C"/>
<ellipse cx="28.9144" cy="242.486" rx="2.13656" ry="2.14272" fill="#3C3C3C"/>
<ellipse cx="25.9596" cy="119.047" rx="2.13656" ry="2.14272" fill="#3C3C3C"/>
<ellipse cx="24.3033" cy="124.949" rx="2.13656" ry="2.14272" fill="#3C3C3C"/>
<ellipse cx="21.4652" cy="130.246" rx="2.13656" ry="2.14272" fill="#3C3C3C"/>
<ellipse cx="20.0741" cy="136.005" rx="2.13656" ry="2.14272" fill="#3C3C3C"/>
<ellipse cx="17.826" cy="141.175" rx="2.13656" ry="2.14272" fill="#3C3C3C"/>
<ellipse cx="15.9676" cy="146.38" rx="2.13656" ry="2.14272" fill="#3C3C3C"/>
<ellipse cx="15.9266" cy="152.779" rx="2.13656" ry="2.14272" fill="#3C3C3C"/>
<ellipse cx="16.6168" cy="159.684" rx="2.13656" ry="2.14272" fill="#3C3C3C"/>
<ellipse cx="16.1905" cy="165.821" rx="2.13656" ry="2.14272" fill="#3C3C3C"/>
<ellipse cx="16.9701" cy="172.774" rx="2.13656" ry="2.14272" fill="#3C3C3C"/>
<ellipse cx="17.8836" cy="179.779" rx="2.13656" ry="2.14272" fill="#3C3C3C"/>
<ellipse cx="19.1837" cy="186.96" rx="2.13656" ry="2.14272" fill="#3C3C3C"/>
<ellipse cx="23.0643" cy="195.202" rx="2.13656" ry="2.14272" fill="#3C3C3C"/>
<ellipse cx="30.5435" cy="203.592" rx="2.13656" ry="2.14272" fill="#3C3C3C"/>
<ellipse cx="39.6837" cy="210.039" rx="2.13656" ry="2.14272" fill="#3C3C3C"/>
<ellipse cx="45.4942" cy="215.133" rx="2.13656" ry="2.14272" fill="#3C3C3C"/>
<ellipse cx="45.7269" cy="221.484" rx="2.13656" ry="2.14272" fill="#3C3C3C"/>
<ellipse cx="42.547" cy="228.803" rx="2.13656" ry="2.14272" fill="#3C3C3C"/>
<ellipse cx="39.6329" cy="235.758" rx="2.13656" ry="2.14272" fill="#3C3C3C"/>
<ellipse cx="37.7481" cy="242.387" rx="2.13656" ry="2.14272" fill="#3C3C3C"/>
<ellipse cx="41.1849" cy="120.349" rx="2.13656" ry="2.14272" fill="#3C3C3C"/>
<ellipse cx="39.5802" cy="126.719" rx="2.13656" ry="2.14272" fill="#3C3C3C"/>
<ellipse cx="36.6749" cy="132.842" rx="2.13656" ry="2.14272" fill="#3C3C3C"/>
<ellipse cx="34.9749" cy="138.971" rx="2.13656" ry="2.14272" fill="#3C3C3C"/>
<ellipse cx="32.379" cy="144.762" rx="2.13656" ry="2.14272" fill="#3C3C3C"/>
<ellipse cx="29.9669" cy="150.394" rx="2.13656" ry="2.14272" fill="#3C3C3C"/>
<ellipse cx="26.6295" cy="155.364" rx="2.13656" ry="2.14272" fill="#3C3C3C"/>
<ellipse cx="22.4608" cy="159.295" rx="2.13656" ry="2.14272" fill="#3C3C3C"/>
<ellipse cx="21.0553" cy="164.679" rx="2.13656" ry="2.14272" fill="#3C3C3C"/>
<ellipse cx="24.8973" cy="173.71" rx="2.13656" ry="2.14272" fill="#3C3C3C"/>
<ellipse cx="28.0216" cy="181.738" rx="2.13656" ry="2.14272" fill="#3C3C3C"/>
<ellipse cx="29.8465" cy="188.917" rx="2.13656" ry="2.14272" fill="#3C3C3C"/>
<ellipse cx="34.5372" cy="196.732" rx="2.13656" ry="2.14272" fill="#3C3C3C"/>
<ellipse cx="40.7926" cy="203.908" rx="2.13656" ry="2.14272" fill="#3C3C3C"/>
<ellipse cx="45.0858" cy="210.161" rx="2.13656" ry="2.14272" fill="#3C3C3C"/>
<ellipse cx="48.3951" cy="216.069" rx="2.13656" ry="2.14272" fill="#3C3C3C"/>
<ellipse cx="50.9862" cy="221.846" rx="2.13656" ry="2.14272" fill="#3C3C3C"/>
<ellipse cx="51.6712" cy="228.064" rx="2.13656" ry="2.14272" fill="#3C3C3C"/>
<ellipse cx="50.6109" cy="234.81" rx="2.13656" ry="2.14272" fill="#3C3C3C"/>
<ellipse cx="49.7801" cy="241.461" rx="2.13656" ry="2.14272" fill="#3C3C3C"/>
<ellipse cx="55.6385" cy="119.462" rx="2.13656" ry="2.14272" fill="#3C3C3C"/>
<ellipse cx="54.1864" cy="126.199" rx="2.13656" ry="2.14272" fill="#3C3C3C"/>
<ellipse cx="51.4403" cy="133.029" rx="2.13656" ry="2.14272" fill="#3C3C3C"/>
<ellipse cx="49.6336" cy="139.596" rx="2.13656" ry="2.14272" fill="#3C3C3C"/>
<ellipse cx="47.0304" cy="146.05" rx="2.13656" ry="2.14272" fill="#3C3C3C"/>
<ellipse cx="44.335" cy="152.289" rx="2.13656" ry="2.14272" fill="#3C3C3C"/>
<ellipse cx="39.4642" cy="157.805" rx="2.13656" ry="2.14272" fill="#3C3C3C"/>
<ellipse cx="32.919" cy="161.731" rx="2.13656" ry="2.14272" fill="#3C3C3C"/>
<ellipse cx="30.0775" cy="166.533" rx="2.13656" ry="2.14272" fill="#3C3C3C"/>
<ellipse cx="33.1268" cy="174.692" rx="2.13656" ry="2.14272" fill="#3C3C3C"/>
<ellipse cx="35.8609" cy="182.337" rx="2.13656" ry="2.14272" fill="#3C3C3C"/>
<ellipse cx="37.7413" cy="189.438" rx="2.13656" ry="2.14272" fill="#3C3C3C"/>
<ellipse cx="42.2457" cy="196.987" rx="2.13656" ry="2.14272" fill="#3C3C3C"/>
<ellipse cx="47.2276" cy="203.908" rx="2.13656" ry="2.14272" fill="#3C3C3C"/>
<ellipse cx="49.6158" cy="210.306" rx="2.13656" ry="2.14272" fill="#3C3C3C"/>
<ellipse cx="52.1873" cy="216.509" rx="2.13656" ry="2.14272" fill="#3C3C3C"/>
<ellipse cx="55.8763" cy="222.255" rx="2.13656" ry="2.14272" fill="#3C3C3C"/>
<ellipse cx="58.4566" cy="227.942" rx="2.13656" ry="2.14272" fill="#3C3C3C"/>
<ellipse cx="58.9618" cy="234.198" rx="2.13656" ry="2.14272" fill="#3C3C3C"/>
<ellipse cx="59.0225" cy="240.605" rx="2.13656" ry="2.14272" fill="#3C3C3C"/>
<ellipse cx="66.6707" cy="118.007" rx="2.13656" ry="2.14272" fill="#3C3C3C"/>
<ellipse cx="65.94" cy="124.716" rx="2.13656" ry="2.14272" fill="#3C3C3C"/>
<ellipse cx="64.3619" cy="131.683" rx="2.13656" ry="2.14272" fill="#3C3C3C"/>
<ellipse cx="63.0042" cy="138.505" rx="2.13656" ry="2.14272" fill="#3C3C3C"/>
<ellipse cx="62.0448" cy="145.175" rx="2.13656" ry="2.14272" fill="#3C3C3C"/>
<ellipse cx="60.2445" cy="151.976" rx="2.13656" ry="2.14272" fill="#3C3C3C"/>
<ellipse cx="54.1827" cy="158.919" rx="2.13656" ry="2.14272" fill="#3C3C3C"/>
<ellipse cx="45.379" cy="164.098" rx="2.13656" ry="2.14272" fill="#3C3C3C"/>
<ellipse cx="40.3827" cy="168.672" rx="2.13656" ry="2.14272" fill="#3C3C3C"/>
<ellipse cx="38.296" cy="174.039" rx="2.13656" ry="2.14272" fill="#3C3C3C"/>
<ellipse cx="37.8878" cy="180.237" rx="2.13656" ry="2.14272" fill="#3C3C3C"/>
<ellipse cx="41.2647" cy="188.352" rx="2.13656" ry="2.14272" fill="#3C3C3C"/>
<ellipse cx="48.193" cy="196.903" rx="2.13656" ry="2.14272" fill="#3C3C3C"/>
<ellipse cx="52.4471" cy="203.859" rx="2.13656" ry="2.14272" fill="#3C3C3C"/>
<ellipse cx="52.4928" cy="210.29" rx="2.13656" ry="2.14272" fill="#3C3C3C"/>
<ellipse cx="53.9356" cy="216.77" rx="2.13656" ry="2.14272" fill="#3C3C3C"/>
<ellipse cx="58.598" cy="222.937" rx="2.13656" ry="2.14272" fill="#3C3C3C"/>
<ellipse cx="62.9002" cy="228.527" rx="2.13656" ry="2.14272" fill="#3C3C3C"/>
<ellipse cx="64.41" cy="234.518" rx="2.13656" ry="2.14272" fill="#3C3C3C"/>
<ellipse cx="63.6017" cy="241.19" rx="2.13656" ry="2.14272" fill="#3C3C3C"/>
<circle cx="19.5816" cy="115.886" r="2.13778" transform="rotate(-89.9479 19.5816 115.886)" fill="#3C3C3C"/>
<circle cx="28.5408" cy="114.585" r="2.13778" transform="rotate(-89.9479 28.5408 114.585)" fill="#3C3C3C"/>
<circle cx="38.6986" cy="113.639" r="2.13778" transform="rotate(-89.9479 38.6986 113.639)" fill="#3C3C3C"/>
<circle cx="50.5289" cy="113.986" r="2.13778" transform="rotate(-89.9479 50.5289 113.986)" fill="#3C3C3C"/>
<circle cx="61.0731" cy="115.715" r="2.13778" transform="rotate(-89.9479 61.0731 115.715)" fill="#3C3C3C"/>
<circle cx="4.06184" cy="111.674" r="2.13778" transform="rotate(-89.9479 4.06184 111.674)" fill="#3C3C3C"/>
<circle cx="11.2669" cy="110.917" r="2.13778" transform="rotate(-89.9479 11.2669 110.917)" fill="#3C3C3C"/>
<circle cx="19.6033" cy="109.462" r="2.13778" transform="rotate(-89.9479 19.6033 109.462)" fill="#3C3C3C"/>
<circle cx="28.8055" cy="108.071" r="2.13778" transform="rotate(-89.9479 28.8055 108.071)" fill="#3C3C3C"/>
<circle cx="38.4847" cy="107.254" r="2.13778" transform="rotate(-89.9479 38.4847 107.254)" fill="#3C3C3C"/>
<circle cx="49.0404" cy="107.278" r="2.13778" transform="rotate(-89.9479 49.0404 107.278)" fill="#3C3C3C"/>
<circle cx="58.9161" cy="108.218" r="2.13778" transform="rotate(-89.9479 58.9161 108.218)" fill="#3C3C3C"/>
<circle cx="67.1519" cy="109.107" r="2.13778" transform="rotate(-89.9479 67.1519 109.107)" fill="#3C3C3C"/>
<circle cx="-2.05363" cy="104.96" r="2.13778" transform="rotate(-89.9479 -2.05363 104.96)" fill="#3C3C3C"/>
<circle cx="4.2303" cy="105.094" r="2.13778" transform="rotate(-89.9479 4.2303 105.094)" fill="#3C3C3C"/>
<circle cx="11.3194" cy="104.462" r="2.13778" transform="rotate(-89.9479 11.3194 104.462)" fill="#3C3C3C"/>
<circle cx="19.963" cy="102.83" r="2.13778" transform="rotate(-89.9479 19.963 102.83)" fill="#3C3C3C"/>
<circle cx="29.3289" cy="101.474" r="2.13778" transform="rotate(-89.9479 29.3289 101.474)" fill="#3C3C3C"/>
<circle cx="38.1536" cy="100.89" r="2.13778" transform="rotate(-89.9479 38.1536 100.89)" fill="#3C3C3C"/>
<circle cx="46.8114" cy="100.711" r="2.13778" transform="rotate(-89.9479 46.8114 100.711)" fill="#3C3C3C"/>
<circle cx="55.5096" cy="100.878" r="2.13778" transform="rotate(-89.9479 55.5096 100.878)" fill="#3C3C3C"/>
<circle cx="63.8228" cy="101.292" r="2.13778" transform="rotate(-89.9479 63.8228 101.292)" fill="#3C3C3C"/>
<circle cx="70.9107" cy="101.507" r="2.13778" transform="rotate(-89.9479 70.9107 101.507)" fill="#3C3C3C"/>
<circle cx="-1.26189" cy="97.8283" r="2.13778" transform="rotate(-89.9479 -1.26189 97.8283)" fill="#3C3C3C"/>
<circle cx="4.79598" cy="98.1463" r="2.13778" transform="rotate(-89.9479 4.79598 98.1463)" fill="#3C3C3C"/>
<circle cx="11.6961" cy="97.7296" r="2.13778" transform="rotate(-89.9479 11.6961 97.7296)" fill="#3C3C3C"/>
<circle cx="19.9676" cy="96.4169" r="2.13778" transform="rotate(-89.9479 19.9676 96.4169)" fill="#3C3C3C"/>
<circle cx="28.6666" cy="95.3023" r="2.13778" transform="rotate(-89.9479 28.6666 95.3023)" fill="#3C3C3C"/>
<circle cx="36.6199" cy="94.8038" r="2.13778" transform="rotate(-89.9479 36.6199 94.8038)" fill="#3C3C3C"/>
<circle cx="44.3536" cy="94.5182" r="2.13778" transform="rotate(-89.9479 44.3536 94.5182)" fill="#3C3C3C"/>
<circle cx="52.5394" cy="94.3246" r="2.13778" transform="rotate(-89.9479 52.5394 94.3246)" fill="#3C3C3C"/>
<circle cx="60.9412" cy="94.3578" r="2.13778" transform="rotate(-89.9479 60.9412 94.3578)" fill="#3C3C3C"/>
<circle cx="68.3448" cy="94.4765" r="2.13778" transform="rotate(-89.9479 68.3448 94.4765)" fill="#3C3C3C"/>
<circle cx="0.0462193" cy="90.4246" r="2.13778" transform="rotate(-89.9479 0.0462193 90.4246)" fill="#3C3C3C"/>
<circle cx="6.06941" cy="90.7042" r="2.13778" transform="rotate(-89.9479 6.06941 90.7042)" fill="#3C3C3C"/>
<circle cx="12.6497" cy="90.5907" r="2.13778" transform="rotate(-89.9479 12.6497 90.5907)" fill="#3C3C3C"/>
<circle cx="19.5496" cy="90.2679" r="2.13778" transform="rotate(-89.9479 19.5496 90.2679)" fill="#3C3C3C"/>
<circle cx="26.6029" cy="89.882" r="2.13778" transform="rotate(-89.9479 26.6029 89.882)" fill="#3C3C3C"/>
<circle cx="33.7945" cy="89.4682" r="2.13778" transform="rotate(-89.9479 33.7945 89.4682)" fill="#3C3C3C"/>
<circle cx="41.4539" cy="88.9182" r="2.13778" transform="rotate(-89.9479 41.4539 88.9182)" fill="#3C3C3C"/>
<circle cx="49.7242" cy="88.3319" r="2.13778" transform="rotate(-89.9479 49.7242 88.3319)" fill="#3C3C3C"/>
<circle cx="58.2828" cy="87.968" r="2.13778" transform="rotate(-89.9479 58.2828 87.968)" fill="#3C3C3C"/>
<circle cx="66.4542" cy="87.9049" r="2.13778" transform="rotate(-89.9479 66.4542 87.9049)" fill="#3C3C3C"/>
<circle cx="1.32552" cy="83.2383" r="2.13778" transform="rotate(-89.9479 1.32552 83.2383)" fill="#3C3C3C"/>
<circle cx="7.34016" cy="83.4677" r="2.13778" transform="rotate(-89.9479 7.34016 83.4677)" fill="#3C3C3C"/>
<circle cx="13.5506" cy="83.5936" r="2.13778" transform="rotate(-89.9479 13.5506 83.5936)" fill="#3C3C3C"/>
<circle cx="19.0499" cy="84.1967" r="2.13778" transform="rotate(-89.9479 19.0499 84.1967)" fill="#3C3C3C"/>
<circle cx="24.7103" cy="84.7708" r="2.13778" transform="rotate(-89.9479 24.7103 84.7708)" fill="#3C3C3C"/>
<circle cx="31.4097" cy="84.5518" r="2.13778" transform="rotate(-89.9479 31.4097 84.5518)" fill="#3C3C3C"/>
<circle cx="39.1329" cy="83.6602" r="2.13778" transform="rotate(-89.9479 39.1329 83.6602)" fill="#3C3C3C"/>
<circle cx="47.5013" cy="82.6623" r="2.13778" transform="rotate(-89.9479 47.5013 82.6623)" fill="#3C3C3C"/>
<circle cx="56.088" cy="81.9383" r="2.13778" transform="rotate(-89.9479 56.088 81.9383)" fill="#3C3C3C"/>
<circle cx="64.8553" cy="81.5461" r="2.13778" transform="rotate(-89.9479 64.8553 81.5461)" fill="#3C3C3C"/>
<circle cx="1.84993" cy="76.5573" r="2.13778" transform="rotate(-89.9479 1.84993 76.5573)" fill="#3C3C3C"/>
<circle cx="7.51277" cy="76.959" r="2.13778" transform="rotate(-89.9479 7.51277 76.959)" fill="#3C3C3C"/>
<circle cx="13.4613" cy="77.2383" r="2.13778" transform="rotate(-89.9479 13.4613 77.2383)" fill="#3C3C3C"/>
<circle cx="18.681" cy="78.0568" r="2.13778" transform="rotate(-89.9479 18.681 78.0568)" fill="#3C3C3C"/>
<circle cx="24.1043" cy="78.878" r="2.13778" transform="rotate(-89.9479 24.1043 78.878)" fill="#3C3C3C"/>
<circle cx="30.6158" cy="78.7965" r="2.13778" transform="rotate(-89.9479 30.6158 78.7965)" fill="#3C3C3C"/>
<circle cx="38.1729" cy="77.8885" r="2.13778" transform="rotate(-89.9479 38.1729 77.8885)" fill="#3C3C3C"/>
<circle cx="46.3472" cy="76.8" r="2.13778" transform="rotate(-89.9479 46.3472 76.8)" fill="#3C3C3C"/>
<circle cx="54.7449" cy="75.934" r="2.13778" transform="rotate(-89.9479 54.7449 75.934)" fill="#3C3C3C"/>
<circle cx="63.4793" cy="75.3195" r="2.13778" transform="rotate(-89.9479 63.4793 75.3195)" fill="#3C3C3C"/>
<circle cx="-2.1115" cy="69.1921" r="2.13778" transform="rotate(-89.9479 -2.1115 69.1921)" fill="#3C3C3C"/>
<circle cx="1.75667" cy="70.1933" r="2.13778" transform="rotate(-89.9479 1.75667 70.1933)" fill="#3C3C3C"/>
<circle cx="6.29866" cy="71.3131" r="2.13778" transform="rotate(-89.9479 6.29866 71.3131)" fill="#3C3C3C"/>
<circle cx="12.0357" cy="71.8205" r="2.13778" transform="rotate(-89.9479 12.0357 71.8205)" fill="#3C3C3C"/>
<circle cx="17.8087" cy="72.3596" r="2.13778" transform="rotate(-89.9479 17.8087 72.3596)" fill="#3C3C3C"/>
<circle cx="23.775" cy="72.7749" r="2.13778" transform="rotate(-89.9479 23.775 72.7749)" fill="#3C3C3C"/>
<circle cx="30.3746" cy="72.6061" r="2.13778" transform="rotate(-89.9479 30.3746 72.6061)" fill="#3C3C3C"/>
<circle cx="37.91" cy="71.6734" r="2.13778" transform="rotate(-89.9479 37.91 71.6734)" fill="#3C3C3C"/>
<circle cx="45.9525" cy="70.6066" r="2.13778" transform="rotate(-89.9479 45.9525 70.6066)" fill="#3C3C3C"/>
<circle cx="54.2291" cy="69.7173" r="2.13778" transform="rotate(-89.9479 54.2291 69.7173)" fill="#3C3C3C"/>
<circle cx="63.0941" cy="68.9831" r="2.13778" transform="rotate(-89.9479 63.0941 68.9831)" fill="#3C3C3C"/>
<circle cx="-1.82854" cy="62.7016" r="2.13778" transform="rotate(-89.9479 -1.82854 62.7016)" fill="#3C3C3C"/>
<circle cx="1.05598" cy="64.1577" r="2.13778" transform="rotate(-89.9479 1.05598 64.1577)" fill="#3C3C3C"/>
<circle cx="4.73445" cy="66.1625" r="2.13778" transform="rotate(-89.9479 4.73445 66.1625)" fill="#3C3C3C"/>
<circle cx="10.3573" cy="66.9536" r="2.13778" transform="rotate(-89.9479 10.3573 66.9536)" fill="#3C3C3C"/>
<circle cx="16.6639" cy="67.0746" r="2.13778" transform="rotate(-89.9479 16.6639 67.0746)" fill="#3C3C3C"/>
<circle cx="23.2266" cy="66.9194" r="2.13778" transform="rotate(-89.9479 23.2266 66.9194)" fill="#3C3C3C"/>
<circle cx="30.0557" cy="66.5012" r="2.13778" transform="rotate(-89.9479 30.0557 66.5012)" fill="#3C3C3C"/>
<circle cx="37.6956" cy="65.43" r="2.13778" transform="rotate(-89.9479 37.6956 65.43)" fill="#3C3C3C"/>
<circle cx="45.6688" cy="64.3623" r="2.13778" transform="rotate(-89.9479 45.6688 64.3623)" fill="#3C3C3C"/>
<circle cx="53.7786" cy="63.4941" r="2.13778" transform="rotate(-89.9479 53.7786 63.4941)" fill="#3C3C3C"/>
<circle cx="62.63" cy="62.6765" r="2.13778" transform="rotate(-89.9479 62.63 62.6765)" fill="#3C3C3C"/>
<circle cx="-0.234054" cy="58.5735" r="2.13778" transform="rotate(-89.9479 -0.234054 58.5735)" fill="#3C3C3C"/>
<circle cx="3.61946" cy="60.8991" r="2.13778" transform="rotate(-89.9479 3.61946 60.8991)" fill="#3C3C3C"/>
<circle cx="9.25081" cy="61.8784" r="2.13778" transform="rotate(-89.9479 9.25081 61.8784)" fill="#3C3C3C"/>
<circle cx="15.7818" cy="61.7265" r="2.13778" transform="rotate(-89.9479 15.7818 61.7265)" fill="#3C3C3C"/>
<circle cx="22.6754" cy="61.1314" r="2.13778" transform="rotate(-89.9479 22.6754 61.1314)" fill="#3C3C3C"/>
<circle cx="29.689" cy="60.4666" r="2.13778" transform="rotate(-89.9479 29.689 60.4666)" fill="#3C3C3C"/>
<circle cx="37.2513" cy="59.3849" r="2.13778" transform="rotate(-89.9479 37.2513 59.3849)" fill="#3C3C3C"/>
<circle cx="44.972" cy="58.3968" r="2.13778" transform="rotate(-89.9479 44.972 58.3968)" fill="#3C3C3C"/>
<circle cx="52.7396" cy="57.5865" r="2.13778" transform="rotate(-89.9479 52.7396 57.5865)" fill="#3C3C3C"/>
<circle cx="61.0914" cy="56.7301" r="2.13778" transform="rotate(-89.9479 61.0914 56.7301)" fill="#3C3C3C"/>
<circle cx="-1.89152" cy="53.5412" r="2.13778" transform="rotate(-89.9479 -1.89152 53.5412)" fill="#3C3C3C"/>
<circle cx="2.76204" cy="55.57" r="2.13778" transform="rotate(-89.9479 2.76204 55.57)" fill="#3C3C3C"/>
<circle cx="8.54573" cy="56.5202" r="2.13778" transform="rotate(-89.9479 8.54573 56.5202)" fill="#3C3C3C"/>
<circle cx="15.6258" cy="55.5307" r="2.13778" transform="rotate(-89.9479 15.6258 55.5307)" fill="#3C3C3C"/>
<circle cx="23.2274" cy="54.1044" r="2.13778" transform="rotate(-89.9479 23.2274 54.1044)" fill="#3C3C3C"/>
<circle cx="30.306" cy="53.4463" r="2.13778" transform="rotate(-89.9479 30.306 53.4463)" fill="#3C3C3C"/>
<circle cx="37.1012" cy="53.106" r="2.13778" transform="rotate(-89.9479 37.1012 53.106)" fill="#3C3C3C"/>
<circle cx="43.9932" cy="52.7107" r="2.13778" transform="rotate(-89.9479 43.9932 52.7107)" fill="#3C3C3C"/>
<circle cx="51.3424" cy="52.0224" r="2.13778" transform="rotate(-89.9479 51.3424 52.0224)" fill="#3C3C3C"/>
<circle cx="59.067" cy="51.2282" r="2.13778" transform="rotate(-89.9479 59.067 51.2282)" fill="#3C3C3C"/>
<circle cx="2.68855" cy="49.2677" r="2.13778" transform="rotate(-89.9479 2.68855 49.2677)" fill="#3C3C3C"/>
<circle cx="8.50472" cy="50.1836" r="2.13778" transform="rotate(-89.9479 8.50472 50.1836)" fill="#3C3C3C"/>
<circle cx="15.9732" cy="48.6676" r="2.13778" transform="rotate(-89.9479 15.9732 48.6676)" fill="#3C3C3C"/>
<circle cx="24.1068" cy="46.8354" r="2.13778" transform="rotate(-89.9479 24.1068 46.8354)" fill="#3C3C3C"/>
<circle cx="31.0953" cy="46.3476" r="2.13778" transform="rotate(-89.9479 31.0953 46.3476)" fill="#3C3C3C"/>
<circle cx="37.1243" cy="46.6775" r="2.13778" transform="rotate(-89.9479 37.1243 46.6775)" fill="#3C3C3C"/>
<circle cx="43.3192" cy="46.8778" r="2.13778" transform="rotate(-89.9479 43.3192 46.8778)" fill="#3C3C3C"/>
<circle cx="50.3294" cy="46.3702" r="2.13778" transform="rotate(-89.9479 50.3294 46.3702)" fill="#3C3C3C"/>
<circle cx="57.5982" cy="45.7277" r="2.13778" transform="rotate(-89.9479 57.5982 45.7277)" fill="#3C3C3C"/>
<circle cx="-0.794601" cy="39.7679" r="2.13778" transform="rotate(-89.9479 -0.794601 39.7679)" fill="#3C3C3C"/>
<circle cx="4.11873" cy="41.1345" r="2.13778" transform="rotate(-89.9479 4.11873 41.1345)" fill="#3C3C3C"/>
<circle cx="9.64388" cy="42.1501" r="2.13778" transform="rotate(-89.9479 9.64388 42.1501)" fill="#3C3C3C"/>
<circle cx="16.6771" cy="41.4323" r="2.13778" transform="rotate(-89.9479 16.6771 41.4323)" fill="#3C3C3C"/>
<circle cx="24.2708" cy="40.2813" r="2.13778" transform="rotate(-89.9479 24.2708 40.2813)" fill="#3C3C3C"/>
<circle cx="31.0611" cy="39.9674" r="2.13778" transform="rotate(-89.9479 31.0611 39.9674)" fill="#3C3C3C"/>
<circle cx="37.0533" cy="40.3319" r="2.13778" transform="rotate(-89.9479 37.0533 40.3319)" fill="#3C3C3C"/>
<circle cx="43.169" cy="40.608" r="2.13778" transform="rotate(-89.9479 43.169 40.608)" fill="#3C3C3C"/>
<circle cx="50.0047" cy="40.2342" r="2.13778" transform="rotate(-89.9479 50.0047 40.2342)" fill="#3C3C3C"/>
<circle cx="-1.92912" cy="30.6702" r="2.13778" transform="rotate(-89.9479 -1.92912 30.6702)" fill="#3C3C3C"/>
<circle cx="2.74373" cy="31.2773" r="2.13778" transform="rotate(-89.9479 2.74373 31.2773)" fill="#3C3C3C"/>
<circle cx="2.74373" cy="25.4312" r="2.13778" transform="rotate(-89.9479 2.74373 25.4312)" fill="#3C3C3C"/>
<circle cx="2.74373" cy="19.7445" r="2.13778" transform="rotate(-89.9479 2.74373 19.7445)" fill="#3C3C3C"/>
<circle cx="2.74373" cy="14.0579" r="2.13778" transform="rotate(-89.9479 2.74373 14.0579)" fill="#3C3C3C"/>
<circle cx="-1.92912" cy="8.37124" r="2.13778" transform="rotate(-89.9479 -1.92912 8.37124)" fill="#3C3C3C"/>
<circle cx="8.01961" cy="14.7213" r="2.13778" transform="rotate(-89.9479 8.01961 14.7213)" fill="#3C3C3C"/>
<circle cx="7.77937" cy="31.9407" r="2.13778" transform="rotate(-89.9479 7.77937 31.9407)" fill="#3C3C3C"/>
<circle cx="7.77937" cy="26.0946" r="2.13778" transform="rotate(-89.9479 7.77937 26.0946)" fill="#3C3C3C"/>
<circle cx="13.2957" cy="15.6601" r="2.13778" transform="rotate(-89.9479 13.2957 15.6601)" fill="#3C3C3C"/>
<circle cx="8.01961" cy="20.4079" r="2.13778" transform="rotate(-89.9479 8.01961 20.4079)" fill="#3C3C3C"/>
<circle cx="18.5719" cy="16.617" r="2.13778" transform="rotate(-89.9479 18.5719 16.617)" fill="#3C3C3C"/>
<circle cx="3.347" cy="9.03463" r="2.13778" transform="rotate(-89.9479 3.347 9.03463)" fill="#3C3C3C"/>
<circle cx="-0.343429" cy="2.81424" r="2.13778" transform="rotate(-89.9479 -0.343429 2.81424)" fill="#3C3C3C"/>
<circle cx="12.6895" cy="32.8795" r="2.13778" transform="rotate(-89.9479 12.6895 32.8795)" fill="#3C3C3C"/>
<circle cx="23.8477" cy="17.0674" r="2.13778" transform="rotate(-89.9479 23.8477 17.0674)" fill="#3C3C3C"/>
<circle cx="12.6895" cy="27.0334" r="2.13778" transform="rotate(-89.9479 12.6895 27.0334)" fill="#3C3C3C"/>
<circle cx="8.62312" cy="9.97348" r="2.13778" transform="rotate(-89.9479 8.62312 9.97348)" fill="#3C3C3C"/>
<circle cx="4.93269" cy="3.75302" r="2.13778" transform="rotate(-89.9479 4.93269 3.75302)" fill="#3C3C3C"/>
<circle cx="29.1239" cy="16.87" r="2.13778" transform="rotate(-89.9479 29.1239 16.87)" fill="#3C3C3C"/>
<circle cx="13.2957" cy="21.3468" r="2.13778" transform="rotate(-89.9479 13.2957 21.3468)" fill="#3C3C3C"/>
<circle cx="17.8927" cy="33.8363" r="2.13778" transform="rotate(-89.9479 17.8927 33.8363)" fill="#3C3C3C"/>
<circle cx="17.8927" cy="27.9903" r="2.13778" transform="rotate(-89.9479 17.8927 27.9903)" fill="#3C3C3C"/>
<circle cx="13.899" cy="10.9303" r="2.13778" transform="rotate(-89.9479 13.899 10.9303)" fill="#3C3C3C"/>
<circle cx="10.2088" cy="4.70987" r="2.13778" transform="rotate(-89.9479 10.2088 4.70987)" fill="#3C3C3C"/>
<circle cx="18.5719" cy="22.3036" r="2.13778" transform="rotate(-89.9479 18.5719 22.3036)" fill="#3C3C3C"/>
<circle cx="23.8189" cy="34.2867" r="2.13778" transform="rotate(-89.9479 23.8189 34.2867)" fill="#3C3C3C"/>
<circle cx="23.8189" cy="28.4406" r="2.13778" transform="rotate(-89.9479 23.8189 28.4406)" fill="#3C3C3C"/>
<circle cx="19.1751" cy="11.3806" r="2.13778" transform="rotate(-89.9479 19.1751 11.3806)" fill="#3C3C3C"/>
<circle cx="15.4847" cy="5.16024" r="2.13778" transform="rotate(-89.9479 15.4847 5.16024)" fill="#3C3C3C"/>
<circle cx="23.8477" cy="22.754" r="2.13778" transform="rotate(-89.9479 23.8477 22.754)" fill="#3C3C3C"/>
<circle cx="30.4495" cy="34.0894" r="2.13778" transform="rotate(-89.9479 30.4495 34.0894)" fill="#3C3C3C"/>
<circle cx="30.4495" cy="28.2433" r="2.13778" transform="rotate(-89.9479 30.4495 28.2433)" fill="#3C3C3C"/>
<circle cx="29.1239" cy="22.5566" r="2.13778" transform="rotate(-89.9479 29.1239 22.5566)" fill="#3C3C3C"/>
<circle cx="24.451" cy="11.1834" r="2.13778" transform="rotate(-89.9479 24.451 11.1834)" fill="#3C3C3C"/>
<circle cx="20.7608" cy="4.96292" r="2.13778" transform="rotate(-89.9479 20.7608 4.96292)" fill="#3C3C3C"/>
<circle cx="36.9254" cy="34.0382" r="2.13778" transform="rotate(-89.9479 36.9254 34.0382)" fill="#3C3C3C"/>
<circle cx="36.9254" cy="28.1922" r="2.13778" transform="rotate(-89.9479 36.9254 28.1922)" fill="#3C3C3C"/>
<circle cx="34.3997" cy="22.5055" r="2.13778" transform="rotate(-89.9479 34.3997 22.5055)" fill="#3C3C3C"/>
<circle cx="43.3526" cy="34.0315" r="2.13778" transform="rotate(-89.9479 43.3526 34.0315)" fill="#3C3C3C"/>
</svg>
