<svg width="96" height="205" viewBox="0 0 96 205" fill="none" xmlns="http://www.w3.org/2000/svg">
<circle cx="-0.411714" cy="150.193" r="2.13656" transform="rotate(13.3804 -0.411714 150.193)" fill="#3C3C3C"/>
<circle cx="2.64664" cy="156.201" r="2.13656" transform="rotate(13.3804 2.64664 156.201)" fill="#3C3C3C"/>
<circle cx="4.09512" cy="161.955" r="2.13656" transform="rotate(13.3804 4.09512 161.955)" fill="#3C3C3C"/>
<circle cx="2.77725" cy="168.155" r="2.13656" transform="rotate(13.3804 2.77725 168.155)" fill="#3C3C3C"/>
<circle cx="-1.04794" cy="174.81" r="2.13656" transform="rotate(13.3804 -1.04794 174.81)" fill="#3C3C3C"/>
<circle cx="4.89688" cy="63.3183" r="2.13656" transform="rotate(13.3804 4.89688 63.3183)" fill="#3C3C3C"/>
<circle cx="3.05899" cy="69.2663" r="2.13656" transform="rotate(13.3804 3.05899 69.2663)" fill="#3C3C3C"/>
<circle cx="0.586088" cy="74.6552" r="2.13656" transform="rotate(13.3804 0.586088 74.6552)" fill="#3C3C3C"/>
<circle cx="-2.27329" cy="79.5945" r="2.13656" transform="rotate(13.3804 -2.27329 79.5945)" fill="#3C3C3C"/>
<circle cx="-0.942476" cy="110.026" r="2.13656" transform="rotate(13.3804 -0.942476 110.026)" fill="#3C3C3C"/>
<circle cx="-1.52158" cy="116.749" r="2.13656" transform="rotate(13.3804 -1.52158 116.749)" fill="#3C3C3C"/>
<circle cx="-1.72861" cy="137.299" r="2.13656" transform="rotate(13.3804 -1.72861 137.299)" fill="#3C3C3C"/>
<circle cx="2.95596" cy="145.075" r="2.13656" transform="rotate(13.3804 2.95596 145.075)" fill="#3C3C3C"/>
<circle cx="7.58218" cy="151.662" r="2.13656" transform="rotate(13.3804 7.58218 151.662)" fill="#3C3C3C"/>
<circle cx="10.1186" cy="157.514" r="2.13656" transform="rotate(13.3804 10.1186 157.514)" fill="#3C3C3C"/>
<circle cx="11.0592" cy="163.276" r="2.13656" transform="rotate(13.3804 11.0592 163.276)" fill="#3C3C3C"/>
<circle cx="10.7773" cy="169.207" r="2.13656" transform="rotate(13.3804 10.7773 169.207)" fill="#3C3C3C"/>
<circle cx="8.52188" cy="175.644" r="2.13656" transform="rotate(13.3804 8.52188 175.644)" fill="#3C3C3C"/>
<circle cx="4.3793" cy="182.426" r="2.13656" transform="rotate(13.3804 4.3793 182.426)" fill="#3C3C3C"/>
<circle cx="1.44156" cy="188.866" r="2.13656" transform="rotate(13.3804 1.44156 188.866)" fill="#3C3C3C"/>
<circle cx="12.6125" cy="73.1522" r="2.13656" transform="rotate(13.3804 12.6125 73.1522)" fill="#3C3C3C"/>
<circle cx="9.70743" cy="78.434" r="2.13656" transform="rotate(13.3804 9.70743 78.434)" fill="#3C3C3C"/>
<circle cx="6.67325" cy="83.501" r="2.13656" transform="rotate(13.3804 6.67325 83.501)" fill="#3C3C3C"/>
<circle cx="3.31436" cy="88.118" r="2.13656" transform="rotate(13.3804 3.31436 88.118)" fill="#3C3C3C"/>
<circle cx="1.54776" cy="94.0869" r="2.13656" transform="rotate(13.3804 1.54776 94.0869)" fill="#3C3C3C"/>
<circle cx="2.49747" cy="102.425" r="2.13656" transform="rotate(13.3804 2.49747 102.425)" fill="#3C3C3C"/>
<circle cx="4.16421" cy="110.848" r="2.13656" transform="rotate(13.3804 4.16421 110.848)" fill="#3C3C3C"/>
<circle cx="3.08975" cy="117.33" r="2.13656" transform="rotate(13.3804 3.08975 117.33)" fill="#3C3C3C"/>
<circle cx="1.18106" cy="123.309" r="2.13656" transform="rotate(13.3804 1.18106 123.309)" fill="#3C3C3C"/>
<circle cx="0.336088" cy="129.926" r="2.13656" transform="rotate(13.3804 0.336088 129.926)" fill="#3C3C3C"/>
<circle cx="3.1564" cy="138.271" r="2.13656" transform="rotate(13.3804 3.1564 138.271)" fill="#3C3C3C"/>
<circle cx="9.32437" cy="146.578" r="2.13656" transform="rotate(13.3804 9.32437 146.578)" fill="#3C3C3C"/>
<circle cx="14.3236" cy="153.124" r="2.13656" transform="rotate(13.3804 14.3236 153.124)" fill="#3C3C3C"/>
<circle cx="17.5895" cy="158.779" r="2.13656" transform="rotate(13.3804 17.5895 158.779)" fill="#3C3C3C"/>
<circle cx="18.8874" cy="164.345" r="2.13656" transform="rotate(13.3804 18.8874 164.345)" fill="#3C3C3C"/>
<circle cx="17.9989" cy="170.404" r="2.13656" transform="rotate(13.3804 17.9989 170.404)" fill="#3C3C3C"/>
<circle cx="14.8595" cy="177.102" r="2.13656" transform="rotate(13.3804 14.8595 177.102)" fill="#3C3C3C"/>
<circle cx="10.3827" cy="183.946" r="2.13656" transform="rotate(13.3804 10.3827 183.946)" fill="#3C3C3C"/>
<circle cx="7.00821" cy="190.421" r="2.13656" transform="rotate(13.3804 7.00821 190.421)" fill="#3C3C3C"/>
<circle cx="10.7631" cy="90.6757" r="2.13656" transform="rotate(13.3804 10.7631 90.6757)" fill="#3C3C3C"/>
<circle cx="8.56656" cy="96.2923" r="2.13656" transform="rotate(13.3804 8.56656 96.2923)" fill="#3C3C3C"/>
<circle cx="7.55264" cy="102.939" r="2.13656" transform="rotate(13.3804 7.55264 102.939)" fill="#3C3C3C"/>
<circle cx="6.11246" cy="109.212" r="2.13656" transform="rotate(13.3804 6.11246 109.212)" fill="#3C3C3C"/>
<circle cx="4.54361" cy="115.374" r="2.13656" transform="rotate(13.3804 4.54361 115.374)" fill="#3C3C3C"/>
<circle cx="2.73038" cy="121.322" r="2.13656" transform="rotate(13.3804 2.73038 121.322)" fill="#3C3C3C"/>
<circle cx="1.69546" cy="127.947" r="2.13656" transform="rotate(13.3804 1.69546 127.947)" fill="#3C3C3C"/>
<circle cx="5.42447" cy="137.838" r="2.13656" transform="rotate(13.3804 5.42447 137.838)" fill="#3C3C3C"/>
<circle cx="14.1195" cy="147.819" r="2.13656" transform="rotate(13.3804 14.1195 147.819)" fill="#3C3C3C"/>
<circle cx="20.1442" cy="154.625" r="2.13656" transform="rotate(13.3804 20.1442 154.625)" fill="#3C3C3C"/>
<circle cx="25.0075" cy="160.009" r="2.13656" transform="rotate(13.3804 25.0075 160.009)" fill="#3C3C3C"/>
<circle cx="27.1772" cy="165.167" r="2.13656" transform="rotate(13.3804 27.1772 165.167)" fill="#3C3C3C"/>
<circle cx="25.5343" cy="171.459" r="2.13656" transform="rotate(13.3804 25.5343 171.459)" fill="#3C3C3C"/>
<circle cx="21.1" cy="178.584" r="2.13656" transform="rotate(13.3804 21.1 178.584)" fill="#3C3C3C"/>
<circle cx="16.1386" cy="185.501" r="2.13656" transform="rotate(13.3804 16.1386 185.501)" fill="#3C3C3C"/>
<circle cx="13.4064" cy="96.455" r="2.13656" transform="rotate(13.3804 13.4064 96.455)" fill="#3C3C3C"/>
<circle cx="12.0651" cy="102.832" r="2.13656" transform="rotate(13.3804 12.0651 102.832)" fill="#3C3C3C"/>
<circle cx="10.5111" cy="108.998" r="2.13656" transform="rotate(13.3804 10.5111 108.998)" fill="#3C3C3C"/>
<circle cx="8.9833" cy="115.189" r="2.13656" transform="rotate(13.3804 8.9833 115.189)" fill="#3C3C3C"/>
<circle cx="7.18692" cy="121.107" r="2.13656" transform="rotate(13.3804 7.18692 121.107)" fill="#3C3C3C"/>
<circle cx="5.98721" cy="127.63" r="2.13656" transform="rotate(13.3804 5.98721 127.63)" fill="#3C3C3C"/>
<circle cx="9.18838" cy="137.773" r="2.13656" transform="rotate(13.3804 9.18838 137.773)" fill="#3C3C3C"/>
<circle cx="17.5282" cy="148.632" r="2.13656" transform="rotate(13.3804 17.5282 148.632)" fill="#3C3C3C"/>
<circle cx="24.0873" cy="156.115" r="2.13656" transform="rotate(13.3804 24.0873 156.115)" fill="#3C3C3C"/>
<circle cx="30.102" cy="161.738" r="2.13656" transform="rotate(13.3804 30.102 161.738)" fill="#3C3C3C"/>
<circle cx="32.9557" cy="166.81" r="2.13656" transform="rotate(13.3804 32.9557 166.81)" fill="#3C3C3C"/>
<circle cx="31.1227" cy="173.163" r="2.13656" transform="rotate(13.3804 31.1227 173.163)" fill="#3C3C3C"/>
<circle cx="26.1532" cy="180.342" r="2.13656" transform="rotate(13.3804 26.1532 180.342)" fill="#3C3C3C"/>
<circle cx="20.933" cy="187.155" r="2.13656" transform="rotate(13.3804 20.933 187.155)" fill="#3C3C3C"/>
<circle cx="12.5793" cy="129.466" r="2.13656" transform="rotate(13.3804 12.5793 129.466)" fill="#3C3C3C"/>
<circle cx="13.4262" cy="137.766" r="2.13656" transform="rotate(13.3804 13.4262 137.766)" fill="#3C3C3C"/>
<circle cx="17.3451" cy="147.55" r="2.13656" transform="rotate(13.3804 17.3451 147.55)" fill="#3C3C3C"/>
<circle cx="23.5627" cy="156.687" r="2.13656" transform="rotate(13.3804 23.5627 156.687)" fill="#3C3C3C"/>
<circle cx="32.1642" cy="163.773" r="2.13656" transform="rotate(13.3804 32.1642 163.773)" fill="#3C3C3C"/>
<circle cx="36.7631" cy="169.022" r="2.13656" transform="rotate(13.3804 36.7631 169.022)" fill="#3C3C3C"/>
<circle cx="34.2177" cy="175.514" r="2.13656" transform="rotate(13.3804 34.2177 175.514)" fill="#3C3C3C"/>
<circle cx="27.736" cy="182.479" r="2.13656" transform="rotate(13.3804 27.736 182.479)" fill="#3C3C3C"/>
<circle cx="22.234" cy="188.749" r="2.13656" transform="rotate(13.3804 22.234 188.749)" fill="#3C3C3C"/>
<circle cx="19.9574" cy="124.377" r="2.13656" transform="rotate(13.3804 19.9574 124.377)" fill="#3C3C3C"/>
<circle cx="18.2321" cy="130.368" r="2.13656" transform="rotate(13.3804 18.2321 130.368)" fill="#3C3C3C"/>
<circle cx="17.5968" cy="137.44" r="2.13656" transform="rotate(13.3804 17.5968 137.44)" fill="#3C3C3C"/>
<circle cx="18.9142" cy="146.061" r="2.13656" transform="rotate(13.3804 18.9142 146.061)" fill="#3C3C3C"/>
<circle cx="24.5858" cy="156.449" r="2.13656" transform="rotate(13.3804 24.5858 156.449)" fill="#3C3C3C"/>
<circle cx="34.5832" cy="165.298" r="2.13656" transform="rotate(13.3804 34.5832 165.298)" fill="#3C3C3C"/>
<circle cx="40.4186" cy="171.065" r="2.13656" transform="rotate(13.3804 40.4186 171.065)" fill="#3C3C3C"/>
<circle cx="37.6129" cy="177.507" r="2.13656" transform="rotate(13.3804 37.6129 177.507)" fill="#3C3C3C"/>
<circle cx="30.4135" cy="184.017" r="2.13656" transform="rotate(13.3804 30.4135 184.017)" fill="#3C3C3C"/>
<circle cx="24.9792" cy="189.867" r="2.13656" transform="rotate(13.3804 24.9792 189.867)" fill="#3C3C3C"/>
<circle cx="25.6012" cy="125.252" r="2.13656" transform="rotate(13.3804 25.6012 125.252)" fill="#3C3C3C"/>
<circle cx="24.8737" cy="132.259" r="2.13656" transform="rotate(13.3804 24.8737 132.259)" fill="#3C3C3C"/>
<circle cx="24.4816" cy="139.525" r="2.13656" transform="rotate(13.3804 24.4816 139.525)" fill="#3C3C3C"/>
<circle cx="26.3549" cy="148.419" r="2.13656" transform="rotate(13.3804 26.3549 148.419)" fill="#3C3C3C"/>
<circle cx="31.6952" cy="158.289" r="2.13656" transform="rotate(13.3804 31.6952 158.289)" fill="#3C3C3C"/>
<circle cx="39.0998" cy="166.657" r="2.13656" transform="rotate(13.3804 39.0998 166.657)" fill="#3C3C3C"/>
<circle cx="43.5771" cy="172.944" r="2.13656" transform="rotate(13.3804 43.5771 172.944)" fill="#3C3C3C"/>
<circle cx="42.3378" cy="179.159" r="2.13656" transform="rotate(13.3804 42.3378 179.159)" fill="#3C3C3C"/>
<circle cx="37.5553" cy="185.523" r="2.13656" transform="rotate(13.3804 37.5553 185.523)" fill="#3C3C3C"/>
<circle cx="33.1154" cy="191.595" r="2.13656" transform="rotate(13.3804 33.1154 191.595)" fill="#3C3C3C"/>
<circle cx="33.0973" cy="127.995" r="2.13656" transform="rotate(13.3804 33.0973 127.995)" fill="#3C3C3C"/>
<circle cx="34.2846" cy="136.505" r="2.13656" transform="rotate(13.3804 34.2846 136.505)" fill="#3C3C3C"/>
<circle cx="34.4035" cy="143.892" r="2.13656" transform="rotate(13.3804 34.4035 143.892)" fill="#3C3C3C"/>
<circle cx="37.1632" cy="152.558" r="2.13656" transform="rotate(13.3804 37.1632 152.558)" fill="#3C3C3C"/>
<circle cx="41.5932" cy="160.966" r="2.13656" transform="rotate(13.3804 41.5932 160.966)" fill="#3C3C3C"/>
<circle cx="44.3268" cy="168.026" r="2.13656" transform="rotate(13.3804 44.3268 168.026)" fill="#3C3C3C"/>
<circle cx="46.183" cy="174.523" r="2.13656" transform="rotate(13.3804 46.183 174.523)" fill="#3C3C3C"/>
<circle cx="47.3708" cy="180.727" r="2.13656" transform="rotate(13.3804 47.3708 180.727)" fill="#3C3C3C"/>
<circle cx="46.6024" cy="186.917" r="2.13656" transform="rotate(13.3804 46.6024 186.917)" fill="#3C3C3C"/>
<circle cx="40.8771" cy="130.851" r="2.13656" transform="rotate(13.3804 40.8771 130.851)" fill="#3C3C3C"/>
<circle cx="41.7729" cy="138.9" r="2.13656" transform="rotate(13.3804 41.7729 138.9)" fill="#3C3C3C"/>
<circle cx="41.9635" cy="146.224" r="2.13656" transform="rotate(13.3804 41.9635 146.224)" fill="#3C3C3C"/>
<circle cx="44.6039" cy="154.589" r="2.13656" transform="rotate(13.3804 44.6039 154.589)" fill="#3C3C3C"/>
<circle cx="47.8534" cy="162.456" r="2.13656" transform="rotate(13.3804 47.8534 162.456)" fill="#3C3C3C"/>
<circle cx="48.7006" cy="169.215" r="2.13656" transform="rotate(13.3804 48.7006 169.215)" fill="#3C3C3C"/>
<circle cx="49.7709" cy="175.827" r="2.13656" transform="rotate(13.3804 49.7709 175.827)" fill="#3C3C3C"/>
<circle cx="52.0338" cy="182.255" r="2.13656" transform="rotate(13.3804 52.0338 182.255)" fill="#3C3C3C"/>
<circle cx="53.2316" cy="188.369" r="2.13656" transform="rotate(13.3804 53.2316 188.369)" fill="#3C3C3C"/>
<circle cx="49.3251" cy="126.691" r="2.13656" transform="rotate(13.3804 49.3251 126.691)" fill="#3C3C3C"/>
<circle cx="46.0565" cy="131.414" r="2.13656" transform="rotate(13.3804 46.0565 131.414)" fill="#3C3C3C"/>
<circle cx="44.2292" cy="137.332" r="2.13656" transform="rotate(13.3804 44.2292 137.332)" fill="#3C3C3C"/>
<circle cx="45.642" cy="145.985" r="2.13656" transform="rotate(13.3804 45.642 145.985)" fill="#3C3C3C"/>
<circle cx="50.4091" cy="155.884" r="2.13656" transform="rotate(13.3804 50.4091 155.884)" fill="#3C3C3C"/>
<circle cx="52.9425" cy="163.616" r="2.13656" transform="rotate(13.3804 52.9425 163.616)" fill="#3C3C3C"/>
<circle cx="51.5031" cy="169.865" r="2.13656" transform="rotate(13.3804 51.5031 169.865)" fill="#3C3C3C"/>
<circle cx="51.4113" cy="176.485" r="2.13656" transform="rotate(13.3804 51.4113 176.485)" fill="#3C3C3C"/>
<circle cx="54.5243" cy="183.546" r="2.13656" transform="rotate(13.3804 54.5243 183.546)" fill="#3C3C3C"/>
<circle cx="57.4196" cy="189.965" r="2.13656" transform="rotate(13.3804 57.4196 189.965)" fill="#3C3C3C"/>
</svg>
