<svg width="70" height="111" viewBox="0 0 70 111" fill="none" xmlns="http://www.w3.org/2000/svg">
<circle cx="69.1326" cy="111.971" r="2.14534" transform="rotate(-180 69.1326 111.971)" fill="#3C3C3C"/>
<circle cx="70.1584" cy="107.143" r="2.14534" transform="rotate(-180 70.1584 107.143)" fill="#3C3C3C"/>
<circle cx="70.85" cy="101.582" r="2.14534" transform="rotate(-180 70.85 101.582)" fill="#3C3C3C"/>
<circle cx="71.1635" cy="95.5027" r="2.14534" transform="rotate(-180 71.1635 95.5027)" fill="#3C3C3C"/>
<circle cx="70.7391" cy="88.5786" r="2.14534" transform="rotate(-180 70.7391 88.5786)" fill="#3C3C3C"/>
<circle cx="69.4142" cy="80.2789" r="2.14534" transform="rotate(-180 69.4142 80.2789)" fill="#3C3C3C"/>
<circle cx="68.2876" cy="71.5502" r="2.14534" transform="rotate(-180 68.2876 71.5502)" fill="#3C3C3C"/>
<circle cx="67.7801" cy="63.5694" r="2.14534" transform="rotate(-180 67.7801 63.5694)" fill="#3C3C3C"/>
<circle cx="67.4866" cy="55.8085" r="2.14534" transform="rotate(-180 67.4866 55.8085)" fill="#3C3C3C"/>
<circle cx="67.2847" cy="47.5942" r="2.14534" transform="rotate(-180 67.2847 47.5942)" fill="#3C3C3C"/>
<circle cx="67.3104" cy="39.1626" r="2.14534" transform="rotate(-180 67.3104 39.1626)" fill="#3C3C3C"/>
<circle cx="67.4228" cy="31.7326" r="2.14534" transform="rotate(-180 67.4228 31.7326)" fill="#3C3C3C"/>
<circle cx="61.9219" cy="110.343" r="2.14534" transform="rotate(-180 61.9219 110.343)" fill="#3C3C3C"/>
<circle cx="62.8102" cy="105.737" r="2.14534" transform="rotate(-180 62.8102 105.737)" fill="#3C3C3C"/>
<circle cx="63.4189" cy="100.276" r="2.14534" transform="rotate(-180 63.4189 100.276)" fill="#3C3C3C"/>
<circle cx="63.694" cy="94.2317" r="2.14534" transform="rotate(-180 63.694 94.2317)" fill="#3C3C3C"/>
<circle cx="63.574" cy="87.6279" r="2.14534" transform="rotate(-180 63.574 87.6279)" fill="#3C3C3C"/>
<circle cx="63.2438" cy="80.7039" r="2.14534" transform="rotate(-180 63.2438 80.7039)" fill="#3C3C3C"/>
<circle cx="62.8501" cy="73.6263" r="2.14534" transform="rotate(-180 62.8501 73.6263)" fill="#3C3C3C"/>
<circle cx="62.4282" cy="66.4095" r="2.14534" transform="rotate(-180 62.4282 66.4095)" fill="#3C3C3C"/>
<circle cx="61.8692" cy="58.7236" r="2.14534" transform="rotate(-180 61.8692 58.7236)" fill="#3C3C3C"/>
<circle cx="61.2734" cy="50.4248" r="2.14534" transform="rotate(-180 61.2734 50.4248)" fill="#3C3C3C"/>
<circle cx="60.9004" cy="41.8362" r="2.14534" transform="rotate(-180 60.9004 41.8362)" fill="#3C3C3C"/>
<circle cx="60.8297" cy="33.6359" r="2.14534" transform="rotate(-180 60.8297 33.6359)" fill="#3C3C3C"/>
<circle cx="54.9681" cy="108.837" r="2.14534" transform="rotate(-180 54.9681 108.837)" fill="#3C3C3C"/>
<circle cx="55.696" cy="104.401" r="2.14534" transform="rotate(-180 55.696 104.401)" fill="#3C3C3C"/>
<circle cx="56.206" cy="98.999" r="2.14534" transform="rotate(-180 56.206 98.999)" fill="#3C3C3C"/>
<circle cx="56.4307" cy="92.9629" r="2.14534" transform="rotate(-180 56.4307 92.9629)" fill="#3C3C3C"/>
<circle cx="56.5514" cy="86.7305" r="2.14534" transform="rotate(-180 56.5514 86.7305)" fill="#3C3C3C"/>
<circle cx="57.1517" cy="81.2112" r="2.14534" transform="rotate(-180 57.1517 81.2112)" fill="#3C3C3C"/>
<circle cx="57.7225" cy="75.5303" r="2.14534" transform="rotate(-180 57.7225 75.5303)" fill="#3C3C3C"/>
<circle cx="57.4967" cy="68.8073" r="2.14534" transform="rotate(-180 57.4967 68.8073)" fill="#3C3C3C"/>
<circle cx="56.5949" cy="61.0578" r="2.14534" transform="rotate(-180 56.5949 61.0578)" fill="#3C3C3C"/>
<circle cx="55.5857" cy="52.6606" r="2.14534" transform="rotate(-180 55.5857 52.6606)" fill="#3C3C3C"/>
<circle cx="54.8514" cy="44.0443" r="2.14534" transform="rotate(-180 54.8514 44.0443)" fill="#3C3C3C"/>
<circle cx="54.4498" cy="35.2462" r="2.14534" transform="rotate(-180 54.4498 35.2462)" fill="#3C3C3C"/>
<circle cx="47.9553" cy="111.026" r="2.14534" transform="rotate(-180 47.9553 111.026)" fill="#3C3C3C"/>
<circle cx="48.2569" cy="107.71" r="2.14534" transform="rotate(-180 48.2569 107.71)" fill="#3C3C3C"/>
<circle cx="48.897" cy="103.513" r="2.14534" transform="rotate(-180 48.897 103.513)" fill="#3C3C3C"/>
<circle cx="49.5009" cy="98.4789" r="2.14534" transform="rotate(-180 49.5009 98.4789)" fill="#3C3C3C"/>
<circle cx="49.8989" cy="92.7958" r="2.14534" transform="rotate(-180 49.8989 92.7958)" fill="#3C3C3C"/>
<circle cx="50.1736" cy="86.826" r="2.14534" transform="rotate(-180 50.1736 86.826)" fill="#3C3C3C"/>
<circle cx="50.9903" cy="81.5871" r="2.14534" transform="rotate(-180 50.9903 81.5871)" fill="#3C3C3C"/>
<circle cx="51.8095" cy="76.1437" r="2.14534" transform="rotate(-180 51.8095 76.1437)" fill="#3C3C3C"/>
<circle cx="51.7218" cy="69.6093" r="2.14534" transform="rotate(-180 51.7218 69.6093)" fill="#3C3C3C"/>
<circle cx="50.8036" cy="62.0263" r="2.14534" transform="rotate(-180 50.8036 62.0263)" fill="#3C3C3C"/>
<circle cx="49.7039" cy="53.8239" r="2.14534" transform="rotate(-180 49.7039 53.8239)" fill="#3C3C3C"/>
<circle cx="48.8271" cy="45.3975" r="2.14534" transform="rotate(-180 48.8271 45.3975)" fill="#3C3C3C"/>
<circle cx="48.2025" cy="36.6327" r="2.14534" transform="rotate(-180 48.2025 36.6327)" fill="#3C3C3C"/>
<circle cx="41.533" cy="110.497" r="2.14534" transform="rotate(-180 41.533 110.497)" fill="#3C3C3C"/>
<circle cx="41.6283" cy="106.525" r="2.14534" transform="rotate(-180 41.6283 106.525)" fill="#3C3C3C"/>
<circle cx="42.1133" cy="102.461" r="2.14534" transform="rotate(-180 42.1133 102.461)" fill="#3C3C3C"/>
<circle cx="43.1145" cy="98.5782" r="2.14534" transform="rotate(-180 43.1145 98.5782)" fill="#3C3C3C"/>
<circle cx="44.2342" cy="94.0191" r="2.14534" transform="rotate(-180 44.2342 94.0191)" fill="#3C3C3C"/>
<circle cx="44.738" cy="88.2613" r="2.14534" transform="rotate(-180 44.738 88.2613)" fill="#3C3C3C"/>
<circle cx="45.2737" cy="82.4678" r="2.14534" transform="rotate(-180 45.2737 82.4678)" fill="#3C3C3C"/>
<circle cx="45.6852" cy="76.4797" r="2.14534" transform="rotate(-180 45.6852 76.4797)" fill="#3C3C3C"/>
<circle cx="45.5097" cy="69.8571" r="2.14534" transform="rotate(-180 45.5097 69.8571)" fill="#3C3C3C"/>
<circle cx="44.5669" cy="62.2958" r="2.14534" transform="rotate(-180 44.5669 62.2958)" fill="#3C3C3C"/>
<circle cx="43.4889" cy="54.2258" r="2.14534" transform="rotate(-180 43.4889 54.2258)" fill="#3C3C3C"/>
<circle cx="42.5889" cy="45.9209" r="2.14534" transform="rotate(-180 42.5889 45.9209)" fill="#3C3C3C"/>
<circle cx="41.844" cy="37.0251" r="2.14534" transform="rotate(-180 41.844 37.0251)" fill="#3C3C3C"/>
<circle cx="35.0863" cy="110.827" r="2.14534" transform="rotate(-180 35.0863 110.827)" fill="#3C3C3C"/>
<circle cx="35.1559" cy="106.195" r="2.14534" transform="rotate(-180 35.1559 106.195)" fill="#3C3C3C"/>
<circle cx="35.5997" cy="102.183" r="2.14534" transform="rotate(-180 35.5997 102.183)" fill="#3C3C3C"/>
<circle cx="37.0582" cy="99.2869" r="2.14534" transform="rotate(-180 37.0582 99.2869)" fill="#3C3C3C"/>
<circle cx="39.0667" cy="95.5937" r="2.14534" transform="rotate(-180 39.0667 95.5937)" fill="#3C3C3C"/>
<circle cx="39.8555" cy="89.9503" r="2.14534" transform="rotate(-180 39.8555 89.9503)" fill="#3C3C3C"/>
<circle cx="39.9711" cy="83.6212" r="2.14534" transform="rotate(-180 39.9711 83.6212)" fill="#3C3C3C"/>
<circle cx="39.8094" cy="77.0354" r="2.14534" transform="rotate(-180 39.8094 77.0354)" fill="#3C3C3C"/>
<circle cx="39.3835" cy="70.1824" r="2.14534" transform="rotate(-180 39.3835 70.1824)" fill="#3C3C3C"/>
<circle cx="38.3016" cy="62.5167" r="2.14534" transform="rotate(-180 38.3016 62.5167)" fill="#3C3C3C"/>
<circle cx="37.2228" cy="54.5162" r="2.14534" transform="rotate(-180 37.2228 54.5162)" fill="#3C3C3C"/>
<circle cx="36.3442" cy="46.3786" r="2.14534" transform="rotate(-180 36.3442 46.3786)" fill="#3C3C3C"/>
<circle cx="35.5155" cy="37.4968" r="2.14534" transform="rotate(-180 35.5155 37.4968)" fill="#3C3C3C"/>
<circle cx="28.6807" cy="112.159" r="2.14534" transform="rotate(-180 28.6807 112.159)" fill="#3C3C3C"/>
<circle cx="28.9297" cy="107.616" r="2.14534" transform="rotate(-180 28.9297 107.616)" fill="#3C3C3C"/>
<circle cx="29.6337" cy="103.632" r="2.14534" transform="rotate(-180 29.6337 103.632)" fill="#3C3C3C"/>
<circle cx="31.4554" cy="100.587" r="2.14534" transform="rotate(-180 31.4554 100.587)" fill="#3C3C3C"/>
<circle cx="33.7858" cy="96.7173" r="2.14534" transform="rotate(-180 33.7858 96.7173)" fill="#3C3C3C"/>
<circle cx="34.7634" cy="91.0655" r="2.14534" transform="rotate(-180 34.7634 91.0655)" fill="#3C3C3C"/>
<circle cx="34.605" cy="84.5114" r="2.14534" transform="rotate(-180 34.605 84.5114)" fill="#3C3C3C"/>
<circle cx="34.0014" cy="77.5939" r="2.14534" transform="rotate(-180 34.0014 77.5939)" fill="#3C3C3C"/>
<circle cx="33.328" cy="70.5562" r="2.14534" transform="rotate(-180 33.328 70.5562)" fill="#3C3C3C"/>
<circle cx="32.2355" cy="62.968" r="2.14534" transform="rotate(-180 32.2355 62.968)" fill="#3C3C3C"/>
<circle cx="31.2369" cy="55.221" r="2.14534" transform="rotate(-180 31.2369 55.221)" fill="#3C3C3C"/>
<circle cx="30.4166" cy="47.4266" r="2.14534" transform="rotate(-180 30.4166 47.4266)" fill="#3C3C3C"/>
<circle cx="29.5495" cy="39.0462" r="2.14534" transform="rotate(-180 29.5495 39.0462)" fill="#3C3C3C"/>
<circle cx="23.3016" cy="110.333" r="2.14534" transform="rotate(-180 23.3016 110.333)" fill="#3C3C3C"/>
<circle cx="24.5035" cy="106.253" r="2.14534" transform="rotate(-180 24.5035 106.253)" fill="#3C3C3C"/>
<circle cx="26.4068" cy="102.255" r="2.14534" transform="rotate(-180 26.4068 102.255)" fill="#3C3C3C"/>
<circle cx="28.4386" cy="97.5827" r="2.14534" transform="rotate(-180 28.4386 97.5827)" fill="#3C3C3C"/>
<circle cx="29.3868" cy="91.7777" r="2.14534" transform="rotate(-180 29.3868 91.7777)" fill="#3C3C3C"/>
<circle cx="28.3874" cy="84.6734" r="2.14534" transform="rotate(-180 28.3874 84.6734)" fill="#3C3C3C"/>
<circle cx="26.9491" cy="77.0464" r="2.14534" transform="rotate(-180 26.9491 77.0464)" fill="#3C3C3C"/>
<circle cx="26.2822" cy="69.9435" r="2.14534" transform="rotate(-180 26.2822 69.9435)" fill="#3C3C3C"/>
<circle cx="25.9346" cy="63.1245" r="2.14534" transform="rotate(-180 25.9346 63.1245)" fill="#3C3C3C"/>
<circle cx="25.5315" cy="56.2084" r="2.14534" transform="rotate(-180 25.5315 56.2084)" fill="#3C3C3C"/>
<circle cx="24.8341" cy="48.8338" r="2.14534" transform="rotate(-180 24.8341 48.8338)" fill="#3C3C3C"/>
<circle cx="24.0301" cy="41.0827" r="2.14534" transform="rotate(-180 24.0301 41.0827)" fill="#3C3C3C"/>
<circle cx="17.3613" cy="111.432" r="2.14534" transform="rotate(-180 17.3613 111.432)" fill="#3C3C3C"/>
<circle cx="18.7978" cy="107.315" r="2.14534" transform="rotate(-180 18.7978 107.315)" fill="#3C3C3C"/>
<circle cx="20.4797" cy="102.759" r="2.14534" transform="rotate(-180 20.4797 102.759)" fill="#3C3C3C"/>
<circle cx="22.1141" cy="97.6624" r="2.14534" transform="rotate(-180 22.1141 97.6624)" fill="#3C3C3C"/>
<circle cx="23.0279" cy="91.8246" r="2.14534" transform="rotate(-180 23.0279 91.8246)" fill="#3C3C3C"/>
<circle cx="21.4997" cy="84.3312" r="2.14534" transform="rotate(-180 21.4997 84.3312)" fill="#3C3C3C"/>
<circle cx="19.6536" cy="76.1703" r="2.14534" transform="rotate(-180 19.6536 76.1703)" fill="#3C3C3C"/>
<circle cx="19.1578" cy="69.1576" r="2.14534" transform="rotate(-180 19.1578 69.1576)" fill="#3C3C3C"/>
<circle cx="19.4832" cy="63.107" r="2.14534" transform="rotate(-180 19.4832 63.107)" fill="#3C3C3C"/>
<circle cx="19.6786" cy="56.8902" r="2.14534" transform="rotate(-180 19.6786 56.8902)" fill="#3C3C3C"/>
<circle cx="19.1628" cy="49.8555" r="2.14534" transform="rotate(-180 19.1628 49.8555)" fill="#3C3C3C"/>
<circle cx="18.5114" cy="42.5615" r="2.14534" transform="rotate(-180 18.5114 42.5615)" fill="#3C3C3C"/>
<circle cx="9.4456" cy="112.938" r="2.14534" transform="rotate(-180 9.4456 112.938)" fill="#3C3C3C"/>
<circle cx="10.1213" cy="109.499" r="2.14534" transform="rotate(-180 10.1213 109.499)" fill="#3C3C3C"/>
<circle cx="11.2486" cy="105.607" r="2.14534" transform="rotate(-180 11.2486 105.607)" fill="#3C3C3C"/>
<circle cx="12.5839" cy="101.166" r="2.14534" transform="rotate(-180 12.5839 101.166)" fill="#3C3C3C"/>
<circle cx="13.9507" cy="96.2344" r="2.14534" transform="rotate(-180 13.9507 96.2344)" fill="#3C3C3C"/>
<circle cx="14.965" cy="90.6889" r="2.14534" transform="rotate(-180 14.965 90.6889)" fill="#3C3C3C"/>
<circle cx="14.2382" cy="83.6315" r="2.14534" transform="rotate(-180 14.2382 83.6315)" fill="#3C3C3C"/>
<circle cx="13.0761" cy="76.0119" r="2.14534" transform="rotate(-180 13.0761 76.0119)" fill="#3C3C3C"/>
<circle cx="12.7549" cy="69.198" r="2.14534" transform="rotate(-180 12.7549 69.198)" fill="#3C3C3C"/>
<circle cx="13.1153" cy="63.1841" r="2.14534" transform="rotate(-180 13.1153 63.1841)" fill="#3C3C3C"/>
<circle cx="13.3868" cy="57.0466" r="2.14534" transform="rotate(-180 13.3868 57.0466)" fill="#3C3C3C"/>
<circle cx="13.0054" cy="50.1868" r="2.14534" transform="rotate(-180 13.0054 50.1868)" fill="#3C3C3C"/>
<circle cx="12.3896" cy="42.9914" r="2.14534" transform="rotate(-180 12.3896 42.9914)" fill="#3C3C3C"/>
<circle cx="3.99333" cy="111.968" r="2.14534" transform="rotate(-180 3.99333 111.968)" fill="#3C3C3C"/>
<circle cx="3.08354" cy="108.828" r="2.14534" transform="rotate(-180 3.08354 108.828)" fill="#3C3C3C"/>
<circle cx="2.95952" cy="106.017" r="2.14534" transform="rotate(-180 2.95952 106.017)" fill="#3C3C3C"/>
<circle cx="3.455" cy="102.313" r="2.14534" transform="rotate(-180 3.455 102.313)" fill="#3C3C3C"/>
<circle cx="4.05998" cy="97.6233" r="2.14534" transform="rotate(-180 4.05998 97.6233)" fill="#3C3C3C"/>
<circle cx="4.72112" cy="92.5693" r="2.14534" transform="rotate(-180 4.72112 92.5693)" fill="#3C3C3C"/>
<circle cx="5.65886" cy="87.6409" r="2.14534" transform="rotate(-180 5.65886 87.6409)" fill="#3C3C3C"/>
<circle cx="6.61431" cy="82.4184" r="2.14534" transform="rotate(-180 6.61431 82.4184)" fill="#3C3C3C"/>
<circle cx="7.06084" cy="76.471" r="2.14534" transform="rotate(-180 7.06084 76.471)" fill="#3C3C3C"/>
<circle cx="6.85686" cy="69.8172" r="2.14534" transform="rotate(-180 6.85686 69.8172)" fill="#3C3C3C"/>
<circle cx="6.79961" cy="63.3182" r="2.14534" transform="rotate(-180 6.79961 63.3182)" fill="#3C3C3C"/>
<circle cx="6.78691" cy="56.8685" r="2.14534" transform="rotate(-180 6.78691 56.8685)" fill="#3C3C3C"/>
<circle cx="6.44902" cy="50.0461" r="2.14534" transform="rotate(-180 6.44902 50.0461)" fill="#3C3C3C"/>
<circle cx="5.67912" cy="42.6174" r="2.14534" transform="rotate(-180 5.67912 42.6174)" fill="#3C3C3C"/>
</svg>
