<svg width="93" height="119" viewBox="0 0 93 119" fill="none" xmlns="http://www.w3.org/2000/svg">
<circle cx="1.10623" cy="77.8211" r="2.13656" transform="rotate(-23.6204 1.10623 77.8211)" fill="#3C3C3C"/>
<circle cx="2.39322" cy="73.0846" r="2.13656" transform="rotate(-23.6204 2.39322 73.0846)" fill="#3C3C3C"/>
<circle cx="5.7609" cy="77.6196" r="2.13656" transform="rotate(-23.6204 5.7609 77.6196)" fill="#3C3C3C"/>
<circle cx="1.74967" cy="69.7422" r="2.13656" transform="rotate(-23.6204 1.74967 69.7422)" fill="#3C3C3C"/>
<circle cx="8.67716" cy="69.8462" r="2.13656" transform="rotate(-23.6204 8.67716 69.8462)" fill="#3C3C3C"/>
<circle cx="10.6243" cy="76.7179" r="2.13656" transform="rotate(-23.6204 10.6243 76.7179)" fill="#3C3C3C"/>
<circle cx="5.15616" cy="69.5354" r="2.13656" transform="rotate(-23.6204 5.15616 69.5354)" fill="#3C3C3C"/>
<circle cx="12.0271" cy="70.9257" r="2.13656" transform="rotate(-23.6204 12.0271 70.9257)" fill="#3C3C3C"/>
<circle cx="15.8045" cy="75.1786" r="2.13656" transform="rotate(-23.6204 15.8045 75.1786)" fill="#3C3C3C"/>
<circle cx="-1.96054" cy="53.0844" r="2.13656" transform="rotate(-23.6204 -1.96054 53.0844)" fill="#3C3C3C"/>
<circle cx="3.16764" cy="57.3397" r="2.13656" transform="rotate(-23.6204 3.16764 57.3397)" fill="#3C3C3C"/>
<circle cx="5.69583" cy="63.2403" r="2.13656" transform="rotate(-23.6204 5.69583 63.2403)" fill="#3C3C3C"/>
<circle cx="7.29459" cy="69.7621" r="2.13656" transform="rotate(-23.6204 7.29459 69.7621)" fill="#3C3C3C"/>
<circle cx="12.7513" cy="73.5466" r="2.13656" transform="rotate(-23.6204 12.7513 73.5466)" fill="#3C3C3C"/>
<circle cx="19.8748" cy="74.9554" r="2.13656" transform="rotate(-23.6204 19.8748 74.9554)" fill="#3C3C3C"/>
<circle cx="1.91751" cy="44.309" r="2.13656" transform="rotate(-23.6204 1.91751 44.309)" fill="#3C3C3C"/>
<circle cx="8.30887" cy="47.5216" r="2.13656" transform="rotate(-23.6204 8.30887 47.5216)" fill="#3C3C3C"/>
<circle cx="13.4151" cy="51.1282" r="2.13656" transform="rotate(-23.6204 13.4151 51.1282)" fill="#3C3C3C"/>
<circle cx="14.953" cy="57.9775" r="2.13656" transform="rotate(-23.6204 14.953 57.9775)" fill="#3C3C3C"/>
<circle cx="14.1786" cy="66.5155" r="2.13656" transform="rotate(-23.6204 14.1786 66.5155)" fill="#3C3C3C"/>
<circle cx="17.0777" cy="72.1545" r="2.13656" transform="rotate(-23.6204 17.0777 72.1545)" fill="#3C3C3C"/>
<circle cx="23.1742" cy="75.1163" r="2.13656" transform="rotate(-23.6204 23.1742 75.1163)" fill="#3C3C3C"/>
<circle cx="2.73551" cy="37.2121" r="2.13656" transform="rotate(-23.6204 2.73551 37.2121)" fill="#3C3C3C"/>
<circle cx="10.2841" cy="40.0969" r="2.13656" transform="rotate(-23.6204 10.2841 40.0969)" fill="#3C3C3C"/>
<circle cx="16.3424" cy="43.0545" r="2.13656" transform="rotate(-23.6204 16.3424 43.0545)" fill="#3C3C3C"/>
<circle cx="20.9619" cy="46.7779" r="2.13656" transform="rotate(-23.6204 20.9619 46.7779)" fill="#3C3C3C"/>
<circle cx="23.641" cy="52.5229" r="2.13656" transform="rotate(-23.6204 23.641 52.5229)" fill="#3C3C3C"/>
<circle cx="24.591" cy="60.1392" r="2.13656" transform="rotate(-23.6204 24.591 60.1392)" fill="#3C3C3C"/>
<circle cx="25.8102" cy="67.2919" r="2.13656" transform="rotate(-23.6204 25.8102 67.2919)" fill="#3C3C3C"/>
<circle cx="28.7925" cy="72.7865" r="2.13656" transform="rotate(-23.6204 28.7925 72.7865)" fill="#3C3C3C"/>
<circle cx="1.47245" cy="30.5918" r="2.13656" transform="rotate(-23.6204 1.47245 30.5918)" fill="#3C3C3C"/>
<circle cx="9.89371" cy="33.9831" r="2.13656" transform="rotate(-23.6204 9.89371 33.9831)" fill="#3C3C3C"/>
<circle cx="17.5523" cy="36.4592" r="2.13656" transform="rotate(-23.6204 17.5523 36.4592)" fill="#3C3C3C"/>
<circle cx="23.0999" cy="39.6061" r="2.13656" transform="rotate(-23.6204 23.0999 39.6061)" fill="#3C3C3C"/>
<circle cx="27.319" cy="43.6419" r="2.13656" transform="rotate(-23.6204 27.319 43.6419)" fill="#3C3C3C"/>
<circle cx="30.6631" cy="48.5483" r="2.13656" transform="rotate(-23.6204 30.6631 48.5483)" fill="#3C3C3C"/>
<circle cx="32.736" cy="55.0465" r="2.13656" transform="rotate(-23.6204 32.736 55.0465)" fill="#3C3C3C"/>
<circle cx="33.5087" cy="62.9555" r="2.13656" transform="rotate(-23.6204 33.5087 62.9555)" fill="#3C3C3C"/>
<circle cx="35.0385" cy="69.8667" r="2.13656" transform="rotate(-23.6204 35.0385 69.8667)" fill="#3C3C3C"/>
<circle cx="-1.31552" cy="23.4613" r="2.13656" transform="rotate(-23.6204 -1.31552 23.4613)" fill="#3C3C3C"/>
<circle cx="5.95841" cy="28.428" r="2.13656" transform="rotate(-23.6204 5.95841 28.428)" fill="#3C3C3C"/>
<circle cx="15.8843" cy="31.3507" r="2.13656" transform="rotate(-23.6204 15.8843 31.3507)" fill="#3C3C3C"/>
<circle cx="23.8161" cy="33.5694" r="2.13656" transform="rotate(-23.6204 23.8161 33.5694)" fill="#3C3C3C"/>
<circle cx="29.8277" cy="36.1205" r="2.13656" transform="rotate(-23.6204 29.8277 36.1205)" fill="#3C3C3C"/>
<circle cx="34.2139" cy="39.7846" r="2.13656" transform="rotate(-23.6204 34.2139 39.7846)" fill="#3C3C3C"/>
<circle cx="37.151" cy="45.158" r="2.13656" transform="rotate(-23.6204 37.151 45.158)" fill="#3C3C3C"/>
<circle cx="38.6747" cy="52.3964" r="2.13656" transform="rotate(-23.6204 38.6747 52.3964)" fill="#3C3C3C"/>
<circle cx="39.2183" cy="60.5565" r="2.13656" transform="rotate(-23.6204 39.2183 60.5565)" fill="#3C3C3C"/>
<circle cx="40.4203" cy="67.7589" r="2.13656" transform="rotate(-23.6204 40.4203 67.7589)" fill="#3C3C3C"/>
<circle cx="-1.42111" cy="21.0629" r="2.13656" transform="rotate(-23.6204 -1.42111 21.0629)" fill="#3C3C3C"/>
<circle cx="7.50955" cy="26.7177" r="2.13656" transform="rotate(-23.6204 7.50955 26.7177)" fill="#3C3C3C"/>
<circle cx="20.4602" cy="29.4553" r="2.13656" transform="rotate(-23.6204 20.4602 29.4553)" fill="#3C3C3C"/>
<circle cx="29.3682" cy="31.2655" r="2.13656" transform="rotate(-23.6204 29.3682 31.2655)" fill="#3C3C3C"/>
<circle cx="36.4919" cy="32.638" r="2.13656" transform="rotate(-23.6204 36.4919 32.638)" fill="#3C3C3C"/>
<circle cx="41.3289" cy="35.4515" r="2.13656" transform="rotate(-23.6204 41.3289 35.4515)" fill="#3C3C3C"/>
<circle cx="43.8037" cy="41.4656" r="2.13656" transform="rotate(-23.6204 43.8037 41.4656)" fill="#3C3C3C"/>
<circle cx="44.5503" cy="49.8244" r="2.13656" transform="rotate(-23.6204 44.5503 49.8244)" fill="#3C3C3C"/>
<circle cx="44.7505" cy="58.3341" r="2.13656" transform="rotate(-23.6204 44.7505 58.3341)" fill="#3C3C3C"/>
<circle cx="45.4151" cy="65.9693" r="2.13656" transform="rotate(-23.6204 45.4151 65.9693)" fill="#3C3C3C"/>
<circle cx="-1.15231" cy="12.2949" r="2.13656" transform="rotate(-23.6204 -1.15231 12.2949)" fill="#3C3C3C"/>
<circle cx="1.81559" cy="18.2268" r="2.13656" transform="rotate(-23.6204 1.81559 18.2268)" fill="#3C3C3C"/>
<circle cx="10.4762" cy="24.4003" r="2.13656" transform="rotate(-23.6204 10.4762 24.4003)" fill="#3C3C3C"/>
<circle cx="23.6718" cy="28.0535" r="2.13656" transform="rotate(-23.6204 23.6718 28.0535)" fill="#3C3C3C"/>
<circle cx="33.4137" cy="30.0824" r="2.13656" transform="rotate(-23.6204 33.4137 30.0824)" fill="#3C3C3C"/>
<circle cx="41.6011" cy="30.9529" r="2.13656" transform="rotate(-23.6204 41.6011 30.9529)" fill="#3C3C3C"/>
<circle cx="46.9328" cy="33.2863" r="2.13656" transform="rotate(-23.6204 46.9328 33.2863)" fill="#3C3C3C"/>
<circle cx="49.2924" cy="39.4633" r="2.13656" transform="rotate(-23.6204 49.2924 39.4633)" fill="#3C3C3C"/>
<circle cx="49.6442" cy="48.1873" r="2.13656" transform="rotate(-23.6204 49.6442 48.1873)" fill="#3C3C3C"/>
<circle cx="49.5754" cy="56.77" r="2.13656" transform="rotate(-23.6204 49.5754 56.77)" fill="#3C3C3C"/>
<circle cx="50.0089" cy="64.4422" r="2.13656" transform="rotate(-23.6204 50.0089 64.4422)" fill="#3C3C3C"/>
<circle cx="0.906161" cy="-1.84171" r="2.13656" transform="rotate(-23.6204 0.906161 -1.84171)" fill="#3C3C3C"/>
<circle cx="3.83451" cy="4.07" r="2.13656" transform="rotate(-23.6204 3.83451 4.07)" fill="#3C3C3C"/>
<circle cx="5.58853" cy="9.84907" r="2.13656" transform="rotate(-23.6204 5.58853 9.84907)" fill="#3C3C3C"/>
<circle cx="8.18509" cy="15.7254" r="2.13656" transform="rotate(-23.6204 8.18509 15.7254)" fill="#3C3C3C"/>
<circle cx="13.8564" cy="21.8443" r="2.13656" transform="rotate(-23.6204 13.8564 21.8443)" fill="#3C3C3C"/>
<circle cx="22.8745" cy="27.2997" r="2.13656" transform="rotate(-23.6204 22.8745 27.2997)" fill="#3C3C3C"/>
<circle cx="33.339" cy="30.8548" r="2.13656" transform="rotate(-23.6204 33.339 30.8548)" fill="#3C3C3C"/>
<circle cx="44.4729" cy="31.3372" r="2.13656" transform="rotate(-23.6204 44.4729 31.3372)" fill="#3C3C3C"/>
<circle cx="51.3046" cy="32.7614" r="2.13656" transform="rotate(-23.6204 51.3046 32.7614)" fill="#3C3C3C"/>
<circle cx="53.179" cy="39.4782" r="2.13656" transform="rotate(-23.6204 53.179 39.4782)" fill="#3C3C3C"/>
<circle cx="52.1941" cy="48.941" r="2.13656" transform="rotate(-23.6204 52.1941 48.941)" fill="#3C3C3C"/>
<circle cx="51.5738" cy="57.2599" r="2.13656" transform="rotate(-23.6204 51.5738 57.2599)" fill="#3C3C3C"/>
<circle cx="51.9002" cy="64.521" r="2.13656" transform="rotate(-23.6204 51.9002 64.521)" fill="#3C3C3C"/>
<circle cx="9.74393" cy="1.50553" r="2.13656" transform="rotate(-23.6204 9.74393 1.50553)" fill="#3C3C3C"/>
<circle cx="11.0147" cy="7.22083" r="2.13656" transform="rotate(-23.6204 11.0147 7.22083)" fill="#3C3C3C"/>
<circle cx="13.2423" cy="13.0437" r="2.13656" transform="rotate(-23.6204 13.2423 13.0437)" fill="#3C3C3C"/>
<circle cx="16.991" cy="19.074" r="2.13656" transform="rotate(-23.6204 16.991 19.074)" fill="#3C3C3C"/>
<circle cx="23.2316" cy="25.1661" r="2.13656" transform="rotate(-23.6204 23.2316 25.1661)" fill="#3C3C3C"/>
<circle cx="34.0129" cy="30.0489" r="2.13656" transform="rotate(-23.6204 34.0129 30.0489)" fill="#3C3C3C"/>
<circle cx="47.3227" cy="31.0996" r="2.13656" transform="rotate(-23.6204 47.3227 31.0996)" fill="#3C3C3C"/>
<circle cx="55.4538" cy="32.1934" r="2.13656" transform="rotate(-23.6204 55.4538 32.1934)" fill="#3C3C3C"/>
<circle cx="57.0896" cy="39.0259" r="2.13656" transform="rotate(-23.6204 57.0896 39.0259)" fill="#3C3C3C"/>
<circle cx="55.2583" cy="48.5584" r="2.13656" transform="rotate(-23.6204 55.2583 48.5584)" fill="#3C3C3C"/>
<circle cx="54.4385" cy="56.5005" r="2.13656" transform="rotate(-23.6204 54.4385 56.5005)" fill="#3C3C3C"/>
<circle cx="54.8439" cy="63.425" r="2.13656" transform="rotate(-23.6204 54.8439 63.425)" fill="#3C3C3C"/>
<circle cx="12.5563" cy="-1.51737" r="2.13656" transform="rotate(-23.6204 12.5563 -1.51737)" fill="#3C3C3C"/>
<circle cx="16.0487" cy="4.52328" r="2.13656" transform="rotate(-23.6204 16.0487 4.52328)" fill="#3C3C3C"/>
<circle cx="19.6846" cy="10.557" r="2.13656" transform="rotate(-23.6204 19.6846 10.557)" fill="#3C3C3C"/>
<circle cx="23.7444" cy="16.5956" r="2.13656" transform="rotate(-23.6204 23.7444 16.5956)" fill="#3C3C3C"/>
<circle cx="30.5929" cy="22.5713" r="2.13656" transform="rotate(-23.6204 30.5929 22.5713)" fill="#3C3C3C"/>
<circle cx="40.7978" cy="27.2394" r="2.13656" transform="rotate(-23.6204 40.7978 27.2394)" fill="#3C3C3C"/>
<circle cx="51.7476" cy="29.4668" r="2.13656" transform="rotate(-23.6204 51.7476 29.4668)" fill="#3C3C3C"/>
<circle cx="59.1066" cy="31.7926" r="2.13656" transform="rotate(-23.6204 59.1066 31.7926)" fill="#3C3C3C"/>
<circle cx="61.8572" cy="37.5017" r="2.13656" transform="rotate(-23.6204 61.8572 37.5017)" fill="#3C3C3C"/>
<circle cx="61.8677" cy="45.4625" r="2.13656" transform="rotate(-23.6204 61.8677 45.4625)" fill="#3C3C3C"/>
<circle cx="61.9767" cy="52.9842" r="2.13656" transform="rotate(-23.6204 61.9767 52.9842)" fill="#3C3C3C"/>
<circle cx="62.8981" cy="59.7951" r="2.13656" transform="rotate(-23.6204 62.8981 59.7951)" fill="#3C3C3C"/>
<circle cx="23.6858" cy="2.20197" r="2.13656" transform="rotate(-23.6204 23.6858 2.20197)" fill="#3C3C3C"/>
<circle cx="29.7554" cy="8.28377" r="2.13656" transform="rotate(-23.6204 29.7554 8.28377)" fill="#3C3C3C"/>
<circle cx="34.2962" cy="14.112" r="2.13656" transform="rotate(-23.6204 34.2962 14.112)" fill="#3C3C3C"/>
<circle cx="41.7159" cy="19.372" r="2.13656" transform="rotate(-23.6204 41.7159 19.372)" fill="#3C3C3C"/>
<circle cx="50.3141" cy="23.4211" r="2.13656" transform="rotate(-23.6204 50.3141 23.4211)" fill="#3C3C3C"/>
<circle cx="56.746" cy="27.4139" r="2.13656" transform="rotate(-23.6204 56.746 27.4139)" fill="#3C3C3C"/>
<circle cx="62.1386" cy="31.4858" r="2.13656" transform="rotate(-23.6204 62.1386 31.4858)" fill="#3C3C3C"/>
<circle cx="66.8205" cy="35.725" r="2.13656" transform="rotate(-23.6204 66.8205 35.725)" fill="#3C3C3C"/>
<circle cx="69.9324" cy="41.1314" r="2.13656" transform="rotate(-23.6204 69.9324 41.1314)" fill="#3C3C3C"/>
<circle cx="71.6562" cy="47.7196" r="2.13656" transform="rotate(-23.6204 71.6562 47.7196)" fill="#3C3C3C"/>
<circle cx="73.5522" cy="54.1287" r="2.13656" transform="rotate(-23.6204 73.5522 54.1287)" fill="#3C3C3C"/>
<circle cx="31.6181" cy="-0.198571" r="2.13656" transform="rotate(-23.6204 31.6181 -0.198571)" fill="#3C3C3C"/>
<circle cx="37.1775" cy="5.69047" r="2.13656" transform="rotate(-23.6204 37.1775 5.69047)" fill="#3C3C3C"/>
<circle cx="41.7376" cy="11.4247" r="2.13656" transform="rotate(-23.6204 41.7376 11.4247)" fill="#3C3C3C"/>
<circle cx="48.8805" cy="16.5164" r="2.13656" transform="rotate(-23.6204 48.8805 16.5164)" fill="#3C3C3C"/>
<circle cx="56.2102" cy="20.8433" r="2.13656" transform="rotate(-23.6204 56.2102 20.8433)" fill="#3C3C3C"/>
<circle cx="60.9544" cy="25.7313" r="2.13656" transform="rotate(-23.6204 60.9544 25.7313)" fill="#3C3C3C"/>
<circle cx="65.7886" cy="30.3677" r="2.13656" transform="rotate(-23.6204 65.7886 30.3677)" fill="#3C3C3C"/>
<circle cx="71.4643" cy="34.1394" r="2.13656" transform="rotate(-23.6204 71.4643 34.1394)" fill="#3C3C3C"/>
<circle cx="76.1005" cy="38.3013" r="2.13656" transform="rotate(-23.6204 76.1005 38.3013)" fill="#3C3C3C"/>
<circle cx="79.0629" cy="43.8145" r="2.13656" transform="rotate(-23.6204 79.0629 43.8145)" fill="#3C3C3C"/>
<circle cx="81.6784" cy="49.6435" r="2.13656" transform="rotate(-23.6204 81.6784 49.6435)" fill="#3C3C3C"/>
<circle cx="38.1956" cy="2.95983" r="2.13656" transform="rotate(-23.6204 38.1956 2.95983)" fill="#3C3C3C"/>
<circle cx="44.5317" cy="9.02009" r="2.13656" transform="rotate(-23.6204 44.5317 9.02009)" fill="#3C3C3C"/>
<circle cx="54.2957" cy="14.0562" r="2.13656" transform="rotate(-23.6204 54.2957 14.0562)" fill="#3C3C3C"/>
<circle cx="60.9728" cy="18.7072" r="2.13656" transform="rotate(-23.6204 60.9728 18.7072)" fill="#3C3C3C"/>
<circle cx="63.5839" cy="24.564" r="2.13656" transform="rotate(-23.6204 63.5839 24.564)" fill="#3C3C3C"/>
<circle cx="67.4948" cy="29.906" r="2.13656" transform="rotate(-23.6204 67.4948 29.906)" fill="#3C3C3C"/>
<circle cx="74.2304" cy="33.6716" r="2.13656" transform="rotate(-23.6204 74.2304 33.6716)" fill="#3C3C3C"/>
<circle cx="80.4055" cy="37.0553" r="2.13656" transform="rotate(-23.6204 80.4055 37.0553)" fill="#3C3C3C"/>
<circle cx="84.1824" cy="41.9234" r="2.13656" transform="rotate(-23.6204 84.1824 41.9234)" fill="#3C3C3C"/>
<circle cx="86.1073" cy="48.3425" r="2.13656" transform="rotate(-23.6204 86.1073 48.3425)" fill="#3C3C3C"/>
</svg>
