<svg width="293" height="747" viewBox="0 0 293 747" fill="none" xmlns="http://www.w3.org/2000/svg">
<path d="M200.446 77.4875V102.273C200.446 105.56 199.141 108.712 196.817 111.036C194.492 113.36 191.34 114.665 188.054 114.665H101.305C98.0185 114.665 94.8664 113.36 92.5423 111.036C90.2182 108.712 88.9126 105.56 88.9126 102.273V77.4875" stroke="white" stroke-width="6" stroke-linecap="round" stroke-linejoin="round"/>
<path d="M175.661 34.1133L144.68 3.13171M144.68 3.13171L113.698 34.1133M144.68 3.13171V77.4875" stroke="#E4B7FF" stroke-width="6" stroke-linecap="round" stroke-linejoin="round"/>
<path d="M37.1695 184.098C35.8975 184.098 34.7695 183.822 33.7855 183.27C32.8015 182.718 31.9015 181.854 31.0855 180.678L32.3815 179.742C33.0775 180.726 33.7975 181.434 34.5415 181.866C35.3095 182.298 36.1975 182.514 37.2055 182.514C38.4535 182.514 39.4495 182.19 40.1935 181.542C40.9375 180.894 41.3095 179.994 41.3095 178.842C41.3095 177.834 40.9735 177.018 40.3015 176.394C39.6295 175.77 38.6095 175.458 37.2415 175.458H34.9015V173.874H37.0615C38.2615 173.874 39.1615 173.538 39.7615 172.866C40.3855 172.17 40.6975 171.378 40.6975 170.49C40.6975 169.578 40.3855 168.822 39.7615 168.222C39.1375 167.598 38.2615 167.286 37.1335 167.286C36.0295 167.286 35.1655 167.502 34.5415 167.934C33.9415 168.342 33.4375 168.798 33.0295 169.302L31.8415 168.366C32.3455 167.67 33.0175 167.058 33.8575 166.53C34.6975 165.978 35.7895 165.702 37.1335 165.702C37.9255 165.702 38.6455 165.822 39.2935 166.062C39.9415 166.302 40.4935 166.638 40.9495 167.07C41.4295 167.502 41.7895 168.018 42.0295 168.618C42.2935 169.194 42.4255 169.818 42.4255 170.49C42.4255 171.258 42.2455 172.002 41.8855 172.722C41.5495 173.418 40.9615 174.006 40.1215 174.486C41.0095 174.846 41.7175 175.386 42.2455 176.106C42.7735 176.802 43.0375 177.702 43.0375 178.806C43.0375 179.646 42.8815 180.39 42.5695 181.038C42.2815 181.686 41.8735 182.238 41.3455 182.694C40.8415 183.15 40.2295 183.498 39.5095 183.738C38.7895 183.978 38.0095 184.098 37.1695 184.098ZM54.3657 167.286C53.2857 167.286 52.2777 167.478 51.3417 167.862C50.4297 168.246 49.6377 168.786 48.9657 169.482C48.3177 170.154 47.8017 170.958 47.4177 171.894C47.0337 172.806 46.8417 173.802 46.8417 174.882C46.8417 175.938 47.0337 176.934 47.4177 177.87C47.8017 178.782 48.3177 179.586 48.9657 180.282C49.6377 180.954 50.4297 181.482 51.3417 181.866C52.2777 182.25 53.2857 182.442 54.3657 182.442C55.4217 182.442 56.4057 182.25 57.3177 181.866C58.2537 181.482 59.0577 180.954 59.7297 180.282C60.4017 179.586 60.9297 178.782 61.3137 177.87C61.6977 176.958 61.8897 175.962 61.8897 174.882C61.8897 173.802 61.6977 172.806 61.3137 171.894C60.9297 170.958 60.4017 170.154 59.7297 169.482C59.0577 168.786 58.2537 168.246 57.3177 167.862C56.4057 167.478 55.4217 167.286 54.3657 167.286ZM61.7817 180.318C61.0377 181.446 60.0297 182.37 58.7577 183.09C57.4857 183.786 55.9857 184.134 54.2577 184.134C52.9617 184.134 51.7497 183.894 50.6217 183.414C49.5177 182.934 48.5457 182.286 47.7057 181.47C46.8897 180.63 46.2417 179.646 45.7617 178.518C45.3057 177.39 45.0777 176.166 45.0777 174.846C45.0777 173.55 45.3057 172.338 45.7617 171.21C46.2417 170.082 46.8897 169.11 47.7057 168.294C48.5457 167.454 49.5177 166.794 50.6217 166.314C51.7497 165.834 52.9617 165.594 54.2577 165.594C55.9857 165.594 57.4737 165.942 58.7217 166.638C59.9937 167.334 61.0137 168.222 61.7817 169.302V165.882H63.5457V183.882H61.7817V180.318ZM77.6982 167.466H68.1942V183.882H66.4302V165.882H77.6982V167.466ZM89.0399 167.286C87.9839 167.286 86.9879 167.478 86.0519 167.862C85.1399 168.246 84.3479 168.786 83.6759 169.482C83.0039 170.154 82.4759 170.958 82.0919 171.894C81.7079 172.806 81.5159 173.802 81.5159 174.882C81.5159 175.962 81.7079 176.958 82.0919 177.87C82.4759 178.782 83.0039 179.586 83.6759 180.282C84.3479 180.954 85.1399 181.482 86.0519 181.866C86.9879 182.25 87.9839 182.442 89.0399 182.442C90.1199 182.442 91.1159 182.25 92.0279 181.866C92.9639 181.482 93.7559 180.954 94.4039 180.282C95.0759 179.586 95.6039 178.782 95.9879 177.87C96.3719 176.934 96.5639 175.938 96.5639 174.882C96.5639 173.802 96.3719 172.806 95.9879 171.894C95.6039 170.958 95.0759 170.154 94.4039 169.482C93.7559 168.786 92.9639 168.246 92.0279 167.862C91.1159 167.478 90.1199 167.286 89.0399 167.286ZM89.1479 184.134C87.4199 184.134 85.9199 183.786 84.6479 183.09C83.3759 182.37 82.3679 181.446 81.6239 180.318V190.146H79.8599V165.882H81.6239V169.41C82.3679 168.282 83.3759 167.37 84.6479 166.674C85.9199 165.954 87.4199 165.594 89.1479 165.594C90.4439 165.594 91.6439 165.834 92.7479 166.314C93.8759 166.794 94.8479 167.454 95.6639 168.294C96.5039 169.11 97.1519 170.082 97.6079 171.21C98.0879 172.338 98.3279 173.55 98.3279 174.846C98.3279 176.166 98.0879 177.39 97.6079 178.518C97.1519 179.646 96.5039 180.63 95.6639 181.47C94.8479 182.286 93.8759 182.934 92.7479 183.414C91.6439 183.894 90.4439 184.134 89.1479 184.134ZM107.691 183.45C106.851 185.826 105.819 187.53 104.595 188.562C103.395 189.618 101.859 190.146 99.987 190.146H99.303V188.454H99.951C101.319 188.454 102.459 188.07 103.371 187.302C104.283 186.558 105.087 185.274 105.783 183.45L98.331 165.882H100.311L106.791 181.146L112.371 165.882H114.279L107.691 183.45ZM121.088 184.098C119.816 184.098 118.688 183.822 117.704 183.27C116.72 182.718 115.82 181.854 115.004 180.678L116.3 179.742C116.996 180.726 117.716 181.434 118.46 181.866C119.228 182.298 120.116 182.514 121.124 182.514C122.372 182.514 123.368 182.19 124.112 181.542C124.856 180.894 125.228 179.994 125.228 178.842C125.228 177.834 124.892 177.018 124.22 176.394C123.548 175.77 122.528 175.458 121.16 175.458H118.82V173.874H120.98C122.18 173.874 123.08 173.538 123.68 172.866C124.304 172.17 124.616 171.378 124.616 170.49C124.616 169.578 124.304 168.822 123.68 168.222C123.056 167.598 122.18 167.286 121.052 167.286C119.948 167.286 119.084 167.502 118.46 167.934C117.86 168.342 117.356 168.798 116.948 169.302L115.76 168.366C116.264 167.67 116.936 167.058 117.776 166.53C118.616 165.978 119.708 165.702 121.052 165.702C121.844 165.702 122.564 165.822 123.212 166.062C123.86 166.302 124.412 166.638 124.868 167.07C125.348 167.502 125.708 168.018 125.948 168.618C126.212 169.194 126.344 169.818 126.344 170.49C126.344 171.258 126.164 172.002 125.804 172.722C125.468 173.418 124.88 174.006 124.04 174.486C124.928 174.846 125.636 175.386 126.164 176.106C126.692 176.802 126.956 177.702 126.956 178.806C126.956 179.646 126.8 180.39 126.488 181.038C126.2 181.686 125.792 182.238 125.264 182.694C124.76 183.15 124.148 183.498 123.428 183.738C122.708 183.978 121.928 184.098 121.088 184.098ZM131.3 183.882H129.536V165.882H131.3V181.254L142.532 165.882H144.296V183.882H142.532V168.51L131.3 183.882ZM161.296 167.466H154.672V183.882H152.908V167.466H146.284V165.882H161.296V167.466ZM178.629 179.634C177.789 181.002 176.697 182.094 175.353 182.91C174.033 183.726 172.353 184.134 170.313 184.134C168.945 184.134 167.685 183.894 166.533 183.414C165.405 182.934 164.421 182.286 163.581 181.47C162.765 180.63 162.117 179.646 161.637 178.518C161.181 177.39 160.953 176.166 160.953 174.846C160.953 173.55 161.181 172.338 161.637 171.21C162.117 170.082 162.765 169.11 163.581 168.294C164.421 167.454 165.393 166.794 166.497 166.314C167.625 165.834 168.849 165.594 170.169 165.594C171.513 165.594 172.737 165.834 173.841 166.314C174.969 166.794 175.929 167.43 176.721 168.222C177.537 169.014 178.161 169.938 178.593 170.994C179.049 172.05 179.277 173.154 179.277 174.306C179.277 174.594 179.265 174.834 179.241 175.026C179.241 175.218 179.229 175.374 179.205 175.494H162.825C162.897 176.598 163.137 177.582 163.545 178.446C163.977 179.286 164.529 180.006 165.201 180.606C165.897 181.182 166.677 181.626 167.541 181.938C168.405 182.25 169.329 182.406 170.313 182.406C172.089 182.406 173.517 182.082 174.597 181.434C175.677 180.762 176.565 179.85 177.261 178.698L178.629 179.634ZM170.169 167.286C169.257 167.286 168.381 167.442 167.541 167.754C166.701 168.066 165.945 168.51 165.273 169.086C164.625 169.638 164.073 170.322 163.617 171.138C163.185 171.954 162.921 172.866 162.825 173.874H177.441C177.345 172.866 177.081 171.954 176.649 171.138C176.241 170.322 175.713 169.626 175.065 169.05C174.417 168.474 173.673 168.042 172.833 167.754C171.993 167.442 171.105 167.286 170.169 167.286ZM205.621 179.634C204.781 181.002 203.689 182.094 202.345 182.91C201.001 183.726 199.333 184.134 197.341 184.134C196.021 184.134 194.797 183.894 193.669 183.414C192.565 182.934 191.605 182.274 190.789 181.434C189.997 180.594 189.373 179.61 188.917 178.482C188.485 177.354 188.269 176.13 188.269 174.81C188.269 173.514 188.485 172.314 188.917 171.21C189.373 170.082 189.997 169.11 190.789 168.294C191.605 167.454 192.565 166.794 193.669 166.314C194.797 165.834 196.021 165.594 197.341 165.594C199.429 165.594 201.121 166.014 202.417 166.854C203.737 167.67 204.805 168.762 205.621 170.13L204.253 171.066C203.557 169.914 202.669 169.002 201.589 168.33C200.509 167.658 199.093 167.322 197.341 167.322C196.261 167.322 195.265 167.514 194.353 167.898C193.465 168.282 192.697 168.81 192.049 169.482C191.401 170.154 190.897 170.958 190.537 171.894C190.201 172.806 190.033 173.79 190.033 174.846C190.033 175.902 190.213 176.898 190.573 177.834C190.933 178.746 191.437 179.55 192.085 180.246C192.733 180.918 193.501 181.446 194.389 181.83C195.301 182.214 196.297 182.406 197.377 182.406C199.129 182.406 200.533 182.082 201.589 181.434C202.669 180.762 203.557 179.85 204.253 178.698L205.621 179.634ZM215.93 183.882H207.794V165.882H214.67C215.534 165.882 216.29 166.002 216.938 166.242C217.61 166.482 218.174 166.818 218.63 167.25C219.086 167.658 219.434 168.138 219.674 168.69C219.914 169.242 220.034 169.83 220.034 170.454C220.034 171.294 219.83 172.062 219.422 172.758C219.038 173.454 218.534 174.018 217.91 174.45C219.134 174.834 219.998 175.434 220.502 176.25C221.006 177.042 221.258 177.894 221.258 178.806C221.258 179.526 221.126 180.198 220.862 180.822C220.598 181.422 220.226 181.95 219.746 182.406C219.29 182.862 218.726 183.222 218.054 183.486C217.406 183.75 216.698 183.882 215.93 183.882ZM214.742 167.466H209.558V173.91H214.67C215.894 173.91 216.794 173.586 217.37 172.938C217.97 172.29 218.27 171.534 218.27 170.67C218.27 169.782 217.97 169.026 217.37 168.402C216.794 167.778 215.918 167.466 214.742 167.466ZM215.714 175.494H209.558V182.298H215.714C217.034 182.298 217.994 181.962 218.594 181.29C219.194 180.594 219.494 179.79 219.494 178.878C219.494 177.942 219.182 177.15 218.558 176.502C217.958 175.83 217.01 175.494 215.714 175.494ZM232.538 165.594C233.834 165.594 235.046 165.834 236.174 166.314C237.302 166.794 238.274 167.454 239.09 168.294C239.93 169.11 240.59 170.082 241.07 171.21C241.55 172.338 241.79 173.55 241.79 174.846C241.79 176.166 241.55 177.39 241.07 178.518C240.59 179.646 239.93 180.63 239.09 181.47C238.274 182.286 237.302 182.934 236.174 183.414C235.046 183.894 233.834 184.134 232.538 184.134C231.218 184.134 229.994 183.894 228.866 183.414C227.738 182.934 226.754 182.286 225.914 181.47C225.098 180.63 224.45 179.646 223.97 178.518C223.49 177.39 223.25 176.166 223.25 174.846C223.25 173.55 223.49 172.338 223.97 171.21C224.45 170.082 225.098 169.11 225.914 168.294C226.754 167.454 227.738 166.794 228.866 166.314C229.994 165.834 231.218 165.594 232.538 165.594ZM232.538 167.286C231.458 167.286 230.45 167.478 229.514 167.862C228.602 168.246 227.81 168.786 227.138 169.482C226.49 170.154 225.974 170.958 225.59 171.894C225.206 172.806 225.014 173.802 225.014 174.882C225.014 175.938 225.206 176.934 225.59 177.87C225.974 178.782 226.49 179.586 227.138 180.282C227.81 180.954 228.602 181.482 229.514 181.866C230.45 182.25 231.458 182.442 232.538 182.442C233.618 182.442 234.614 182.25 235.526 181.866C236.438 181.482 237.218 180.954 237.866 180.282C238.538 179.586 239.066 178.782 239.45 177.87C239.834 176.934 240.026 175.938 240.026 174.882C240.026 173.802 239.834 172.806 239.45 171.894C239.066 170.958 238.538 170.154 237.866 169.482C237.218 168.786 236.438 168.246 235.526 167.862C234.614 167.478 233.618 167.286 232.538 167.286ZM261.281 179.634C260.441 181.002 259.349 182.094 258.005 182.91C256.685 183.726 255.005 184.134 252.965 184.134C251.597 184.134 250.337 183.894 249.185 183.414C248.057 182.934 247.073 182.286 246.233 181.47C245.417 180.63 244.769 179.646 244.289 178.518C243.833 177.39 243.605 176.166 243.605 174.846C243.605 173.55 243.833 172.338 244.289 171.21C244.769 170.082 245.417 169.11 246.233 168.294C247.073 167.454 248.045 166.794 249.149 166.314C250.277 165.834 251.501 165.594 252.821 165.594C254.165 165.594 255.389 165.834 256.493 166.314C257.621 166.794 258.581 167.43 259.373 168.222C260.189 169.014 260.813 169.938 261.245 170.994C261.701 172.05 261.929 173.154 261.929 174.306C261.929 174.594 261.917 174.834 261.893 175.026C261.893 175.218 261.881 175.374 261.857 175.494H245.477C245.549 176.598 245.789 177.582 246.197 178.446C246.629 179.286 247.181 180.006 247.853 180.606C248.549 181.182 249.329 181.626 250.193 181.938C251.057 182.25 251.981 182.406 252.965 182.406C254.741 182.406 256.169 182.082 257.249 181.434C258.329 180.762 259.217 179.85 259.913 178.698L261.281 179.634ZM252.821 167.286C251.909 167.286 251.033 167.442 250.193 167.754C249.353 168.066 248.597 168.51 247.925 169.086C247.277 169.638 246.725 170.322 246.269 171.138C245.837 171.954 245.573 172.866 245.477 173.874H260.093C259.997 172.866 259.733 171.954 259.301 171.138C258.893 170.322 258.365 169.626 257.717 169.05C257.069 168.474 256.325 168.042 255.485 167.754C254.645 167.442 253.757 167.286 252.821 167.286ZM249.365 161.094V159.222H251.093V161.094H249.365ZM254.477 161.094V159.222H256.205V161.094H254.477ZM96.4579 209.286C95.4019 209.286 94.4059 209.478 93.4699 209.862C92.5579 210.246 91.7659 210.786 91.0939 211.482C90.4219 212.154 89.8939 212.958 89.5099 213.894C89.1259 214.806 88.9339 215.802 88.9339 216.882C88.9339 217.962 89.1259 218.958 89.5099 219.87C89.8939 220.782 90.4219 221.586 91.0939 222.282C91.7659 222.954 92.5579 223.482 93.4699 223.866C94.4059 224.25 95.4019 224.442 96.4579 224.442C97.5379 224.442 98.5339 224.25 99.4459 223.866C100.382 223.482 101.174 222.954 101.822 222.282C102.494 221.586 103.022 220.782 103.406 219.87C103.79 218.934 103.982 217.938 103.982 216.882C103.982 215.802 103.79 214.806 103.406 213.894C103.022 212.958 102.494 212.154 101.822 211.482C101.174 210.786 100.382 210.246 99.4459 209.862C98.5339 209.478 97.5379 209.286 96.4579 209.286ZM96.5659 226.134C94.8379 226.134 93.3379 225.786 92.0659 225.09C90.7939 224.37 89.7859 223.446 89.0419 222.318V232.146H87.2779V207.882H89.0419V211.41C89.7859 210.282 90.7939 209.37 92.0659 208.674C93.3379 207.954 94.8379 207.594 96.5659 207.594C97.8619 207.594 99.0619 207.834 100.166 208.314C101.294 208.794 102.266 209.454 103.082 210.294C103.922 211.11 104.57 212.082 105.026 213.21C105.506 214.338 105.746 215.55 105.746 216.846C105.746 218.166 105.506 219.39 105.026 220.518C104.57 221.646 103.922 222.63 103.082 223.47C102.266 224.286 101.294 224.934 100.166 225.414C99.0619 225.894 97.8619 226.134 96.5659 226.134ZM125.226 221.634C124.386 223.002 123.294 224.094 121.95 224.91C120.63 225.726 118.95 226.134 116.91 226.134C115.542 226.134 114.282 225.894 113.13 225.414C112.002 224.934 111.018 224.286 110.178 223.47C109.362 222.63 108.714 221.646 108.234 220.518C107.778 219.39 107.55 218.166 107.55 216.846C107.55 215.55 107.778 214.338 108.234 213.21C108.714 212.082 109.362 211.11 110.178 210.294C111.018 209.454 111.99 208.794 113.094 208.314C114.222 207.834 115.446 207.594 116.766 207.594C118.11 207.594 119.334 207.834 120.438 208.314C121.566 208.794 122.526 209.43 123.318 210.222C124.134 211.014 124.758 211.938 125.19 212.994C125.646 214.05 125.874 215.154 125.874 216.306C125.874 216.594 125.862 216.834 125.838 217.026C125.838 217.218 125.826 217.374 125.802 217.494H109.422C109.494 218.598 109.734 219.582 110.142 220.446C110.574 221.286 111.126 222.006 111.798 222.606C112.494 223.182 113.274 223.626 114.138 223.938C115.002 224.25 115.926 224.406 116.91 224.406C118.686 224.406 120.114 224.082 121.194 223.434C122.274 222.762 123.162 221.85 123.858 220.698L125.226 221.634ZM116.766 209.286C115.854 209.286 114.978 209.442 114.138 209.754C113.298 210.066 112.542 210.51 111.87 211.086C111.222 211.638 110.67 212.322 110.214 213.138C109.782 213.954 109.518 214.866 109.422 215.874H124.038C123.942 214.866 123.678 213.954 123.246 213.138C122.838 212.322 122.31 211.626 121.662 211.05C121.014 210.474 120.27 210.042 119.43 209.754C118.59 209.442 117.702 209.286 116.766 209.286ZM133.041 226.098C131.769 226.098 130.641 225.822 129.657 225.27C128.673 224.718 127.773 223.854 126.957 222.678L128.253 221.742C128.949 222.726 129.669 223.434 130.413 223.866C131.181 224.298 132.069 224.514 133.077 224.514C134.325 224.514 135.321 224.19 136.065 223.542C136.809 222.894 137.181 221.994 137.181 220.842C137.181 219.834 136.845 219.018 136.173 218.394C135.501 217.77 134.481 217.458 133.113 217.458H130.773V215.874H132.933C134.133 215.874 135.033 215.538 135.633 214.866C136.257 214.17 136.569 213.378 136.569 212.49C136.569 211.578 136.257 210.822 135.633 210.222C135.009 209.598 134.133 209.286 133.005 209.286C131.901 209.286 131.037 209.502 130.413 209.934C129.813 210.342 129.309 210.798 128.901 211.302L127.713 210.366C128.217 209.67 128.889 209.058 129.729 208.53C130.569 207.978 131.661 207.702 133.005 207.702C133.797 207.702 134.517 207.822 135.165 208.062C135.813 208.302 136.365 208.638 136.821 209.07C137.301 209.502 137.661 210.018 137.901 210.618C138.165 211.194 138.297 211.818 138.297 212.49C138.297 213.258 138.117 214.002 137.757 214.722C137.421 215.418 136.833 216.006 135.993 216.486C136.881 216.846 137.589 217.386 138.117 218.106C138.645 218.802 138.909 219.702 138.909 220.806C138.909 221.646 138.753 222.39 138.441 223.038C138.153 223.686 137.745 224.238 137.217 224.694C136.713 225.15 136.101 225.498 135.381 225.738C134.661 225.978 133.881 226.098 133.041 226.098ZM155.637 226.134C154.437 226.134 153.309 225.918 152.253 225.486C151.221 225.054 150.309 224.454 149.517 223.686C148.725 222.918 148.077 222.018 147.573 220.986C147.093 219.93 146.817 218.79 146.745 217.566H143.253V225.882H141.489V207.882H143.253V215.982H146.745C146.841 214.782 147.129 213.678 147.609 212.67C148.113 211.638 148.761 210.75 149.553 210.006C150.345 209.238 151.257 208.65 152.289 208.242C153.321 207.81 154.437 207.594 155.637 207.594C156.885 207.594 158.049 207.834 159.129 208.314C160.209 208.794 161.145 209.454 161.937 210.294C162.753 211.11 163.389 212.082 163.845 213.21C164.301 214.338 164.529 215.55 164.529 216.846C164.529 218.166 164.301 219.39 163.845 220.518C163.389 221.646 162.753 222.63 161.937 223.47C161.145 224.286 160.209 224.934 159.129 225.414C158.049 225.894 156.885 226.134 155.637 226.134ZM155.637 209.286C154.605 209.286 153.645 209.478 152.757 209.862C151.893 210.246 151.137 210.786 150.489 211.482C149.865 212.154 149.373 212.958 149.013 213.894C148.653 214.806 148.473 215.802 148.473 216.882C148.473 217.938 148.653 218.934 149.013 219.87C149.373 220.782 149.865 221.586 150.489 222.282C151.137 222.954 151.893 223.482 152.757 223.866C153.645 224.25 154.605 224.442 155.637 224.442C156.645 224.442 157.581 224.25 158.445 223.866C159.333 223.482 160.089 222.954 160.713 222.282C161.361 221.586 161.865 220.782 162.225 219.87C162.585 218.934 162.765 217.938 162.765 216.882C162.765 215.802 162.585 214.806 162.225 213.894C161.865 212.958 161.361 212.154 160.713 211.482C160.089 210.786 159.333 210.246 158.445 209.862C157.581 209.478 156.645 209.286 155.637 209.286ZM175.188 225.882L168.492 211.59V225.882H166.872V207.882H168.672L176.232 224.082L183.72 207.882H185.628V225.882H183.864V211.59L177.168 225.882H175.188ZM205.629 221.634C204.789 223.002 203.697 224.094 202.353 224.91C201.033 225.726 199.353 226.134 197.313 226.134C195.945 226.134 194.685 225.894 193.533 225.414C192.405 224.934 191.421 224.286 190.581 223.47C189.765 222.63 189.117 221.646 188.637 220.518C188.181 219.39 187.953 218.166 187.953 216.846C187.953 215.55 188.181 214.338 188.637 213.21C189.117 212.082 189.765 211.11 190.581 210.294C191.421 209.454 192.393 208.794 193.497 208.314C194.625 207.834 195.849 207.594 197.169 207.594C198.513 207.594 199.737 207.834 200.841 208.314C201.969 208.794 202.929 209.43 203.721 210.222C204.537 211.014 205.161 211.938 205.593 212.994C206.049 214.05 206.277 215.154 206.277 216.306C206.277 216.594 206.265 216.834 206.241 217.026C206.241 217.218 206.229 217.374 206.205 217.494H189.825C189.897 218.598 190.137 219.582 190.545 220.446C190.977 221.286 191.529 222.006 192.201 222.606C192.897 223.182 193.677 223.626 194.541 223.938C195.405 224.25 196.329 224.406 197.313 224.406C199.089 224.406 200.517 224.082 201.597 223.434C202.677 222.762 203.565 221.85 204.261 220.698L205.629 221.634ZM197.169 209.286C196.257 209.286 195.381 209.442 194.541 209.754C193.701 210.066 192.945 210.51 192.273 211.086C191.625 211.638 191.073 212.322 190.617 213.138C190.185 213.954 189.921 214.866 189.825 215.874H204.441C204.345 214.866 204.081 213.954 203.649 213.138C203.241 212.322 202.713 211.626 202.065 211.05C201.417 210.474 200.673 210.042 199.833 209.754C198.993 209.442 198.105 209.286 197.169 209.286Z" fill="white"/>
<path d="M86.1802 133.665V130.765H89.0602V133.665H86.1802ZM95.6322 123.405V125.885H93.1122V130.005C93.1122 130.472 93.2189 130.805 93.4322 131.005C93.6589 131.192 94.0056 131.285 94.4722 131.285H95.6322V133.665H94.2722C92.8989 133.665 91.8989 133.372 91.2722 132.785C90.6456 132.185 90.3322 131.305 90.3322 130.145V125.885H88.8522V123.405H90.3322V120.765H93.1122V123.405H95.6322ZM106.468 133.665H103.148L101.348 130.565L99.5285 133.665H96.2885L99.5885 128.445L96.3685 123.405H99.6685L101.388 126.325L103.088 123.405H106.328L103.128 128.405L106.468 133.665ZM113.835 123.405V125.885H111.315V130.005C111.315 130.472 111.422 130.805 111.635 131.005C111.862 131.192 112.209 131.285 112.675 131.285H113.835V133.665H112.475C111.102 133.665 110.102 133.372 109.475 132.785C108.849 132.185 108.535 131.305 108.535 130.145V125.885H107.055V123.405H108.535V120.765H111.315V123.405H113.835ZM118.817 133.665V130.765H121.697V133.665H118.817ZM128.38 125.825C127.98 125.825 127.607 125.899 127.26 126.045C126.927 126.179 126.634 126.372 126.38 126.625C126.127 126.879 125.927 127.172 125.78 127.505C125.647 127.839 125.58 128.199 125.58 128.585C125.58 128.972 125.654 129.332 125.8 129.665C125.947 129.999 126.147 130.292 126.4 130.545C126.654 130.785 126.947 130.979 127.28 131.125C127.627 131.272 127.994 131.345 128.38 131.345C128.754 131.345 129.107 131.272 129.44 131.125C129.774 130.979 130.06 130.785 130.3 130.545C130.54 130.292 130.727 129.999 130.86 129.665C131.007 129.332 131.08 128.972 131.08 128.585C131.08 128.199 131.007 127.839 130.86 127.505C130.727 127.172 130.54 126.879 130.3 126.625C130.06 126.372 129.774 126.179 129.44 126.045C129.107 125.899 128.754 125.825 128.38 125.825ZM128.62 133.805C128.034 133.805 127.474 133.725 126.94 133.565C126.42 133.392 125.98 133.165 125.62 132.885V137.185H122.84V123.405H125.62V124.205C125.98 123.925 126.42 123.705 126.94 123.545C127.474 123.385 128.034 123.305 128.62 123.305C129.314 123.305 129.974 123.439 130.6 123.705C131.24 123.972 131.794 124.339 132.26 124.805C132.727 125.272 133.1 125.825 133.38 126.465C133.66 127.105 133.8 127.792 133.8 128.525C133.8 129.272 133.66 129.965 133.38 130.605C133.1 131.245 132.727 131.805 132.26 132.285C131.794 132.752 131.24 133.125 130.6 133.405C129.974 133.672 129.314 133.805 128.62 133.805ZM139.975 131.345C140.375 131.345 140.742 131.279 141.075 131.145C141.422 130.999 141.722 130.799 141.975 130.545C142.228 130.292 142.422 129.999 142.555 129.665C142.702 129.332 142.775 128.972 142.775 128.585C142.775 128.212 142.702 127.859 142.555 127.525C142.408 127.179 142.208 126.885 141.955 126.645C141.702 126.392 141.402 126.192 141.055 126.045C140.722 125.899 140.362 125.825 139.975 125.825C139.588 125.825 139.228 125.899 138.895 126.045C138.575 126.192 138.295 126.392 138.055 126.645C137.815 126.885 137.622 127.179 137.475 127.525C137.342 127.859 137.275 128.212 137.275 128.585C137.275 128.972 137.342 129.332 137.475 129.665C137.622 129.999 137.815 130.292 138.055 130.545C138.295 130.799 138.575 130.999 138.895 131.145C139.228 131.279 139.588 131.345 139.975 131.345ZM142.735 132.905C142.375 133.185 141.928 133.405 141.395 133.565C140.875 133.725 140.322 133.805 139.735 133.805C139.028 133.805 138.362 133.672 137.735 133.405C137.108 133.139 136.562 132.772 136.095 132.305C135.628 131.839 135.255 131.292 134.975 130.665C134.695 130.025 134.555 129.332 134.555 128.585C134.555 127.852 134.695 127.165 134.975 126.525C135.255 125.872 135.628 125.312 136.095 124.845C136.562 124.365 137.108 123.992 137.735 123.725C138.362 123.445 139.028 123.305 139.735 123.305C140.322 123.305 140.875 123.392 141.395 123.565C141.928 123.725 142.375 123.945 142.735 124.225V119.965H145.515V133.665H142.735V132.905ZM152.209 122.105C151.756 122.105 151.416 122.199 151.189 122.385C150.963 122.572 150.849 122.879 150.849 123.305V123.405H153.169V125.885H150.849V133.665H148.069V125.885H146.469V123.405H148.069V123.285C148.069 122.179 148.403 121.325 149.069 120.725C149.749 120.125 150.756 119.825 152.089 119.825H153.169V122.105H152.209ZM166.595 125.865H163.595V133.665H160.815V125.865H157.815V123.405H166.595V125.865ZM176.924 131.465C176.418 132.225 175.764 132.825 174.964 133.265C174.178 133.692 173.211 133.905 172.064 133.905C171.238 133.905 170.491 133.772 169.824 133.505C169.171 133.225 168.604 132.852 168.124 132.385C167.658 131.905 167.298 131.339 167.044 130.685C166.791 130.032 166.664 129.325 166.664 128.565C166.664 127.832 166.791 127.139 167.044 126.485C167.311 125.832 167.684 125.265 168.164 124.785C168.644 124.292 169.218 123.905 169.884 123.625C170.551 123.345 171.284 123.205 172.084 123.205C172.898 123.205 173.624 123.339 174.264 123.605C174.904 123.872 175.444 124.239 175.884 124.705C176.338 125.172 176.684 125.725 176.924 126.365C177.164 126.992 177.284 127.679 177.284 128.425C177.284 128.625 177.278 128.832 177.264 129.045C177.251 129.259 177.244 129.379 177.244 129.405H169.404C169.551 130.059 169.858 130.579 170.324 130.965C170.804 131.352 171.404 131.545 172.124 131.545C172.751 131.545 173.284 131.425 173.724 131.185C174.178 130.932 174.551 130.599 174.844 130.185L176.924 131.465ZM172.064 125.485C171.411 125.485 170.864 125.652 170.424 125.985C169.998 126.305 169.691 126.759 169.504 127.345H174.484C174.338 126.719 174.038 126.252 173.584 125.945C173.131 125.639 172.624 125.485 172.064 125.485ZM181.051 128.005L184.451 123.405H187.611L183.671 128.505L187.771 133.665H184.311L181.051 129.445V133.665H178.251V123.405H181.051V128.005ZM196.786 131.285C196.293 132.085 195.653 132.725 194.866 133.205C194.093 133.672 193.139 133.905 192.006 133.905C191.206 133.905 190.473 133.765 189.806 133.485C189.153 133.205 188.586 132.825 188.106 132.345C187.626 131.865 187.253 131.305 186.986 130.665C186.719 130.012 186.586 129.312 186.586 128.565C186.586 127.819 186.719 127.119 186.986 126.465C187.253 125.812 187.626 125.245 188.106 124.765C188.586 124.285 189.153 123.905 189.806 123.625C190.473 123.345 191.206 123.205 192.006 123.205C193.139 123.205 194.099 123.452 194.886 123.945C195.686 124.439 196.326 125.085 196.806 125.885L194.626 127.245C194.359 126.819 194.033 126.465 193.646 126.185C193.259 125.892 192.746 125.745 192.106 125.745C191.293 125.745 190.633 126.005 190.126 126.525C189.633 127.045 189.386 127.725 189.386 128.565C189.386 129.405 189.633 130.092 190.126 130.625C190.633 131.145 191.293 131.405 192.106 131.405C192.746 131.405 193.259 131.265 193.646 130.985C194.033 130.692 194.359 130.332 194.626 129.905L196.786 131.285ZM205.95 125.865H202.95V133.665H200.17V125.865H197.17V123.405H205.95V125.865Z" fill="white"/>
<path d="M89.8785 637.64V596.808H84.6945V593.8H93.0785V637.64H89.8785ZM98.327 608.2C98.327 606.067 98.711 604.104 99.479 602.312C100.247 600.477 101.292 598.899 102.615 597.576C103.938 596.253 105.495 595.229 107.287 594.504C109.122 593.736 111.106 593.352 113.239 593.352C115.33 593.352 117.271 593.736 119.063 594.504C120.855 595.229 122.412 596.253 123.735 597.576C125.058 598.899 126.103 600.477 126.871 602.312C127.639 604.104 128.023 606.067 128.023 608.2V623.432C128.023 625.565 127.639 627.549 126.871 629.384C126.103 631.219 125.058 632.797 123.735 634.12C122.412 635.443 120.855 636.488 119.063 637.256C117.271 637.981 115.33 638.344 113.239 638.344C111.106 638.344 109.122 637.981 107.287 637.256C105.495 636.488 103.938 635.443 102.615 634.12C101.292 632.797 100.247 631.219 99.479 629.384C98.711 627.549 98.327 625.565 98.327 623.432V608.2ZM124.695 608.2C124.695 606.493 124.396 604.915 123.799 603.464C123.244 602.013 122.455 600.776 121.431 599.752C120.407 598.685 119.191 597.875 117.783 597.32C116.418 596.723 114.903 596.424 113.239 596.424C111.575 596.424 110.018 596.723 108.567 597.32C107.159 597.875 105.943 598.685 104.919 599.752C103.895 600.776 103.084 602.013 102.487 603.464C101.932 604.915 101.655 606.493 101.655 608.2V623.432C101.655 625.139 101.932 626.717 102.487 628.168C103.084 629.619 103.895 630.877 104.919 631.944C105.943 632.968 107.159 633.779 108.567 634.376C110.018 634.973 111.575 635.272 113.239 635.272C114.903 635.272 116.418 634.973 117.783 634.376C119.191 633.779 120.407 632.968 121.431 631.944C122.455 630.877 123.244 629.619 123.799 628.168C124.396 626.717 124.695 625.139 124.695 623.432V608.2ZM132.89 608.2C132.89 606.067 133.274 604.104 134.042 602.312C134.81 600.477 135.855 598.899 137.178 597.576C138.5 596.253 140.058 595.229 141.85 594.504C143.684 593.736 145.668 593.352 147.802 593.352C149.892 593.352 151.834 593.736 153.626 594.504C155.418 595.229 156.975 596.253 158.298 597.576C159.62 598.899 160.666 600.477 161.434 602.312C162.202 604.104 162.586 606.067 162.586 608.2V623.432C162.586 625.565 162.202 627.549 161.434 629.384C160.666 631.219 159.62 632.797 158.298 634.12C156.975 635.443 155.418 636.488 153.626 637.256C151.834 637.981 149.892 638.344 147.802 638.344C145.668 638.344 143.684 637.981 141.85 637.256C140.058 636.488 138.5 635.443 137.178 634.12C135.855 632.797 134.81 631.219 134.042 629.384C133.274 627.549 132.89 625.565 132.89 623.432V608.2ZM159.258 608.2C159.258 606.493 158.959 604.915 158.362 603.464C157.807 602.013 157.018 600.776 155.994 599.752C154.97 598.685 153.754 597.875 152.346 597.32C150.98 596.723 149.466 596.424 147.802 596.424C146.138 596.424 144.58 596.723 143.13 597.32C141.722 597.875 140.506 598.685 139.482 599.752C138.458 600.776 137.647 602.013 137.05 603.464C136.495 604.915 136.218 606.493 136.218 608.2V623.432C136.218 625.139 136.495 626.717 137.05 628.168C137.647 629.619 138.458 630.877 139.482 631.944C140.506 632.968 141.722 633.779 143.13 634.376C144.58 634.973 146.138 635.272 147.802 635.272C149.466 635.272 150.98 634.973 152.346 634.376C153.754 633.779 154.97 632.968 155.994 631.944C157.018 630.877 157.807 629.619 158.362 628.168C158.959 626.717 159.258 625.139 159.258 623.432V608.2Z" fill="#E4B7FF"/>
<path d="M166.3 601.8C166.3 600.605 166.513 599.517 166.94 598.536C167.409 597.512 168.049 596.637 168.86 595.912C169.671 595.144 170.631 594.568 171.74 594.184C172.849 593.757 174.044 593.544 175.324 593.544C176.604 593.544 177.777 593.757 178.844 594.184C179.911 594.568 180.828 595.144 181.596 595.912C182.407 596.637 183.025 597.512 183.452 598.536C183.921 599.517 184.156 600.605 184.156 601.8V609.736C184.156 610.931 183.921 612.04 183.452 613.064C183.025 614.088 182.407 614.963 181.596 615.688C180.828 616.413 179.911 616.989 178.844 617.416C177.777 617.843 176.604 618.056 175.324 618.056C174.044 618.056 172.849 617.843 171.74 617.416C170.631 616.989 169.671 616.413 168.86 615.688C168.049 614.963 167.409 614.088 166.94 613.064C166.513 612.04 166.3 610.931 166.3 609.736V601.8ZM181.276 601.8C181.276 600.179 180.7 598.856 179.548 597.832C178.439 596.765 177.031 596.232 175.324 596.232C173.532 596.232 172.081 596.765 170.972 597.832C169.863 598.856 169.308 600.179 169.308 601.8V609.736C169.308 611.357 169.863 612.701 170.972 613.768C172.081 614.835 173.532 615.368 175.324 615.368C177.031 615.368 178.439 614.835 179.548 613.768C180.7 612.701 181.276 611.357 181.276 609.736V601.8ZM196.7 621.768C196.7 620.573 196.913 619.485 197.34 618.504C197.809 617.48 198.449 616.605 199.26 615.88C200.071 615.112 201.031 614.536 202.14 614.152C203.249 613.725 204.444 613.512 205.724 613.512C207.004 613.512 208.177 613.725 209.244 614.152C210.311 614.536 211.228 615.112 211.996 615.88C212.807 616.605 213.425 617.48 213.852 618.504C214.321 619.485 214.556 620.573 214.556 621.768V629.704C214.556 630.899 214.321 632.008 213.852 633.032C213.425 634.056 212.807 634.931 211.996 635.656C211.228 636.381 210.311 636.957 209.244 637.384C208.177 637.811 207.004 638.024 205.724 638.024C204.444 638.024 203.249 637.811 202.14 637.384C201.031 636.957 200.071 636.381 199.26 635.656C198.449 634.931 197.809 634.056 197.34 633.032C196.913 632.008 196.7 630.899 196.7 629.704V621.768ZM211.676 621.768C211.676 620.147 211.1 618.824 209.948 617.8C208.839 616.733 207.431 616.2 205.724 616.2C203.932 616.2 202.481 616.733 201.372 617.8C200.263 618.824 199.708 620.147 199.708 621.768V629.704C199.708 631.325 200.263 632.669 201.372 633.736C202.481 634.803 203.932 635.336 205.724 635.336C207.431 635.336 208.839 634.803 209.948 633.736C211.1 632.669 211.676 631.325 211.676 629.704V621.768ZM179.036 637.64L198.428 593.8H201.82L182.428 637.64H179.036Z" fill="white"/>
<path d="M75.9807 696.098C75.1407 698.474 74.1087 700.178 72.8847 701.21C71.6847 702.266 70.1487 702.794 68.2767 702.794H67.5927V701.102H68.2407C69.6087 701.102 70.7487 700.718 71.6607 699.95C72.5727 699.206 73.3767 697.922 74.0727 696.098L66.6207 678.53H68.6007L75.0807 693.794L80.6607 678.53H82.5687L75.9807 696.098ZM89.3772 696.746C88.1052 696.746 86.9772 696.47 85.9932 695.918C85.0092 695.366 84.1092 694.502 83.2932 693.326L84.5892 692.39C85.2852 693.374 86.0052 694.082 86.7492 694.514C87.5172 694.946 88.4052 695.162 89.4132 695.162C90.6612 695.162 91.6572 694.838 92.4012 694.19C93.1452 693.542 93.5172 692.642 93.5172 691.49C93.5172 690.482 93.1812 689.666 92.5092 689.042C91.8372 688.418 90.8172 688.106 89.4492 688.106H87.1092V686.522H89.2692C90.4692 686.522 91.3692 686.186 91.9692 685.514C92.5932 684.818 92.9052 684.026 92.9052 683.138C92.9052 682.226 92.5932 681.47 91.9692 680.87C91.3452 680.246 90.4692 679.934 89.3412 679.934C88.2372 679.934 87.3732 680.15 86.7492 680.582C86.1492 680.99 85.6452 681.446 85.2372 681.95L84.0492 681.014C84.5532 680.318 85.2252 679.706 86.0652 679.178C86.9052 678.626 87.9972 678.35 89.3412 678.35C90.1332 678.35 90.8532 678.47 91.5012 678.71C92.1492 678.95 92.7012 679.286 93.1572 679.718C93.6372 680.15 93.9972 680.666 94.2372 681.266C94.5012 681.842 94.6332 682.466 94.6332 683.138C94.6332 683.906 94.4532 684.65 94.0932 685.37C93.7572 686.066 93.1692 686.654 92.3292 687.134C93.2172 687.494 93.9252 688.034 94.4532 688.754C94.9812 689.45 95.2452 690.35 95.2452 691.454C95.2452 692.294 95.0892 693.038 94.7772 693.686C94.4892 694.334 94.0812 694.886 93.5532 695.342C93.0492 695.798 92.4372 696.146 91.7172 696.386C90.9972 696.626 90.2172 696.746 89.3772 696.746ZM110.461 696.53V688.214H99.5894V696.53H97.8254V678.53H99.5894V686.63H110.461V678.53H112.225V696.53H110.461ZM123.87 679.934C122.79 679.934 121.782 680.126 120.846 680.51C119.934 680.894 119.142 681.434 118.47 682.13C117.822 682.802 117.306 683.606 116.922 684.542C116.538 685.454 116.346 686.45 116.346 687.53C116.346 688.586 116.538 689.582 116.922 690.518C117.306 691.43 117.822 692.234 118.47 692.93C119.142 693.602 119.934 694.13 120.846 694.514C121.782 694.898 122.79 695.09 123.87 695.09C124.926 695.09 125.91 694.898 126.822 694.514C127.758 694.13 128.562 693.602 129.234 692.93C129.906 692.234 130.434 691.43 130.818 690.518C131.202 689.606 131.394 688.61 131.394 687.53C131.394 686.45 131.202 685.454 130.818 684.542C130.434 683.606 129.906 682.802 129.234 682.13C128.562 681.434 127.758 680.894 126.822 680.51C125.91 680.126 124.926 679.934 123.87 679.934ZM131.286 692.966C130.542 694.094 129.534 695.018 128.262 695.738C126.99 696.434 125.49 696.782 123.762 696.782C122.466 696.782 121.254 696.542 120.126 696.062C119.022 695.582 118.05 694.934 117.21 694.118C116.394 693.278 115.746 692.294 115.266 691.166C114.81 690.038 114.582 688.814 114.582 687.494C114.582 686.198 114.81 684.986 115.266 683.858C115.746 682.73 116.394 681.758 117.21 680.942C118.05 680.102 119.022 679.442 120.126 678.962C121.254 678.482 122.466 678.242 123.762 678.242C125.49 678.242 126.978 678.59 128.226 679.286C129.498 679.982 130.518 680.87 131.286 681.95V678.53H133.05V696.53H131.286V692.966ZM137.699 696.53H135.935V678.53H137.699V693.902L148.931 678.53H150.695V696.53H148.931V681.158L137.699 696.53ZM143.351 674.246C144.431 674.246 145.379 673.994 146.195 673.49C147.011 672.986 147.659 672.446 148.139 671.87V673.814C147.827 674.222 147.275 674.642 146.483 675.074C145.691 675.482 144.647 675.686 143.351 675.686C142.055 675.686 141.011 675.482 140.219 675.074C139.427 674.642 138.875 674.222 138.563 673.814V671.87C139.043 672.446 139.691 672.986 140.507 673.49C141.323 673.994 142.271 674.246 143.351 674.246ZM177.602 692.282C176.762 693.65 175.67 694.742 174.326 695.558C172.982 696.374 171.314 696.782 169.322 696.782C168.002 696.782 166.778 696.542 165.65 696.062C164.546 695.582 163.586 694.922 162.77 694.082C161.978 693.242 161.354 692.258 160.898 691.13C160.466 690.002 160.25 688.778 160.25 687.458C160.25 686.162 160.466 684.962 160.898 683.858C161.354 682.73 161.978 681.758 162.77 680.942C163.586 680.102 164.546 679.442 165.65 678.962C166.778 678.482 168.002 678.242 169.322 678.242C171.41 678.242 173.102 678.662 174.398 679.502C175.718 680.318 176.786 681.41 177.602 682.778L176.234 683.714C175.538 682.562 174.65 681.65 173.57 680.978C172.49 680.306 171.074 679.97 169.322 679.97C168.242 679.97 167.246 680.162 166.334 680.546C165.446 680.93 164.678 681.458 164.03 682.13C163.382 682.802 162.878 683.606 162.518 684.542C162.182 685.454 162.014 686.438 162.014 687.494C162.014 688.55 162.194 689.546 162.554 690.482C162.914 691.394 163.418 692.198 164.066 692.894C164.714 693.566 165.482 694.094 166.37 694.478C167.282 694.862 168.278 695.054 169.358 695.054C171.11 695.054 172.514 694.73 173.57 694.082C174.65 693.41 175.538 692.498 176.234 691.346L177.602 692.282ZM187.911 696.53H179.775V678.53H186.651C187.515 678.53 188.271 678.65 188.919 678.89C189.591 679.13 190.155 679.466 190.611 679.898C191.067 680.306 191.415 680.786 191.655 681.338C191.895 681.89 192.015 682.478 192.015 683.102C192.015 683.942 191.811 684.71 191.403 685.406C191.019 686.102 190.515 686.666 189.891 687.098C191.115 687.482 191.979 688.082 192.483 688.898C192.987 689.69 193.239 690.542 193.239 691.454C193.239 692.174 193.107 692.846 192.843 693.47C192.579 694.07 192.207 694.598 191.727 695.054C191.271 695.51 190.707 695.87 190.035 696.134C189.387 696.398 188.679 696.53 187.911 696.53ZM186.723 680.114H181.539V686.558H186.651C187.875 686.558 188.775 686.234 189.351 685.586C189.951 684.938 190.251 684.182 190.251 683.318C190.251 682.43 189.951 681.674 189.351 681.05C188.775 680.426 187.899 680.114 186.723 680.114ZM187.695 688.142H181.539V694.946H187.695C189.015 694.946 189.975 694.61 190.575 693.938C191.175 693.242 191.475 692.438 191.475 691.526C191.475 690.59 191.163 689.798 190.539 689.15C189.939 688.478 188.991 688.142 187.695 688.142ZM204.519 678.242C205.815 678.242 207.027 678.482 208.155 678.962C209.283 679.442 210.255 680.102 211.071 680.942C211.911 681.758 212.571 682.73 213.051 683.858C213.531 684.986 213.771 686.198 213.771 687.494C213.771 688.814 213.531 690.038 213.051 691.166C212.571 692.294 211.911 693.278 211.071 694.118C210.255 694.934 209.283 695.582 208.155 696.062C207.027 696.542 205.815 696.782 204.519 696.782C203.199 696.782 201.975 696.542 200.847 696.062C199.719 695.582 198.735 694.934 197.895 694.118C197.079 693.278 196.431 692.294 195.951 691.166C195.471 690.038 195.231 688.814 195.231 687.494C195.231 686.198 195.471 684.986 195.951 683.858C196.431 682.73 197.079 681.758 197.895 680.942C198.735 680.102 199.719 679.442 200.847 678.962C201.975 678.482 203.199 678.242 204.519 678.242ZM204.519 679.934C203.439 679.934 202.431 680.126 201.495 680.51C200.583 680.894 199.791 681.434 199.119 682.13C198.471 682.802 197.955 683.606 197.571 684.542C197.187 685.454 196.995 686.45 196.995 687.53C196.995 688.586 197.187 689.582 197.571 690.518C197.955 691.43 198.471 692.234 199.119 692.93C199.791 693.602 200.583 694.13 201.495 694.514C202.431 694.898 203.439 695.09 204.519 695.09C205.599 695.09 206.595 694.898 207.507 694.514C208.419 694.13 209.199 693.602 209.847 692.93C210.519 692.234 211.047 691.43 211.431 690.518C211.815 689.582 212.007 688.586 212.007 687.53C212.007 686.45 211.815 685.454 211.431 684.542C211.047 683.606 210.519 682.802 209.847 682.13C209.199 681.434 208.419 680.894 207.507 680.51C206.595 680.126 205.599 679.934 204.519 679.934ZM217.89 696.53H216.126V678.53H217.89V693.902L229.122 678.53H230.886V696.53H229.122V681.158L217.89 696.53ZM223.542 674.246C224.622 674.246 225.57 673.994 226.386 673.49C227.202 672.986 227.85 672.446 228.33 671.87V673.814C228.018 674.222 227.466 674.642 226.674 675.074C225.882 675.482 224.838 675.686 223.542 675.686C222.246 675.686 221.202 675.482 220.41 675.074C219.618 674.642 219.066 674.222 218.754 673.814V671.87C219.234 672.446 219.882 672.986 220.698 673.49C221.514 673.994 222.462 674.246 223.542 674.246ZM41.7225 738.53V722.114H31.2105V738.53H29.4465V720.53H43.4865V738.53H41.7225ZM55.5366 721.934C54.4806 721.934 53.4846 722.126 52.5486 722.51C51.6366 722.894 50.8446 723.434 50.1726 724.13C49.5006 724.802 48.9726 725.606 48.5886 726.542C48.2046 727.454 48.0126 728.45 48.0126 729.53C48.0126 730.61 48.2046 731.606 48.5886 732.518C48.9726 733.43 49.5006 734.234 50.1726 734.93C50.8446 735.602 51.6366 736.13 52.5486 736.514C53.4846 736.898 54.4806 737.09 55.5366 737.09C56.6166 737.09 57.6126 736.898 58.5246 736.514C59.4606 736.13 60.2526 735.602 60.9006 734.93C61.5726 734.234 62.1006 733.43 62.4846 732.518C62.8686 731.582 63.0606 730.586 63.0606 729.53C63.0606 728.45 62.8686 727.454 62.4846 726.542C62.1006 725.606 61.5726 724.802 60.9006 724.13C60.2526 723.434 59.4606 722.894 58.5246 722.51C57.6126 722.126 56.6166 721.934 55.5366 721.934ZM55.6446 738.782C53.9166 738.782 52.4166 738.434 51.1446 737.738C49.8726 737.018 48.8646 736.094 48.1206 734.966V744.794H46.3566V720.53H48.1206V724.058C48.8646 722.93 49.8726 722.018 51.1446 721.322C52.4166 720.602 53.9166 720.242 55.6446 720.242C56.9406 720.242 58.1406 720.482 59.2446 720.962C60.3726 721.442 61.3446 722.102 62.1606 722.942C63.0006 723.758 63.6486 724.73 64.1046 725.858C64.5846 726.986 64.8246 728.198 64.8246 729.494C64.8246 730.814 64.5846 732.038 64.1046 733.166C63.6486 734.294 63.0006 735.278 62.1606 736.118C61.3446 736.934 60.3726 737.582 59.2446 738.062C58.1406 738.542 56.9406 738.782 55.6446 738.782ZM75.9171 720.242C77.2131 720.242 78.4251 720.482 79.5531 720.962C80.6811 721.442 81.6531 722.102 82.4691 722.942C83.3091 723.758 83.9691 724.73 84.4491 725.858C84.9291 726.986 85.1691 728.198 85.1691 729.494C85.1691 730.814 84.9291 732.038 84.4491 733.166C83.9691 734.294 83.3091 735.278 82.4691 736.118C81.6531 736.934 80.6811 737.582 79.5531 738.062C78.4251 738.542 77.2131 738.782 75.9171 738.782C74.5971 738.782 73.3731 738.542 72.2451 738.062C71.1171 737.582 70.1331 736.934 69.2931 736.118C68.4771 735.278 67.8291 734.294 67.3491 733.166C66.8691 732.038 66.6291 730.814 66.6291 729.494C66.6291 728.198 66.8691 726.986 67.3491 725.858C67.8291 724.73 68.4771 723.758 69.2931 722.942C70.1331 722.102 71.1171 721.442 72.2451 720.962C73.3731 720.482 74.5971 720.242 75.9171 720.242ZM75.9171 721.934C74.8371 721.934 73.8291 722.126 72.8931 722.51C71.9811 722.894 71.1891 723.434 70.5171 724.13C69.8691 724.802 69.3531 725.606 68.9691 726.542C68.5851 727.454 68.3931 728.45 68.3931 729.53C68.3931 730.586 68.5851 731.582 68.9691 732.518C69.3531 733.43 69.8691 734.234 70.5171 734.93C71.1891 735.602 71.9811 736.13 72.8931 736.514C73.8291 736.898 74.8371 737.09 75.9171 737.09C76.9971 737.09 77.9931 736.898 78.9051 736.514C79.8171 736.13 80.5971 735.602 81.2451 734.93C81.9171 734.234 82.4451 733.43 82.8291 732.518C83.2131 731.582 83.4051 730.586 83.4051 729.53C83.4051 728.45 83.2131 727.454 82.8291 726.542C82.4451 725.606 81.9171 724.802 81.2451 724.13C80.5971 723.434 79.8171 722.894 78.9051 722.51C77.9931 722.126 76.9971 721.934 75.9171 721.934ZM102.645 743.606V738.53H87.5246V720.53H89.2886V736.946H99.8006V720.53H101.565V736.946H104.409V743.426L102.645 743.606ZM122.239 734.282C121.399 735.65 120.307 736.742 118.963 737.558C117.643 738.374 115.963 738.782 113.923 738.782C112.555 738.782 111.295 738.542 110.143 738.062C109.015 737.582 108.031 736.934 107.191 736.118C106.375 735.278 105.727 734.294 105.247 733.166C104.791 732.038 104.563 730.814 104.563 729.494C104.563 728.198 104.791 726.986 105.247 725.858C105.727 724.73 106.375 723.758 107.191 722.942C108.031 722.102 109.003 721.442 110.107 720.962C111.235 720.482 112.459 720.242 113.779 720.242C115.123 720.242 116.347 720.482 117.451 720.962C118.579 721.442 119.539 722.078 120.331 722.87C121.147 723.662 121.771 724.586 122.203 725.642C122.659 726.698 122.887 727.802 122.887 728.954C122.887 729.242 122.875 729.482 122.851 729.674C122.851 729.866 122.839 730.022 122.815 730.142H106.435C106.507 731.246 106.747 732.23 107.155 733.094C107.587 733.934 108.139 734.654 108.811 735.254C109.507 735.83 110.287 736.274 111.151 736.586C112.015 736.898 112.939 737.054 113.923 737.054C115.699 737.054 117.127 736.73 118.207 736.082C119.287 735.41 120.175 734.498 120.871 733.346L122.239 734.282ZM113.779 721.934C112.867 721.934 111.991 722.09 111.151 722.402C110.311 722.714 109.555 723.158 108.883 723.734C108.235 724.286 107.683 724.97 107.227 725.786C106.795 726.602 106.531 727.514 106.435 728.522H121.051C120.955 727.514 120.691 726.602 120.259 725.786C119.851 724.97 119.323 724.274 118.675 723.698C118.027 723.122 117.283 722.69 116.443 722.402C115.603 722.09 114.715 721.934 113.779 721.934ZM137.848 738.53V730.214H126.976V738.53H125.212V720.53H126.976V728.63H137.848V720.53H139.612V738.53H137.848ZM156.621 722.114H149.997V738.53H148.233V722.114H141.609V720.53H156.621V722.114ZM174.278 738.098C173.438 740.474 172.406 742.178 171.182 743.21C169.982 744.266 168.446 744.794 166.574 744.794H165.89V743.102H166.538C167.906 743.102 169.046 742.718 169.958 741.95C170.87 741.206 171.674 739.922 172.37 738.098L164.918 720.53H166.898L173.378 735.794L178.958 720.53H180.866L174.278 738.098ZM198.555 734.282C197.715 735.65 196.623 736.742 195.279 737.558C193.935 738.374 192.267 738.782 190.275 738.782C188.955 738.782 187.731 738.542 186.603 738.062C185.499 737.582 184.539 736.922 183.723 736.082C182.931 735.242 182.307 734.258 181.851 733.13C181.419 732.002 181.203 730.778 181.203 729.458C181.203 728.162 181.419 726.962 181.851 725.858C182.307 724.73 182.931 723.758 183.723 722.942C184.539 722.102 185.499 721.442 186.603 720.962C187.731 720.482 188.955 720.242 190.275 720.242C192.363 720.242 194.055 720.662 195.351 721.502C196.671 722.318 197.739 723.41 198.555 724.778L197.187 725.714C196.491 724.562 195.603 723.65 194.523 722.978C193.443 722.306 192.027 721.97 190.275 721.97C189.195 721.97 188.199 722.162 187.287 722.546C186.399 722.93 185.631 723.458 184.983 724.13C184.335 724.802 183.831 725.606 183.471 726.542C183.135 727.454 182.967 728.438 182.967 729.494C182.967 730.55 183.147 731.546 183.507 732.482C183.867 733.394 184.371 734.198 185.019 734.894C185.667 735.566 186.435 736.094 187.323 736.478C188.235 736.862 189.231 737.054 190.311 737.054C192.063 737.054 193.467 736.73 194.523 736.082C195.603 735.41 196.491 734.498 197.187 733.346L198.555 734.282ZM213.004 738.53V722.114H202.492V738.53H200.728V720.53H214.768V738.53H213.004ZM234.774 734.282C233.934 735.65 232.842 736.742 231.498 737.558C230.178 738.374 228.498 738.782 226.458 738.782C225.09 738.782 223.83 738.542 222.678 738.062C221.55 737.582 220.566 736.934 219.726 736.118C218.91 735.278 218.262 734.294 217.782 733.166C217.326 732.038 217.098 730.814 217.098 729.494C217.098 728.198 217.326 726.986 217.782 725.858C218.262 724.73 218.91 723.758 219.726 722.942C220.566 722.102 221.538 721.442 222.642 720.962C223.77 720.482 224.994 720.242 226.314 720.242C227.658 720.242 228.882 720.482 229.986 720.962C231.114 721.442 232.074 722.078 232.866 722.87C233.682 723.662 234.306 724.586 234.738 725.642C235.194 726.698 235.422 727.802 235.422 728.954C235.422 729.242 235.41 729.482 235.386 729.674C235.386 729.866 235.374 730.022 235.35 730.142H218.97C219.042 731.246 219.282 732.23 219.69 733.094C220.122 733.934 220.674 734.654 221.346 735.254C222.042 735.83 222.822 736.274 223.686 736.586C224.55 736.898 225.474 737.054 226.458 737.054C228.234 737.054 229.662 736.73 230.742 736.082C231.822 735.41 232.71 734.498 233.406 733.346L234.774 734.282ZM226.314 721.934C225.402 721.934 224.526 722.09 223.686 722.402C222.846 722.714 222.09 723.158 221.418 723.734C220.77 724.286 220.218 724.97 219.762 725.786C219.33 726.602 219.066 727.514 218.97 728.522H233.586C233.49 727.514 233.226 726.602 232.794 725.786C232.386 724.97 231.858 724.274 231.21 723.698C230.562 723.122 229.818 722.69 228.978 722.402C228.138 722.09 227.25 721.934 226.314 721.934ZM251.218 738.53H248.986L243.118 730.538L237.214 738.53H235.054L241.93 729.242L235.594 720.53H237.826L243.154 727.91L248.518 720.53H250.714L244.306 729.206L251.218 738.53ZM259.784 721.934C258.704 721.934 257.696 722.126 256.76 722.51C255.848 722.894 255.056 723.434 254.384 724.13C253.736 724.802 253.22 725.606 252.836 726.542C252.452 727.454 252.26 728.45 252.26 729.53C252.26 730.586 252.452 731.582 252.836 732.518C253.22 733.43 253.736 734.234 254.384 734.93C255.056 735.602 255.848 736.13 256.76 736.514C257.696 736.898 258.704 737.09 259.784 737.09C260.84 737.09 261.824 736.898 262.736 736.514C263.672 736.13 264.476 735.602 265.148 734.93C265.82 734.234 266.348 733.43 266.732 732.518C267.116 731.606 267.308 730.61 267.308 729.53C267.308 728.45 267.116 727.454 266.732 726.542C266.348 725.606 265.82 724.802 265.148 724.13C264.476 723.434 263.672 722.894 262.736 722.51C261.824 722.126 260.84 721.934 259.784 721.934ZM267.2 734.966C266.456 736.094 265.448 737.018 264.176 737.738C262.904 738.434 261.404 738.782 259.676 738.782C258.38 738.782 257.168 738.542 256.04 738.062C254.936 737.582 253.964 736.934 253.124 736.118C252.308 735.278 251.66 734.294 251.18 733.166C250.724 732.038 250.496 730.814 250.496 729.494C250.496 728.198 250.724 726.986 251.18 725.858C251.66 724.73 252.308 723.758 253.124 722.942C253.964 722.102 254.936 721.442 256.04 720.962C257.168 720.482 258.38 720.242 259.676 720.242C261.404 720.242 262.892 720.59 264.14 721.286C265.412 721.982 266.432 722.87 267.2 723.95V720.53H268.964V738.53H267.2V734.966Z" fill="white"/>
<circle cx="144.749" cy="363.825" r="11.3216" fill="white"/>
<path d="M87.3833 448.602C86.3033 448.602 85.2953 448.794 84.3593 449.178C83.4473 449.562 82.6553 450.102 81.9833 450.798C81.3353 451.47 80.8193 452.274 80.4353 453.21C80.0513 454.122 79.8593 455.118 79.8593 456.198C79.8593 457.254 80.0513 458.25 80.4353 459.186C80.8193 460.098 81.3353 460.902 81.9833 461.598C82.6553 462.27 83.4473 462.798 84.3593 463.182C85.2953 463.566 86.3033 463.758 87.3833 463.758C88.4393 463.758 89.4233 463.566 90.3353 463.182C91.2713 462.798 92.0753 462.27 92.7473 461.598C93.4193 460.902 93.9473 460.098 94.3313 459.186C94.7153 458.274 94.9073 457.278 94.9073 456.198C94.9073 455.118 94.7153 454.122 94.3313 453.21C93.9473 452.274 93.4193 451.47 92.7473 450.798C92.0753 450.102 91.2713 449.562 90.3353 449.178C89.4233 448.794 88.4393 448.602 87.3833 448.602ZM94.7993 461.634C94.0553 462.762 93.0473 463.686 91.7753 464.406C90.5033 465.102 89.0033 465.45 87.2753 465.45C85.9793 465.45 84.7673 465.21 83.6393 464.73C82.5353 464.25 81.5633 463.602 80.7233 462.786C79.9073 461.946 79.2593 460.962 78.7793 459.834C78.3233 458.706 78.0953 457.482 78.0953 456.162C78.0953 454.866 78.3233 453.654 78.7793 452.526C79.2593 451.398 79.9073 450.426 80.7233 449.61C81.5633 448.77 82.5353 448.11 83.6393 447.63C84.7673 447.15 85.9793 446.91 87.2753 446.91C89.0033 446.91 90.4913 447.258 91.7393 447.954C93.0113 448.65 94.0313 449.538 94.7993 450.618V447.198H96.5633V465.198H94.7993V461.634ZM107.908 464.766C107.068 467.142 106.036 468.846 104.812 469.878C103.612 470.934 102.076 471.462 100.204 471.462H99.5198V469.77H100.168C101.536 469.77 102.676 469.386 103.588 468.618C104.5 467.874 105.304 466.59 106 464.766L98.5478 447.198H100.528L107.008 462.462L112.588 447.198H114.496L107.908 464.766ZM125.643 448.602C124.587 448.602 123.591 448.794 122.655 449.178C121.743 449.562 120.951 450.102 120.279 450.798C119.607 451.47 119.079 452.274 118.695 453.21C118.311 454.122 118.119 455.118 118.119 456.198C118.119 457.278 118.311 458.274 118.695 459.186C119.079 460.098 119.607 460.902 120.279 461.598C120.951 462.27 121.743 462.798 122.655 463.182C123.591 463.566 124.587 463.758 125.643 463.758C126.723 463.758 127.719 463.566 128.631 463.182C129.567 462.798 130.359 462.27 131.007 461.598C131.679 460.902 132.207 460.098 132.591 459.186C132.975 458.25 133.167 457.254 133.167 456.198C133.167 455.118 132.975 454.122 132.591 453.21C132.207 452.274 131.679 451.47 131.007 450.798C130.359 450.102 129.567 449.562 128.631 449.178C127.719 448.794 126.723 448.602 125.643 448.602ZM125.751 465.45C124.023 465.45 122.523 465.102 121.251 464.406C119.979 463.686 118.971 462.762 118.227 461.634V471.462H116.463V447.198H118.227V450.726C118.971 449.598 119.979 448.686 121.251 447.99C122.523 447.27 124.023 446.91 125.751 446.91C127.047 446.91 128.247 447.15 129.351 447.63C130.479 448.11 131.451 448.77 132.267 449.61C133.107 450.426 133.755 451.398 134.211 452.526C134.691 453.654 134.931 454.866 134.931 456.162C134.931 457.482 134.691 458.706 134.211 459.834C133.755 460.962 133.107 461.946 132.267 462.786C131.451 463.602 130.479 464.25 129.351 464.73C128.247 465.21 127.047 465.45 125.751 465.45ZM146.024 448.602C144.944 448.602 143.936 448.794 143 449.178C142.088 449.562 141.296 450.102 140.624 450.798C139.976 451.47 139.46 452.274 139.076 453.21C138.692 454.122 138.5 455.118 138.5 456.198C138.5 457.254 138.692 458.25 139.076 459.186C139.46 460.098 139.976 460.902 140.624 461.598C141.296 462.27 142.088 462.798 143 463.182C143.936 463.566 144.944 463.758 146.024 463.758C147.08 463.758 148.064 463.566 148.976 463.182C149.912 462.798 150.716 462.27 151.388 461.598C152.06 460.902 152.588 460.098 152.972 459.186C153.356 458.274 153.548 457.278 153.548 456.198C153.548 455.118 153.356 454.122 152.972 453.21C152.588 452.274 152.06 451.47 151.388 450.798C150.716 450.102 149.912 449.562 148.976 449.178C148.064 448.794 147.08 448.602 146.024 448.602ZM153.44 461.634C152.696 462.762 151.688 463.686 150.416 464.406C149.144 465.102 147.644 465.45 145.916 465.45C144.62 465.45 143.408 465.21 142.28 464.73C141.176 464.25 140.204 463.602 139.364 462.786C138.548 461.946 137.9 460.962 137.42 459.834C136.964 458.706 136.736 457.482 136.736 456.162C136.736 454.866 136.964 453.654 137.42 452.526C137.9 451.398 138.548 450.426 139.364 449.61C140.204 448.77 141.176 448.11 142.28 447.63C143.408 447.15 144.62 446.91 145.916 446.91C147.644 446.91 149.132 447.258 150.38 447.954C151.652 448.65 152.672 449.538 153.44 450.618V447.198H155.204V465.198H153.44V461.634ZM182.431 460.95C181.591 462.318 180.499 463.41 179.155 464.226C177.835 465.042 176.155 465.45 174.115 465.45C172.747 465.45 171.487 465.21 170.335 464.73C169.207 464.25 168.223 463.602 167.383 462.786C166.567 461.946 165.919 460.962 165.439 459.834C164.983 458.706 164.755 457.482 164.755 456.162C164.755 454.866 164.983 453.654 165.439 452.526C165.919 451.398 166.567 450.426 167.383 449.61C168.223 448.77 169.195 448.11 170.299 447.63C171.427 447.15 172.651 446.91 173.971 446.91C175.315 446.91 176.539 447.15 177.643 447.63C178.771 448.11 179.731 448.746 180.523 449.538C181.339 450.33 181.963 451.254 182.395 452.31C182.851 453.366 183.079 454.47 183.079 455.622C183.079 455.91 183.067 456.15 183.043 456.342C183.043 456.534 183.031 456.69 183.007 456.81H166.627C166.699 457.914 166.939 458.898 167.347 459.762C167.779 460.602 168.331 461.322 169.003 461.922C169.699 462.498 170.479 462.942 171.343 463.254C172.207 463.566 173.131 463.722 174.115 463.722C175.891 463.722 177.319 463.398 178.399 462.75C179.479 462.078 180.367 461.166 181.063 460.014L182.431 460.95ZM173.971 448.602C173.059 448.602 172.183 448.758 171.343 449.07C170.503 449.382 169.747 449.826 169.075 450.402C168.427 450.954 167.875 451.638 167.419 452.454C166.987 453.27 166.723 454.182 166.627 455.19H181.243C181.147 454.182 180.883 453.27 180.451 452.454C180.043 451.638 179.515 450.942 178.867 450.366C178.219 449.79 177.475 449.358 176.635 449.07C175.795 448.758 174.907 448.602 173.971 448.602ZM196.673 448.782H187.169V465.198H185.405V447.198H196.673V448.782ZM206.141 446.91C207.437 446.91 208.649 447.15 209.777 447.63C210.905 448.11 211.877 448.77 212.693 449.61C213.533 450.426 214.193 451.398 214.673 452.526C215.153 453.654 215.393 454.866 215.393 456.162C215.393 457.482 215.153 458.706 214.673 459.834C214.193 460.962 213.533 461.946 212.693 462.786C211.877 463.602 210.905 464.25 209.777 464.73C208.649 465.21 207.437 465.45 206.141 465.45C204.821 465.45 203.597 465.21 202.469 464.73C201.341 464.25 200.357 463.602 199.517 462.786C198.701 461.946 198.053 460.962 197.573 459.834C197.093 458.706 196.853 457.482 196.853 456.162C196.853 454.866 197.093 453.654 197.573 452.526C198.053 451.398 198.701 450.426 199.517 449.61C200.357 448.77 201.341 448.11 202.469 447.63C203.597 447.15 204.821 446.91 206.141 446.91ZM206.141 448.602C205.061 448.602 204.053 448.794 203.117 449.178C202.205 449.562 201.413 450.102 200.741 450.798C200.093 451.47 199.577 452.274 199.193 453.21C198.809 454.122 198.617 455.118 198.617 456.198C198.617 457.254 198.809 458.25 199.193 459.186C199.577 460.098 200.093 460.902 200.741 461.598C201.413 462.27 202.205 462.798 203.117 463.182C204.053 463.566 205.061 463.758 206.141 463.758C207.221 463.758 208.217 463.566 209.129 463.182C210.041 462.798 210.821 462.27 211.469 461.598C212.141 460.902 212.669 460.098 213.053 459.186C213.437 458.25 213.629 457.254 213.629 456.198C213.629 455.118 213.437 454.122 213.053 453.21C212.669 452.274 212.141 451.47 211.469 450.798C210.821 450.102 210.041 449.562 209.129 449.178C208.217 448.794 207.221 448.602 206.141 448.602ZM33.7648 507.198V490.782H23.2528V507.198H21.4888V489.198H35.5288V507.198H33.7648ZM47.579 490.602C46.523 490.602 45.527 490.794 44.591 491.178C43.679 491.562 42.887 492.102 42.215 492.798C41.543 493.47 41.015 494.274 40.631 495.21C40.247 496.122 40.055 497.118 40.055 498.198C40.055 499.278 40.247 500.274 40.631 501.186C41.015 502.098 41.543 502.902 42.215 503.598C42.887 504.27 43.679 504.798 44.591 505.182C45.527 505.566 46.523 505.758 47.579 505.758C48.659 505.758 49.655 505.566 50.567 505.182C51.503 504.798 52.295 504.27 52.943 503.598C53.615 502.902 54.143 502.098 54.527 501.186C54.911 500.25 55.103 499.254 55.103 498.198C55.103 497.118 54.911 496.122 54.527 495.21C54.143 494.274 53.615 493.47 52.943 492.798C52.295 492.102 51.503 491.562 50.567 491.178C49.655 490.794 48.659 490.602 47.579 490.602ZM47.687 507.45C45.959 507.45 44.459 507.102 43.187 506.406C41.915 505.686 40.907 504.762 40.163 503.634V513.462H38.399V489.198H40.163V492.726C40.907 491.598 41.915 490.686 43.187 489.99C44.459 489.27 45.959 488.91 47.687 488.91C48.983 488.91 50.183 489.15 51.287 489.63C52.415 490.11 53.387 490.77 54.203 491.61C55.043 492.426 55.691 493.398 56.147 494.526C56.627 495.654 56.867 496.866 56.867 498.162C56.867 499.482 56.627 500.706 56.147 501.834C55.691 502.962 55.043 503.946 54.203 504.786C53.387 505.602 52.415 506.25 51.287 506.73C50.183 507.21 48.983 507.45 47.687 507.45ZM67.9595 488.91C69.2555 488.91 70.4675 489.15 71.5955 489.63C72.7235 490.11 73.6955 490.77 74.5115 491.61C75.3515 492.426 76.0115 493.398 76.4915 494.526C76.9715 495.654 77.2115 496.866 77.2115 498.162C77.2115 499.482 76.9715 500.706 76.4915 501.834C76.0115 502.962 75.3515 503.946 74.5115 504.786C73.6955 505.602 72.7235 506.25 71.5955 506.73C70.4675 507.21 69.2555 507.45 67.9595 507.45C66.6395 507.45 65.4155 507.21 64.2875 506.73C63.1595 506.25 62.1755 505.602 61.3355 504.786C60.5195 503.946 59.8715 502.962 59.3915 501.834C58.9115 500.706 58.6715 499.482 58.6715 498.162C58.6715 496.866 58.9115 495.654 59.3915 494.526C59.8715 493.398 60.5195 492.426 61.3355 491.61C62.1755 490.77 63.1595 490.11 64.2875 489.63C65.4155 489.15 66.6395 488.91 67.9595 488.91ZM67.9595 490.602C66.8795 490.602 65.8715 490.794 64.9355 491.178C64.0235 491.562 63.2315 492.102 62.5595 492.798C61.9115 493.47 61.3955 494.274 61.0115 495.21C60.6275 496.122 60.4355 497.118 60.4355 498.198C60.4355 499.254 60.6275 500.25 61.0115 501.186C61.3955 502.098 61.9115 502.902 62.5595 503.598C63.2315 504.27 64.0235 504.798 64.9355 505.182C65.8715 505.566 66.8795 505.758 67.9595 505.758C69.0395 505.758 70.0355 505.566 70.9475 505.182C71.8595 504.798 72.6395 504.27 73.2875 503.598C73.9595 502.902 74.4875 502.098 74.8715 501.186C75.2555 500.25 75.4475 499.254 75.4475 498.198C75.4475 497.118 75.2555 496.122 74.8715 495.21C74.4875 494.274 73.9595 493.47 73.2875 492.798C72.6395 492.102 71.8595 491.562 70.9475 491.178C70.0355 490.794 69.0395 490.602 67.9595 490.602ZM88.315 490.602C87.235 490.602 86.227 490.794 85.291 491.178C84.379 491.562 83.587 492.102 82.915 492.798C82.267 493.47 81.751 494.274 81.367 495.21C80.983 496.122 80.791 497.118 80.791 498.198C80.791 499.254 80.983 500.25 81.367 501.186C81.751 502.098 82.267 502.902 82.915 503.598C83.587 504.27 84.379 504.798 85.291 505.182C86.227 505.566 87.235 505.758 88.315 505.758C89.371 505.758 90.355 505.566 91.267 505.182C92.203 504.798 93.007 504.27 93.679 503.598C94.351 502.902 94.879 502.098 95.263 501.186C95.647 500.274 95.839 499.278 95.839 498.198C95.839 497.118 95.647 496.122 95.263 495.21C94.879 494.274 94.351 493.47 93.679 492.798C93.007 492.102 92.203 491.562 91.267 491.178C90.355 490.794 89.371 490.602 88.315 490.602ZM95.731 503.634C94.987 504.762 93.979 505.686 92.707 506.406C91.435 507.102 89.935 507.45 88.207 507.45C86.911 507.45 85.699 507.21 84.571 506.73C83.467 506.25 82.495 505.602 81.655 504.786C80.839 503.946 80.191 502.962 79.711 501.834C79.255 500.706 79.027 499.482 79.027 498.162C79.027 496.866 79.255 495.654 79.711 494.526C80.191 493.398 80.839 492.426 81.655 491.61C82.495 490.77 83.467 490.11 84.571 489.63C85.699 489.15 86.911 488.91 88.207 488.91C89.935 488.91 91.423 489.258 92.671 489.954C93.943 490.65 94.963 491.538 95.731 492.618V489.198H97.495V507.198H95.731V503.634ZM113.015 507.198V498.882H102.143V507.198H100.379V489.198H102.143V497.298H113.015V489.198H114.779V507.198H113.015ZM126.424 490.602C125.344 490.602 124.336 490.794 123.4 491.178C122.488 491.562 121.696 492.102 121.024 492.798C120.376 493.47 119.86 494.274 119.476 495.21C119.092 496.122 118.9 497.118 118.9 498.198C118.9 499.254 119.092 500.25 119.476 501.186C119.86 502.098 120.376 502.902 121.024 503.598C121.696 504.27 122.488 504.798 123.4 505.182C124.336 505.566 125.344 505.758 126.424 505.758C127.48 505.758 128.464 505.566 129.376 505.182C130.312 504.798 131.116 504.27 131.788 503.598C132.46 502.902 132.988 502.098 133.372 501.186C133.756 500.274 133.948 499.278 133.948 498.198C133.948 497.118 133.756 496.122 133.372 495.21C132.988 494.274 132.46 493.47 131.788 492.798C131.116 492.102 130.312 491.562 129.376 491.178C128.464 490.794 127.48 490.602 126.424 490.602ZM133.84 503.634C133.096 504.762 132.088 505.686 130.816 506.406C129.544 507.102 128.044 507.45 126.316 507.45C125.02 507.45 123.808 507.21 122.68 506.73C121.576 506.25 120.604 505.602 119.764 504.786C118.948 503.946 118.3 502.962 117.82 501.834C117.364 500.706 117.136 499.482 117.136 498.162C117.136 496.866 117.364 495.654 117.82 494.526C118.3 493.398 118.948 492.426 119.764 491.61C120.604 490.77 121.576 490.11 122.68 489.63C123.808 489.15 125.02 488.91 126.316 488.91C128.044 488.91 129.532 489.258 130.78 489.954C132.052 490.65 133.072 491.538 133.84 492.618V489.198H135.604V507.198H133.84V503.634ZM151.557 507.198L145.509 491.178L139.497 507.198H137.589L144.465 489.198H146.697L153.573 507.198H151.557ZM157.304 507.198H155.54V489.198H157.304V504.57L168.536 489.198H170.3V507.198H168.536V491.826L157.304 507.198ZM178.732 507.414C177.46 507.414 176.332 507.138 175.348 506.586C174.364 506.034 173.464 505.17 172.648 503.994L173.944 503.058C174.64 504.042 175.36 504.75 176.104 505.182C176.872 505.614 177.76 505.83 178.768 505.83C180.016 505.83 181.012 505.506 181.756 504.858C182.5 504.21 182.872 503.31 182.872 502.158C182.872 501.15 182.536 500.334 181.864 499.71C181.192 499.086 180.172 498.774 178.804 498.774H176.464V497.19H178.624C179.824 497.19 180.724 496.854 181.324 496.182C181.948 495.486 182.26 494.694 182.26 493.806C182.26 492.894 181.948 492.138 181.324 491.538C180.7 490.914 179.824 490.602 178.696 490.602C177.592 490.602 176.728 490.818 176.104 491.25C175.504 491.658 175 492.114 174.592 492.618L173.404 491.682C173.908 490.986 174.58 490.374 175.42 489.846C176.26 489.294 177.352 489.018 178.696 489.018C179.488 489.018 180.208 489.138 180.856 489.378C181.504 489.618 182.056 489.954 182.512 490.386C182.992 490.818 183.352 491.334 183.592 491.934C183.856 492.51 183.988 493.134 183.988 493.806C183.988 494.574 183.808 495.318 183.448 496.038C183.112 496.734 182.524 497.322 181.684 497.802C182.572 498.162 183.28 498.702 183.808 499.422C184.336 500.118 184.6 501.018 184.6 502.122C184.6 502.962 184.444 503.706 184.132 504.354C183.844 505.002 183.436 505.554 182.908 506.01C182.404 506.466 181.792 506.814 181.072 507.054C180.352 507.294 179.572 507.414 178.732 507.414ZM188.944 507.198H187.18V489.198H188.944V504.57L200.176 489.198H201.94V507.198H200.176V491.826L188.944 507.198ZM214.009 490.602C212.953 490.602 211.957 490.794 211.021 491.178C210.109 491.562 209.317 492.102 208.645 492.798C207.973 493.47 207.445 494.274 207.061 495.21C206.677 496.122 206.485 497.118 206.485 498.198C206.485 499.278 206.677 500.274 207.061 501.186C207.445 502.098 207.973 502.902 208.645 503.598C209.317 504.27 210.109 504.798 211.021 505.182C211.957 505.566 212.953 505.758 214.009 505.758C215.089 505.758 216.085 505.566 216.997 505.182C217.933 504.798 218.725 504.27 219.373 503.598C220.045 502.902 220.573 502.098 220.957 501.186C221.341 500.25 221.533 499.254 221.533 498.198C221.533 497.118 221.341 496.122 220.957 495.21C220.573 494.274 220.045 493.47 219.373 492.798C218.725 492.102 217.933 491.562 216.997 491.178C216.085 490.794 215.089 490.602 214.009 490.602ZM214.117 507.45C212.389 507.45 210.889 507.102 209.617 506.406C208.345 505.686 207.337 504.762 206.593 503.634V513.462H204.829V489.198H206.593V492.726C207.337 491.598 208.345 490.686 209.617 489.99C210.889 489.27 212.389 488.91 214.117 488.91C215.413 488.91 216.613 489.15 217.717 489.63C218.845 490.11 219.817 490.77 220.633 491.61C221.473 492.426 222.121 493.398 222.577 494.526C223.057 495.654 223.297 496.866 223.297 498.162C223.297 499.482 223.057 500.706 222.577 501.834C222.121 502.962 221.473 503.946 220.633 504.786C219.817 505.602 218.845 506.25 217.717 506.73C216.613 507.21 215.413 507.45 214.117 507.45ZM232.66 506.766C231.82 509.142 230.788 510.846 229.564 511.878C228.364 512.934 226.828 513.462 224.956 513.462H224.272V511.77H224.92C226.288 511.77 227.428 511.386 228.34 510.618C229.252 509.874 230.056 508.59 230.752 506.766L223.3 489.198H225.28L231.76 504.462L237.34 489.198H239.248L232.66 506.766ZM257.262 502.95C256.422 504.318 255.33 505.41 253.986 506.226C252.666 507.042 250.986 507.45 248.946 507.45C247.578 507.45 246.318 507.21 245.166 506.73C244.038 506.25 243.054 505.602 242.214 504.786C241.398 503.946 240.75 502.962 240.27 501.834C239.814 500.706 239.586 499.482 239.586 498.162C239.586 496.866 239.814 495.654 240.27 494.526C240.75 493.398 241.398 492.426 242.214 491.61C243.054 490.77 244.026 490.11 245.13 489.63C246.258 489.15 247.482 488.91 248.802 488.91C250.146 488.91 251.37 489.15 252.474 489.63C253.602 490.11 254.562 490.746 255.354 491.538C256.17 492.33 256.794 493.254 257.226 494.31C257.682 495.366 257.91 496.47 257.91 497.622C257.91 497.91 257.898 498.15 257.874 498.342C257.874 498.534 257.862 498.69 257.838 498.81H241.458C241.53 499.914 241.77 500.898 242.178 501.762C242.61 502.602 243.162 503.322 243.834 503.922C244.53 504.498 245.31 504.942 246.174 505.254C247.038 505.566 247.962 505.722 248.946 505.722C250.722 505.722 252.15 505.398 253.23 504.75C254.31 504.078 255.198 503.166 255.894 502.014L257.262 502.95ZM248.802 490.602C247.89 490.602 247.014 490.758 246.174 491.07C245.334 491.382 244.578 491.826 243.906 492.402C243.258 492.954 242.706 493.638 242.25 494.454C241.818 495.27 241.554 496.182 241.458 497.19H256.074C255.978 496.182 255.714 495.27 255.282 494.454C254.874 493.638 254.346 492.942 253.698 492.366C253.05 491.79 252.306 491.358 251.466 491.07C250.626 490.758 249.738 490.602 248.802 490.602ZM272.906 490.782H266.282V507.198H264.518V490.782H257.894V489.198H272.906V490.782Z" fill="white"/>
<path d="M160.844 345.59C163.488 347.71 164.994 349.772 165.781 352.31C166.582 354.892 166.672 358.062 166.284 362.465C165.975 365.966 166.329 368.751 166.62 371.039C166.708 371.73 166.79 372.375 166.846 372.981C166.969 374.305 166.976 375.446 166.723 376.558C166.473 377.658 165.957 378.787 164.954 380.055C163.942 381.333 163.083 381.946 162.309 382.235C161.537 382.523 160.735 382.531 159.737 382.383C159.264 382.313 158.739 382.202 158.164 382.08C156.39 381.705 154.13 381.227 151.373 381.523C150.18 381.652 149.301 382.295 148.587 383.002C148.232 383.354 147.894 383.745 147.572 384.122C147.539 384.161 147.506 384.199 147.473 384.238C147.178 384.583 146.89 384.921 146.579 385.252C145.895 385.98 145.147 386.626 144.18 387.067C143.22 387.504 141.983 387.766 140.289 387.627C136.737 387.335 135.538 386.472 134.857 385.522C134.479 384.995 134.217 384.384 133.874 383.582L133.851 383.528C133.507 382.726 133.098 381.788 132.437 380.812C131.789 379.854 130.988 379.396 130.11 379.242C129.445 379.126 128.734 379.194 128.163 379.248C128.068 379.258 127.976 379.266 127.889 379.274C127.218 379.331 126.667 379.341 126.138 379.172C125.637 379.012 125.065 378.66 124.444 377.82C122.61 375.337 122.512 371.84 123.536 368.179C124.417 365.026 123.87 362.849 123.044 361.029C122.844 360.59 122.63 360.174 122.427 359.784C122.396 359.724 122.365 359.665 122.334 359.607C122.162 359.278 122.001 358.971 121.852 358.661C121.503 357.938 121.253 357.274 121.168 356.558C121.124 356.189 121.265 355.822 121.888 355.364C122.535 354.888 123.504 354.471 124.679 354.036C125.013 353.912 125.365 353.787 125.724 353.659C126.57 353.357 127.457 353.041 128.247 352.7C129.362 352.219 130.502 351.603 131.208 350.709C131.843 349.908 132.342 348.849 132.778 347.798C132.982 347.309 133.18 346.8 133.374 346.301C133.391 346.256 133.409 346.211 133.426 346.166C133.639 345.619 133.849 345.083 134.068 344.569C134.511 343.526 134.96 342.644 135.467 342.01C135.966 341.388 136.45 341.091 136.968 341.035C140.167 340.691 144.715 342.088 147.533 344.348C149.062 345.574 150.46 346.032 151.807 346.005C153.067 345.979 154.189 345.522 155.122 345.14L155.185 345.115C156.188 344.705 156.993 344.388 157.855 344.371C158.659 344.354 159.615 344.604 160.844 345.59Z" stroke="#E4B7FF" stroke-width="2"/>
<path d="M171.447 347.821C173.766 351.434 174.756 354.541 174.677 357.942C174.597 361.388 173.418 365.236 171.191 370.331C169.435 374.347 168.75 377.768 168.181 380.606C168.008 381.468 167.846 382.277 167.668 383.032C167.282 384.669 166.826 386.06 166.06 387.317C165.301 388.563 164.205 389.728 162.476 390.854C160.735 391.988 159.421 392.397 158.324 392.433C157.229 392.469 156.225 392.137 155.079 391.553C154.525 391.271 153.933 390.922 153.288 390.542C151.328 389.387 148.881 387.945 145.525 387.205C144.134 386.898 142.894 387.286 141.783 387.831C141.23 388.103 140.68 388.428 140.145 388.748C140.09 388.781 140.035 388.814 139.981 388.846C139.492 389.14 139.009 389.429 138.501 389.702C137.38 390.304 136.197 390.79 134.823 390.932C133.458 391.073 131.837 390.882 129.84 390.023C125.696 388.24 124.534 386.691 124.072 385.184C123.825 384.378 123.756 383.52 123.669 382.443L123.661 382.353C123.573 381.261 123.463 380.002 123.074 378.601C122.704 377.269 121.978 376.46 121.055 375.958C120.343 375.571 119.508 375.376 118.804 375.212C118.685 375.184 118.57 375.157 118.459 375.131C117.632 374.929 116.93 374.711 116.324 374.266C115.743 373.839 115.174 373.144 114.757 371.852C113.53 368.052 114.862 363.763 117.564 359.786C119.834 356.444 120.046 353.696 119.796 351.247C119.735 350.651 119.647 350.077 119.561 349.532C119.548 349.449 119.535 349.367 119.522 349.285C119.448 348.825 119.379 348.39 119.324 347.957C119.196 346.944 119.162 346.021 119.355 345.094C119.477 344.509 119.893 344.079 120.863 343.768C121.861 343.448 123.215 343.339 124.787 343.291C125.241 343.278 125.714 343.269 126.195 343.26C127.319 343.239 128.488 343.218 129.557 343.129C131.071 343.002 132.618 342.728 133.761 341.984C134.805 341.304 135.803 340.266 136.741 339.192C137.177 338.693 137.614 338.169 138.046 337.651C138.085 337.605 138.123 337.559 138.162 337.513C138.634 336.947 139.101 336.39 139.57 335.861C140.518 334.793 141.424 333.901 142.313 333.329C143.189 332.766 143.954 332.574 144.682 332.734C148.7 333.621 153.611 337.147 156.095 341.016C157.398 343.046 158.834 344.108 160.382 344.593C161.848 345.053 163.325 344.959 164.598 344.878L164.669 344.874C166.018 344.788 167.152 344.727 168.237 345.067C169.268 345.39 170.351 346.114 171.447 347.821Z" stroke="#E4B7FF" stroke-width="2"/>
<path d="M140.486 320.972C146.623 320.246 151.312 320.919 155.713 323.19C160.154 325.481 164.393 329.444 169.541 335.485C173.558 340.201 177.463 343.175 180.741 345.67C181.744 346.435 182.689 347.154 183.56 347.865C185.431 349.393 186.969 350.878 188.137 352.699C189.298 354.509 190.125 356.701 190.497 359.674C190.87 362.661 190.576 364.683 189.897 366.202C189.219 367.721 188.106 368.851 186.616 369.975C185.88 370.53 185.044 371.084 184.142 371.683C181.448 373.469 178.158 375.649 175.163 379.429C173.988 380.912 173.717 382.63 173.723 384.35C173.725 385.207 173.797 386.099 173.874 386.986C173.882 387.076 173.89 387.166 173.898 387.257C173.968 388.065 174.039 388.875 174.072 389.707C174.145 391.546 174.029 393.427 173.329 395.346C172.632 397.258 171.33 399.273 168.936 401.338C164.024 405.573 161.192 406.182 158.797 405.807C157.563 405.613 156.383 405.152 154.968 404.599C154.92 404.581 154.872 404.562 154.824 404.543C153.372 403.976 151.723 403.346 149.73 402.979C147.906 402.643 146.533 403.041 145.408 403.845C144.519 404.48 143.79 405.376 143.138 406.178C143.026 406.316 142.916 406.45 142.809 406.58C142.03 407.521 141.267 408.341 140.242 408.88C139.242 409.406 137.904 409.709 135.914 409.427C130.09 408.602 125.334 404.088 121.895 398.095C119.09 393.207 115.792 391.279 112.572 390.1C111.783 389.811 111.001 389.567 110.251 389.339C110.137 389.304 110.024 389.269 109.911 389.235C109.277 389.043 108.669 388.858 108.072 388.655C106.675 388.18 105.42 387.631 104.299 386.764C103.454 386.11 103.161 385.122 103.379 383.607C103.601 382.063 104.33 380.212 105.249 378.169C105.519 377.569 105.805 376.951 106.096 376.326C106.768 374.879 107.459 373.39 108.006 371.978C108.785 369.968 109.363 367.899 109.136 366.083C108.924 364.384 108.238 362.505 107.449 360.637C107.083 359.772 106.686 358.889 106.292 358.013C106.257 357.935 106.222 357.857 106.187 357.779C105.756 356.821 105.332 355.87 104.944 354.932C104.164 353.044 103.567 351.282 103.382 349.727C103.199 348.186 103.432 346.959 104.185 346.008C107.902 341.318 115.588 337.176 122.195 336.395C125.527 336.001 127.685 334.86 129.194 333.263C130.643 331.729 131.418 329.841 132.114 328.145L132.143 328.075C132.87 326.305 133.524 324.739 134.7 323.495C135.835 322.293 137.535 321.321 140.486 320.972Z" stroke="#E4B7FF" stroke-width="2"/>
<path d="M200.602 371.694C199.527 379.399 197.206 384.917 193.015 389.576C188.793 394.269 182.608 398.164 173.644 402.487C166.681 405.844 161.866 409.609 157.803 412.785C156.554 413.762 155.376 414.683 154.229 415.519C151.775 417.308 149.461 418.718 146.847 419.567C144.244 420.412 141.287 420.72 137.533 420.221C133.765 419.721 131.36 418.711 129.688 417.368C128.017 416.026 126.98 414.274 126.083 412.093C125.636 411.006 125.226 409.804 124.784 408.511C123.477 404.684 121.899 400.062 118.297 395.267C116.922 393.438 114.99 392.585 112.928 392.051C111.9 391.785 110.806 391.59 109.707 391.402C109.595 391.382 109.483 391.363 109.37 391.344C108.369 391.173 107.36 391 106.335 390.775C104.066 390.275 101.789 389.529 99.6477 388.044C97.5135 386.565 95.4585 384.313 93.7006 380.722C90.1132 373.394 90.2425 369.685 91.5009 366.804C92.1385 365.345 93.0874 364.041 94.2002 362.511C94.2404 362.456 94.2808 362.4 94.3213 362.344C95.4696 360.765 96.744 358.984 97.8104 356.71C98.7677 354.668 98.7184 352.949 98.1258 351.394C97.6518 350.149 96.8211 349.013 96.0555 347.966C95.9236 347.785 95.7936 347.608 95.6677 347.432C94.7722 346.186 93.9953 344.967 93.6553 343.501C93.322 342.064 93.3888 340.292 94.3805 337.928C97.2747 331.029 104.347 326.665 112.734 324.392C119.479 322.565 122.816 319.223 125.241 315.735C125.838 314.877 126.378 314.012 126.893 313.176C126.971 313.049 127.048 312.923 127.125 312.798C127.56 312.091 127.98 311.408 128.417 310.746C129.443 309.193 130.526 307.821 131.965 306.713C133.128 305.819 134.527 305.805 136.336 306.568C138.173 307.343 140.209 308.835 142.392 310.596C143.038 311.118 143.699 311.665 144.367 312.217C145.904 313.488 147.478 314.79 149.008 315.896C151.192 317.475 153.472 318.8 155.677 319.093C157.767 319.37 160.232 319.141 162.743 318.778C163.905 318.61 165.098 318.41 166.286 318.211C166.392 318.193 166.497 318.175 166.603 318.158C167.9 317.94 169.191 317.727 170.454 317.555C172.995 317.208 175.349 317.04 177.328 317.315C179.292 317.588 180.778 318.281 181.745 319.567C186.291 325.619 188.882 336.316 187.722 344.63C187.147 348.745 187.839 351.662 189.258 353.938C190.632 356.142 192.642 357.657 194.485 359.046L194.547 359.092C196.455 360.531 198.183 361.848 199.346 363.713C200.479 365.529 201.123 367.959 200.602 371.694Z" stroke="#E4B7FF" stroke-width="2"/>
<path d="M187.966 311.285C195.425 317.268 199.81 323.205 202.102 330.589C204.407 338.017 204.625 347.004 203.554 359.154C202.724 368.559 203.663 375.954 204.458 382.218C204.704 384.149 204.935 385.973 205.097 387.715C205.442 391.429 205.477 394.774 204.724 398.092C203.973 401.397 202.427 404.733 199.53 408.394C196.625 412.066 194.024 413.995 191.512 414.931C189.002 415.867 186.466 415.855 183.592 415.429C182.149 415.215 180.614 414.891 178.969 414.544C174.128 413.521 168.325 412.296 161.061 413.076C158.346 413.368 156.282 414.826 154.444 416.646C153.526 417.554 152.641 418.576 151.754 419.615C151.663 419.721 151.573 419.827 151.482 419.933C150.675 420.878 149.857 421.837 148.973 422.778C147.014 424.864 144.778 426.815 141.837 428.154C138.904 429.49 135.207 430.245 130.293 429.841C120.302 429.02 116.402 426.545 114.104 423.338C112.953 421.732 112.167 419.895 111.258 417.774C111.224 417.693 111.189 417.613 111.155 417.531C110.213 415.334 109.145 412.894 107.433 410.365C105.919 408.128 104.132 407.137 102.184 406.796C100.609 406.521 98.9275 406.679 97.3438 406.828C97.0697 406.854 96.7986 406.879 96.5315 406.902C94.654 407.063 92.8469 407.121 91.0462 406.546C89.274 405.979 87.414 404.766 85.524 402.208C80.0174 394.756 79.8755 384.493 82.75 374.212C85.0374 366.031 83.6247 360.48 81.4917 355.779C80.9654 354.619 80.3967 353.514 79.8397 352.448C79.7556 352.286 79.6718 352.126 79.5885 351.967C79.1166 351.066 78.6596 350.193 78.2352 349.314C77.2397 347.251 76.4618 345.225 76.1946 342.981C75.9687 341.082 76.9007 339.531 78.8718 338.081C80.8665 336.613 83.7406 335.397 86.962 334.204C87.9227 333.849 88.9151 333.495 89.9164 333.138C92.2145 332.319 94.5597 331.483 96.676 330.569C99.7029 329.262 102.48 327.711 104.134 325.621C105.715 323.622 107.009 320.909 108.201 318.041C108.751 316.716 109.288 315.338 109.823 313.962C109.871 313.84 109.918 313.718 109.966 313.596C110.551 312.094 111.136 310.6 111.749 309.158C112.979 306.263 114.286 303.657 115.836 301.722C117.377 299.798 119.087 298.622 121.126 298.403C130.409 297.406 143.348 301.407 151.411 307.873C155.348 311.031 158.801 312.107 162.026 312.042C165.164 311.979 167.985 310.827 170.611 309.755L170.685 309.725C173.389 308.621 175.895 307.61 178.635 307.554C181.318 307.5 184.328 308.368 187.966 311.285Z" stroke="#E4B7FF" stroke-width="2"/>
</svg>
