<svg width="23" height="16" viewBox="0 0 23 16" fill="none" xmlns="http://www.w3.org/2000/svg">
<path d="M1.52771 15.3274C0.837355 15.3274 0.27771 14.7677 0.27771 14.0774C0.27771 13.387 0.837354 12.8274 1.52771 12.8274H21.5277C22.2181 12.8274 22.7777 13.387 22.7777 14.0774C22.7777 14.7677 22.2181 15.3274 21.5277 15.3274H1.52771ZM1.52771 2.82739C0.837355 2.82739 0.27771 2.26775 0.27771 1.57739C0.27771 0.887037 0.837354 0.327393 1.52771 0.327393H21.5277C22.2181 0.327393 22.7777 0.887037 22.7777 1.57739C22.7777 2.26775 22.2181 2.82739 21.5277 2.82739H1.52771Z" fill="white"/>
<rect x="0.27771" y="6.58031" width="22.5" height="2.49416" rx="1.24708" fill="#E4B7FF"/>
</svg>
