<svg width="112" height="175" viewBox="0 0 112 175" fill="none" xmlns="http://www.w3.org/2000/svg">
<ellipse cx="103.382" cy="160.196" rx="2.14534" ry="2.15163" transform="rotate(-45 103.382 160.196)" fill="#3C3C3C"/>
<ellipse cx="106.442" cy="175.171" rx="2.14534" ry="2.15163" transform="rotate(-45 106.442 175.171)" fill="#3C3C3C"/>
<ellipse cx="82.3137" cy="139.463" rx="2.14534" ry="2.15163" transform="rotate(-45 82.3137 139.463)" fill="#3C3C3C"/>
<ellipse cx="103.262" cy="150.756" rx="2.14534" ry="2.15163" transform="rotate(-45 103.262 150.756)" fill="#3C3C3C"/>
<ellipse cx="99.0424" cy="146.509" rx="2.14534" ry="2.15163" transform="rotate(-45 99.0424 146.509)" fill="#3C3C3C"/>
<ellipse cx="106.322" cy="165.731" rx="2.14534" ry="2.15163" transform="rotate(-45 106.322 165.731)" fill="#3C3C3C"/>
<ellipse cx="98.0258" cy="173.498" rx="2.14534" ry="2.15163" transform="rotate(-45 98.0258 173.498)" fill="#3C3C3C"/>
<ellipse cx="96.034" cy="177.454" rx="2.14534" ry="2.15163" transform="rotate(-45 96.034 177.454)" fill="#3C3C3C"/>
<ellipse cx="108.144" cy="156.379" rx="2.14534" ry="2.15163" transform="rotate(-45 108.144 156.379)" fill="#3C3C3C"/>
<ellipse cx="111.205" cy="171.354" rx="2.14534" ry="2.15163" transform="rotate(-45 111.205 171.354)" fill="#3C3C3C"/>
<ellipse cx="82.4045" cy="131.803" rx="2.14534" ry="2.15163" transform="rotate(-45 82.4045 131.803)" fill="#3C3C3C"/>
<ellipse cx="103.147" cy="141.353" rx="2.14534" ry="2.15163" transform="rotate(-45 103.147 141.353)" fill="#3C3C3C"/>
<ellipse cx="95.9195" cy="168.051" rx="2.14534" ry="2.15163" transform="rotate(-45 95.9195 168.051)" fill="#3C3C3C"/>
<ellipse cx="101.052" cy="164.852" rx="2.14534" ry="2.15163" transform="rotate(-45 101.052 164.852)" fill="#3C3C3C"/>
<ellipse cx="87.4902" cy="138.124" rx="2.14534" ry="2.15163" transform="rotate(-45 87.4902 138.124)" fill="#3C3C3C"/>
<ellipse cx="108.233" cy="147.675" rx="2.14534" ry="2.15163" transform="rotate(-45 108.233 147.675)" fill="#3C3C3C"/>
<ellipse cx="108.217" cy="136.938" rx="2.14534" ry="2.15163" transform="rotate(-45 108.217 136.938)" fill="#3C3C3C"/>
<ellipse cx="111.293" cy="162.65" rx="2.14534" ry="2.15163" transform="rotate(-45 111.293 162.65)" fill="#3C3C3C"/>
<ellipse cx="102.997" cy="170.417" rx="2.14534" ry="2.15163" transform="rotate(-45 102.997 170.417)" fill="#3C3C3C"/>
<ellipse cx="112.994" cy="153.244" rx="2.14534" ry="2.15163" transform="rotate(-45 112.994 153.244)" fill="#3C3C3C"/>
<ellipse cx="87.438" cy="128.846" rx="2.14534" ry="2.15163" transform="rotate(-45 87.438 128.846)" fill="#3C3C3C"/>
<ellipse cx="92.3407" cy="135.338" rx="2.14534" ry="2.15163" transform="rotate(-45 92.3407 135.338)" fill="#3C3C3C"/>
<ellipse cx="113.083" cy="144.889" rx="2.14534" ry="2.15163" transform="rotate(-45 113.083 144.889)" fill="#3C3C3C"/>
<ellipse cx="96.9755" cy="140.798" rx="2.14534" ry="2.15163" transform="rotate(-45 96.9755 140.798)" fill="#3C3C3C"/>
<ellipse cx="55.6825" cy="89.9949" rx="2.14534" ry="2.15163" transform="rotate(-45 55.6825 89.9949)" fill="#3C3C3C"/>
<ellipse cx="62.3001" cy="94.863" rx="2.14534" ry="2.15163" transform="rotate(-45 62.3001 94.863)" fill="#3C3C3C"/>
<ellipse cx="91.9766" cy="124.244" rx="2.14534" ry="2.15163" transform="rotate(-45 91.9766 124.244)" fill="#3C3C3C"/>
<ellipse cx="96.8974" cy="130.844" rx="2.14534" ry="2.15163" transform="rotate(-45 96.8974 130.844)" fill="#3C3C3C"/>
<ellipse cx="94.285" cy="150.478" rx="2.14534" ry="2.15163" transform="rotate(-45 94.285 150.478)" fill="#3C3C3C"/>
<ellipse cx="101.531" cy="136.337" rx="2.14534" ry="2.15163" transform="rotate(-45 101.531 136.337)" fill="#3C3C3C"/>
<ellipse cx="94.3033" cy="163.034" rx="2.14534" ry="2.15163" transform="rotate(-45 94.3033 163.034)" fill="#3C3C3C"/>
<ellipse cx="98.0029" cy="157.93" rx="2.14534" ry="2.15163" transform="rotate(-45 98.0029 157.93)" fill="#3C3C3C"/>
<ellipse cx="54.2309" cy="80.8361" rx="2.14534" ry="2.15163" transform="rotate(-45 54.2309 80.8361)" fill="#3C3C3C"/>
<ellipse cx="59.9001" cy="85.4217" rx="2.14534" ry="2.15163" transform="rotate(-45 59.9001 85.4217)" fill="#3C3C3C"/>
<ellipse cx="66.8692" cy="90.3162" rx="2.14534" ry="2.15163" transform="rotate(-45 66.8692 90.3162)" fill="#3C3C3C"/>
<ellipse cx="74.4105" cy="95.8716" rx="2.14534" ry="2.15163" transform="rotate(-45 74.4105 95.8716)" fill="#3C3C3C"/>
<ellipse cx="89.3868" cy="109.696" rx="2.14534" ry="2.15163" transform="rotate(-45 89.3868 109.696)" fill="#3C3C3C"/>
<ellipse cx="95.7552" cy="117.386" rx="2.14534" ry="2.15163" transform="rotate(-45 95.7552 117.386)" fill="#3C3C3C"/>
<ellipse cx="100.992" cy="123.873" rx="2.14534" ry="2.15163" transform="rotate(-45 100.992 123.873)" fill="#3C3C3C"/>
<ellipse cx="105.752" cy="129.233" rx="2.14534" ry="2.15163" transform="rotate(-45 105.752 129.233)" fill="#3C3C3C"/>
<ellipse cx="54.6345" cy="71.7194" rx="2.14534" ry="2.15163" transform="rotate(-45 54.6345 71.7194)" fill="#3C3C3C"/>
<ellipse cx="59.0156" cy="76.283" rx="2.14534" ry="2.15163" transform="rotate(-45 59.0156 76.283)" fill="#3C3C3C"/>
<ellipse cx="64.5136" cy="80.8742" rx="2.14534" ry="2.15163" transform="rotate(-45 64.5136 80.8742)" fill="#3C3C3C"/>
<ellipse cx="71.8278" cy="85.8611" rx="2.14534" ry="2.15163" transform="rotate(-45 71.8278 85.8611)" fill="#3C3C3C"/>
<ellipse cx="79.4603" cy="91.558" rx="2.14534" ry="2.15163" transform="rotate(-45 79.4603 91.558)" fill="#3C3C3C"/>
<ellipse cx="86.1611" cy="97.4175" rx="2.14534" ry="2.15163" transform="rotate(-45 86.1611 97.4175)" fill="#3C3C3C"/>
<ellipse cx="92.4544" cy="103.447" rx="2.14534" ry="2.15163" transform="rotate(-45 92.4544 103.447)" fill="#3C3C3C"/>
<ellipse cx="98.5324" cy="109.75" rx="2.14534" ry="2.15163" transform="rotate(-45 98.5324 109.75)" fill="#3C3C3C"/>
<ellipse cx="104.161" cy="115.955" rx="2.14534" ry="2.15163" transform="rotate(-45 104.161 115.955)" fill="#3C3C3C"/>
<ellipse cx="109.057" cy="121.148" rx="2.14534" ry="2.15163" transform="rotate(-45 109.057 121.148)" fill="#3C3C3C"/>
<ellipse cx="60.2544" cy="67.2172" rx="2.14534" ry="2.15163" transform="rotate(-45 60.2544 67.2172)" fill="#3C3C3C"/>
<ellipse cx="64.3442" cy="71.7504" rx="2.14534" ry="2.15163" transform="rotate(-45 64.3442 71.7504)" fill="#3C3C3C"/>
<ellipse cx="69.5548" cy="76.3606" rx="2.14534" ry="2.15163" transform="rotate(-45 69.5548 76.3606)" fill="#3C3C3C"/>
<ellipse cx="76.3776" cy="81.3099" rx="2.14534" ry="2.15163" transform="rotate(-45 76.3776 81.3099)" fill="#3C3C3C"/>
<ellipse cx="83.3643" cy="86.7034" rx="2.14534" ry="2.15163" transform="rotate(-45 83.3643 86.7034)" fill="#3C3C3C"/>
<ellipse cx="89.3831" cy="92.0046" rx="2.14534" ry="2.15163" transform="rotate(-45 89.3831 92.0046)" fill="#3C3C3C"/>
<ellipse cx="95.0946" cy="97.3007" rx="2.14534" ry="2.15163" transform="rotate(-45 95.0946 97.3007)" fill="#3C3C3C"/>
<ellipse cx="101.063" cy="102.983" rx="2.14534" ry="2.15163" transform="rotate(-45 101.063 102.983)" fill="#3C3C3C"/>
<ellipse cx="107.024" cy="108.981" rx="2.14534" ry="2.15163" transform="rotate(-45 107.024 108.981)" fill="#3C3C3C"/>
<ellipse cx="112.214" cy="114.33" rx="2.14534" ry="2.15163" transform="rotate(-45 112.214 114.33)" fill="#3C3C3C"/>
<ellipse cx="62.9928" cy="58.5856" rx="2.14534" ry="2.15163" transform="rotate(-45 62.9928 58.5856)" fill="#3C3C3C"/>
<ellipse cx="66.4351" cy="62.8887" rx="2.14534" ry="2.15163" transform="rotate(-45 66.4351 62.8887)" fill="#3C3C3C"/>
<ellipse cx="70.5273" cy="67.37" rx="2.14534" ry="2.15163" transform="rotate(-45 70.5273 67.37)" fill="#3C3C3C"/>
<ellipse cx="75.2954" cy="71.9684" rx="2.14534" ry="2.15163" transform="rotate(-45 75.2954 71.9684)" fill="#3C3C3C"/>
<ellipse cx="80.4393" cy="76.6453" rx="2.14534" ry="2.15163" transform="rotate(-45 80.4393 76.6453)" fill="#3C3C3C"/>
<ellipse cx="85.737" cy="81.3863" rx="2.14534" ry="2.15163" transform="rotate(-45 85.737 81.3863)" fill="#3C3C3C"/>
<ellipse cx="91.1534" cy="86.206" rx="2.14534" ry="2.15163" transform="rotate(-45 91.1534 86.206)" fill="#3C3C3C"/>
<ellipse cx="96.9992" cy="91.2614" rx="2.14534" ry="2.15163" transform="rotate(-45 96.9992 91.2614)" fill="#3C3C3C"/>
<ellipse cx="103.306" cy="96.7254" rx="2.14534" ry="2.15163" transform="rotate(-45 103.306 96.7254)" fill="#3C3C3C"/>
<ellipse cx="109.661" cy="102.553" rx="2.14534" ry="2.15163" transform="rotate(-45 109.661 102.553)" fill="#3C3C3C"/>
<ellipse cx="66.3397" cy="50.8421" rx="2.14534" ry="2.15163" transform="rotate(-45 66.3397 50.8421)" fill="#3C3C3C"/>
<ellipse cx="68.9709" cy="54.5027" rx="2.14534" ry="2.15163" transform="rotate(-45 68.9709 54.5027)" fill="#3C3C3C"/>
<ellipse cx="72.4412" cy="58.6943" rx="2.14534" ry="2.15163" transform="rotate(-45 72.4412 58.6943)" fill="#3C3C3C"/>
<ellipse cx="76.5632" cy="63.134" rx="2.14534" ry="2.15163" transform="rotate(-45 76.5632 63.134)" fill="#3C3C3C"/>
<ellipse cx="80.8975" cy="67.6391" rx="2.14534" ry="2.15163" transform="rotate(-45 80.8975 67.6391)" fill="#3C3C3C"/>
<ellipse cx="84.3873" cy="71.9777" rx="2.14534" ry="2.15163" transform="rotate(-45 84.3873 71.9777)" fill="#3C3C3C"/>
<ellipse cx="88.0124" cy="76.4102" rx="2.14534" ry="2.15163" transform="rotate(-45 88.0124 76.4102)" fill="#3C3C3C"/>
<ellipse cx="92.94" cy="81.0184" rx="2.14534" ry="2.15163" transform="rotate(-45 92.94 81.0184)" fill="#3C3C3C"/>
<ellipse cx="99.0733" cy="85.8764" rx="2.14534" ry="2.15163" transform="rotate(-45 99.0733 85.8764)" fill="#3C3C3C"/>
<ellipse cx="105.742" cy="91.118" rx="2.14534" ry="2.15163" transform="rotate(-45 105.742 91.118)" fill="#3C3C3C"/>
<ellipse cx="112.372" cy="96.7093" rx="2.14534" ry="2.15163" transform="rotate(-45 112.372 96.7093)" fill="#3C3C3C"/>
<ellipse cx="69.7461" cy="44.3309" rx="2.14534" ry="2.15163" transform="rotate(-45 69.7461 44.3309)" fill="#3C3C3C"/>
<ellipse cx="71.8845" cy="46.8958" rx="2.14534" ry="2.15163" transform="rotate(-45 71.8845 46.8958)" fill="#3C3C3C"/>
<ellipse cx="74.4079" cy="50.3246" rx="2.14534" ry="2.15163" transform="rotate(-45 74.4079 50.3246)" fill="#3C3C3C"/>
<ellipse cx="77.5514" cy="54.3221" rx="2.14534" ry="2.15163" transform="rotate(-45 77.5514 54.3221)" fill="#3C3C3C"/>
<ellipse cx="81.3001" cy="58.6336" rx="2.14534" ry="2.15163" transform="rotate(-45 81.3001 58.6336)" fill="#3C3C3C"/>
<ellipse cx="85.3396" cy="63.0617" rx="2.14534" ry="2.15163" transform="rotate(-45 85.3396 63.0617)" fill="#3C3C3C"/>
<ellipse cx="88.4775" cy="67.3545" rx="2.14534" ry="2.15163" transform="rotate(-45 88.4775 67.3545)" fill="#3C3C3C"/>
<ellipse cx="91.7586" cy="71.7941" rx="2.14534" ry="2.15163" transform="rotate(-45 91.7586 71.7941)" fill="#3C3C3C"/>
<ellipse cx="96.4547" cy="76.366" rx="2.14534" ry="2.15163" transform="rotate(-45 96.4547 76.366)" fill="#3C3C3C"/>
<ellipse cx="102.482" cy="81.0945" rx="2.14534" ry="2.15163" transform="rotate(-45 102.482 81.0945)" fill="#3C3C3C"/>
<ellipse cx="109.076" cy="86.1338" rx="2.14534" ry="2.15163" transform="rotate(-45 109.076 86.1338)" fill="#3C3C3C"/>
<ellipse cx="68.2697" cy="35.2621" rx="2.14534" ry="2.15163" transform="rotate(-45 68.2697 35.2621)" fill="#3C3C3C"/>
<ellipse cx="71.638" cy="37.5905" rx="2.14534" ry="2.15163" transform="rotate(-45 71.638 37.5905)" fill="#3C3C3C"/>
<ellipse cx="74.6622" cy="40.1646" rx="2.14534" ry="2.15163" transform="rotate(-45 74.6622 40.1646)" fill="#3C3C3C"/>
<ellipse cx="77.4118" cy="43.049" rx="2.14534" ry="2.15163" transform="rotate(-45 77.4118 43.049)" fill="#3C3C3C"/>
<ellipse cx="79.951" cy="46.274" rx="2.14534" ry="2.15163" transform="rotate(-45 79.951 46.274)" fill="#3C3C3C"/>
<ellipse cx="81.9968" cy="49.7356" rx="2.14534" ry="2.15163" transform="rotate(-45 81.9968 49.7356)" fill="#3C3C3C"/>
<ellipse cx="84.4383" cy="53.7607" rx="2.14534" ry="2.15163" transform="rotate(-45 84.4383 53.7607)" fill="#3C3C3C"/>
<ellipse cx="88.1652" cy="58.2001" rx="2.14534" ry="2.15163" transform="rotate(-45 88.1652 58.2001)" fill="#3C3C3C"/>
<ellipse cx="91.8952" cy="62.6877" rx="2.14534" ry="2.15163" transform="rotate(-45 91.8952 62.6877)" fill="#3C3C3C"/>
<ellipse cx="95.8509" cy="67.2252" rx="2.14534" ry="2.15163" transform="rotate(-45 95.8509 67.2252)" fill="#3C3C3C"/>
<ellipse cx="100.672" cy="71.7978" rx="2.14534" ry="2.15163" transform="rotate(-45 100.672 71.7978)" fill="#3C3C3C"/>
<ellipse cx="106.7" cy="76.4933" rx="2.14534" ry="2.15163" transform="rotate(-45 106.7 76.4933)" fill="#3C3C3C"/>
<ellipse cx="113.186" cy="81.4542" rx="2.14534" ry="2.15163" transform="rotate(-45 113.186 81.4542)" fill="#3C3C3C"/>
<ellipse cx="72.5555" cy="30.1308" rx="2.14534" ry="2.15163" transform="rotate(-45 72.5555 30.1308)" fill="#3C3C3C"/>
<ellipse cx="75.7201" cy="32.3576" rx="2.14534" ry="2.15163" transform="rotate(-45 75.7201 32.3576)" fill="#3C3C3C"/>
<ellipse cx="78.9867" cy="35.372" rx="2.14534" ry="2.15163" transform="rotate(-45 78.9867 35.372)" fill="#3C3C3C"/>
<ellipse cx="82.2227" cy="38.7066" rx="2.14534" ry="2.15163" transform="rotate(-45 82.2227 38.7066)" fill="#3C3C3C"/>
<ellipse cx="84.7541" cy="41.8653" rx="2.14534" ry="2.15163" transform="rotate(-45 84.7541 41.8653)" fill="#3C3C3C"/>
<ellipse cx="85.7766" cy="44.9506" rx="2.14534" ry="2.15163" transform="rotate(-45 85.7766 44.9506)" fill="#3C3C3C"/>
<ellipse cx="86.9755" cy="48.99" rx="2.14534" ry="2.15163" transform="rotate(-45 86.9755 48.99)" fill="#3C3C3C"/>
<ellipse cx="90.42" cy="53.55" rx="2.14534" ry="2.15163" transform="rotate(-45 90.42 53.55)" fill="#3C3C3C"/>
<ellipse cx="94.8266" cy="58.1202" rx="2.14534" ry="2.15163" transform="rotate(-45 94.8266 58.1202)" fill="#3C3C3C"/>
<ellipse cx="99.6115" cy="62.6763" rx="2.14534" ry="2.15163" transform="rotate(-45 99.6115 62.6763)" fill="#3C3C3C"/>
<ellipse cx="104.773" cy="67.2352" rx="2.14534" ry="2.15163" transform="rotate(-45 104.773 67.2352)" fill="#3C3C3C"/>
<ellipse cx="110.974" cy="71.9065" rx="2.14534" ry="2.15163" transform="rotate(-45 110.974 71.9065)" fill="#3C3C3C"/>
<ellipse cx="82.5716" cy="29.898" rx="2.14534" ry="2.15163" transform="rotate(-45 82.5716 29.898)" fill="#3C3C3C"/>
<ellipse cx="85.6178" cy="33.2963" rx="2.14534" ry="2.15163" transform="rotate(-45 85.6178 33.2963)" fill="#3C3C3C"/>
<ellipse cx="87.9452" cy="36.6192" rx="2.14534" ry="2.15163" transform="rotate(-45 87.9452 36.6192)" fill="#3C3C3C"/>
<ellipse cx="88.8165" cy="40.0671" rx="2.14534" ry="2.15163" transform="rotate(-45 88.8165 40.0671)" fill="#3C3C3C"/>
<ellipse cx="89.9129" cy="44.459" rx="2.14534" ry="2.15163" transform="rotate(-45 89.9129 44.459)" fill="#3C3C3C"/>
<ellipse cx="93.2298" cy="49.1585" rx="2.14534" ry="2.15163" transform="rotate(-45 93.2298 49.1585)" fill="#3C3C3C"/>
<ellipse cx="97.9897" cy="53.6944" rx="2.14534" ry="2.15163" transform="rotate(-45 97.9897 53.6944)" fill="#3C3C3C"/>
<ellipse cx="103.322" cy="58.1735" rx="2.14534" ry="2.15163" transform="rotate(-45 103.322 58.1735)" fill="#3C3C3C"/>
<ellipse cx="108.79" cy="62.6882" rx="2.14534" ry="2.15163" transform="rotate(-45 108.79 62.6882)" fill="#3C3C3C"/>
<ellipse cx="114.943" cy="67.2972" rx="2.14534" ry="2.15163" transform="rotate(-45 114.943 67.2972)" fill="#3C3C3C"/>
<ellipse cx="82.7185" cy="20.9249" rx="2.14534" ry="2.15163" transform="rotate(-45 82.7185 20.9249)" fill="#3C3C3C"/>
<ellipse cx="85.2723" cy="23.9642" rx="2.14534" ry="2.15163" transform="rotate(-45 85.2723 23.9642)" fill="#3C3C3C"/>
<ellipse cx="87.6705" cy="27.3897" rx="2.14534" ry="2.15163" transform="rotate(-45 87.6705 27.3897)" fill="#3C3C3C"/>
<ellipse cx="89.7137" cy="31.1327" rx="2.14534" ry="2.15163" transform="rotate(-45 89.7137 31.1327)" fill="#3C3C3C"/>
<ellipse cx="91.2037" cy="35.3144" rx="2.14534" ry="2.15163" transform="rotate(-45 91.2037 35.3144)" fill="#3C3C3C"/>
<ellipse cx="93.0802" cy="40.0643" rx="2.14534" ry="2.15163" transform="rotate(-45 93.0802 40.0643)" fill="#3C3C3C"/>
<ellipse cx="96.5266" cy="44.8516" rx="2.14534" ry="2.15163" transform="rotate(-45 96.5266 44.8516)" fill="#3C3C3C"/>
<ellipse cx="102.271" cy="49.183" rx="2.14534" ry="2.15163" transform="rotate(-45 102.271 49.183)" fill="#3C3C3C"/>
<ellipse cx="108.697" cy="53.575" rx="2.14534" ry="2.15163" transform="rotate(-45 108.697 53.575)" fill="#3C3C3C"/>
<ellipse cx="114.206" cy="58.1406" rx="2.14534" ry="2.15163" transform="rotate(-45 114.206 58.1406)" fill="#3C3C3C"/>
<ellipse cx="82.5426" cy="14.2574" rx="2.14534" ry="2.15163" transform="rotate(-45 82.5426 14.2574)" fill="#3C3C3C"/>
<ellipse cx="84.765" cy="14.081" rx="2.14534" ry="2.15163" transform="rotate(-45 84.765 14.081)" fill="#3C3C3C"/>
<ellipse cx="86.8994" cy="16.0521" rx="2.14534" ry="2.15163" transform="rotate(-45 86.8994 16.0521)" fill="#3C3C3C"/>
<ellipse cx="89.1395" cy="19.0047" rx="2.14534" ry="2.15163" transform="rotate(-45 89.1395 19.0047)" fill="#3C3C3C"/>
<ellipse cx="91.0913" cy="22.4097" rx="2.14534" ry="2.15163" transform="rotate(-45 91.0913 22.4097)" fill="#3C3C3C"/>
<ellipse cx="92.9956" cy="26.3455" rx="2.14534" ry="2.15163" transform="rotate(-45 92.9956 26.3455)" fill="#3C3C3C"/>
<ellipse cx="95.0372" cy="30.7657" rx="2.14534" ry="2.15163" transform="rotate(-45 95.0372 30.7657)" fill="#3C3C3C"/>
<ellipse cx="97.4958" cy="35.5357" rx="2.14534" ry="2.15163" transform="rotate(-45 97.4958 35.5357)" fill="#3C3C3C"/>
<ellipse cx="100.99" cy="40.3218" rx="2.14534" ry="2.15163" transform="rotate(-45 100.99 40.3218)" fill="#3C3C3C"/>
<ellipse cx="107.384" cy="44.5555" rx="2.14534" ry="2.15163" transform="rotate(-45 107.384 44.5555)" fill="#3C3C3C"/>
<ellipse cx="114.477" cy="49.0375" rx="2.14534" ry="2.15163" transform="rotate(-45 114.477 49.0375)" fill="#3C3C3C"/>
<ellipse cx="87.4279" cy="11.1028" rx="2.14534" ry="2.15163" transform="rotate(-45 87.4279 11.1028)" fill="#3C3C3C"/>
<ellipse cx="90.5015" cy="11.4169" rx="2.14534" ry="2.15163" transform="rotate(-45 90.5015 11.4169)" fill="#3C3C3C"/>
<ellipse cx="93.2094" cy="13.2488" rx="2.14534" ry="2.15163" transform="rotate(-45 93.2094 13.2488)" fill="#3C3C3C"/>
<ellipse cx="95.6203" cy="15.7443" rx="2.14534" ry="2.15163" transform="rotate(-45 95.6203 15.7443)" fill="#3C3C3C"/>
<ellipse cx="97.5819" cy="18.6614" rx="2.14534" ry="2.15163" transform="rotate(-45 97.5819 18.6614)" fill="#3C3C3C"/>
<ellipse cx="99.5448" cy="22.2184" rx="2.14534" ry="2.15163" transform="rotate(-45 99.5448 22.2184)" fill="#3C3C3C"/>
<ellipse cx="101.75" cy="26.3119" rx="2.14534" ry="2.15163" transform="rotate(-45 101.75 26.3119)" fill="#3C3C3C"/>
<ellipse cx="104.281" cy="30.7761" rx="2.14534" ry="2.15163" transform="rotate(-45 104.281 30.7761)" fill="#3C3C3C"/>
<ellipse cx="107.496" cy="35.4258" rx="2.14534" ry="2.15163" transform="rotate(-45 107.496 35.4258)" fill="#3C3C3C"/>
<ellipse cx="113.015" cy="39.917" rx="2.14534" ry="2.15163" transform="rotate(-45 113.015 39.917)" fill="#3C3C3C"/>
<ellipse cx="100.164" cy="12.577" rx="2.14534" ry="2.15163" transform="rotate(-45 100.164 12.577)" fill="#3C3C3C"/>
<ellipse cx="103.034" cy="14.1602" rx="2.14534" ry="2.15163" transform="rotate(-45 103.034 14.1602)" fill="#3C3C3C"/>
<ellipse cx="105.115" cy="16.0665" rx="2.14534" ry="2.15163" transform="rotate(-45 105.115 16.0665)" fill="#3C3C3C"/>
<ellipse cx="107.392" cy="19.0436" rx="2.14534" ry="2.15163" transform="rotate(-45 107.392 19.0436)" fill="#3C3C3C"/>
<ellipse cx="110.29" cy="22.7972" rx="2.14534" ry="2.15163" transform="rotate(-45 110.29 22.7972)" fill="#3C3C3C"/>
<ellipse cx="113.406" cy="26.8489" rx="2.14534" ry="2.15163" transform="rotate(-45 113.406 26.8489)" fill="#3C3C3C"/>
<ellipse cx="75.7758" cy="169.477" rx="2.14534" ry="2.15163" transform="rotate(-45 75.7758 169.477)" fill="#3C3C3C"/>
<ellipse cx="55.5544" cy="167.472" rx="2.14534" ry="2.15163" transform="rotate(-45 55.5544 167.472)" fill="#3C3C3C"/>
<ellipse cx="60.9284" cy="167.48" rx="2.14534" ry="2.15163" transform="rotate(-45 60.9284 167.48)" fill="#3C3C3C"/>
<ellipse cx="46.3482" cy="165.742" rx="2.14534" ry="2.15163" transform="rotate(-45 46.3482 165.742)" fill="#3C3C3C"/>
<ellipse cx="39.4931" cy="164.565" rx="2.14534" ry="2.15163" transform="rotate(-45 39.4931 164.565)" fill="#3C3C3C"/>
<ellipse cx="31.665" cy="166.358" rx="2.14534" ry="2.15163" transform="rotate(-45 31.665 166.358)" fill="#3C3C3C"/>
<ellipse cx="80.2628" cy="164.822" rx="2.14534" ry="2.15163" transform="rotate(-45 80.2628 164.822)" fill="#3C3C3C"/>
<ellipse cx="60.0671" cy="156.97" rx="2.14534" ry="2.15163" transform="rotate(-45 60.0671 156.97)" fill="#3C3C3C"/>
<ellipse cx="80.2107" cy="155.544" rx="2.14534" ry="2.15163" transform="rotate(-45 80.2107 155.544)" fill="#3C3C3C"/>
<ellipse cx="75.6037" cy="159.266" rx="2.14534" ry="2.15163" transform="rotate(-45 75.6037 159.266)" fill="#3C3C3C"/>
<ellipse cx="74.8603" cy="151.609" rx="2.14534" ry="2.15163" transform="rotate(-45 74.8603 151.609)" fill="#3C3C3C"/>
<ellipse cx="64.9698" cy="163.462" rx="2.14534" ry="2.15163" transform="rotate(-45 64.9698 163.462)" fill="#3C3C3C"/>
<ellipse cx="51.1986" cy="162.957" rx="2.14534" ry="2.15163" transform="rotate(-45 51.1986 162.957)" fill="#3C3C3C"/>
<ellipse cx="85.1132" cy="162.036" rx="2.14534" ry="2.15163" transform="rotate(-45 85.1132 162.036)" fill="#3C3C3C"/>
<ellipse cx="69.6047" cy="168.921" rx="2.14534" ry="2.15163" transform="rotate(-45 69.6047 168.921)" fill="#3C3C3C"/>
<ellipse cx="56.9726" cy="161.221" rx="2.14534" ry="2.15163" transform="rotate(-45 56.9726 161.221)" fill="#3C3C3C"/>
<ellipse cx="89.7481" cy="167.495" rx="2.14534" ry="2.15163" transform="rotate(-45 89.7481 167.495)" fill="#3C3C3C"/>
<ellipse cx="69.5266" cy="158.968" rx="2.14534" ry="2.15163" transform="rotate(-45 69.5266 158.968)" fill="#3C3C3C"/>
<ellipse cx="89.67" cy="157.542" rx="2.14534" ry="2.15163" transform="rotate(-45 89.67 157.542)" fill="#3C3C3C"/>
<ellipse cx="74.1598" cy="164.46" rx="2.14534" ry="2.15163" transform="rotate(-45 74.1598 164.46)" fill="#3C3C3C"/>
<ellipse cx="2.14548" cy="2.1473" rx="2.14548" ry="2.1473" transform="matrix(-0.965862 0.259056 -0.258582 -0.965989 59.4579 151.367)" fill="#3C3C3C"/>
<ellipse cx="2.14548" cy="2.1473" rx="2.14548" ry="2.1473" transform="matrix(-0.965862 0.259056 -0.258582 -0.965989 57.7614 145.964)" fill="#3C3C3C"/>
<ellipse cx="2.14548" cy="2.1473" rx="2.14548" ry="2.1473" transform="matrix(-0.965862 0.259056 -0.258582 -0.965989 54.9589 157.912)" fill="#3C3C3C"/>
<ellipse cx="2.14548" cy="2.1473" rx="2.14548" ry="2.1473" transform="matrix(-0.965862 0.259056 -0.258582 -0.965989 54.0519 153.618)" fill="#3C3C3C"/>
<ellipse cx="2.14548" cy="2.1473" rx="2.14548" ry="2.1473" transform="matrix(-0.965862 0.259056 -0.258582 -0.965989 52.9547 149.636)" fill="#3C3C3C"/>
<ellipse cx="2.14548" cy="2.1473" rx="2.14548" ry="2.1473" transform="matrix(-0.965862 0.259056 -0.258582 -0.965989 51.4608 144.558)" fill="#3C3C3C"/>
<ellipse cx="2.14548" cy="2.1473" rx="2.14548" ry="2.1473" transform="matrix(-0.965862 0.259056 -0.258582 -0.965989 47.621 161.555)" fill="#3C3C3C"/>
<ellipse cx="2.14548" cy="2.1473" rx="2.14548" ry="2.1473" transform="matrix(-0.965862 0.259056 -0.258582 -0.965989 48.7969 172.504)" fill="#3C3C3C"/>
<ellipse cx="2.14548" cy="2.1473" rx="2.14548" ry="2.1473" transform="matrix(-0.965862 0.259056 -0.258582 -0.965989 46.954 156.563)" fill="#3C3C3C"/>
<ellipse cx="2.14548" cy="2.1473" rx="2.14548" ry="2.1473" transform="matrix(-0.965862 0.259056 -0.258582 -0.965989 46.5121 152.246)" fill="#3C3C3C"/>
<ellipse cx="2.14548" cy="2.1473" rx="2.14548" ry="2.1473" transform="matrix(-0.965862 0.259056 -0.258582 -0.965989 45.9083 148.319)" fill="#3C3C3C"/>
<ellipse cx="2.14548" cy="2.1473" rx="2.14548" ry="2.1473" transform="matrix(-0.965862 0.259056 -0.258582 -0.965989 44.8497 144.049)" fill="#3C3C3C"/>
<ellipse cx="2.14548" cy="2.1473" rx="2.14548" ry="2.1473" transform="matrix(-0.965862 0.259056 -0.258582 -0.965989 39.0043 160.991)" fill="#3C3C3C"/>
<ellipse cx="2.14548" cy="2.1473" rx="2.14548" ry="2.1473" transform="matrix(-0.965862 0.259056 -0.258582 -0.965989 40.1802 171.94)" fill="#3C3C3C"/>
<ellipse cx="2.14548" cy="2.1473" rx="2.14548" ry="2.1473" transform="matrix(-0.965862 0.259056 -0.258582 -0.965989 38.7401 155.967)" fill="#3C3C3C"/>
<ellipse cx="2.14548" cy="2.1473" rx="2.14548" ry="2.1473" transform="matrix(-0.965862 0.259056 -0.258582 -0.965989 38.5978 147.632)" fill="#3C3C3C"/>
<ellipse cx="2.14548" cy="2.1473" rx="2.14548" ry="2.1473" transform="matrix(-0.965862 0.259056 -0.258582 -0.965989 38.088 143.932)" fill="#3C3C3C"/>
<ellipse cx="2.14548" cy="2.1473" rx="2.14548" ry="2.1473" transform="matrix(-0.965862 0.259056 -0.258582 -0.965989 31.8085 161.959)" fill="#3C3C3C"/>
<ellipse cx="2.14548" cy="2.1473" rx="2.14548" ry="2.1473" transform="matrix(-0.965862 0.259056 -0.258582 -0.965989 31.6046 152.168)" fill="#3C3C3C"/>
<ellipse cx="2.14548" cy="2.1473" rx="2.14548" ry="2.1473" transform="matrix(-0.965862 0.259056 -0.258582 -0.965989 31.5155 147.909)" fill="#3C3C3C"/>
<ellipse cx="2.14548" cy="2.1473" rx="2.14548" ry="2.1473" transform="matrix(-0.965862 0.259056 -0.258582 -0.965989 31.2452 144.104)" fill="#3C3C3C"/>
<ellipse cx="2.14548" cy="2.1473" rx="2.14548" ry="2.1473" transform="matrix(-0.965862 0.259056 -0.258582 -0.965989 25.2675 163.416)" fill="#3C3C3C"/>
<ellipse cx="2.14548" cy="2.1473" rx="2.14548" ry="2.1473" transform="matrix(-0.965862 0.259056 -0.258582 -0.965989 24.9921 158.17)" fill="#3C3C3C"/>
<ellipse cx="2.14548" cy="2.1473" rx="2.14548" ry="2.1473" transform="matrix(-0.965862 0.259056 -0.258582 -0.965989 25.0206 153.452)" fill="#3C3C3C"/>
<ellipse cx="2.14548" cy="2.1473" rx="2.14548" ry="2.1473" transform="matrix(-0.965862 0.259056 -0.258582 -0.965989 24.921 149.05)" fill="#3C3C3C"/>
<circle cx="2.14639" cy="2.14639" r="2.14639" transform="matrix(0.70676 -0.707454 0.70676 0.707454 79.4012 150.552)" fill="#3C3C3C"/>
<circle cx="2.14639" cy="2.14639" r="2.14639" transform="matrix(0.70676 -0.707454 0.70676 0.707454 84.1627 146.73)" fill="#3C3C3C"/>
<circle cx="2.14639" cy="2.14639" r="2.14639" transform="matrix(0.70676 -0.707454 0.70676 0.707454 56.7908 174.88)" fill="#3C3C3C"/>
<circle cx="2.14639" cy="2.14639" r="2.14639" transform="matrix(0.70676 -0.707454 0.70676 0.707454 76.907 173.425)" fill="#3C3C3C"/>
<circle cx="2.14639" cy="2.14639" r="2.14639" transform="matrix(0.70676 -0.707454 0.70676 0.707454 61.6377 171.74)" fill="#3C3C3C"/>
<circle cx="2.14639" cy="2.14639" r="2.14639" transform="matrix(0.70676 -0.707454 0.70676 0.707454 47.8875 171.254)" fill="#3C3C3C"/>
<circle cx="2.14639" cy="2.14639" r="2.14639" transform="matrix(0.70676 -0.707454 0.70676 0.707454 81.7539 170.285)" fill="#3C3C3C"/>
<ellipse cx="2.14536" cy="2.14742" rx="2.14536" ry="2.14742" transform="matrix(-0.993897 0.110313 -0.1101 -0.993921 81.5717 147.489)" fill="#3C3C3C"/>
<ellipse cx="2.14536" cy="2.14742" rx="2.14536" ry="2.14742" transform="matrix(-0.993897 0.110313 -0.1101 -0.993921 75.8273 146.909)" fill="#3C3C3C"/>
<ellipse cx="2.14536" cy="2.14742" rx="2.14536" ry="2.14742" transform="matrix(-0.993897 0.110313 -0.1101 -0.993921 70.535 153.365)" fill="#3C3C3C"/>
<ellipse cx="2.14536" cy="2.14742" rx="2.14536" ry="2.14742" transform="matrix(-0.993897 0.110313 -0.1101 -0.993921 70.33 146.221)" fill="#3C3C3C"/>
<ellipse cx="2.14536" cy="2.14742" rx="2.14536" ry="2.14742" transform="matrix(-0.993897 0.110313 -0.1101 -0.993921 63.9862 146.858)" fill="#3C3C3C"/>
<circle cx="2.14639" cy="2.14639" r="2.14639" transform="matrix(0.70676 -0.707454 0.70676 0.707454 89.0096 143.59)" fill="#3C3C3C"/>
<circle cx="2.14639" cy="2.14639" r="2.14639" transform="matrix(0.70676 -0.707454 0.70676 0.707454 88.6641 174.004)" fill="#3C3C3C"/>
</svg>
