<svg width="114" height="201" viewBox="0 0 114 201" fill="none" xmlns="http://www.w3.org/2000/svg">
<ellipse cx="115.949" cy="31.1482" rx="2.05897" ry="2.05897" transform="rotate(76.3331 115.949 31.1482)" fill="#3C3C3C"/>
<ellipse cx="111.343" cy="33.2563" rx="2.05897" ry="2.05897" transform="rotate(76.3331 111.343 33.2563)" fill="#3C3C3C"/>
<ellipse cx="105.854" cy="34.9753" rx="2.05897" ry="2.05897" transform="rotate(76.3331 105.854 34.9753)" fill="#3C3C3C"/>
<ellipse cx="100.054" cy="36.5399" rx="2.05897" ry="2.05897" transform="rotate(76.3331 100.054 36.5399)" fill="#3C3C3C"/>
<ellipse cx="94.5085" cy="38.2443" rx="2.05897" ry="2.05897" transform="rotate(76.3331 94.5085 38.2443)" fill="#3C3C3C"/>
<ellipse cx="89.3025" cy="40.1536" rx="2.05897" ry="2.05897" transform="rotate(76.3331 89.3025 40.1536)" fill="#3C3C3C"/>
<ellipse cx="83.8696" cy="41.9533" rx="2.05897" ry="2.05897" transform="rotate(76.3331 83.8696 41.9533)" fill="white"/>
<ellipse cx="83.8696" cy="36.0354" rx="2.05897" ry="2.05897" transform="rotate(76.3331 83.8696 36.0354)" fill="white"/>
<ellipse cx="81.8157" cy="29.5948" rx="2.05897" ry="2.05897" transform="rotate(76.3331 81.8157 29.5948)" fill="white"/>
<ellipse cx="79.1765" cy="22.9227" rx="2.05897" ry="2.05897" transform="rotate(76.3331 79.1765 22.9227)" fill="white"/>
<ellipse cx="77.8169" cy="43.3817" rx="2.05897" ry="2.05897" transform="rotate(76.3331 77.8169 43.3817)" fill="white"/>
<ellipse cx="75.763" cy="31.0231" rx="2.05897" ry="2.05897" transform="rotate(76.3331 75.763 31.0231)" fill="white"/>
<ellipse cx="77.8169" cy="37.4638" rx="2.05897" ry="2.05897" transform="rotate(76.3331 77.8169 37.4638)" fill="white"/>
<ellipse cx="73.1238" cy="24.3511" rx="2.05897" ry="2.05897" transform="rotate(76.3331 73.1238 24.3511)" fill="white"/>
<ellipse cx="70.6366" cy="18.1043" rx="2.05897" ry="2.05897" transform="rotate(76.3331 70.6366 18.1043)" fill="white"/>
<ellipse cx="68.635" cy="31.8273" rx="2.05897" ry="2.05897" transform="rotate(76.3331 68.635 31.8273)" fill="white"/>
<ellipse cx="70.6888" cy="44.1858" rx="2.05897" ry="2.05897" transform="rotate(76.3331 70.6888 44.1858)" fill="white"/>
<ellipse cx="70.6888" cy="38.2679" rx="2.05897" ry="2.05897" transform="rotate(76.3331 70.6888 38.2679)" fill="white"/>
<ellipse cx="65.9958" cy="25.1552" rx="2.05897" ry="2.05897" transform="rotate(76.3331 65.9958 25.1552)" fill="white"/>
<ellipse cx="112.764" cy="39.2394" rx="2.05897" ry="2.05897" transform="rotate(76.3331 112.764 39.2394)" fill="#3C3C3C"/>
<ellipse cx="107.241" cy="40.9399" rx="2.05897" ry="2.05897" transform="rotate(76.3331 107.241 40.9399)" fill="#3C3C3C"/>
<ellipse cx="101.415" cy="42.4902" rx="2.05897" ry="2.05897" transform="rotate(76.3331 101.415 42.4902)" fill="#3C3C3C"/>
<ellipse cx="95.8507" cy="44.1825" rx="2.05897" ry="2.05897" transform="rotate(76.3331 95.8507 44.1825)" fill="#3C3C3C"/>
<ellipse cx="90.6357" cy="46.0823" rx="2.05897" ry="2.05897" transform="rotate(76.3331 90.6357 46.0823)" fill="#3C3C3C"/>
<ellipse cx="85.2059" cy="47.8805" rx="2.05897" ry="2.05897" transform="rotate(76.3331 85.2059 47.8805)" fill="white"/>
<ellipse cx="79.1765" cy="49.3232" rx="2.05897" ry="2.05897" transform="rotate(76.3331 79.1765 49.3232)" fill="white"/>
<ellipse cx="72.104" cy="50.1634" rx="2.05897" ry="2.05897" transform="rotate(76.3331 72.104 50.1634)" fill="white"/>
<ellipse cx="63.6607" cy="50.4046" rx="2.05897" ry="2.05897" transform="rotate(76.3331 63.6607 50.4046)" fill="#3C3C3C"/>
<ellipse cx="54.1982" cy="50.5509" rx="2.05897" ry="2.05897" transform="rotate(76.3331 54.1982 50.5509)" fill="#3C3C3C"/>
<ellipse cx="114.009" cy="45.137" rx="2.05897" ry="2.05897" transform="rotate(76.3331 114.009 45.137)" fill="#3C3C3C"/>
<ellipse cx="108.385" cy="46.7821" rx="2.05897" ry="2.05897" transform="rotate(76.3331 108.385 46.7821)" fill="#3C3C3C"/>
<ellipse cx="102.478" cy="48.2895" rx="2.05897" ry="2.05897" transform="rotate(76.3331 102.478 48.2895)" fill="#3C3C3C"/>
<ellipse cx="96.8607" cy="49.9458" rx="2.05897" ry="2.05897" transform="rotate(76.3331 96.8607 49.9458)" fill="#3C3C3C"/>
<ellipse cx="91.623" cy="51.8165" rx="2.05897" ry="2.05897" transform="rotate(76.3331 91.623 51.8165)" fill="#3C3C3C"/>
<ellipse cx="86.2131" cy="53.6132" rx="2.05897" ry="2.05897" transform="rotate(76.3331 86.2131 53.6132)" fill="white"/>
<ellipse cx="80.2657" cy="55.1046" rx="2.05897" ry="2.05897" transform="rotate(76.3331 80.2657 55.1046)" fill="white"/>
<ellipse cx="73.3646" cy="56.0562" rx="2.05897" ry="2.05897" transform="rotate(76.3331 73.3646 56.0562)" fill="white"/>
<ellipse cx="65.2074" cy="56.4459" rx="2.05897" ry="2.05897" transform="rotate(76.3331 65.2074 56.4459)" fill="#3C3C3C"/>
<ellipse cx="56.1267" cy="56.7043" rx="2.05897" ry="2.05897" transform="rotate(76.3331 56.1267 56.7043)" fill="#3C3C3C"/>
<ellipse cx="46.6561" cy="57.2247" rx="2.05897" ry="2.05897" transform="rotate(76.3331 46.6561 57.2247)" fill="#3C3C3C"/>
<ellipse cx="114.83" cy="50.8391" rx="2.05897" ry="2.05897" transform="rotate(76.3331 114.83 50.8391)" fill="#3C3C3C"/>
<ellipse cx="109.041" cy="52.3962" rx="2.05897" ry="2.05897" transform="rotate(76.3331 109.041 52.3962)" fill="#3C3C3C"/>
<ellipse cx="103" cy="53.8378" rx="2.05897" ry="2.05897" transform="rotate(76.3331 103 53.8378)" fill="#3C3C3C"/>
<ellipse cx="97.2915" cy="55.4352" rx="2.05897" ry="2.05897" transform="rotate(76.3331 97.2915 55.4352)" fill="#3C3C3C"/>
<ellipse cx="92.0267" cy="57.2572" rx="2.05897" ry="2.05897" transform="rotate(76.3331 92.0267 57.2572)" fill="#3C3C3C"/>
<ellipse cx="86.6815" cy="59.06" rx="2.05897" ry="2.05897" transform="rotate(76.3331 86.6815 59.06)" fill="white"/>
<ellipse cx="80.905" cy="60.6418" rx="2.05897" ry="2.05897" transform="rotate(76.3331 80.905 60.6418)" fill="white"/>
<ellipse cx="74.3023" cy="61.7807" rx="2.05897" ry="2.05897" transform="rotate(76.3331 74.3023 61.7807)" fill="white"/>
<ellipse cx="66.5891" cy="62.4129" rx="2.05897" ry="2.05897" transform="rotate(76.3331 66.5891 62.4129)" fill="#3C3C3C"/>
<ellipse cx="58.0677" cy="62.8706" rx="2.05897" ry="2.05897" transform="rotate(76.3331 58.0677 62.8706)" fill="#3C3C3C"/>
<ellipse cx="49.1803" cy="63.471" rx="2.05897" ry="2.05897" transform="rotate(76.3331 49.1803 63.471)" fill="#3C3C3C"/>
<ellipse cx="40.2829" cy="64.354" rx="2.05897" ry="2.05897" transform="rotate(76.3331 40.2829 64.354)" fill="#3C3C3C"/>
<ellipse cx="31.7324" cy="65.5305" rx="2.05897" ry="2.05897" transform="rotate(76.3331 31.7324 65.5305)" fill="#3C3C3C"/>
<ellipse cx="23.8769" cy="66.9123" rx="2.05897" ry="2.05897" transform="rotate(76.3331 23.8769 66.9123)" fill="#3C3C3C"/>
<ellipse cx="114.957" cy="56.2684" rx="2.05897" ry="2.05897" transform="rotate(76.3331 114.957 56.2684)" fill="#3C3C3C"/>
<ellipse cx="108.94" cy="57.7219" rx="2.05897" ry="2.05897" transform="rotate(76.3331 108.94 57.7219)" fill="#3C3C3C"/>
<ellipse cx="102.709" cy="59.0902" rx="2.05897" ry="2.05897" transform="rotate(76.3331 102.709 59.0902)" fill="#3C3C3C"/>
<ellipse cx="96.8734" cy="60.6155" rx="2.05897" ry="2.05897" transform="rotate(76.3331 96.8734 60.6155)" fill="#3C3C3C"/>
<ellipse cx="91.5838" cy="62.37" rx="2.05897" ry="2.05897" transform="rotate(76.3331 91.5838 62.37)" fill="#3C3C3C"/>
<ellipse cx="86.3764" cy="64.1827" rx="2.05897" ry="2.05897" transform="rotate(76.3331 86.3764 64.1827)" fill="white"/>
<ellipse cx="80.8923" cy="65.8862" rx="2.05897" ry="2.05897" transform="rotate(76.3331 80.8923 65.8862)" fill="white"/>
<ellipse cx="74.723" cy="67.2656" rx="2.05897" ry="2.05897" transform="rotate(76.3331 74.723 67.2656)" fill="white"/>
<ellipse cx="67.5722" cy="68.2064" rx="2.05897" ry="2.05897" transform="rotate(76.3331 67.5722 68.2064)" fill="#3C3C3C"/>
<ellipse cx="59.7002" cy="68.9336" rx="2.05897" ry="2.05897" transform="rotate(76.3331 59.7002 68.9336)" fill="#3C3C3C"/>
<ellipse cx="51.4587" cy="69.687" rx="2.05897" ry="2.05897" transform="rotate(76.3331 51.4587 69.687)" fill="#3C3C3C"/>
<ellipse cx="43.0875" cy="70.5893" rx="2.05897" ry="2.05897" transform="rotate(76.3331 43.0875 70.5893)" fill="#3C3C3C"/>
<ellipse cx="34.838" cy="71.6916" rx="2.05897" ry="2.05897" transform="rotate(76.3331 34.838 71.6916)" fill="#3C3C3C"/>
<ellipse cx="27.0077" cy="72.9795" rx="2.05897" ry="2.05897" transform="rotate(76.3331 27.0077 72.9795)" fill="#3C3C3C"/>
<ellipse cx="114.246" cy="61.4851" rx="2.05897" ry="2.05897" transform="rotate(76.3331 114.246 61.4851)" fill="#3C3C3C"/>
<ellipse cx="107.972" cy="62.8582" rx="2.05897" ry="2.05897" transform="rotate(76.3331 107.972 62.8582)" fill="#3C3C3C"/>
<ellipse cx="101.524" cy="64.1817" rx="2.05897" ry="2.05897" transform="rotate(76.3331 101.524 64.1817)" fill="#3C3C3C"/>
<ellipse cx="95.5338" cy="65.645" rx="2.05897" ry="2.05897" transform="rotate(76.3331 95.5338 65.645)" fill="#3C3C3C"/>
<ellipse cx="90.2138" cy="67.3148" rx="2.05897" ry="2.05897" transform="rotate(76.3331 90.2138 67.3148)" fill="white"/>
<ellipse cx="85.1985" cy="69.1086" rx="2.05897" ry="2.05897" transform="rotate(76.3331 85.1985 69.1086)" fill="white"/>
<ellipse cx="80.0984" cy="70.9056" rx="2.05897" ry="2.05897" transform="rotate(76.3331 80.0984 70.9056)" fill="white"/>
<ellipse cx="74.4559" cy="72.5084" rx="2.05897" ry="2.05897" transform="rotate(76.3331 74.4559 72.5084)" fill="#3C3C3C"/>
<ellipse cx="67.9278" cy="73.76" rx="2.05897" ry="2.05897" transform="rotate(76.3331 67.9278 73.76)" fill="#3C3C3C"/>
<ellipse cx="60.7178" cy="74.7818" rx="2.05897" ry="2.05897" transform="rotate(76.3331 60.7178 74.7818)" fill="#3C3C3C"/>
<ellipse cx="53.0954" cy="75.7385" rx="2.05897" ry="2.05897" transform="rotate(76.3331 53.0954 75.7385)" fill="#3C3C3C"/>
<ellipse cx="45.2124" cy="76.7288" rx="2.05897" ry="2.05897" transform="rotate(76.3331 45.2124 76.7288)" fill="#3C3C3C"/>
<ellipse cx="37.2386" cy="77.8235" rx="2.05897" ry="2.05897" transform="rotate(76.3331 37.2386 77.8235)" fill="#3C3C3C"/>
<ellipse cx="29.4198" cy="79.0577" rx="2.05897" ry="2.05897" transform="rotate(76.3331 29.4198 79.0577)" fill="#3C3C3C"/>
<ellipse cx="112.801" cy="66.7001" rx="2.05897" ry="2.05897" transform="rotate(76.3331 112.801 66.7001)" fill="#3C3C3C"/>
<ellipse cx="106.508" cy="68.0969" rx="2.05897" ry="2.05897" transform="rotate(76.3331 106.508 68.0969)" fill="#3C3C3C"/>
<ellipse cx="100.073" cy="69.468" rx="2.05897" ry="2.05897" transform="rotate(76.3331 100.073 69.468)" fill="#3C3C3C"/>
<ellipse cx="94.0382" cy="70.9207" rx="2.05897" ry="2.05897" transform="rotate(76.3331 94.0382 70.9207)" fill="white"/>
<ellipse cx="88.6029" cy="72.4967" rx="2.05897" ry="2.05897" transform="rotate(76.3331 88.6029 72.4967)" fill="white"/>
<ellipse cx="83.5157" cy="74.1667" rx="2.05897" ry="2.05897" transform="rotate(76.3331 83.5157 74.1667)" fill="white"/>
<ellipse cx="78.471" cy="75.8768" rx="2.05897" ry="2.05897" transform="rotate(76.3331 78.471 75.8768)" fill="#3C3C3C"/>
<ellipse cx="73.097" cy="77.518" rx="2.05897" ry="2.05897" transform="rotate(76.3331 73.097 77.518)" fill="#3C3C3C"/>
<ellipse cx="67.0938" cy="78.9773" rx="2.05897" ry="2.05897" transform="rotate(76.3331 67.0938 78.9773)" fill="#3C3C3C"/>
<ellipse cx="60.5421" cy="80.2768" rx="2.05897" ry="2.05897" transform="rotate(76.3331 60.5421 80.2768)" fill="#3C3C3C"/>
<ellipse cx="53.5658" cy="81.479" rx="2.05897" ry="2.05897" transform="rotate(76.3331 53.5658 81.479)" fill="#3C3C3C"/>
<ellipse cx="46.2085" cy="82.6337" rx="2.05897" ry="2.05897" transform="rotate(76.3331 46.2085 82.6337)" fill="#3C3C3C"/>
<ellipse cx="38.5361" cy="83.8012" rx="2.05897" ry="2.05897" transform="rotate(76.3331 38.5361 83.8012)" fill="#3C3C3C"/>
<ellipse cx="30.7068" cy="85.0439" rx="2.05897" ry="2.05897" transform="rotate(76.3331 30.7068 85.0439)" fill="#3C3C3C"/>
<ellipse cx="111.037" cy="72.1599" rx="2.05897" ry="2.05897" transform="rotate(76.3331 111.037 72.1599)" fill="#3C3C3C"/>
<ellipse cx="104.95" cy="73.6097" rx="2.05897" ry="2.05897" transform="rotate(76.3331 104.95 73.6097)" fill="#3C3C3C"/>
<ellipse cx="98.7405" cy="75.0462" rx="2.05897" ry="2.05897" transform="rotate(76.3331 98.7405 75.0462)" fill="white"/>
<ellipse cx="92.758" cy="76.5076" rx="2.05897" ry="2.05897" transform="rotate(76.3331 92.758 76.5076)" fill="white"/>
<ellipse cx="87.1245" cy="78.0089" rx="2.05897" ry="2.05897" transform="rotate(76.3331 87.1245 78.0089)" fill="white"/>
<ellipse cx="81.6888" cy="79.5411" rx="2.05897" ry="2.05897" transform="rotate(76.3331 81.6888 79.5411)" fill="#3C3C3C"/>
<ellipse cx="76.332" cy="81.096" rx="2.05897" ry="2.05897" transform="rotate(76.3331 76.332 81.096)" fill="#3C3C3C"/>
<ellipse cx="70.9066" cy="82.652" rx="2.05897" ry="2.05897" transform="rotate(76.3331 70.9066 82.652)" fill="#3C3C3C"/>
<ellipse cx="65.2619" cy="84.1768" rx="2.05897" ry="2.05897" transform="rotate(76.3331 65.2619 84.1768)" fill="#3C3C3C"/>
<ellipse cx="59.3023" cy="85.6442" rx="2.05897" ry="2.05897" transform="rotate(76.3331 59.3023 85.6442)" fill="#3C3C3C"/>
<ellipse cx="52.9452" cy="87.0382" rx="2.05897" ry="2.05897" transform="rotate(76.3331 52.9452 87.0382)" fill="#3C3C3C"/>
<ellipse cx="46.1087" cy="88.3602" rx="2.05897" ry="2.05897" transform="rotate(76.3331 46.1087 88.3602)" fill="#3C3C3C"/>
<ellipse cx="38.7383" cy="89.6426" rx="2.05897" ry="2.05897" transform="rotate(76.3331 38.7383 89.6426)" fill="#3C3C3C"/>
<ellipse cx="30.8838" cy="90.9569" rx="2.05897" ry="2.05897" transform="rotate(76.3331 30.8838 90.9569)" fill="#3C3C3C"/>
<ellipse cx="115.157" cy="76.4895" rx="2.05897" ry="2.05897" transform="rotate(76.3331 115.157 76.4895)" fill="#3C3C3C"/>
<ellipse cx="109.571" cy="77.9564" rx="2.05897" ry="2.05897" transform="rotate(76.3331 109.571 77.9564)" fill="#3C3C3C"/>
<ellipse cx="103.716" cy="79.4198" rx="2.05897" ry="2.05897" transform="rotate(76.3331 103.716 79.4198)" fill="#3C3C3C"/>
<ellipse cx="97.7447" cy="80.8801" rx="2.05897" ry="2.05897" transform="rotate(76.3331 97.7447 80.8801)" fill="white"/>
<ellipse cx="91.8122" cy="82.3418" rx="2.05897" ry="2.05897" transform="rotate(76.3331 91.8122 82.3418)" fill="white"/>
<ellipse cx="85.948" cy="83.806" rx="2.05897" ry="2.05897" transform="rotate(76.3331 85.948 83.806)" fill="white"/>
<ellipse cx="80.0724" cy="85.2703" rx="2.05897" ry="2.05897" transform="rotate(76.3331 80.0724 85.2703)" fill="#3C3C3C"/>
<ellipse cx="74.2589" cy="86.738" rx="2.05897" ry="2.05897" transform="rotate(76.3331 74.2589 86.738)" fill="#3C3C3C"/>
<ellipse cx="68.6039" cy="88.2152" rx="2.05897" ry="2.05897" transform="rotate(76.3331 68.6039 88.2152)" fill="#3C3C3C"/>
<ellipse cx="63.1312" cy="89.7094" rx="2.05897" ry="2.05897" transform="rotate(76.3331 63.1312 89.7094)" fill="#3C3C3C"/>
<ellipse cx="57.5868" cy="91.2059" rx="2.05897" ry="2.05897" transform="rotate(76.3331 57.5868 91.2059)" fill="#3C3C3C"/>
<ellipse cx="51.6937" cy="92.6753" rx="2.05897" ry="2.05897" transform="rotate(76.3331 51.6937 92.6753)" fill="#3C3C3C"/>
<ellipse cx="45.2605" cy="94.0983" rx="2.05897" ry="2.05897" transform="rotate(76.3331 45.2605 94.0983)" fill="#3C3C3C"/>
<ellipse cx="38.1279" cy="95.4894" rx="2.05897" ry="2.05897" transform="rotate(76.3331 38.1279 95.4894)" fill="#3C3C3C"/>
<ellipse cx="30.2535" cy="96.9237" rx="2.05897" ry="2.05897" transform="rotate(76.3331 30.2535 96.9237)" fill="#3C3C3C"/>
<ellipse cx="114.6" cy="82.5316" rx="2.05897" ry="2.05897" transform="rotate(76.3331 114.6 82.5316)" fill="#3C3C3C"/>
<ellipse cx="108.966" cy="83.9743" rx="2.05897" ry="2.05897" transform="rotate(76.3331 108.966 83.9743)" fill="#3C3C3C"/>
<ellipse cx="103.165" cy="85.4263" rx="2.05897" ry="2.05897" transform="rotate(76.3331 103.165 85.4263)" fill="#3C3C3C"/>
<ellipse cx="97.2435" cy="86.8832" rx="2.05897" ry="2.05897" transform="rotate(76.3331 97.2435 86.8832)" fill="white"/>
<ellipse cx="91.2551" cy="88.3422" rx="2.05897" ry="2.05897" transform="rotate(76.3331 91.2551 88.3422)" fill="white"/>
<ellipse cx="85.1809" cy="89.8039" rx="2.05897" ry="2.05897" transform="rotate(76.3331 85.1809 89.8039)" fill="white"/>
<ellipse cx="78.9756" cy="91.2707" rx="2.05897" ry="2.05897" transform="rotate(76.3331 78.9756 91.2707)" fill="#3C3C3C"/>
<ellipse cx="72.8182" cy="92.7368" rx="2.05897" ry="2.05897" transform="rotate(76.3331 72.8182 92.7368)" fill="#3C3C3C"/>
<ellipse cx="66.9385" cy="94.1909" rx="2.05897" ry="2.05897" transform="rotate(76.3331 66.9385 94.1909)" fill="#3C3C3C"/>
<ellipse cx="61.4605" cy="95.6336" rx="2.05897" ry="2.05897" transform="rotate(76.3331 61.4605 95.6336)" fill="#3C3C3C"/>
<ellipse cx="56.0544" cy="97.0844" rx="2.05897" ry="2.05897" transform="rotate(76.3331 56.0544 97.0844)" fill="#3C3C3C"/>
<ellipse cx="50.3441" cy="98.5436" rx="2.05897" ry="2.05897" transform="rotate(76.3331 50.3441 98.5436)" fill="#3C3C3C"/>
<ellipse cx="44.0834" cy="100.003" rx="2.05897" ry="2.05897" transform="rotate(76.3331 44.0834 100.003)" fill="#3C3C3C"/>
<ellipse cx="37.061" cy="101.483" rx="2.05897" ry="2.05897" transform="rotate(76.3331 37.061 101.483)" fill="#3C3C3C"/>
<ellipse cx="29.1909" cy="103.065" rx="2.05897" ry="2.05897" transform="rotate(76.3331 29.1909 103.065)" fill="#3C3C3C"/>
<ellipse cx="115.555" cy="88.5634" rx="2.05897" ry="2.05897" transform="rotate(76.3331 115.555 88.5634)" fill="#3C3C3C"/>
<ellipse cx="109.671" cy="90.0153" rx="2.05897" ry="2.05897" transform="rotate(76.3331 109.671 90.0153)" fill="#3C3C3C"/>
<ellipse cx="103.531" cy="91.4838" rx="2.05897" ry="2.05897" transform="rotate(76.3331 103.531 91.4838)" fill="#3C3C3C"/>
<ellipse cx="97.2682" cy="92.9619" rx="2.05897" ry="2.05897" transform="rotate(76.3331 97.2682 92.9619)" fill="white"/>
<ellipse cx="91.0165" cy="94.4413" rx="2.05897" ry="2.05897" transform="rotate(76.3331 91.0165 94.4413)" fill="white"/>
<ellipse cx="84.7735" cy="95.9219" rx="2.05897" ry="2.05897" transform="rotate(76.3331 84.7735 95.9219)" fill="white"/>
<ellipse cx="78.4299" cy="97.4143" rx="2.05897" ry="2.05897" transform="rotate(76.3331 78.4299 97.4143)" fill="#3C3C3C"/>
<ellipse cx="72.1517" cy="98.9032" rx="2.05897" ry="2.05897" transform="rotate(76.3331 72.1517 98.9032)" fill="#3C3C3C"/>
<ellipse cx="66.1544" cy="100.362" rx="2.05897" ry="2.05897" transform="rotate(76.3331 66.1544 100.362)" fill="#3C3C3C"/>
<ellipse cx="60.5521" cy="101.78" rx="2.05897" ry="2.05897" transform="rotate(76.3331 60.5521 101.78)" fill="#3C3C3C"/>
<ellipse cx="55.0659" cy="103.193" rx="2.05897" ry="2.05897" transform="rotate(76.3331 55.0659 103.193)" fill="#3C3C3C"/>
<ellipse cx="49.3438" cy="104.631" rx="2.05897" ry="2.05897" transform="rotate(76.3331 49.3438 104.631)" fill="#3C3C3C"/>
<ellipse cx="43.1108" cy="106.108" rx="2.05897" ry="2.05897" transform="rotate(76.3331 43.1108 106.108)" fill="#3C3C3C"/>
<ellipse cx="36.1261" cy="107.662" rx="2.05897" ry="2.05897" transform="rotate(76.3331 36.1261 107.662)" fill="#3C3C3C"/>
<ellipse cx="28.2833" cy="109.38" rx="2.05897" ry="2.05897" transform="rotate(76.3331 28.2833 109.38)" fill="#3C3C3C"/>
<ellipse cx="111.919" cy="95.9768" rx="2.05897" ry="2.05897" transform="rotate(76.3331 111.919 95.9768)" fill="#3C3C3C"/>
<ellipse cx="104.873" cy="97.4939" rx="2.05897" ry="2.05897" transform="rotate(76.3331 104.873 97.4939)" fill="#3C3C3C"/>
<ellipse cx="97.722" cy="99.0564" rx="2.05897" ry="2.05897" transform="rotate(76.3331 97.722 99.0564)" fill="white"/>
<ellipse cx="90.9247" cy="100.611" rx="2.05897" ry="2.05897" transform="rotate(76.3331 90.9247 100.611)" fill="white"/>
<ellipse cx="84.5351" cy="102.125" rx="2.05897" ry="2.05897" transform="rotate(76.3331 84.5351 102.125)" fill="white"/>
<ellipse cx="78.1665" cy="103.64" rx="2.05897" ry="2.05897" transform="rotate(76.3331 78.1665 103.64)" fill="#3C3C3C"/>
<ellipse cx="71.9044" cy="105.141" rx="2.05897" ry="2.05897" transform="rotate(76.3331 71.9044 105.141)" fill="#3C3C3C"/>
<ellipse cx="65.8755" cy="106.605" rx="2.05897" ry="2.05897" transform="rotate(76.3331 65.8755 106.605)" fill="#3C3C3C"/>
<ellipse cx="60.1283" cy="108.023" rx="2.05897" ry="2.05897" transform="rotate(76.3331 60.1283 108.023)" fill="#3C3C3C"/>
<ellipse cx="54.5825" cy="109.414" rx="2.05897" ry="2.05897" transform="rotate(76.3331 54.5825 109.414)" fill="#3C3C3C"/>
<ellipse cx="48.9806" cy="110.818" rx="2.05897" ry="2.05897" transform="rotate(76.3331 48.9806 110.818)" fill="#3C3C3C"/>
<ellipse cx="42.9435" cy="112.282" rx="2.05897" ry="2.05897" transform="rotate(76.3331 42.9435 112.282)" fill="#3C3C3C"/>
<ellipse cx="36.1106" cy="113.863" rx="2.05897" ry="2.05897" transform="rotate(76.3331 36.1106 113.863)" fill="#3C3C3C"/>
<ellipse cx="28.2884" cy="115.665" rx="2.05897" ry="2.05897" transform="rotate(76.3331 28.2884 115.665)" fill="#3C3C3C"/>
<ellipse cx="115.069" cy="101.958" rx="2.05897" ry="2.05897" transform="rotate(76.3331 115.069 101.958)" fill="#3C3C3C"/>
<ellipse cx="106.87" cy="103.462" rx="2.05897" ry="2.05897" transform="rotate(76.3331 106.87 103.462)" fill="#3C3C3C"/>
<ellipse cx="98.5967" cy="105.127" rx="2.05897" ry="2.05897" transform="rotate(76.3331 98.5967 105.127)" fill="white"/>
<ellipse cx="91.1413" cy="106.803" rx="2.05897" ry="2.05897" transform="rotate(76.3331 91.1413 106.803)" fill="white"/>
<ellipse cx="84.6205" cy="108.357" rx="2.05897" ry="2.05897" transform="rotate(76.3331 84.6205 108.357)" fill="white"/>
<ellipse cx="78.2688" cy="109.885" rx="2.05897" ry="2.05897" transform="rotate(76.3331 78.2688 109.885)" fill="#3C3C3C"/>
<ellipse cx="72.0663" cy="111.385" rx="2.05897" ry="2.05897" transform="rotate(76.3331 72.0663 111.385)" fill="#3C3C3C"/>
<ellipse cx="66.0228" cy="112.854" rx="2.05897" ry="2.05897" transform="rotate(76.3331 66.0228 112.854)" fill="#3C3C3C"/>
<ellipse cx="60.1036" cy="114.296" rx="2.05897" ry="2.05897" transform="rotate(76.3331 60.1036 114.296)" fill="#3C3C3C"/>
<ellipse cx="54.4891" cy="115.678" rx="2.05897" ry="2.05897" transform="rotate(76.3331 54.4891 115.678)" fill="#3C3C3C"/>
<ellipse cx="49.0489" cy="117.033" rx="2.05897" ry="2.05897" transform="rotate(76.3331 49.0489 117.033)" fill="#3C3C3C"/>
<ellipse cx="43.2684" cy="118.455" rx="2.05897" ry="2.05897" transform="rotate(76.3331 43.2684 118.455)" fill="#3C3C3C"/>
<ellipse cx="36.6299" cy="120.028" rx="2.05897" ry="2.05897" transform="rotate(76.3331 36.6299 120.028)" fill="#3C3C3C"/>
<ellipse cx="28.8221" cy="121.883" rx="2.05897" ry="2.05897" transform="rotate(76.3331 28.8221 121.883)" fill="#3C3C3C"/>
<ellipse cx="109.051" cy="109.433" rx="2.05897" ry="2.05897" transform="rotate(76.3331 109.051 109.433)" fill="#3C3C3C"/>
<ellipse cx="99.8518" cy="111.155" rx="2.05897" ry="2.05897" transform="rotate(76.3331 99.8518 111.155)" fill="white"/>
<ellipse cx="91.8509" cy="112.944" rx="2.05897" ry="2.05897" transform="rotate(76.3331 91.8509 112.944)" fill="white"/>
<ellipse cx="85.2035" cy="114.538" rx="2.05897" ry="2.05897" transform="rotate(76.3331 85.2035 114.538)" fill="white"/>
<ellipse cx="78.8222" cy="116.083" rx="2.05897" ry="2.05897" transform="rotate(76.3331 78.8222 116.083)" fill="#3C3C3C"/>
<ellipse cx="72.6067" cy="117.593" rx="2.05897" ry="2.05897" transform="rotate(76.3331 72.6067 117.593)" fill="#3C3C3C"/>
<ellipse cx="66.4792" cy="119.082" rx="2.05897" ry="2.05897" transform="rotate(76.3331 66.4792 119.082)" fill="#3C3C3C"/>
<ellipse cx="60.3467" cy="120.574" rx="2.05897" ry="2.05897" transform="rotate(76.3331 60.3467 120.574)" fill="#3C3C3C"/>
<ellipse cx="54.6034" cy="121.971" rx="2.05897" ry="2.05897" transform="rotate(76.3331 54.6034 121.971)" fill="#3C3C3C"/>
<ellipse cx="49.2271" cy="123.287" rx="2.05897" ry="2.05897" transform="rotate(76.3331 49.2271 123.287)" fill="white"/>
<ellipse cx="43.6058" cy="124.666" rx="2.05897" ry="2.05897" transform="rotate(76.3331 43.6058 124.666)" fill="#3C3C3C"/>
<ellipse cx="37.1021" cy="126.233" rx="2.05897" ry="2.05897" transform="rotate(76.3331 37.1021 126.233)" fill="#3C3C3C"/>
<ellipse cx="29.3141" cy="128.143" rx="2.05897" ry="2.05897" transform="rotate(76.3331 29.3141 128.143)" fill="#3C3C3C"/>
<ellipse cx="110.968" cy="115.423" rx="2.05897" ry="2.05897" transform="rotate(76.3331 110.968 115.423)" fill="#3C3C3C"/>
<ellipse cx="101.39" cy="117.147" rx="2.05897" ry="2.05897" transform="rotate(76.3331 101.39 117.147)" fill="white"/>
<ellipse cx="93.1351" cy="118.982" rx="2.05897" ry="2.05897" transform="rotate(76.3331 93.1351 118.982)" fill="white"/>
<ellipse cx="86.3578" cy="120.608" rx="2.05897" ry="2.05897" transform="rotate(76.3331 86.3578 120.608)" fill="white"/>
<ellipse cx="79.8365" cy="122.192" rx="2.05897" ry="2.05897" transform="rotate(76.3331 79.8365 122.192)" fill="#3C3C3C"/>
<ellipse cx="73.4514" cy="123.748" rx="2.05897" ry="2.05897" transform="rotate(76.3331 73.4514 123.748)" fill="#3C3C3C"/>
<ellipse cx="67.1117" cy="125.297" rx="2.05897" ry="2.05897" transform="rotate(76.3331 67.1117 125.297)" fill="#3C3C3C"/>
<ellipse cx="54.7575" cy="128.313" rx="2.05897" ry="2.05897" transform="rotate(76.3331 54.7575 128.313)" fill="white"/>
<ellipse cx="49.2463" cy="129.638" rx="2.05897" ry="2.05897" transform="rotate(76.3331 49.2463 129.638)" fill="white"/>
<ellipse cx="43.5663" cy="131.013" rx="2.05897" ry="2.05897" transform="rotate(76.3331 43.5663 131.013)" fill="white"/>
<ellipse cx="37.0617" cy="132.605" rx="2.05897" ry="2.05897" transform="rotate(76.3331 37.0617 132.605)" fill="#3C3C3C"/>
<ellipse cx="29.311" cy="134.596" rx="2.05897" ry="2.05897" transform="rotate(76.3331 29.311 134.596)" fill="#3C3C3C"/>
<ellipse cx="112.211" cy="121.43" rx="2.05897" ry="2.05897" transform="rotate(76.3331 112.211 121.43)" fill="#3C3C3C"/>
<ellipse cx="103.082" cy="123.119" rx="2.05897" ry="2.05897" transform="rotate(76.3331 103.082 123.119)" fill="white"/>
<ellipse cx="95.0118" cy="124.901" rx="2.05897" ry="2.05897" transform="rotate(76.3331 95.0118 124.901)" fill="white"/>
<ellipse cx="88.13" cy="126.541" rx="2.05897" ry="2.05897" transform="rotate(76.3331 88.13 126.541)" fill="white"/>
<ellipse cx="81.4372" cy="128.159" rx="2.05897" ry="2.05897" transform="rotate(76.3331 81.4372 128.159)" fill="#3C3C3C"/>
<ellipse cx="74.8354" cy="129.77" rx="2.05897" ry="2.05897" transform="rotate(76.3331 74.8354 129.77)" fill="#3C3C3C"/>
<ellipse cx="68.2494" cy="131.389" rx="2.05897" ry="2.05897" transform="rotate(76.3331 68.2494 131.389)" fill="#3C3C3C"/>
<ellipse cx="61.6045" cy="133.037" rx="2.05897" ry="2.05897" transform="rotate(76.3331 61.6045 133.037)" fill="#3C3C3C"/>
<ellipse cx="55.3186" cy="134.585" rx="2.05897" ry="2.05897" transform="rotate(76.3331 55.3186 134.585)" fill="white"/>
<ellipse cx="49.4254" cy="136.01" rx="2.05897" ry="2.05897" transform="rotate(76.3331 49.4254 136.01)" fill="white"/>
<ellipse cx="43.4078" cy="137.474" rx="2.05897" ry="2.05897" transform="rotate(76.3331 43.4078 137.474)" fill="white"/>
<ellipse cx="36.7253" cy="139.155" rx="2.05897" ry="2.05897" transform="rotate(76.3331 36.7253 139.155)" fill="#3C3C3C"/>
<ellipse cx="29.0467" cy="141.231" rx="2.05897" ry="2.05897" transform="rotate(76.3331 29.0467 141.231)" fill="#3C3C3C"/>
<ellipse cx="52.4068" cy="194.481" rx="2.05897" ry="2.05897" transform="rotate(-103.276 52.4068 194.481)" fill="#3C3C3C"/>
<ellipse cx="56.147" cy="192.164" rx="2.05897" ry="2.05897" transform="rotate(-103.276 56.147 192.164)" fill="#3C3C3C"/>
<ellipse cx="60.9283" cy="190.172" rx="2.05897" ry="2.05897" transform="rotate(-103.276 60.9283 190.172)" fill="#3C3C3C"/>
<ellipse cx="66.5638" cy="188.565" rx="2.05897" ry="2.05897" transform="rotate(-103.276 66.5638 188.565)" fill="#3C3C3C"/>
<ellipse cx="72.4803" cy="187.098" rx="2.05897" ry="2.05897" transform="rotate(-103.276 72.4803 187.098)" fill="#3C3C3C"/>
<ellipse cx="78.1092" cy="185.48" rx="2.05897" ry="2.05897" transform="rotate(-103.276 78.1092 185.48)" fill="#3C3C3C"/>
<ellipse cx="83.3597" cy="183.645" rx="2.05897" ry="2.05897" transform="rotate(-103.276 83.3597 183.645)" fill="#3C3C3C"/>
<ellipse cx="88.7816" cy="181.886" rx="2.05897" ry="2.05897" transform="rotate(-103.276 88.7816 181.886)" fill="#3C3C3C"/>
<ellipse cx="94.7391" cy="180.435" rx="2.05897" ry="2.05897" transform="rotate(-103.276 94.7391 180.435)" fill="#3C3C3C"/>
<ellipse cx="36.504" cy="195.95" rx="2.05897" ry="2.05897" transform="rotate(-103.276 36.504 195.95)" fill="#3C3C3C"/>
<ellipse cx="41.6404" cy="194.489" rx="2.05897" ry="2.05897" transform="rotate(-103.276 41.6404 194.489)" fill="#3C3C3C"/>
<ellipse cx="45.3055" cy="192.839" rx="2.05897" ry="2.05897" transform="rotate(-103.276 45.3055 192.839)" fill="#3C3C3C"/>
<ellipse cx="48.2351" cy="190.846" rx="2.05897" ry="2.05897" transform="rotate(-103.276 48.2351 190.846)" fill="#3C3C3C"/>
<ellipse cx="51.3088" cy="188.581" rx="2.05897" ry="2.05897" transform="rotate(-103.276 51.3088 188.581)" fill="#3C3C3C"/>
<ellipse cx="55.1782" cy="186.346" rx="2.05897" ry="2.05897" transform="rotate(-103.276 55.1782 186.346)" fill="#3C3C3C"/>
<ellipse cx="60.1461" cy="184.464" rx="2.05897" ry="2.05897" transform="rotate(-103.276 60.1461 184.464)" fill="#3C3C3C"/>
<ellipse cx="65.9464" cy="182.947" rx="2.05897" ry="2.05897" transform="rotate(-103.276 65.9464 182.947)" fill="#3C3C3C"/>
<ellipse cx="71.9969" cy="181.547" rx="2.05897" ry="2.05897" transform="rotate(-103.276 71.9969 181.547)" fill="#3C3C3C"/>
<ellipse cx="77.7159" cy="179.988" rx="2.05897" ry="2.05897" transform="rotate(-103.276 77.7159 179.988)" fill="#3C3C3C"/>
<ellipse cx="82.993" cy="178.202" rx="2.05897" ry="2.05897" transform="rotate(-103.276 82.993 178.202)" fill="#3C3C3C"/>
<ellipse cx="88.3504" cy="176.436" rx="2.05897" ry="2.05897" transform="rotate(-103.276 88.3504 176.436)" fill="#3C3C3C"/>
<ellipse cx="94.1374" cy="174.893" rx="2.05897" ry="2.05897" transform="rotate(-103.276 94.1374 174.893)" fill="#3C3C3C"/>
<ellipse cx="100.748" cy="173.8" rx="2.05897" ry="2.05897" transform="rotate(-103.276 100.748 173.8)" fill="#3C3C3C"/>
<ellipse cx="108.465" cy="173.22" rx="2.05897" ry="2.05897" transform="rotate(-103.276 108.465 173.22)" fill="#3C3C3C"/>
<ellipse cx="36.4972" cy="189.956" rx="2.05897" ry="2.05897" transform="rotate(-103.276 36.4972 189.956)" fill="#3C3C3C"/>
<ellipse cx="41.5484" cy="188.532" rx="2.05897" ry="2.05897" transform="rotate(-103.276 41.5484 188.532)" fill="#3C3C3C"/>
<ellipse cx="45.0083" cy="186.959" rx="2.05897" ry="2.05897" transform="rotate(-103.276 45.0083 186.959)" fill="#3C3C3C"/>
<ellipse cx="47.743" cy="185.04" rx="2.05897" ry="2.05897" transform="rotate(-103.276 47.743 185.04)" fill="#3C3C3C"/>
<ellipse cx="50.7825" cy="182.858" rx="2.05897" ry="2.05897" transform="rotate(-103.276 50.7825 182.858)" fill="#3C3C3C"/>
<ellipse cx="54.8467" cy="180.77" rx="2.05897" ry="2.05897" transform="rotate(-103.276 54.8467 180.77)" fill="#3C3C3C"/>
<ellipse cx="60.0563" cy="179.034" rx="2.05897" ry="2.05897" transform="rotate(-103.276 60.0563 179.034)" fill="white"/>
<ellipse cx="66.083" cy="177.622" rx="2.05897" ry="2.05897" transform="rotate(-103.276 66.083 177.622)" fill="white"/>
<ellipse cx="72.3231" cy="176.296" rx="2.05897" ry="2.05897" transform="rotate(-103.276 72.3231 176.296)" fill="#3C3C3C"/>
<ellipse cx="78.1693" cy="174.811" rx="2.05897" ry="2.05897" transform="rotate(-103.276 78.1693 174.811)" fill="#3C3C3C"/>
<ellipse cx="83.4708" cy="173.092" rx="2.05897" ry="2.05897" transform="rotate(-103.276 83.4708 173.092)" fill="#3C3C3C"/>
<ellipse cx="88.6903" cy="171.315" rx="2.05897" ry="2.05897" transform="rotate(-103.276 88.6903 171.315)" fill="#3C3C3C"/>
<ellipse cx="94.186" cy="169.649" rx="2.05897" ry="2.05897" transform="rotate(-103.276 94.186 169.649)" fill="#3C3C3C"/>
<ellipse cx="100.364" cy="168.312" rx="2.05897" ry="2.05897" transform="rotate(-103.276 100.364 168.312)" fill="#3C3C3C"/>
<ellipse cx="107.522" cy="167.42" rx="2.05897" ry="2.05897" transform="rotate(-103.276 107.522 167.42)" fill="#3C3C3C"/>
<ellipse cx="115.398" cy="166.746" rx="2.05897" ry="2.05897" transform="rotate(-103.276 115.398 166.746)" fill="#3C3C3C"/>
<ellipse cx="36.1568" cy="183.916" rx="2.05897" ry="2.05897" transform="rotate(-103.276 36.1568 183.916)" fill="#3C3C3C"/>
<ellipse cx="41.2474" cy="182.524" rx="2.05897" ry="2.05897" transform="rotate(-103.276 41.2474 182.524)" fill="#3C3C3C"/>
<ellipse cx="44.8203" cy="181.048" rx="2.05897" ry="2.05897" transform="rotate(-103.276 44.8203 181.048)" fill="#3C3C3C"/>
<ellipse cx="47.7291" cy="179.285" rx="2.05897" ry="2.05897" transform="rotate(-103.276 47.7291 179.285)" fill="#3C3C3C"/>
<ellipse cx="50.9922" cy="177.302" rx="2.05897" ry="2.05897" transform="rotate(-103.276 50.9922 177.302)" fill="#3C3C3C"/>
<ellipse cx="55.3219" cy="175.411" rx="2.05897" ry="2.05897" transform="rotate(-103.276 55.3219 175.411)" fill="white"/>
<ellipse cx="60.8027" cy="173.823" rx="2.05897" ry="2.05897" transform="rotate(-103.276 60.8027 173.823)" fill="white"/>
<ellipse cx="67.086" cy="172.492" rx="2.05897" ry="2.05897" transform="rotate(-103.276 67.086 172.492)" fill="white"/>
<ellipse cx="73.5434" cy="171.213" rx="2.05897" ry="2.05897" transform="rotate(-103.276 73.5434 171.213)" fill="#3C3C3C"/>
<ellipse cx="79.5432" cy="169.791" rx="2.05897" ry="2.05897" transform="rotate(-103.276 79.5432 169.791)" fill="#3C3C3C"/>
<ellipse cx="84.8744" cy="168.157" rx="2.05897" ry="2.05897" transform="rotate(-103.276 84.8744 168.157)" fill="#3C3C3C"/>
<ellipse cx="89.902" cy="166.397" rx="2.05897" ry="2.05897" transform="rotate(-103.276 89.902 166.397)" fill="#3C3C3C"/>
<ellipse cx="95.0141" cy="164.635" rx="2.05897" ry="2.05897" transform="rotate(-103.276 95.0141 164.635)" fill="#3C3C3C"/>
<ellipse cx="100.667" cy="163.071" rx="2.05897" ry="2.05897" transform="rotate(-103.276 100.667 163.071)" fill="#3C3C3C"/>
<ellipse cx="107.204" cy="161.864" rx="2.05897" ry="2.05897" transform="rotate(-103.276 107.204 161.864)" fill="#3C3C3C"/>
<ellipse cx="114.421" cy="160.891" rx="2.05897" ry="2.05897" transform="rotate(-103.276 114.421 160.891)" fill="#3C3C3C"/>
<ellipse cx="35.1223" cy="177.886" rx="2.05897" ry="2.05897" transform="rotate(-103.276 35.1223 177.886)" fill="#3C3C3C"/>
<ellipse cx="40.4247" cy="176.498" rx="2.05897" ry="2.05897" transform="rotate(-103.276 40.4247 176.498)" fill="#3C3C3C"/>
<ellipse cx="44.5544" cy="175.086" rx="2.05897" ry="2.05897" transform="rotate(-103.276 44.5544 175.086)" fill="#3C3C3C"/>
<ellipse cx="48.1559" cy="173.515" rx="2.05897" ry="2.05897" transform="rotate(-103.276 48.1559 173.515)" fill="#3C3C3C"/>
<ellipse cx="52.0036" cy="171.802" rx="2.05897" ry="2.05897" transform="rotate(-103.276 52.0036 171.802)" fill="white"/>
<ellipse cx="56.6644" cy="170.123" rx="2.05897" ry="2.05897" transform="rotate(-103.276 56.6644 170.123)" fill="white"/>
<ellipse cx="62.2838" cy="168.618" rx="2.05897" ry="2.05897" transform="rotate(-103.276 62.2838 168.618)" fill="white"/>
<ellipse cx="68.5857" cy="167.264" rx="2.05897" ry="2.05897" transform="rotate(-103.276 68.5857 167.264)" fill="#3C3C3C"/>
<ellipse cx="75.0298" cy="165.937" rx="2.05897" ry="2.05897" transform="rotate(-103.276 75.0298 165.937)" fill="#3C3C3C"/>
<ellipse cx="81.0747" cy="164.525" rx="2.05897" ry="2.05897" transform="rotate(-103.276 81.0747 164.525)" fill="#3C3C3C"/>
<ellipse cx="86.5206" cy="162.986" rx="2.05897" ry="2.05897" transform="rotate(-103.276 86.5206 162.986)" fill="#3C3C3C"/>
<ellipse cx="91.6191" cy="161.351" rx="2.05897" ry="2.05897" transform="rotate(-103.276 91.6191 161.351)" fill="#3C3C3C"/>
<ellipse cx="96.6753" cy="159.675" rx="2.05897" ry="2.05897" transform="rotate(-103.276 96.6753 159.675)" fill="#3C3C3C"/>
<ellipse cx="102.06" cy="158.071" rx="2.05897" ry="2.05897" transform="rotate(-103.276 102.06 158.071)" fill="#3C3C3C"/>
<ellipse cx="108.073" cy="156.652" rx="2.05897" ry="2.05897" transform="rotate(-103.276 108.073 156.652)" fill="#3C3C3C"/>
<ellipse cx="114.634" cy="155.398" rx="2.05897" ry="2.05897" transform="rotate(-103.276 114.634 155.398)" fill="#3C3C3C"/>
<ellipse cx="33.5587" cy="171.881" rx="2.05897" ry="2.05897" transform="rotate(-103.276 33.5587 171.881)" fill="#3C3C3C"/>
<ellipse cx="39.1817" cy="170.48" rx="2.05897" ry="2.05897" transform="rotate(-103.276 39.1817 170.48)" fill="#3C3C3C"/>
<ellipse cx="44.1482" cy="169.085" rx="2.05897" ry="2.05897" transform="rotate(-103.276 44.1482 169.085)" fill="#3C3C3C"/>
<ellipse cx="48.772" cy="167.644" rx="2.05897" ry="2.05897" transform="rotate(-103.276 48.772 167.644)" fill="white"/>
<ellipse cx="53.4378" cy="166.147" rx="2.05897" ry="2.05897" transform="rotate(-103.276 53.4378 166.147)" fill="white"/>
<ellipse cx="58.4602" cy="164.634" rx="2.05897" ry="2.05897" transform="rotate(-103.276 58.4602 164.634)" fill="white"/>
<ellipse cx="64.0844" cy="163.17" rx="2.05897" ry="2.05897" transform="rotate(-103.276 64.0844 163.17)" fill="#3C3C3C"/>
<ellipse cx="70.1813" cy="161.762" rx="2.05897" ry="2.05897" transform="rotate(-103.276 70.1813 161.762)" fill="#3C3C3C"/>
<ellipse cx="76.4007" cy="160.368" rx="2.05897" ry="2.05897" transform="rotate(-103.276 76.4007 160.368)" fill="#3C3C3C"/>
<ellipse cx="82.3929" cy="158.947" rx="2.05897" ry="2.05897" transform="rotate(-103.276 82.3929 158.947)" fill="#3C3C3C"/>
<ellipse cx="88.0366" cy="157.484" rx="2.05897" ry="2.05897" transform="rotate(-103.276 88.0366 157.484)" fill="#3C3C3C"/>
<ellipse cx="93.4826" cy="155.989" rx="2.05897" ry="2.05897" transform="rotate(-103.276 93.4826 155.989)" fill="#3C3C3C"/>
<ellipse cx="98.8498" cy="154.471" rx="2.05897" ry="2.05897" transform="rotate(-103.276 98.8498 154.471)" fill="#3C3C3C"/>
<ellipse cx="104.286" cy="152.952" rx="2.05897" ry="2.05897" transform="rotate(-103.276 104.286 152.952)" fill="#3C3C3C"/>
<ellipse cx="109.941" cy="151.466" rx="2.05897" ry="2.05897" transform="rotate(-103.276 109.941 151.466)" fill="#3C3C3C"/>
<ellipse cx="115.91" cy="150.039" rx="2.05897" ry="2.05897" transform="rotate(-103.276 115.91 150.039)" fill="#3C3C3C"/>
<ellipse cx="31.9375" cy="165.879" rx="2.05897" ry="2.05897" transform="rotate(-103.276 31.9375 165.879)" fill="#3C3C3C"/>
<ellipse cx="37.8645" cy="164.464" rx="2.05897" ry="2.05897" transform="rotate(-103.276 37.8645 164.464)" fill="#3C3C3C"/>
<ellipse cx="43.6213" cy="163.055" rx="2.05897" ry="2.05897" transform="rotate(-103.276 43.6213 163.055)" fill="white"/>
<ellipse cx="49.2103" cy="161.648" rx="2.05897" ry="2.05897" transform="rotate(-103.276 49.2103 161.648)" fill="white"/>
<ellipse cx="54.6461" cy="160.236" rx="2.05897" ry="2.05897" transform="rotate(-103.276 54.6461 160.236)" fill="white"/>
<ellipse cx="59.994" cy="158.812" rx="2.05897" ry="2.05897" transform="rotate(-103.276 59.994 158.812)" fill="white"/>
<ellipse cx="65.5907" cy="157.384" rx="2.05897" ry="2.05897" transform="rotate(-103.276 65.5907 157.384)" fill="white"/>
<ellipse cx="71.4554" cy="155.96" rx="2.05897" ry="2.05897" transform="rotate(-103.276 71.4554 155.96)" fill="white"/>
<ellipse cx="77.4363" cy="154.541" rx="2.05897" ry="2.05897" transform="rotate(-103.276 77.4363 154.541)" fill="white"/>
<ellipse cx="83.3785" cy="153.119" rx="2.05897" ry="2.05897" transform="rotate(-103.276 83.3785 153.119)" fill="#3C3C3C"/>
<ellipse cx="89.2525" cy="151.695" rx="2.05897" ry="2.05897" transform="rotate(-103.276 89.2525 151.695)" fill="#3C3C3C"/>
<ellipse cx="95.138" cy="150.271" rx="2.05897" ry="2.05897" transform="rotate(-103.276 95.138 150.271)" fill="#3C3C3C"/>
<ellipse cx="100.961" cy="148.843" rx="2.05897" ry="2.05897" transform="rotate(-103.276 100.961 148.843)" fill="#3C3C3C"/>
<ellipse cx="106.626" cy="147.404" rx="2.05897" ry="2.05897" transform="rotate(-103.276 106.626 147.404)" fill="#3C3C3C"/>
<ellipse cx="112.109" cy="145.948" rx="2.05897" ry="2.05897" transform="rotate(-103.276 112.109 145.948)" fill="#3C3C3C"/>
<ellipse cx="30.7342" cy="159.857" rx="2.05897" ry="2.05897" transform="rotate(-103.276 30.7342 159.857)" fill="#3C3C3C"/>
<ellipse cx="36.8266" cy="158.435" rx="2.05897" ry="2.05897" transform="rotate(-103.276 36.8266 158.435)" fill="white"/>
<ellipse cx="43.0157" cy="157.006" rx="2.05897" ry="2.05897" transform="rotate(-103.276 43.0157 157.006)" fill="white"/>
<ellipse cx="49.1399" cy="155.581" rx="2.05897" ry="2.05897" transform="rotate(-103.276 49.1399 155.581)" fill="white"/>
<ellipse cx="55.0207" cy="154.17" rx="2.05897" ry="2.05897" transform="rotate(-103.276 55.0207 154.17)" fill="white"/>
<ellipse cx="60.5928" cy="152.774" rx="2.05897" ry="2.05897" transform="rotate(-103.276 60.5928 152.774)" fill="white"/>
<ellipse cx="66.2363" cy="151.37" rx="2.05897" ry="2.05897" transform="rotate(-103.276 66.2363 151.37)" fill="white"/>
<ellipse cx="72.0473" cy="149.958" rx="2.05897" ry="2.05897" transform="rotate(-103.276 72.0473 149.958)" fill="white"/>
<ellipse cx="77.9784" cy="148.541" rx="2.05897" ry="2.05897" transform="rotate(-103.276 77.9784 148.541)" fill="white"/>
<ellipse cx="83.9764" cy="147.123" rx="2.05897" ry="2.05897" transform="rotate(-103.276 83.9764 147.123)" fill="white"/>
<ellipse cx="90.0605" cy="145.703" rx="2.05897" ry="2.05897" transform="rotate(-103.276 90.0605 145.703)" fill="white"/>
<ellipse cx="96.2756" cy="144.278" rx="2.05897" ry="2.05897" transform="rotate(-103.276 96.2756 144.278)" fill="white"/>
<ellipse cx="102.443" cy="142.854" rx="2.05897" ry="2.05897" transform="rotate(-103.276 102.443 142.854)" fill="white"/>
<ellipse cx="108.332" cy="141.44" rx="2.05897" ry="2.05897" transform="rotate(-103.276 108.332 141.44)" fill="#3C3C3C"/>
<ellipse cx="113.82" cy="140.035" rx="2.05897" ry="2.05897" transform="rotate(-103.276 113.82 140.035)" fill="#3C3C3C"/>
<ellipse cx="30.1572" cy="153.792" rx="2.05897" ry="2.05897" transform="rotate(-103.276 30.1572 153.792)" fill="#3C3C3C"/>
<ellipse cx="36.1859" cy="152.372" rx="2.05897" ry="2.05897" transform="rotate(-103.276 36.1859 152.372)" fill="white"/>
<ellipse cx="42.2186" cy="150.952" rx="2.05897" ry="2.05897" transform="rotate(-103.276 42.2186 150.952)" fill="white"/>
<ellipse cx="48.1826" cy="149.537" rx="2.05897" ry="2.05897" transform="rotate(-103.276 48.1826 149.537)" fill="white"/>
<ellipse cx="54.0022" cy="148.133" rx="2.05897" ry="2.05897" transform="rotate(-103.276 54.0022 148.133)" fill="white"/>
<ellipse cx="59.6789" cy="146.736" rx="2.05897" ry="2.05897" transform="rotate(-103.276 59.6789 146.736)" fill="white"/>
<ellipse cx="65.573" cy="145.324" rx="2.05897" ry="2.05897" transform="rotate(-103.276 65.573 145.324)" fill="white"/>
<ellipse cx="71.7224" cy="143.898" rx="2.05897" ry="2.05897" transform="rotate(-103.276 71.7224 143.898)" fill="white"/>
<ellipse cx="77.9951" cy="142.462" rx="2.05897" ry="2.05897" transform="rotate(-103.276 77.9951 142.462)" fill="white"/>
<ellipse cx="84.2568" cy="141.026" rx="2.05897" ry="2.05897" transform="rotate(-103.276 84.2568 141.026)" fill="white"/>
<ellipse cx="90.5096" cy="139.588" rx="2.05897" ry="2.05897" transform="rotate(-103.276 90.5096 139.588)" fill="white"/>
<ellipse cx="96.8634" cy="138.139" rx="2.05897" ry="2.05897" transform="rotate(-103.276 96.8634 138.139)" fill="white"/>
<ellipse cx="103.151" cy="136.692" rx="2.05897" ry="2.05897" transform="rotate(-103.276 103.151 136.692)" fill="white"/>
<ellipse cx="109.159" cy="135.275" rx="2.05897" ry="2.05897" transform="rotate(-103.276 109.159 135.275)" fill="#3C3C3C"/>
<ellipse cx="114.77" cy="133.895" rx="2.05897" ry="2.05897" transform="rotate(-103.276 114.77 133.895)" fill="#3C3C3C"/>
<ellipse cx="29.9814" cy="147.66" rx="2.05897" ry="2.05897" transform="rotate(-103.276 29.9814 147.66)" fill="#3C3C3C"/>
<ellipse cx="35.6903" cy="146.275" rx="2.05897" ry="2.05897" transform="rotate(-103.276 35.6903 146.275)" fill="#3C3C3C"/>
<ellipse cx="40.9106" cy="144.931" rx="2.05897" ry="2.05897" transform="rotate(-103.276 40.9106 144.931)" fill="white"/>
<ellipse cx="45.9493" cy="143.577" rx="2.05897" ry="2.05897" transform="rotate(-103.276 45.9493 143.577)" fill="white"/>
<ellipse cx="51.1743" cy="142.189" rx="2.05897" ry="2.05897" transform="rotate(-103.276 51.1743 142.189)" fill="white"/>
<ellipse cx="56.8851" cy="140.778" rx="2.05897" ry="2.05897" transform="rotate(-103.276 56.8851 140.778)" fill="#3C3C3C"/>
<ellipse cx="63.3653" cy="139.348" rx="2.05897" ry="2.05897" transform="rotate(-103.276 63.3653 139.348)" fill="#3C3C3C"/>
<ellipse cx="70.4212" cy="137.879" rx="2.05897" ry="2.05897" transform="rotate(-103.276 70.4212 137.879)" fill="white"/>
<ellipse cx="77.583" cy="136.365" rx="2.05897" ry="2.05897" transform="rotate(-103.276 77.583 136.365)" fill="white"/>
<ellipse cx="84.3906" cy="134.856" rx="2.05897" ry="2.05897" transform="rotate(-103.276 84.3906 134.856)" fill="white"/>
<ellipse cx="90.7904" cy="133.387" rx="2.05897" ry="2.05897" transform="rotate(-103.276 90.7904 133.387)" fill="white"/>
<ellipse cx="97.1692" cy="131.915" rx="2.05897" ry="2.05897" transform="rotate(-103.276 97.1692 131.915)" fill="white"/>
<ellipse cx="103.441" cy="130.456" rx="2.05897" ry="2.05897" transform="rotate(-103.276 103.441 130.456)" fill="white"/>
<ellipse cx="109.48" cy="129.034" rx="2.05897" ry="2.05897" transform="rotate(-103.276 109.48 129.034)" fill="#3C3C3C"/>
<ellipse cx="115.237" cy="127.655" rx="2.05897" ry="2.05897" transform="rotate(-103.276 115.237 127.655)" fill="#3C3C3C"/>
</svg>
