<svg width="77" height="310" viewBox="0 0 77 310" fill="none" xmlns="http://www.w3.org/2000/svg">
<ellipse cx="77.5155" cy="185.985" rx="2.05217" ry="2.04869" transform="rotate(90 77.5155 185.985)" fill="#3C3C3C"/>
<ellipse cx="71.7223" cy="185.568" rx="2.05217" ry="2.04869" transform="rotate(90 71.7223 185.568)" fill="#3C3C3C"/>
<ellipse cx="66.4359" cy="184.629" rx="2.05217" ry="2.04869" transform="rotate(90 66.4359 184.629)" fill="#3C3C3C"/>
<ellipse cx="62.0012" cy="183.029" rx="2.05217" ry="2.04869" transform="rotate(90 62.0012 183.029)" fill="#3C3C3C"/>
<ellipse cx="58.3644" cy="181.186" rx="2.05217" ry="2.04869" transform="rotate(90 58.3644 181.186)" fill="#3C3C3C"/>
<ellipse cx="55.3961" cy="179.497" rx="2.05217" ry="2.04869" transform="rotate(90 55.3961 179.497)" fill="#3C3C3C"/>
<ellipse cx="53.1" cy="178.21" rx="2.05217" ry="2.04869" transform="rotate(90 53.1 178.21)" fill="#3C3C3C"/>
<ellipse cx="50.1538" cy="177.678" rx="2.05217" ry="2.04869" transform="rotate(90 50.1538 177.678)" fill="#3C3C3C"/>
<ellipse cx="78.2435" cy="191.301" rx="2.05217" ry="2.04869" transform="rotate(90 78.2435 191.301)" fill="#3C3C3C"/>
<ellipse cx="72.1769" cy="191.215" rx="2.05217" ry="2.04869" transform="rotate(90 72.1769 191.215)" fill="#3C3C3C"/>
<ellipse cx="66.9181" cy="190.301" rx="2.05217" ry="2.04869" transform="rotate(90 66.9181 190.301)" fill="#3C3C3C"/>
<ellipse cx="62.5126" cy="188.767" rx="2.05217" ry="2.04869" transform="rotate(90 62.5126 188.767)" fill="#3C3C3C"/>
<ellipse cx="58.8712" cy="187.029" rx="2.05217" ry="2.04869" transform="rotate(90 58.8712 187.029)" fill="#3C3C3C"/>
<ellipse cx="55.7947" cy="185.485" rx="2.05217" ry="2.04869" transform="rotate(90 55.7947 185.485)" fill="#3C3C3C"/>
<ellipse cx="53.1187" cy="184.362" rx="2.05217" ry="2.04869" transform="rotate(90 53.1187 184.362)" fill="#3C3C3C"/>
<ellipse cx="49.8165" cy="183.869" rx="2.05217" ry="2.04869" transform="rotate(90 49.8165 183.869)" fill="#3C3C3C"/>
<ellipse cx="45.3743" cy="183.746" rx="2.05217" ry="2.04869" transform="rotate(90 45.3743 183.746)" fill="#3C3C3C"/>
<ellipse cx="41.681" cy="183.79" rx="2.05217" ry="2.04869" transform="rotate(90 41.681 183.79)" fill="#3C3C3C"/>
<ellipse cx="38.2434" cy="184.145" rx="2.05217" ry="2.04869" transform="rotate(90 38.2434 184.145)" fill="#3C3C3C"/>
<ellipse cx="33.9722" cy="184.586" rx="2.05217" ry="2.04869" transform="rotate(90 33.9722 184.586)" fill="#3C3C3C"/>
<ellipse cx="73.5108" cy="196.034" rx="2.05217" ry="2.04869" transform="rotate(90 73.5108 196.034)" fill="#3C3C3C"/>
<ellipse cx="68.3416" cy="195.18" rx="2.05217" ry="2.04869" transform="rotate(90 68.3416 195.18)" fill="#3C3C3C"/>
<ellipse cx="64.0042" cy="193.83" rx="2.05217" ry="2.04869" transform="rotate(90 64.0042 193.83)" fill="#3C3C3C"/>
<ellipse cx="60.3327" cy="192.379" rx="2.05217" ry="2.04869" transform="rotate(90 60.3327 192.379)" fill="#3C3C3C"/>
<ellipse cx="56.986" cy="191.187" rx="2.05217" ry="2.04869" transform="rotate(90 56.986 191.187)" fill="#3C3C3C"/>
<ellipse cx="53.4758" cy="190.436" rx="2.05217" ry="2.04869" transform="rotate(90 53.4758 190.436)" fill="#3C3C3C"/>
<ellipse cx="49.4137" cy="190.073" rx="2.05217" ry="2.04869" transform="rotate(90 49.4137 190.073)" fill="#3C3C3C"/>
<ellipse cx="44.8543" cy="189.927" rx="2.05217" ry="2.04869" transform="rotate(90 44.8543 189.927)" fill="#3C3C3C"/>
<ellipse cx="41.1526" cy="189.915" rx="2.05217" ry="2.04869" transform="rotate(90 41.1526 189.915)" fill="#3C3C3C"/>
<ellipse cx="37.6215" cy="190.191" rx="2.05217" ry="2.04869" transform="rotate(90 37.6215 190.191)" fill="#3C3C3C"/>
<ellipse cx="33.1624" cy="190.532" rx="2.05217" ry="2.04869" transform="rotate(90 33.1624 190.532)" fill="#3C3C3C"/>
<ellipse cx="75.5337" cy="200.523" rx="2.05217" ry="2.04869" transform="rotate(90 75.5337 200.523)" fill="#3C3C3C"/>
<ellipse cx="70.5298" cy="199.737" rx="2.05217" ry="2.04869" transform="rotate(90 70.5298 199.737)" fill="#3C3C3C"/>
<ellipse cx="66.2622" cy="198.646" rx="2.05217" ry="2.04869" transform="rotate(90 66.2622 198.646)" fill="#3C3C3C"/>
<ellipse cx="62.5092" cy="197.572" rx="2.05217" ry="2.04869" transform="rotate(90 62.5092 197.572)" fill="#3C3C3C"/>
<ellipse cx="58.8689" cy="196.773" rx="2.05217" ry="2.04869" transform="rotate(90 58.8689 196.773)" fill="#3C3C3C"/>
<ellipse cx="54.7214" cy="196.352" rx="2.05217" ry="2.04869" transform="rotate(90 54.7214 196.352)" fill="#3C3C3C"/>
<ellipse cx="50.1259" cy="196.15" rx="2.05217" ry="2.04869" transform="rotate(90 50.1259 196.15)" fill="#3C3C3C"/>
<ellipse cx="45.474" cy="196.056" rx="2.05217" ry="2.04869" transform="rotate(90 45.474 196.056)" fill="#3C3C3C"/>
<ellipse cx="41.656" cy="196.101" rx="2.05217" ry="2.04869" transform="rotate(90 41.656 196.101)" fill="#3C3C3C"/>
<ellipse cx="37.8663" cy="196.389" rx="2.05217" ry="2.04869" transform="rotate(90 37.8663 196.389)" fill="#3C3C3C"/>
<ellipse cx="33.0542" cy="196.662" rx="2.05217" ry="2.04869" transform="rotate(90 33.0542 196.662)" fill="#3C3C3C"/>
<ellipse cx="78.6806" cy="204.738" rx="2.05217" ry="2.04869" transform="rotate(90 78.6806 204.738)" fill="#3C3C3C"/>
<ellipse cx="73.9054" cy="204.093" rx="2.05217" ry="2.04869" transform="rotate(90 73.9054 204.093)" fill="#3C3C3C"/>
<ellipse cx="69.5609" cy="203.403" rx="2.05217" ry="2.04869" transform="rotate(90 69.5609 203.403)" fill="#3C3C3C"/>
<ellipse cx="65.5778" cy="202.792" rx="2.05217" ry="2.04869" transform="rotate(90 65.5778 202.792)" fill="#3C3C3C"/>
<ellipse cx="61.6615" cy="202.392" rx="2.05217" ry="2.04869" transform="rotate(90 61.6615 202.392)" fill="#3C3C3C"/>
<ellipse cx="57.0588" cy="202.245" rx="2.05217" ry="2.04869" transform="rotate(90 57.0588 202.245)" fill="#3C3C3C"/>
<ellipse cx="52.1099" cy="202.203" rx="2.05217" ry="2.04869" transform="rotate(90 52.1099 202.203)" fill="#3C3C3C"/>
<ellipse cx="47.3447" cy="202.231" rx="2.05217" ry="2.04869" transform="rotate(90 47.3447 202.231)" fill="#3C3C3C"/>
<ellipse cx="43.0911" cy="202.404" rx="2.05217" ry="2.04869" transform="rotate(90 43.0911 202.404)" fill="#3C3C3C"/>
<ellipse cx="38.6924" cy="202.705" rx="2.05217" ry="2.04869" transform="rotate(90 38.6924 202.705)" fill="#3C3C3C"/>
<ellipse cx="33.4281" cy="202.911" rx="2.05217" ry="2.04869" transform="rotate(90 33.4281 202.911)" fill="#3C3C3C"/>
<ellipse cx="78.3797" cy="208.837" rx="2.05217" ry="2.04869" transform="rotate(90 78.3797 208.837)" fill="#3C3C3C"/>
<ellipse cx="73.6923" cy="208.584" rx="2.05217" ry="2.04869" transform="rotate(90 73.6923 208.584)" fill="#3C3C3C"/>
<ellipse cx="69.2864" cy="208.406" rx="2.05217" ry="2.04869" transform="rotate(90 69.2864 208.406)" fill="#3C3C3C"/>
<ellipse cx="65.0701" cy="208.362" rx="2.05217" ry="2.04869" transform="rotate(90 65.0701 208.362)" fill="#3C3C3C"/>
<ellipse cx="59.7551" cy="208.393" rx="2.05217" ry="2.04869" transform="rotate(90 59.7551 208.393)" fill="#3C3C3C"/>
<ellipse cx="54.1908" cy="208.433" rx="2.05217" ry="2.04869" transform="rotate(90 54.1908 208.433)" fill="#3C3C3C"/>
<ellipse cx="49.2118" cy="208.557" rx="2.05217" ry="2.04869" transform="rotate(90 49.2118 208.557)" fill="#3C3C3C"/>
<ellipse cx="44.1884" cy="208.733" rx="2.05217" ry="2.04869" transform="rotate(90 44.1884 208.733)" fill="#3C3C3C"/>
<ellipse cx="38.8582" cy="208.898" rx="2.05217" ry="2.04869" transform="rotate(90 38.8582 208.898)" fill="#3C3C3C"/>
<ellipse cx="33.1791" cy="209.005" rx="2.05217" ry="2.04869" transform="rotate(90 33.1791 209.005)" fill="#3C3C3C"/>
<ellipse cx="27.7863" cy="209.201" rx="2.05217" ry="2.04869" transform="rotate(90 27.7863 209.201)" fill="#3C3C3C"/>
<ellipse cx="22.3168" cy="209.4" rx="2.05217" ry="2.04869" transform="rotate(90 22.3168 209.4)" fill="#3C3C3C"/>
<ellipse cx="16.0969" cy="209.377" rx="2.05217" ry="2.04869" transform="rotate(90 16.0969 209.377)" fill="#3C3C3C"/>
<ellipse cx="75.8263" cy="214.54" rx="2.05217" ry="2.04869" transform="rotate(90 75.8263 214.54)" fill="#3C3C3C"/>
<ellipse cx="71.2379" cy="214.519" rx="2.05217" ry="2.04869" transform="rotate(90 71.2379 214.519)" fill="#3C3C3C"/>
<ellipse cx="66.9314" cy="214.63" rx="2.05217" ry="2.04869" transform="rotate(90 66.9314 214.63)" fill="#3C3C3C"/>
<ellipse cx="61.2269" cy="214.679" rx="2.05217" ry="2.04869" transform="rotate(90 61.2269 214.679)" fill="#3C3C3C"/>
<ellipse cx="55.2944" cy="214.705" rx="2.05217" ry="2.04869" transform="rotate(90 55.2944 214.705)" fill="#3C3C3C"/>
<ellipse cx="50.173" cy="214.861" rx="2.05217" ry="2.04869" transform="rotate(90 50.173 214.861)" fill="#3C3C3C"/>
<ellipse cx="44.6314" cy="214.975" rx="2.05217" ry="2.04869" transform="rotate(90 44.6314 214.975)" fill="#3C3C3C"/>
<ellipse cx="38.6762" cy="215.015" rx="2.05217" ry="2.04869" transform="rotate(90 38.6762 215.015)" fill="#3C3C3C"/>
<ellipse cx="32.7234" cy="215.056" rx="2.05217" ry="2.04869" transform="rotate(90 32.7234 215.056)" fill="#3C3C3C"/>
<ellipse cx="27.7545" cy="215.349" rx="2.05217" ry="2.04869" transform="rotate(90 27.7545 215.349)" fill="#3C3C3C"/>
<ellipse cx="22.8775" cy="215.739" rx="2.05217" ry="2.04869" transform="rotate(90 22.8775 215.739)" fill="#3C3C3C"/>
<ellipse cx="16.6708" cy="215.718" rx="2.05217" ry="2.04869" transform="rotate(90 16.6708 215.718)" fill="#3C3C3C"/>
<ellipse cx="74.7346" cy="220.774" rx="2.05217" ry="2.04869" transform="rotate(90 74.7346 220.774)" fill="#3C3C3C"/>
<ellipse cx="70.1309" cy="220.68" rx="2.05217" ry="2.04869" transform="rotate(90 70.1309 220.68)" fill="#3C3C3C"/>
<ellipse cx="66.0875" cy="220.717" rx="2.05217" ry="2.04869" transform="rotate(90 66.0875 220.717)" fill="#3C3C3C"/>
<ellipse cx="60.9153" cy="220.8" rx="2.05217" ry="2.04869" transform="rotate(90 60.9153 220.8)" fill="#3C3C3C"/>
<ellipse cx="55.4168" cy="220.878" rx="2.05217" ry="2.04869" transform="rotate(90 55.4168 220.878)" fill="#3C3C3C"/>
<ellipse cx="50.3777" cy="221.054" rx="2.05217" ry="2.04869" transform="rotate(90 50.3777 221.054)" fill="#3C3C3C"/>
<ellipse cx="44.9861" cy="221.207" rx="2.05217" ry="2.04869" transform="rotate(90 44.9861 221.207)" fill="#3C3C3C"/>
<ellipse cx="39.1505" cy="221.277" rx="2.05217" ry="2.04869" transform="rotate(90 39.1505 221.277)" fill="#3C3C3C"/>
<ellipse cx="33.0874" cy="221.296" rx="2.05217" ry="2.04869" transform="rotate(90 33.0874 221.296)" fill="#3C3C3C"/>
<ellipse cx="27.7493" cy="221.504" rx="2.05217" ry="2.04869" transform="rotate(90 27.7493 221.504)" fill="#3C3C3C"/>
<ellipse cx="22.4539" cy="221.756" rx="2.05217" ry="2.04869" transform="rotate(90 22.4539 221.756)" fill="#3C3C3C"/>
<ellipse cx="77.8538" cy="227.422" rx="2.05217" ry="2.04869" transform="rotate(90 77.8538 227.422)" fill="#3C3C3C"/>
<ellipse cx="72.2291" cy="227.308" rx="2.05217" ry="2.04869" transform="rotate(90 72.2291 227.308)" fill="#3C3C3C"/>
<ellipse cx="67.058" cy="227.128" rx="2.05217" ry="2.04869" transform="rotate(90 67.058 227.128)" fill="#3C3C3C"/>
<ellipse cx="63.4608" cy="226.857" rx="2.05217" ry="2.04869" transform="rotate(90 63.4608 226.857)" fill="#3C3C3C"/>
<ellipse cx="59.8567" cy="226.869" rx="2.05217" ry="2.04869" transform="rotate(90 59.8567 226.869)" fill="#3C3C3C"/>
<ellipse cx="55.7405" cy="227.08" rx="2.05217" ry="2.04869" transform="rotate(90 55.7405 227.08)" fill="#3C3C3C"/>
<ellipse cx="51.0059" cy="227.336" rx="2.05217" ry="2.04869" transform="rotate(90 51.0059 227.336)" fill="#3C3C3C"/>
<ellipse cx="46.2998" cy="227.692" rx="2.05217" ry="2.04869" transform="rotate(90 46.2998 227.692)" fill="#3C3C3C"/>
<ellipse cx="41.1397" cy="227.993" rx="2.05217" ry="2.04869" transform="rotate(90 41.1397 227.993)" fill="#3C3C3C"/>
<ellipse cx="35.0119" cy="227.999" rx="2.05217" ry="2.04869" transform="rotate(90 35.0119 227.999)" fill="#3C3C3C"/>
<ellipse cx="28.6903" cy="227.941" rx="2.05217" ry="2.04869" transform="rotate(90 28.6903 227.941)" fill="#3C3C3C"/>
<ellipse cx="22.234" cy="227.844" rx="2.05217" ry="2.04869" transform="rotate(90 22.234 227.844)" fill="#3C3C3C"/>
<ellipse cx="75.7536" cy="234.17" rx="2.05217" ry="2.04869" transform="rotate(90 75.7536 234.17)" fill="#3C3C3C"/>
<ellipse cx="69.5883" cy="234.176" rx="2.05217" ry="2.04869" transform="rotate(90 69.5883 234.176)" fill="#3C3C3C"/>
<ellipse cx="64.0059" cy="233.996" rx="2.05217" ry="2.04869" transform="rotate(90 64.0059 233.996)" fill="#3C3C3C"/>
<ellipse cx="60.7643" cy="233.309" rx="2.05217" ry="2.04869" transform="rotate(90 60.7643 233.309)" fill="#3C3C3C"/>
<ellipse cx="58.4506" cy="232.984" rx="2.05217" ry="2.04869" transform="rotate(90 58.4506 232.984)" fill="#3C3C3C"/>
<ellipse cx="55.4823" cy="233.2" rx="2.05217" ry="2.04869" transform="rotate(90 55.4823 233.2)" fill="#3C3C3C"/>
<ellipse cx="50.9974" cy="233.491" rx="2.05217" ry="2.04869" transform="rotate(90 50.9974 233.491)" fill="#3C3C3C"/>
<ellipse cx="46.8231" cy="234.002" rx="2.05217" ry="2.04869" transform="rotate(90 46.8231 234.002)" fill="#3C3C3C"/>
<ellipse cx="42.1587" cy="234.512" rx="2.05217" ry="2.04869" transform="rotate(90 42.1587 234.512)" fill="#3C3C3C"/>
<ellipse cx="35.9348" cy="234.483" rx="2.05217" ry="2.04869" transform="rotate(90 35.9348 234.483)" fill="#3C3C3C"/>
<ellipse cx="28.7913" cy="234.131" rx="2.05217" ry="2.04869" transform="rotate(90 28.7913 234.131)" fill="#3C3C3C"/>
<ellipse cx="77.3914" cy="242.389" rx="2.05217" ry="2.04869" transform="rotate(90 77.3914 242.389)" fill="#3C3C3C"/>
<ellipse cx="73.2494" cy="241.327" rx="2.05217" ry="2.04869" transform="rotate(90 73.2494 241.327)" fill="#3C3C3C"/>
<ellipse cx="67.4909" cy="241.149" rx="2.05217" ry="2.04869" transform="rotate(90 67.4909 241.149)" fill="#3C3C3C"/>
<ellipse cx="62.2686" cy="240.761" rx="2.05217" ry="2.04869" transform="rotate(90 62.2686 240.761)" fill="#3C3C3C"/>
<ellipse cx="59.2105" cy="239.783" rx="2.05217" ry="2.04869" transform="rotate(90 59.2105 239.783)" fill="#3C3C3C"/>
<ellipse cx="57.141" cy="239.179" rx="2.05217" ry="2.04869" transform="rotate(90 57.141 239.179)" fill="#3C3C3C"/>
<ellipse cx="54.37" cy="239.231" rx="2.05217" ry="2.04869" transform="rotate(90 54.37 239.231)" fill="#3C3C3C"/>
<ellipse cx="49.9074" cy="239.442" rx="2.05217" ry="2.04869" transform="rotate(90 49.9074 239.442)" fill="#3C3C3C"/>
<ellipse cx="45.6773" cy="239.839" rx="2.05217" ry="2.04869" transform="rotate(90 45.6773 239.839)" fill="#3C3C3C"/>
<ellipse cx="40.9036" cy="240.229" rx="2.05217" ry="2.04869" transform="rotate(90 40.9036 240.229)" fill="#3C3C3C"/>
<ellipse cx="34.5029" cy="240.15" rx="2.05217" ry="2.04869" transform="rotate(90 34.5029 240.15)" fill="#3C3C3C"/>
<ellipse cx="78.0678" cy="253.062" rx="2.05217" ry="2.04869" transform="rotate(90 78.0678 253.062)" fill="#3C3C3C"/>
<ellipse cx="73.7332" cy="251.239" rx="2.05217" ry="2.04869" transform="rotate(90 73.7332 251.239)" fill="#3C3C3C"/>
<ellipse cx="69.7594" cy="249.508" rx="2.05217" ry="2.04869" transform="rotate(90 69.7594 249.508)" fill="#3C3C3C"/>
<ellipse cx="65.2334" cy="248.466" rx="2.05217" ry="2.04869" transform="rotate(90 65.2334 248.466)" fill="#3C3C3C"/>
<ellipse cx="61.0867" cy="247.423" rx="2.05217" ry="2.04869" transform="rotate(90 61.0867 247.423)" fill="#3C3C3C"/>
<ellipse cx="58.2296" cy="246.199" rx="2.05217" ry="2.04869" transform="rotate(90 58.2296 246.199)" fill="#3C3C3C"/>
<ellipse cx="56.2942" cy="245.401" rx="2.05217" ry="2.04869" transform="rotate(90 56.2942 245.401)" fill="#3C3C3C"/>
<ellipse cx="53.6257" cy="245.333" rx="2.05217" ry="2.04869" transform="rotate(90 53.6257 245.333)" fill="#3C3C3C"/>
<ellipse cx="49.1271" cy="245.485" rx="2.05217" ry="2.04869" transform="rotate(90 49.1271 245.485)" fill="#3C3C3C"/>
<ellipse cx="44.5803" cy="245.748" rx="2.05217" ry="2.04869" transform="rotate(90 44.5803 245.748)" fill="#3C3C3C"/>
<ellipse cx="39.434" cy="245.971" rx="2.05217" ry="2.04869" transform="rotate(90 39.434 245.971)" fill="#3C3C3C"/>
<ellipse cx="32.8347" cy="245.864" rx="2.05217" ry="2.04869" transform="rotate(90 32.8347 245.864)" fill="#3C3C3C"/>
<ellipse cx="76.4303" cy="261.286" rx="2.05217" ry="2.04869" transform="rotate(90 76.4303 261.286)" fill="#3C3C3C"/>
<ellipse cx="71.5761" cy="259.616" rx="2.05217" ry="2.04869" transform="rotate(90 71.5761 259.616)" fill="#3C3C3C"/>
<ellipse cx="67.6593" cy="257.331" rx="2.05217" ry="2.04869" transform="rotate(90 67.6593 257.331)" fill="#3C3C3C"/>
<ellipse cx="64.0852" cy="255.341" rx="2.05217" ry="2.04869" transform="rotate(90 64.0852 255.341)" fill="#3C3C3C"/>
<ellipse cx="60.8533" cy="253.689" rx="2.05217" ry="2.04869" transform="rotate(90 60.8533 253.689)" fill="#3C3C3C"/>
<ellipse cx="58.1609" cy="252.376" rx="2.05217" ry="2.04869" transform="rotate(90 58.1609 252.376)" fill="#3C3C3C"/>
<ellipse cx="56.3253" cy="251.554" rx="2.05217" ry="2.04869" transform="rotate(90 56.3253 251.554)" fill="#3C3C3C"/>
<ellipse cx="53.7254" cy="251.496" rx="2.05217" ry="2.04869" transform="rotate(90 53.7254 251.496)" fill="#3C3C3C"/>
<ellipse cx="49.1856" cy="251.649" rx="2.05217" ry="2.04869" transform="rotate(90 49.1856 251.649)" fill="#3C3C3C"/>
<ellipse cx="44.3508" cy="251.859" rx="2.05217" ry="2.04869" transform="rotate(90 44.3508 251.859)" fill="#3C3C3C"/>
<ellipse cx="38.8793" cy="251.998" rx="2.05217" ry="2.04869" transform="rotate(90 38.8793 251.998)" fill="#3C3C3C"/>
<ellipse cx="76.9086" cy="266.787" rx="2.05217" ry="2.04869" transform="rotate(90 76.9086 266.787)" fill="#3C3C3C"/>
<ellipse cx="72.0391" cy="265.244" rx="2.05217" ry="2.04869" transform="rotate(90 72.0391 265.244)" fill="#3C3C3C"/>
<ellipse cx="68.2554" cy="262.974" rx="2.05217" ry="2.04869" transform="rotate(90 68.2554 262.974)" fill="#3C3C3C"/>
<ellipse cx="65.0092" cy="260.913" rx="2.05217" ry="2.04869" transform="rotate(90 65.0092 260.913)" fill="#3C3C3C"/>
<ellipse cx="62.0733" cy="259.309" rx="2.05217" ry="2.04869" transform="rotate(90 62.0733 259.309)" fill="#3C3C3C"/>
<ellipse cx="59.4144" cy="258.205" rx="2.05217" ry="2.04869" transform="rotate(90 59.4144 258.205)" fill="#3C3C3C"/>
<ellipse cx="57.4149" cy="257.635" rx="2.05217" ry="2.04869" transform="rotate(90 57.4149 257.635)" fill="#3C3C3C"/>
<ellipse cx="54.6281" cy="257.724" rx="2.05217" ry="2.04869" transform="rotate(90 54.6281 257.724)" fill="#3C3C3C"/>
<ellipse cx="50.0554" cy="257.936" rx="2.05217" ry="2.04869" transform="rotate(90 50.0554 257.936)" fill="#3C3C3C"/>
<ellipse cx="45.2645" cy="258.209" rx="2.05217" ry="2.04869" transform="rotate(90 45.2645 258.209)" fill="#3C3C3C"/>
<ellipse cx="39.829" cy="258.385" rx="2.05217" ry="2.04869" transform="rotate(90 39.829 258.385)" fill="#3C3C3C"/>
<ellipse cx="78.3574" cy="271.212" rx="2.05217" ry="2.04869" transform="rotate(90 78.3574 271.212)" fill="#3C3C3C"/>
<ellipse cx="73.484" cy="269.937" rx="2.05217" ry="2.04869" transform="rotate(90 73.484 269.937)" fill="#3C3C3C"/>
<ellipse cx="70.0426" cy="267.781" rx="2.05217" ry="2.04869" transform="rotate(90 70.0426 267.781)" fill="#3C3C3C"/>
<ellipse cx="67.6361" cy="265.711" rx="2.05217" ry="2.04869" transform="rotate(90 67.6361 265.711)" fill="#3C3C3C"/>
<ellipse cx="65.3709" cy="264.406" rx="2.05217" ry="2.04869" transform="rotate(90 65.3709 264.406)" fill="#3C3C3C"/>
<ellipse cx="62.4374" cy="263.87" rx="2.05217" ry="2.04869" transform="rotate(90 62.4374 263.87)" fill="#3C3C3C"/>
<ellipse cx="59.0709" cy="263.774" rx="2.05217" ry="2.04869" transform="rotate(90 59.0709 263.774)" fill="#3C3C3C"/>
<ellipse cx="55.0238" cy="263.924" rx="2.05217" ry="2.04869" transform="rotate(90 55.0238 263.924)" fill="#3C3C3C"/>
<ellipse cx="50.3571" cy="264.146" rx="2.05217" ry="2.04869" transform="rotate(90 50.3571 264.146)" fill="#3C3C3C"/>
<ellipse cx="46.21" cy="264.606" rx="2.05217" ry="2.04869" transform="rotate(90 46.21 264.606)" fill="#3C3C3C"/>
<ellipse cx="41.3578" cy="265.005" rx="2.05217" ry="2.04869" transform="rotate(90 41.3578 265.005)" fill="#3C3C3C"/>
<ellipse cx="75.6045" cy="274.349" rx="2.05217" ry="2.04869" transform="rotate(90 75.6045 274.349)" fill="#3C3C3C"/>
<ellipse cx="72.5402" cy="272.457" rx="2.05217" ry="2.04869" transform="rotate(90 72.5402 272.457)" fill="#3C3C3C"/>
<ellipse cx="71.0181" cy="270.688" rx="2.05217" ry="2.04869" transform="rotate(90 71.0181 270.688)" fill="#3C3C3C"/>
<ellipse cx="69.3278" cy="269.968" rx="2.05217" ry="2.04869" transform="rotate(90 69.3278 269.968)" fill="#3C3C3C"/>
<ellipse cx="65.8805" cy="269.957" rx="2.05217" ry="2.04869" transform="rotate(90 65.8805 269.957)" fill="#3C3C3C"/>
<ellipse cx="60.898" cy="270.05" rx="2.05217" ry="2.04869" transform="rotate(90 60.898 270.05)" fill="#3C3C3C"/>
<ellipse cx="55.4434" cy="270.134" rx="2.05217" ry="2.04869" transform="rotate(90 55.4434 270.134)" fill="#3C3C3C"/>
<ellipse cx="50.657" cy="270.36" rx="2.05217" ry="2.04869" transform="rotate(90 50.657 270.36)" fill="#3C3C3C"/>
<ellipse cx="47.0988" cy="271.028" rx="2.05217" ry="2.04869" transform="rotate(90 47.0988 271.028)" fill="#3C3C3C"/>
<ellipse cx="78.2059" cy="278.866" rx="2.05217" ry="2.04869" transform="rotate(90 78.2059 278.866)" fill="#3C3C3C"/>
<ellipse cx="75.3019" cy="277.421" rx="2.05217" ry="2.04869" transform="rotate(90 75.3019 277.421)" fill="#3C3C3C"/>
<ellipse cx="73.8875" cy="276.279" rx="2.05217" ry="2.04869" transform="rotate(90 73.8875 276.279)" fill="#3C3C3C"/>
<ellipse cx="72.0315" cy="276.114" rx="2.05217" ry="2.04869" transform="rotate(90 72.0315 276.114)" fill="#3C3C3C"/>
<ellipse cx="68.1395" cy="276.349" rx="2.05217" ry="2.04869" transform="rotate(90 68.1395 276.349)" fill="#3C3C3C"/>
<ellipse cx="62.6206" cy="276.454" rx="2.05217" ry="2.04869" transform="rotate(90 62.6206 276.454)" fill="#3C3C3C"/>
<ellipse cx="56.7899" cy="276.514" rx="2.05217" ry="2.04869" transform="rotate(90 56.7899 276.514)" fill="#3C3C3C"/>
<ellipse cx="51.9031" cy="276.798" rx="2.05217" ry="2.04869" transform="rotate(90 51.9031 276.798)" fill="#3C3C3C"/>
<ellipse cx="48.0929" cy="277.528" rx="2.05217" ry="2.04869" transform="rotate(90 48.0929 277.528)" fill="#3C3C3C"/>
<ellipse cx="77.7305" cy="282.86" rx="2.05217" ry="2.04869" transform="rotate(90 77.7305 282.86)" fill="#3C3C3C"/>
<ellipse cx="76.1823" cy="282.248" rx="2.05217" ry="2.04869" transform="rotate(90 76.1823 282.248)" fill="#3C3C3C"/>
<ellipse cx="73.9972" cy="282.463" rx="2.05217" ry="2.04869" transform="rotate(90 73.9972 282.463)" fill="#3C3C3C"/>
<ellipse cx="69.9246" cy="282.852" rx="2.05217" ry="2.04869" transform="rotate(90 69.9246 282.852)" fill="#3C3C3C"/>
<ellipse cx="65.0847" cy="283.201" rx="2.05217" ry="2.04869" transform="rotate(90 65.0847 283.201)" fill="#3C3C3C"/>
<ellipse cx="59.9891" cy="283.542" rx="2.05217" ry="2.04869" transform="rotate(90 59.9891 283.542)" fill="#3C3C3C"/>
<ellipse cx="54.9476" cy="283.961" rx="2.05217" ry="2.04869" transform="rotate(90 54.9476 283.961)" fill="#3C3C3C"/>
<ellipse cx="49.6478" cy="284.328" rx="2.05217" ry="2.04869" transform="rotate(90 49.6478 284.328)" fill="#3C3C3C"/>
<ellipse cx="77.7528" cy="288.408" rx="2.05217" ry="2.04869" transform="rotate(90 77.7528 288.408)" fill="#3C3C3C"/>
<ellipse cx="75.3187" cy="288.845" rx="2.05217" ry="2.04869" transform="rotate(90 75.3187 288.845)" fill="#3C3C3C"/>
<ellipse cx="71.2171" cy="289.353" rx="2.05217" ry="2.04869" transform="rotate(90 71.2171 289.353)" fill="#3C3C3C"/>
<ellipse cx="67.3284" cy="290.154" rx="2.05217" ry="2.04869" transform="rotate(90 67.3284 290.154)" fill="#3C3C3C"/>
<ellipse cx="63.1394" cy="291.075" rx="2.05217" ry="2.04869" transform="rotate(90 63.1394 291.075)" fill="#3C3C3C"/>
<ellipse cx="57.9374" cy="291.603" rx="2.05217" ry="2.04869" transform="rotate(90 57.9374 291.603)" fill="#3C3C3C"/>
<ellipse cx="78.417" cy="294.598" rx="2.05217" ry="2.04869" transform="rotate(90 78.417 294.598)" fill="#3C3C3C"/>
<ellipse cx="75.7966" cy="295.103" rx="2.05217" ry="2.04869" transform="rotate(90 75.7966 295.103)" fill="#3C3C3C"/>
<ellipse cx="71.6176" cy="295.633" rx="2.05217" ry="2.04869" transform="rotate(90 71.6176 295.633)" fill="#3C3C3C"/>
<ellipse cx="67.9464" cy="296.578" rx="2.05217" ry="2.04869" transform="rotate(90 67.9464 296.578)" fill="#3C3C3C"/>
<ellipse cx="63.9721" cy="297.694" rx="2.05217" ry="2.04869" transform="rotate(90 63.9721 297.694)" fill="#3C3C3C"/>
<ellipse cx="58.7212" cy="298.243" rx="2.05217" ry="2.04869" transform="rotate(90 58.7212 298.243)" fill="#3C3C3C"/>
<circle cx="3.44336" cy="166.819" r="2.1178" transform="rotate(-90 3.44336 166.819)" fill="#3C3C3C"/>
<circle cx="8.2522" cy="166.236" r="2.1178" transform="rotate(-90 8.2522 166.236)" fill="#3C3C3C"/>
<circle cx="12.7258" cy="165.403" r="2.1178" transform="rotate(-90 12.7258 165.403)" fill="#3C3C3C"/>
<circle cx="21.5082" cy="166.453" r="2.1178" transform="rotate(-90 21.5082 166.453)" fill="#3C3C3C"/>
<circle cx="36.3923" cy="168.494" r="2.1178" transform="rotate(-90 36.3923 168.494)" fill="#3C3C3C"/>
<circle cx="52.4169" cy="168.055" r="2.1178" transform="rotate(-90 52.4169 168.055)" fill="#3C3C3C"/>
<circle cx="66.306" cy="165.62" r="2.1178" transform="rotate(-90 66.306 165.62)" fill="#3C3C3C"/>
<circle cx="78.7043" cy="162.001" r="2.1178" transform="rotate(-90 78.7043 162.001)" fill="#3C3C3C"/>
<circle cx="2.31995" cy="160.05" r="2.1178" transform="rotate(-90 2.31995 160.05)" fill="#3C3C3C"/>
<circle cx="8.48511" cy="159.976" r="2.1178" transform="rotate(-90 8.48511 159.976)" fill="#3C3C3C"/>
<circle cx="15.0089" cy="160.043" r="2.1178" transform="rotate(-90 15.0089 160.043)" fill="#3C3C3C"/>
<circle cx="23.5648" cy="160.816" r="2.1178" transform="rotate(-90 23.5648 160.816)" fill="#3C3C3C"/>
<circle cx="35.9408" cy="162.092" r="2.1178" transform="rotate(-90 35.9408 162.092)" fill="#3C3C3C"/>
<circle cx="50.3469" cy="162.037" r="2.1178" transform="rotate(-90 50.3469 162.037)" fill="#3C3C3C"/>
<circle cx="64.0342" cy="160.215" r="2.1178" transform="rotate(-90 64.0342 160.215)" fill="#3C3C3C"/>
<circle cx="76.33" cy="157.281" r="2.1178" transform="rotate(-90 76.33 157.281)" fill="#3C3C3C"/>
<circle cx="2.47168" cy="153.756" r="2.1178" transform="rotate(-90 2.47168 153.756)" fill="#3C3C3C"/>
<circle cx="10.7478" cy="154.428" r="2.1178" transform="rotate(-90 10.7478 154.428)" fill="#3C3C3C"/>
<circle cx="20.5139" cy="155.307" r="2.1178" transform="rotate(-90 20.5139 155.307)" fill="#3C3C3C"/>
<circle cx="28.2987" cy="155.563" r="2.1178" transform="rotate(-90 28.2987 155.563)" fill="#3C3C3C"/>
<circle cx="36.1824" cy="155.766" r="2.1178" transform="rotate(-90 36.1824 155.766)" fill="#3C3C3C"/>
<circle cx="47.6845" cy="155.92" r="2.1178" transform="rotate(-90 47.6845 155.92)" fill="#3C3C3C"/>
<circle cx="60.8148" cy="154.882" r="2.1178" transform="rotate(-90 60.8148 154.882)" fill="#3C3C3C"/>
<circle cx="72.778" cy="152.859" r="2.1178" transform="rotate(-90 72.778 152.859)" fill="#3C3C3C"/>
<circle cx="9.39478" cy="149.234" r="2.1178" transform="rotate(-90 9.39478 149.234)" fill="#3C3C3C"/>
<circle cx="17.5375" cy="149.454" r="2.1178" transform="rotate(-90 17.5375 149.454)" fill="#3C3C3C"/>
<circle cx="26.6584" cy="149.603" r="2.1178" transform="rotate(-90 26.6584 149.603)" fill="#3C3C3C"/>
<circle cx="33.1731" cy="149.604" r="2.1178" transform="rotate(-90 33.1731 149.604)" fill="#3C3C3C"/>
<circle cx="39.4179" cy="149.603" r="2.1178" transform="rotate(-90 39.4179 149.603)" fill="#3C3C3C"/>
<circle cx="49.7628" cy="149.401" r="2.1178" transform="rotate(-90 49.7628 149.401)" fill="#3C3C3C"/>
<circle cx="62.2742" cy="148.111" r="2.1178" transform="rotate(-90 62.2742 148.111)" fill="#3C3C3C"/>
<circle cx="73.9281" cy="145.941" r="2.1178" transform="rotate(-90 73.9281 145.941)" fill="#3C3C3C"/>
<circle cx="22.0903" cy="142.327" r="2.1178" transform="rotate(-90 22.0903 142.327)" fill="#3C3C3C"/>
<circle cx="28.0834" cy="142.413" r="2.1178" transform="rotate(-90 28.0834 142.413)" fill="#3C3C3C"/>
<circle cx="33.3546" cy="142.642" r="2.1178" transform="rotate(-90 33.3546 142.642)" fill="#3C3C3C"/>
<circle cx="38.364" cy="142.875" r="2.1178" transform="rotate(-90 38.364 142.875)" fill="#3C3C3C"/>
<circle cx="44.5551" cy="142.9" r="2.1178" transform="rotate(-90 44.5551 142.9)" fill="#3C3C3C"/>
<circle cx="54.5509" cy="142.152" r="2.1178" transform="rotate(-90 54.5509 142.152)" fill="#3C3C3C"/>
<circle cx="65.8892" cy="140.396" r="2.1178" transform="rotate(-90 65.8892 140.396)" fill="#3C3C3C"/>
<circle cx="76.5195" cy="138.101" r="2.1178" transform="rotate(-90 76.5195 138.101)" fill="#3C3C3C"/>
<circle cx="31.6006" cy="132.026" r="2.1178" transform="rotate(-90 31.6006 132.026)" fill="#3C3C3C"/>
<circle cx="36.4567" cy="132.891" r="2.1178" transform="rotate(-90 36.4567 132.891)" fill="#3C3C3C"/>
<circle cx="39.5928" cy="134.42" r="2.1178" transform="rotate(-90 39.5928 134.42)" fill="#3C3C3C"/>
<circle cx="43.6541" cy="135.264" r="2.1178" transform="rotate(-90 43.6541 135.264)" fill="#3C3C3C"/>
<circle cx="49.5855" cy="135.399" r="2.1178" transform="rotate(-90 49.5855 135.399)" fill="#3C3C3C"/>
<circle cx="58.9242" cy="134.307" r="2.1178" transform="rotate(-90 58.9242 134.307)" fill="#3C3C3C"/>
<circle cx="69.0304" cy="132.438" r="2.1178" transform="rotate(-90 69.0304 132.438)" fill="#3C3C3C"/>
<circle cx="78.5525" cy="130.348" r="2.1178" transform="rotate(-90 78.5525 130.348)" fill="#3C3C3C"/>
<circle cx="34.8163" cy="123.428" r="2.1178" transform="rotate(-90 34.8163 123.428)" fill="#3C3C3C"/>
<circle cx="40.7196" cy="123.777" r="2.1178" transform="rotate(-90 40.7196 123.777)" fill="#3C3C3C"/>
<circle cx="45.6211" cy="124.823" r="2.1178" transform="rotate(-90 45.6211 124.823)" fill="#3C3C3C"/>
<circle cx="49.9503" cy="126.096" r="2.1178" transform="rotate(-90 49.9503 126.096)" fill="#3C3C3C"/>
<circle cx="55.8877" cy="126.333" r="2.1178" transform="rotate(-90 55.8877 126.333)" fill="#3C3C3C"/>
<circle cx="64.5229" cy="124.93" r="2.1178" transform="rotate(-90 64.5229 124.93)" fill="#3C3C3C"/>
<circle cx="72.703" cy="123.611" r="2.1178" transform="rotate(-90 72.703 123.611)" fill="#3C3C3C"/>
<circle cx="36.1417" cy="115.97" r="2.1178" transform="rotate(-90 36.1417 115.97)" fill="#3C3C3C"/>
<circle cx="43.5908" cy="114.962" r="2.1178" transform="rotate(-90 43.5908 114.962)" fill="#3C3C3C"/>
<circle cx="51.0612" cy="113.834" r="2.1178" transform="rotate(-90 51.0612 113.834)" fill="#3C3C3C"/>
<circle cx="56.2974" cy="114.962" r="2.1178" transform="rotate(-90 56.2974 114.962)" fill="#3C3C3C"/>
<circle cx="62.8328" cy="114.786" r="2.1178" transform="rotate(-90 62.8328 114.786)" fill="#3C3C3C"/>
<circle cx="70.9685" cy="112.902" r="2.1178" transform="rotate(-90 70.9685 112.902)" fill="#3C3C3C"/>
<circle cx="77.1073" cy="113.145" r="2.1178" transform="rotate(-90 77.1073 113.145)" fill="#3C3C3C"/>
<circle cx="39.3137" cy="106.42" r="2.1178" transform="rotate(-90 39.3137 106.42)" fill="#3C3C3C"/>
<circle cx="46.7675" cy="105.079" r="2.1178" transform="rotate(-90 46.7675 105.079)" fill="#3C3C3C"/>
<circle cx="54.3624" cy="103.372" r="2.1178" transform="rotate(-90 54.3624 103.372)" fill="#3C3C3C"/>
<circle cx="60.0137" cy="104.365" r="2.1178" transform="rotate(-90 60.0137 104.365)" fill="#3C3C3C"/>
<circle cx="66.4946" cy="104.191" r="2.1178" transform="rotate(-90 66.4946 104.191)" fill="#3C3C3C"/>
<circle cx="74.0037" cy="102.487" r="2.1178" transform="rotate(-90 74.0037 102.487)" fill="#3C3C3C"/>
<circle cx="42.1808" cy="96.2218" r="2.1178" transform="rotate(-90 42.1808 96.2218)" fill="#3C3C3C"/>
<circle cx="48.7532" cy="95.8738" r="2.1178" transform="rotate(-90 48.7532 95.8738)" fill="#3C3C3C"/>
<circle cx="55.1498" cy="95.804" r="2.1178" transform="rotate(-90 55.1498 95.804)" fill="#3C3C3C"/>
<circle cx="60.6676" cy="97.0898" r="2.1178" transform="rotate(-90 60.6676 97.0898)" fill="#3C3C3C"/>
<circle cx="66.3627" cy="98.0181" r="2.1178" transform="rotate(-90 66.3627 98.0181)" fill="#3C3C3C"/>
<circle cx="73.1968" cy="97.347" r="2.1178" transform="rotate(-90 73.1968 97.347)" fill="#3C3C3C"/>
<circle cx="44.2091" cy="86.1953" r="2.1178" transform="rotate(-90 44.2091 86.1953)" fill="#3C3C3C"/>
<circle cx="50.3665" cy="86.6033" r="2.1178" transform="rotate(-90 50.3665 86.6033)" fill="#3C3C3C"/>
<circle cx="56.1303" cy="87.7519" r="2.1178" transform="rotate(-90 56.1303 87.7519)" fill="#3C3C3C"/>
<circle cx="61.5491" cy="89.3762" r="2.1178" transform="rotate(-90 61.5491 89.3762)" fill="#3C3C3C"/>
<circle cx="66.7552" cy="91.119" r="2.1178" transform="rotate(-90 66.7552 91.119)" fill="#3C3C3C"/>
<circle cx="73.1256" cy="91.0949" r="2.1178" transform="rotate(-90 73.1256 91.0949)" fill="#3C3C3C"/>
<circle cx="45.7976" cy="75.8111" r="2.1178" transform="rotate(-90 45.7976 75.8111)" fill="#3C3C3C"/>
<circle cx="51.9222" cy="76.4994" r="2.1178" transform="rotate(-90 51.9222 76.4994)" fill="#3C3C3C"/>
<circle cx="57.6819" cy="78.0892" r="2.1178" transform="rotate(-90 57.6819 78.0892)" fill="#3C3C3C"/>
<circle cx="63.2642" cy="79.8529" r="2.1178" transform="rotate(-90 63.2642 79.8529)" fill="#3C3C3C"/>
<circle cx="68.4868" cy="82.0329" r="2.1178" transform="rotate(-90 68.4868 82.0329)" fill="#3C3C3C"/>
<circle cx="74.6478" cy="82.3672" r="2.1178" transform="rotate(-90 74.6478 82.3672)" fill="#3C3C3C"/>
<circle cx="46.4812" cy="66.9982" r="2.1178" transform="rotate(-90 46.4812 66.9982)" fill="#3C3C3C"/>
<circle cx="52.5681" cy="68.0471" r="2.1178" transform="rotate(-90 52.5681 68.0471)" fill="#3C3C3C"/>
<circle cx="58.2971" cy="70.0836" r="2.1178" transform="rotate(-90 58.2971 70.0836)" fill="#3C3C3C"/>
<circle cx="64.0493" cy="71.701" r="2.1178" transform="rotate(-90 64.0493 71.701)" fill="#3C3C3C"/>
<circle cx="69.2446" cy="74.2632" r="2.1178" transform="rotate(-90 69.2446 74.2632)" fill="#3C3C3C"/>
<circle cx="75.1646" cy="75.093" r="2.1178" transform="rotate(-90 75.1646 75.093)" fill="#3C3C3C"/>
<circle cx="45.7938" cy="63.1163" r="2.1178" transform="rotate(-90 45.7938 63.1163)" fill="#3C3C3C"/>
<circle cx="51.8071" cy="64.1212" r="2.1178" transform="rotate(-90 51.8071 64.1212)" fill="#3C3C3C"/>
<circle cx="57.463" cy="65.9124" r="2.1178" transform="rotate(-90 57.463 65.9124)" fill="#3C3C3C"/>
<circle cx="63.3074" cy="67.0537" r="2.1178" transform="rotate(-90 63.3074 67.0537)" fill="#3C3C3C"/>
<circle cx="68.4727" cy="69.3511" r="2.1178" transform="rotate(-90 68.4727 69.3511)" fill="#3C3C3C"/>
<circle cx="74.2112" cy="70.3885" r="2.1178" transform="rotate(-90 74.2112 70.3885)" fill="#3C3C3C"/>
<circle cx="44.599" cy="59.924" r="2.1178" transform="rotate(-90 44.599 59.924)" fill="#3C3C3C"/>
<circle cx="50.3486" cy="61.226" r="2.1178" transform="rotate(-90 50.3486 61.226)" fill="#3C3C3C"/>
<circle cx="55.5569" cy="63.3599" r="2.1178" transform="rotate(-90 55.5569 63.3599)" fill="#3C3C3C"/>
<circle cx="61.3843" cy="64.2285" r="2.1178" transform="rotate(-90 61.3843 64.2285)" fill="#3C3C3C"/>
<circle cx="66.537" cy="66.0117" r="2.1178" transform="rotate(-90 66.537 66.0117)" fill="#3C3C3C"/>
<circle cx="72.0818" cy="67.0854" r="2.1178" transform="rotate(-90 72.0818 67.0854)" fill="#3C3C3C"/>
<circle cx="44.3857" cy="54.0479" r="2.1178" transform="rotate(-90 44.3857 54.0479)" fill="#3C3C3C"/>
<circle cx="49.9673" cy="55.6258" r="2.1178" transform="rotate(-90 49.9673 55.6258)" fill="#3C3C3C"/>
<circle cx="54.8248" cy="58.199" r="2.1178" transform="rotate(-90 54.8248 58.199)" fill="#3C3C3C"/>
<circle cx="60.5034" cy="59.2071" r="2.1178" transform="rotate(-90 60.5034 59.2071)" fill="#3C3C3C"/>
<circle cx="65.5159" cy="60.9997" r="2.1178" transform="rotate(-90 65.5159 60.9997)" fill="#3C3C3C"/>
<circle cx="70.7493" cy="62.3232" r="2.1178" transform="rotate(-90 70.7493 62.3232)" fill="#3C3C3C"/>
<circle cx="78.6187" cy="60.4961" r="2.1178" transform="rotate(-90 78.6187 60.4961)" fill="#3C3C3C"/>
<circle cx="46.0807" cy="43.1127" r="2.1178" transform="rotate(-90 46.0807 43.1127)" fill="#3C3C3C"/>
<circle cx="51.9147" cy="44.7545" r="2.1178" transform="rotate(-90 51.9147 44.7545)" fill="#3C3C3C"/>
<circle cx="57.15" cy="47.5676" r="2.1178" transform="rotate(-90 57.15 47.5676)" fill="#3C3C3C"/>
<circle cx="62.8422" cy="48.9465" r="2.1178" transform="rotate(-90 62.8422 48.9465)" fill="#3C3C3C"/>
<circle cx="67.952" cy="51.1749" r="2.1178" transform="rotate(-90 67.952 51.1749)" fill="#3C3C3C"/>
<circle cx="73.0958" cy="53.017" r="2.1178" transform="rotate(-90 73.0958 53.017)" fill="#3C3C3C"/>
<circle cx="47.3676" cy="28.0211" r="2.1178" transform="rotate(-90 47.3676 28.0211)" fill="#3C3C3C"/>
<circle cx="53.6632" cy="29.6118" r="2.1178" transform="rotate(-90 53.6632 29.6118)" fill="#3C3C3C"/>
<circle cx="59.7156" cy="32.4914" r="2.1178" transform="rotate(-90 59.7156 32.4914)" fill="#3C3C3C"/>
<circle cx="65.7729" cy="34.1764" r="2.1178" transform="rotate(-90 65.7729 34.1764)" fill="#3C3C3C"/>
<circle cx="71.4969" cy="36.7496" r="2.1178" transform="rotate(-90 71.4969 36.7496)" fill="#3C3C3C"/>
<circle cx="77.0631" cy="39.1406" r="2.1178" transform="rotate(-90 77.0631 39.1406)" fill="#3C3C3C"/>
<circle cx="46.4907" cy="13.6945" r="2.1178" transform="rotate(-90 46.4907 13.6945)" fill="#3C3C3C"/>
<circle cx="53.1493" cy="15.1337" r="2.1178" transform="rotate(-90 53.1493 15.1337)" fill="#3C3C3C"/>
<circle cx="59.9004" cy="17.8557" r="2.1178" transform="rotate(-90 59.9004 17.8557)" fill="#3C3C3C"/>
<circle cx="66.3906" cy="19.6466" r="2.1178" transform="rotate(-90 66.3906 19.6466)" fill="#3C3C3C"/>
<circle cx="72.7698" cy="22.2269" r="2.1178" transform="rotate(-90 72.7698 22.2269)" fill="#3C3C3C"/>
<circle cx="78.9368" cy="24.8986" r="2.1178" transform="rotate(-90 78.9368 24.8986)" fill="#3C3C3C"/>
<circle cx="45.0533" cy="2.75915" r="2.1178" transform="rotate(-90 45.0533 2.75915)" fill="#3C3C3C"/>
<circle cx="51.6835" cy="3.4834" r="2.1178" transform="rotate(-90 51.6835 3.4834)" fill="#3C3C3C"/>
<circle cx="58.5696" cy="5.04767" r="2.1178" transform="rotate(-90 58.5696 5.04767)" fill="#3C3C3C"/>
<circle cx="65.313" cy="6.39331" r="2.1178" transform="rotate(-90 65.313 6.39331)" fill="#3C3C3C"/>
<circle cx="71.9052" cy="7.34448" r="2.1178" transform="rotate(-90 71.9052 7.34448)" fill="#3C3C3C"/>
<circle cx="78.627" cy="9.1289" r="2.1178" transform="rotate(-90 78.627 9.1289)" fill="#3C3C3C"/>
</svg>
