<svg width="63" height="274" viewBox="0 0 63 274" fill="none" xmlns="http://www.w3.org/2000/svg">
<ellipse cx="5.80369" cy="126.903" rx="2.05217" ry="2.05357" transform="rotate(-90 5.80369 126.903)" fill="#3C3C3C"/>
<ellipse cx="12.3074" cy="126.601" rx="2.05217" ry="2.05357" transform="rotate(-90 12.3074 126.601)" fill="#3C3C3C"/>
<ellipse cx="19.3009" cy="125.816" rx="2.05217" ry="2.05357" transform="rotate(-90 19.3009 125.816)" fill="#3C3C3C"/>
<ellipse cx="26.3595" cy="124.876" rx="2.05217" ry="2.05357" transform="rotate(-90 26.3595 124.876)" fill="#3C3C3C"/>
<ellipse cx="33.0932" cy="124.217" rx="2.05217" ry="2.05357" transform="rotate(-90 33.0932 124.217)" fill="#3C3C3C"/>
<ellipse cx="39.3331" cy="124.122" rx="2.05217" ry="2.05357" transform="rotate(-90 39.3331 124.122)" fill="#3C3C3C"/>
<ellipse cx="45.14" cy="124.539" rx="2.05217" ry="2.05357" transform="rotate(-90 45.14 124.539)" fill="#3C3C3C"/>
<ellipse cx="50.4391" cy="125.478" rx="2.05217" ry="2.05357" transform="rotate(-90 50.4391 125.478)" fill="#3C3C3C"/>
<ellipse cx="54.8841" cy="127.077" rx="2.05217" ry="2.05357" transform="rotate(-90 54.8841 127.077)" fill="#3C3C3C"/>
<ellipse cx="58.5298" cy="128.921" rx="2.05217" ry="2.05357" transform="rotate(-90 58.5298 128.921)" fill="#3C3C3C"/>
<ellipse cx="61.5051" cy="130.61" rx="2.05217" ry="2.05357" transform="rotate(-90 61.5051 130.61)" fill="#3C3C3C"/>
<ellipse cx="63.8066" cy="131.897" rx="2.05217" ry="2.05357" transform="rotate(-90 63.8066 131.897)" fill="#3C3C3C"/>
<ellipse cx="5.13413" cy="121.302" rx="2.05217" ry="2.05357" transform="rotate(-90 5.13413 121.302)" fill="#3C3C3C"/>
<ellipse cx="11.4996" cy="121.136" rx="2.05217" ry="2.05357" transform="rotate(-90 11.4996 121.136)" fill="#3C3C3C"/>
<ellipse cx="18.2081" cy="120.674" rx="2.05217" ry="2.05357" transform="rotate(-90 18.2081 120.674)" fill="#3C3C3C"/>
<ellipse cx="25.0794" cy="120.03" rx="2.05217" ry="2.05357" transform="rotate(-90 25.0794 120.03)" fill="#3C3C3C"/>
<ellipse cx="31.9459" cy="119.333" rx="2.05217" ry="2.05357" transform="rotate(-90 31.9459 119.333)" fill="#3C3C3C"/>
<ellipse cx="38.6032" cy="118.805" rx="2.05217" ry="2.05357" transform="rotate(-90 38.6032 118.805)" fill="#3C3C3C"/>
<ellipse cx="44.6844" cy="118.892" rx="2.05217" ry="2.05357" transform="rotate(-90 44.6844 118.892)" fill="#3C3C3C"/>
<ellipse cx="49.9557" cy="119.806" rx="2.05217" ry="2.05357" transform="rotate(-90 49.9557 119.806)" fill="#3C3C3C"/>
<ellipse cx="54.3717" cy="121.34" rx="2.05217" ry="2.05357" transform="rotate(-90 54.3717 121.34)" fill="#3C3C3C"/>
<ellipse cx="58.0217" cy="123.077" rx="2.05217" ry="2.05357" transform="rotate(-90 58.0217 123.077)" fill="#3C3C3C"/>
<ellipse cx="61.1056" cy="124.622" rx="2.05217" ry="2.05357" transform="rotate(-90 61.1056 124.622)" fill="#3C3C3C"/>
<ellipse cx="63.7879" cy="125.745" rx="2.05217" ry="2.05357" transform="rotate(-90 63.7879 125.745)" fill="#3C3C3C"/>
<ellipse cx="3.69639" cy="116.205" rx="2.05217" ry="2.05357" transform="rotate(-90 3.69639 116.205)" fill="#3C3C3C"/>
<ellipse cx="9.72044" cy="116.297" rx="2.05217" ry="2.05357" transform="rotate(-90 9.72044 116.297)" fill="#3C3C3C"/>
<ellipse cx="15.6766" cy="116.433" rx="2.05217" ry="2.05357" transform="rotate(-90 15.6766 116.433)" fill="#3C3C3C"/>
<ellipse cx="21.9598" cy="116.352" rx="2.05217" ry="2.05357" transform="rotate(-90 21.9598 116.352)" fill="#3C3C3C"/>
<ellipse cx="29.0392" cy="115.711" rx="2.05217" ry="2.05357" transform="rotate(-90 29.0392 115.711)" fill="#3C3C3C"/>
<ellipse cx="36.6603" cy="114.544" rx="2.05217" ry="2.05357" transform="rotate(-90 36.6603 114.544)" fill="#3C3C3C"/>
<ellipse cx="43.3474" cy="114.073" rx="2.05217" ry="2.05357" transform="rotate(-90 43.3474 114.073)" fill="#3C3C3C"/>
<ellipse cx="48.5288" cy="114.926" rx="2.05217" ry="2.05357" transform="rotate(-90 48.5288 114.926)" fill="#3C3C3C"/>
<ellipse cx="52.8767" cy="116.276" rx="2.05217" ry="2.05357" transform="rotate(-90 52.8767 116.276)" fill="#3C3C3C"/>
<ellipse cx="56.5569" cy="117.728" rx="2.05217" ry="2.05357" transform="rotate(-90 56.5569 117.728)" fill="#3C3C3C"/>
<ellipse cx="59.9115" cy="118.92" rx="2.05217" ry="2.05357" transform="rotate(-90 59.9115 118.92)" fill="#3C3C3C"/>
<ellipse cx="63.4299" cy="119.67" rx="2.05217" ry="2.05357" transform="rotate(-90 63.4299 119.67)" fill="#3C3C3C"/>
<ellipse cx="2.8972" cy="110.568" rx="2.05217" ry="2.05357" transform="rotate(-90 2.8972 110.568)" fill="#3C3C3C"/>
<ellipse cx="8.62571" cy="110.83" rx="2.05217" ry="2.05357" transform="rotate(-90 8.62571 110.83)" fill="#3C3C3C"/>
<ellipse cx="13.8635" cy="111.348" rx="2.05217" ry="2.05357" transform="rotate(-90 13.8635 111.348)" fill="#3C3C3C"/>
<ellipse cx="19.4171" cy="111.659" rx="2.05217" ry="2.05357" transform="rotate(-90 19.4171 111.659)" fill="#3C3C3C"/>
<ellipse cx="26.3036" cy="111.284" rx="2.05217" ry="2.05357" transform="rotate(-90 26.3036 111.284)" fill="#3C3C3C"/>
<ellipse cx="34.3606" cy="110.143" rx="2.05217" ry="2.05357" transform="rotate(-90 34.3606 110.143)" fill="#3C3C3C"/>
<ellipse cx="41.3196" cy="109.584" rx="2.05217" ry="2.05357" transform="rotate(-90 41.3196 109.584)" fill="#3C3C3C"/>
<ellipse cx="46.3354" cy="110.37" rx="2.05217" ry="2.05357" transform="rotate(-90 46.3354 110.37)" fill="#3C3C3C"/>
<ellipse cx="50.6131" cy="111.46" rx="2.05217" ry="2.05357" transform="rotate(-90 50.6131 111.46)" fill="#3C3C3C"/>
<ellipse cx="54.3751" cy="112.535" rx="2.05217" ry="2.05357" transform="rotate(-90 54.3751 112.535)" fill="#3C3C3C"/>
<ellipse cx="58.024" cy="113.334" rx="2.05217" ry="2.05357" transform="rotate(-90 58.024 113.334)" fill="#3C3C3C"/>
<ellipse cx="62.1814" cy="113.755" rx="2.05217" ry="2.05357" transform="rotate(-90 62.1814 113.755)" fill="#3C3C3C"/>
<ellipse cx="2.86704" cy="104.43" rx="2.05217" ry="2.05357" transform="rotate(-90 2.86704 104.43)" fill="#3C3C3C"/>
<ellipse cx="8.54002" cy="104.724" rx="2.05217" ry="2.05357" transform="rotate(-90 8.54002 104.724)" fill="#3C3C3C"/>
<ellipse cx="13.555" cy="105.352" rx="2.05217" ry="2.05357" transform="rotate(-90 13.555 105.352)" fill="#3C3C3C"/>
<ellipse cx="18.6264" cy="105.875" rx="2.05217" ry="2.05357" transform="rotate(-90 18.6264 105.875)" fill="#3C3C3C"/>
<ellipse cx="24.7077" cy="105.91" rx="2.05217" ry="2.05357" transform="rotate(-90 24.7077 105.91)" fill="#3C3C3C"/>
<ellipse cx="31.8354" cy="105.454" rx="2.05217" ry="2.05357" transform="rotate(-90 31.8354 105.454)" fill="#3C3C3C"/>
<ellipse cx="38.1653" cy="105.369" rx="2.05217" ry="2.05357" transform="rotate(-90 38.1653 105.369)" fill="#3C3C3C"/>
<ellipse cx="42.9518" cy="106.014" rx="2.05217" ry="2.05357" transform="rotate(-90 42.9518 106.014)" fill="#3C3C3C"/>
<ellipse cx="47.3066" cy="106.704" rx="2.05217" ry="2.05357" transform="rotate(-90 47.3066 106.704)" fill="#3C3C3C"/>
<ellipse cx="51.2993" cy="107.315" rx="2.05217" ry="2.05357" transform="rotate(-90 51.2993 107.315)" fill="#3C3C3C"/>
<ellipse cx="55.2248" cy="107.715" rx="2.05217" ry="2.05357" transform="rotate(-90 55.2248 107.715)" fill="#3C3C3C"/>
<ellipse cx="59.8384" cy="107.862" rx="2.05217" ry="2.05357" transform="rotate(-90 59.8384 107.862)" fill="#3C3C3C"/>
<ellipse cx="64.7992" cy="107.904" rx="2.05217" ry="2.05357" transform="rotate(-90 64.7992 107.904)" fill="#3C3C3C"/>
<ellipse cx="2.76231" cy="98.3383" rx="2.05217" ry="2.05357" transform="rotate(-90 2.76231 98.3383)" fill="#3C3C3C"/>
<ellipse cx="8.54209" cy="98.5662" rx="2.05217" ry="2.05357" transform="rotate(-90 8.54209 98.5662)" fill="#3C3C3C"/>
<ellipse cx="13.6997" cy="99.1209" rx="2.05217" ry="2.05357" transform="rotate(-90 13.6997 99.1209)" fill="#3C3C3C"/>
<ellipse cx="18.5599" cy="99.748" rx="2.05217" ry="2.05357" transform="rotate(-90 18.5599 99.748)" fill="#3C3C3C"/>
<ellipse cx="23.5743" cy="100.221" rx="2.05217" ry="2.05357" transform="rotate(-90 23.5743 100.221)" fill="#3C3C3C"/>
<ellipse cx="28.8873" cy="100.526" rx="2.05217" ry="2.05357" transform="rotate(-90 28.8873 100.526)" fill="#3C3C3C"/>
<ellipse cx="33.8978" cy="100.882" rx="2.05217" ry="2.05357" transform="rotate(-90 33.8978 100.882)" fill="#3C3C3C"/>
<ellipse cx="38.467" cy="101.269" rx="2.05217" ry="2.05357" transform="rotate(-90 38.467 101.269)" fill="#3C3C3C"/>
<ellipse cx="43.1655" cy="101.523" rx="2.05217" ry="2.05357" transform="rotate(-90 43.1655 101.523)" fill="#3C3C3C"/>
<ellipse cx="47.5818" cy="101.701" rx="2.05217" ry="2.05357" transform="rotate(-90 47.5818 101.701)" fill="#3C3C3C"/>
<ellipse cx="51.8082" cy="101.744" rx="2.05217" ry="2.05357" transform="rotate(-90 51.8082 101.744)" fill="#3C3C3C"/>
<ellipse cx="57.1357" cy="101.714" rx="2.05217" ry="2.05357" transform="rotate(-90 57.1357 101.714)" fill="#3C3C3C"/>
<ellipse cx="62.7132" cy="101.674" rx="2.05217" ry="2.05357" transform="rotate(-90 62.7132 101.674)" fill="#3C3C3C"/>
<ellipse cx="9.47202" cy="91.8352" rx="2.05217" ry="2.05357" transform="rotate(-90 9.47202 91.8352)" fill="#3C3C3C"/>
<ellipse cx="14.7757" cy="92.3669" rx="2.05217" ry="2.05357" transform="rotate(-90 14.7757 92.3669)" fill="#3C3C3C"/>
<ellipse cx="19.5499" cy="93.1232" rx="2.05217" ry="2.05357" transform="rotate(-90 19.5499 93.1232)" fill="#3C3C3C"/>
<ellipse cx="23.858" cy="93.9542" rx="2.05217" ry="2.05357" transform="rotate(-90 23.858 93.9542)" fill="#3C3C3C"/>
<ellipse cx="27.8478" cy="94.6942" rx="2.05217" ry="2.05357" transform="rotate(-90 27.8478 94.6942)" fill="#3C3C3C"/>
<ellipse cx="31.8281" cy="95.2064" rx="2.05217" ry="2.05357" transform="rotate(-90 31.8281 95.2064)" fill="#3C3C3C"/>
<ellipse cx="36.175" cy="95.4678" rx="2.05217" ry="2.05357" transform="rotate(-90 36.175 95.4678)" fill="#3C3C3C"/>
<ellipse cx="41.0263" cy="95.5666" rx="2.05217" ry="2.05357" transform="rotate(-90 41.0263 95.5666)" fill="#3C3C3C"/>
<ellipse cx="45.6256" cy="95.5875" rx="2.05217" ry="2.05357" transform="rotate(-90 45.6256 95.5875)" fill="#3C3C3C"/>
<ellipse cx="49.9424" cy="95.4768" rx="2.05217" ry="2.05357" transform="rotate(-90 49.9424 95.4768)" fill="#3C3C3C"/>
<ellipse cx="55.6604" cy="95.4282" rx="2.05217" ry="2.05357" transform="rotate(-90 55.6604 95.4282)" fill="#3C3C3C"/>
<ellipse cx="61.607" cy="95.4016" rx="2.05217" ry="2.05357" transform="rotate(-90 61.607 95.4016)" fill="#3C3C3C"/>
<ellipse cx="21.4083" cy="85.924" rx="2.05217" ry="2.05357" transform="rotate(-90 21.4083 85.924)" fill="#3C3C3C"/>
<ellipse cx="25.6047" cy="87.0195" rx="2.05217" ry="2.05357" transform="rotate(-90 25.6047 87.0195)" fill="#3C3C3C"/>
<ellipse cx="29.3569" cy="88.0488" rx="2.05217" ry="2.05357" transform="rotate(-90 29.3569 88.0488)" fill="#3C3C3C"/>
<ellipse cx="33.0506" cy="88.79" rx="2.05217" ry="2.05357" transform="rotate(-90 33.0506 88.79)" fill="#3C3C3C"/>
<ellipse cx="37.2203" cy="89.1785" rx="2.05217" ry="2.05357" transform="rotate(-90 37.2203 89.1785)" fill="#3C3C3C"/>
<ellipse cx="42.1206" cy="89.3327" rx="2.05217" ry="2.05357" transform="rotate(-90 42.1206 89.3327)" fill="#3C3C3C"/>
<ellipse cx="46.7353" cy="89.427" rx="2.05217" ry="2.05357" transform="rotate(-90 46.7353 89.427)" fill="#3C3C3C"/>
<ellipse cx="50.7883" cy="89.3894" rx="2.05217" ry="2.05357" transform="rotate(-90 50.7883 89.3894)" fill="#3C3C3C"/>
<ellipse cx="55.9729" cy="89.3068" rx="2.05217" ry="2.05357" transform="rotate(-90 55.9729 89.3068)" fill="#3C3C3C"/>
<ellipse cx="61.4845" cy="89.229" rx="2.05217" ry="2.05357" transform="rotate(-90 61.4845 89.229)" fill="#3C3C3C"/>
<ellipse cx="31.294" cy="81.0902" rx="2.05217" ry="2.05357" transform="rotate(-90 31.294 81.0902)" fill="#3C3C3C"/>
<ellipse cx="34.769" cy="82.1489" rx="2.05217" ry="2.05357" transform="rotate(-90 34.769 82.1489)" fill="#3C3C3C"/>
<ellipse cx="38.994" cy="82.6848" rx="2.05217" ry="2.05357" transform="rotate(-90 38.994 82.6848)" fill="#3C3C3C"/>
<ellipse cx="44.6321" cy="82.799" rx="2.05217" ry="2.05357" transform="rotate(-90 44.6321 82.799)" fill="#3C3C3C"/>
<ellipse cx="49.8155" cy="82.9792" rx="2.05217" ry="2.05357" transform="rotate(-90 49.8155 82.9792)" fill="#3C3C3C"/>
<ellipse cx="53.4212" cy="83.25" rx="2.05217" ry="2.05357" transform="rotate(-90 53.4212 83.25)" fill="#3C3C3C"/>
<ellipse cx="57.0339" cy="83.2381" rx="2.05217" ry="2.05357" transform="rotate(-90 57.0339 83.2381)" fill="#3C3C3C"/>
<ellipse cx="61.16" cy="83.0266" rx="2.05217" ry="2.05357" transform="rotate(-90 61.16 83.0266)" fill="#3C3C3C"/>
<ellipse cx="36.8209" cy="75.2188" rx="2.05217" ry="2.05357" transform="rotate(-90 36.8209 75.2188)" fill="#3C3C3C"/>
<ellipse cx="41.0992" cy="75.9368" rx="2.05217" ry="2.05357" transform="rotate(-90 41.0992 75.9368)" fill="#3C3C3C"/>
<ellipse cx="47.2793" cy="75.9305" rx="2.05217" ry="2.05357" transform="rotate(-90 47.2793 75.9305)" fill="#3C3C3C"/>
<ellipse cx="52.875" cy="76.1108" rx="2.05217" ry="2.05357" transform="rotate(-90 52.875 76.1108)" fill="#3C3C3C"/>
<ellipse cx="56.1242" cy="76.7982" rx="2.05217" ry="2.05357" transform="rotate(-90 56.1242 76.7982)" fill="#3C3C3C"/>
<ellipse cx="58.4435" cy="77.1228" rx="2.05217" ry="2.05357" transform="rotate(-90 58.4435 77.1228)" fill="#3C3C3C"/>
<ellipse cx="61.4187" cy="76.9069" rx="2.05217" ry="2.05357" transform="rotate(-90 61.4187 76.9069)" fill="#3C3C3C"/>
<ellipse cx="31.6791" cy="64.1949" rx="2.05217" ry="2.05357" transform="rotate(-90 31.6791 64.1949)" fill="#3C3C3C"/>
<ellipse cx="35.8121" cy="65.9926" rx="2.05217" ry="2.05357" transform="rotate(-90 35.8121 65.9926)" fill="#3C3C3C"/>
<ellipse cx="39.4575" cy="67.7177" rx="2.05217" ry="2.05357" transform="rotate(-90 39.4575 67.7177)" fill="#3C3C3C"/>
<ellipse cx="43.6094" cy="68.78" rx="2.05217" ry="2.05357" transform="rotate(-90 43.6094 68.78)" fill="#3C3C3C"/>
<ellipse cx="49.3816" cy="68.9574" rx="2.05217" ry="2.05357" transform="rotate(-90 49.3816 68.9574)" fill="#3C3C3C"/>
<ellipse cx="54.6163" cy="69.3459" rx="2.05217" ry="2.05357" transform="rotate(-90 54.6163 69.3459)" fill="#3C3C3C"/>
<ellipse cx="57.6816" cy="70.3233" rx="2.05217" ry="2.05357" transform="rotate(-90 57.6816 70.3233)" fill="#3C3C3C"/>
<ellipse cx="59.7561" cy="70.9276" rx="2.05217" ry="2.05357" transform="rotate(-90 59.7561 70.9276)" fill="#3C3C3C"/>
<ellipse cx="62.5337" cy="70.8762" rx="2.05217" ry="2.05357" transform="rotate(-90 62.5337 70.8762)" fill="#3C3C3C"/>
<ellipse cx="28.483" cy="54.4165" rx="2.05217" ry="2.05357" transform="rotate(-90 28.483 54.4165)" fill="#3C3C3C"/>
<ellipse cx="33.811" cy="55.5927" rx="2.05217" ry="2.05357" transform="rotate(-90 33.811 55.5927)" fill="#3C3C3C"/>
<ellipse cx="38.7795" cy="57.0448" rx="2.05217" ry="2.05357" transform="rotate(-90 38.7795 57.0448)" fill="#3C3C3C"/>
<ellipse cx="43.1244" cy="58.8674" rx="2.05217" ry="2.05357" transform="rotate(-90 43.1244 58.8674)" fill="#3C3C3C"/>
<ellipse cx="47.1076" cy="60.5989" rx="2.05217" ry="2.05357" transform="rotate(-90 47.1076 60.5989)" fill="#3C3C3C"/>
<ellipse cx="51.6444" cy="61.6403" rx="2.05217" ry="2.05357" transform="rotate(-90 51.6444 61.6403)" fill="#3C3C3C"/>
<ellipse cx="55.801" cy="62.6837" rx="2.05217" ry="2.05357" transform="rotate(-90 55.801 62.6837)" fill="#3C3C3C"/>
<ellipse cx="58.6648" cy="63.9075" rx="2.05217" ry="2.05357" transform="rotate(-90 58.6648 63.9075)" fill="#3C3C3C"/>
<ellipse cx="60.605" cy="64.7063" rx="2.05217" ry="2.05357" transform="rotate(-90 60.605 64.7063)" fill="#3C3C3C"/>
<ellipse cx="63.2798" cy="64.7734" rx="2.05217" ry="2.05357" transform="rotate(-90 63.2798 64.7734)" fill="#3C3C3C"/>
<ellipse cx="23.0731" cy="47.0466" rx="2.05217" ry="2.05357" transform="rotate(-90 23.0731 47.0466)" fill="#3C3C3C"/>
<ellipse cx="29.2722" cy="46.9796" rx="2.05217" ry="2.05357" transform="rotate(-90 29.2722 46.9796)" fill="#3C3C3C"/>
<ellipse cx="34.894" cy="47.8737" rx="2.05217" ry="2.05357" transform="rotate(-90 34.894 47.8737)" fill="#3C3C3C"/>
<ellipse cx="40.4209" cy="48.8211" rx="2.05217" ry="2.05357" transform="rotate(-90 40.4209 48.8211)" fill="#3C3C3C"/>
<ellipse cx="45.2866" cy="50.4906" rx="2.05217" ry="2.05357" transform="rotate(-90 45.2866 50.4906)" fill="#3C3C3C"/>
<ellipse cx="49.2127" cy="52.7755" rx="2.05217" ry="2.05357" transform="rotate(-90 49.2127 52.7755)" fill="#3C3C3C"/>
<ellipse cx="52.7953" cy="54.7656" rx="2.05217" ry="2.05357" transform="rotate(-90 52.7953 54.7656)" fill="#3C3C3C"/>
<ellipse cx="56.0349" cy="56.4179" rx="2.05217" ry="2.05357" transform="rotate(-90 56.0349 56.4179)" fill="#3C3C3C"/>
<ellipse cx="58.7337" cy="57.7312" rx="2.05217" ry="2.05357" transform="rotate(-90 58.7337 57.7312)" fill="#3C3C3C"/>
<ellipse cx="60.5736" cy="58.5528" rx="2.05217" ry="2.05357" transform="rotate(-90 60.5736 58.5528)" fill="#3C3C3C"/>
<ellipse cx="63.1799" cy="58.6112" rx="2.05217" ry="2.05357" transform="rotate(-90 63.1799 58.6112)" fill="#3C3C3C"/>
<ellipse cx="8.98167" cy="43.5235" rx="2.05217" ry="2.05357" transform="rotate(-90 8.98167 43.5235)" fill="#3C3C3C"/>
<ellipse cx="22.5151" cy="41.8073" rx="2.05217" ry="2.05357" transform="rotate(-90 22.5151 41.8073)" fill="#3C3C3C"/>
<ellipse cx="28.7687" cy="41.6611" rx="2.05217" ry="2.05357" transform="rotate(-90 28.7687 41.6611)" fill="#3C3C3C"/>
<ellipse cx="34.3662" cy="42.513" rx="2.05217" ry="2.05357" transform="rotate(-90 34.3662 42.513)" fill="#3C3C3C"/>
<ellipse cx="39.9415" cy="43.3198" rx="2.05217" ry="2.05357" transform="rotate(-90 39.9415 43.3198)" fill="#3C3C3C"/>
<ellipse cx="44.8226" cy="44.8624" rx="2.05217" ry="2.05357" transform="rotate(-90 44.8226 44.8624)" fill="#3C3C3C"/>
<ellipse cx="48.6152" cy="47.1333" rx="2.05217" ry="2.05357" transform="rotate(-90 48.6152 47.1333)" fill="#3C3C3C"/>
<ellipse cx="51.8692" cy="49.1943" rx="2.05217" ry="2.05357" transform="rotate(-90 51.8692 49.1943)" fill="#3C3C3C"/>
<ellipse cx="54.812" cy="50.7982" rx="2.05217" ry="2.05357" transform="rotate(-90 54.812 50.7982)" fill="#3C3C3C"/>
<ellipse cx="57.4771" cy="51.9019" rx="2.05217" ry="2.05357" transform="rotate(-90 57.4771 51.9019)" fill="#3C3C3C"/>
<ellipse cx="59.4813" cy="52.4721" rx="2.05217" ry="2.05357" transform="rotate(-90 59.4813 52.4721)" fill="#3C3C3C"/>
<ellipse cx="62.275" cy="52.3824" rx="2.05217" ry="2.05357" transform="rotate(-90 62.275 52.3824)" fill="#3C3C3C"/>
<ellipse cx="8.66233" cy="37.7687" rx="2.05217" ry="2.05357" transform="rotate(-90 8.66233 37.7687)" fill="#3C3C3C"/>
<ellipse cx="15.1219" cy="37.3932" rx="2.05217" ry="2.05357" transform="rotate(-90 15.1219 37.3932)" fill="#3C3C3C"/>
<ellipse cx="21.7212" cy="36.8112" rx="2.05217" ry="2.05357" transform="rotate(-90 21.7212 36.8112)" fill="#3C3C3C"/>
<ellipse cx="27.5875" cy="37.206" rx="2.05217" ry="2.05357" transform="rotate(-90 27.5875 37.206)" fill="#3C3C3C"/>
<ellipse cx="32.9037" cy="38.2496" rx="2.05217" ry="2.05357" transform="rotate(-90 32.9037 38.2496)" fill="#3C3C3C"/>
<ellipse cx="38.4892" cy="38.8948" rx="2.05217" ry="2.05357" transform="rotate(-90 38.4892 38.8948)" fill="#3C3C3C"/>
<ellipse cx="43.3742" cy="40.1701" rx="2.05217" ry="2.05357" transform="rotate(-90 43.3742 40.1701)" fill="#3C3C3C"/>
<ellipse cx="46.8238" cy="42.3253" rx="2.05217" ry="2.05357" transform="rotate(-90 46.8238 42.3253)" fill="#3C3C3C"/>
<ellipse cx="49.2359" cy="44.3955" rx="2.05217" ry="2.05357" transform="rotate(-90 49.2359 44.3955)" fill="#3C3C3C"/>
<ellipse cx="51.5067" cy="45.7008" rx="2.05217" ry="2.05357" transform="rotate(-90 51.5067 45.7008)" fill="#3C3C3C"/>
<ellipse cx="54.447" cy="46.2364" rx="2.05217" ry="2.05357" transform="rotate(-90 54.447 46.2364)" fill="#3C3C3C"/>
<ellipse cx="57.8215" cy="46.3325" rx="2.05217" ry="2.05357" transform="rotate(-90 57.8215 46.3325)" fill="#3C3C3C"/>
<ellipse cx="61.8784" cy="46.1828" rx="2.05217" ry="2.05357" transform="rotate(-90 61.8784 46.1828)" fill="#3C3C3C"/>
<ellipse cx="8.87315" cy="31.3489" rx="2.05217" ry="2.05357" transform="rotate(-90 8.87315 31.3489)" fill="#3C3C3C"/>
<ellipse cx="15.1009" cy="31.2636" rx="2.05217" ry="2.05357" transform="rotate(-90 15.1009 31.2636)" fill="#3C3C3C"/>
<ellipse cx="21.1378" cy="31.4206" rx="2.05217" ry="2.05357" transform="rotate(-90 21.1378 31.4206)" fill="#3C3C3C"/>
<ellipse cx="26.2915" cy="32.6035" rx="2.05217" ry="2.05357" transform="rotate(-90 26.2915 32.6035)" fill="#3C3C3C"/>
<ellipse cx="31.0126" cy="34.0507" rx="2.05217" ry="2.05357" transform="rotate(-90 31.0126 34.0507)" fill="#3C3C3C"/>
<ellipse cx="36.4289" cy="34.707" rx="2.05217" ry="2.05357" transform="rotate(-90 36.4289 34.707)" fill="#3C3C3C"/>
<ellipse cx="41.2486" cy="35.7575" rx="2.05217" ry="2.05357" transform="rotate(-90 41.2486 35.7575)" fill="#3C3C3C"/>
<ellipse cx="44.3203" cy="37.65" rx="2.05217" ry="2.05357" transform="rotate(-90 44.3203 37.65)" fill="#3C3C3C"/>
<ellipse cx="45.846" cy="39.4185" rx="2.05217" ry="2.05357" transform="rotate(-90 45.846 39.4185)" fill="#3C3C3C"/>
<ellipse cx="47.5403" cy="40.1386" rx="2.05217" ry="2.05357" transform="rotate(-90 47.5403 40.1386)" fill="#3C3C3C"/>
<ellipse cx="50.9957" cy="40.1494" rx="2.05217" ry="2.05357" transform="rotate(-90 50.9957 40.1494)" fill="#3C3C3C"/>
<ellipse cx="55.9902" cy="40.0565" rx="2.05217" ry="2.05357" transform="rotate(-90 55.9902 40.0565)" fill="#3C3C3C"/>
<ellipse cx="61.4577" cy="39.9732" rx="2.05217" ry="2.05357" transform="rotate(-90 61.4577 39.9732)" fill="#3C3C3C"/>
<ellipse cx="9.59226" cy="24.2305" rx="2.05217" ry="2.05357" transform="rotate(-90 9.59226 24.2305)" fill="#3C3C3C"/>
<ellipse cx="15.6136" cy="24.425" rx="2.05217" ry="2.05357" transform="rotate(-90 15.6136 24.425)" fill="#3C3C3C"/>
<ellipse cx="21.1042" cy="25.3063" rx="2.05217" ry="2.05357" transform="rotate(-90 21.1042 25.3063)" fill="#3C3C3C"/>
<ellipse cx="25.467" cy="27.3068" rx="2.05217" ry="2.05357" transform="rotate(-90 25.467 27.3068)" fill="#3C3C3C"/>
<ellipse cx="29.3236" cy="29.3068" rx="2.05217" ry="2.05357" transform="rotate(-90 29.3236 29.3068)" fill="#3C3C3C"/>
<ellipse cx="34.1389" cy="30.2543" rx="2.05217" ry="2.05357" transform="rotate(-90 34.1389 30.2543)" fill="#3C3C3C"/>
<ellipse cx="38.6411" cy="31.2409" rx="2.05217" ry="2.05357" transform="rotate(-90 38.6411 31.2409)" fill="#3C3C3C"/>
<ellipse cx="41.5519" cy="32.6854" rx="2.05217" ry="2.05357" transform="rotate(-90 41.5519 32.6854)" fill="#3C3C3C"/>
<ellipse cx="42.9698" cy="33.8278" rx="2.05217" ry="2.05357" transform="rotate(-90 42.9698 33.8278)" fill="#3C3C3C"/>
<ellipse cx="44.8302" cy="33.9926" rx="2.05217" ry="2.05357" transform="rotate(-90 44.8302 33.9926)" fill="#3C3C3C"/>
<ellipse cx="48.7314" cy="33.7581" rx="2.05217" ry="2.05357" transform="rotate(-90 48.7314 33.7581)" fill="#3C3C3C"/>
<ellipse cx="54.2634" cy="33.6527" rx="2.05217" ry="2.05357" transform="rotate(-90 54.2634 33.6527)" fill="#3C3C3C"/>
<ellipse cx="60.108" cy="33.593" rx="2.05217" ry="2.05357" transform="rotate(-90 60.108 33.593)" fill="#3C3C3C"/>
<ellipse cx="65.0064" cy="33.3087" rx="2.05217" ry="2.05357" transform="rotate(-90 65.0064 33.3087)" fill="#3C3C3C"/>
<ellipse cx="10.7868" cy="16.2026" rx="2.05217" ry="2.05357" transform="rotate(-90 10.7868 16.2026)" fill="#3C3C3C"/>
<ellipse cx="16.4763" cy="16.9885" rx="2.05217" ry="2.05357" transform="rotate(-90 16.4763 16.9885)" fill="#3C3C3C"/>
<ellipse cx="21.0881" cy="19.1698" rx="2.05217" ry="2.05357" transform="rotate(-90 21.0881 19.1698)" fill="#3C3C3C"/>
<ellipse cx="24.3783" cy="22.1617" rx="2.05217" ry="2.05357" transform="rotate(-90 24.3783 22.1617)" fill="#3C3C3C"/>
<ellipse cx="27.4227" cy="24.4492" rx="2.05217" ry="2.05357" transform="rotate(-90 27.4227 24.4492)" fill="#3C3C3C"/>
<ellipse cx="31.8425" cy="25.416" rx="2.05217" ry="2.05357" transform="rotate(-90 31.8425 25.416)" fill="#3C3C3C"/>
<ellipse cx="36.2212" cy="26.2158" rx="2.05217" ry="2.05357" transform="rotate(-90 36.2212 26.2158)" fill="#3C3C3C"/>
<ellipse cx="39.1177" cy="27.2472" rx="2.05217" ry="2.05357" transform="rotate(-90 39.1177 27.2472)" fill="#3C3C3C"/>
<ellipse cx="40.6694" cy="27.8589" rx="2.05217" ry="2.05357" transform="rotate(-90 40.6694 27.8589)" fill="#3C3C3C"/>
<ellipse cx="42.8598" cy="27.6442" rx="2.05217" ry="2.05357" transform="rotate(-90 42.8598 27.6442)" fill="#3C3C3C"/>
<ellipse cx="46.9421" cy="27.2545" rx="2.05217" ry="2.05357" transform="rotate(-90 46.9421 27.2545)" fill="#3C3C3C"/>
<ellipse cx="51.7936" cy="26.9061" rx="2.05217" ry="2.05357" transform="rotate(-90 51.7936 26.9061)" fill="#3C3C3C"/>
<ellipse cx="56.9011" cy="26.5653" rx="2.05217" ry="2.05357" transform="rotate(-90 56.9011 26.5653)" fill="#3C3C3C"/>
<ellipse cx="61.9547" cy="26.1455" rx="2.05217" ry="2.05357" transform="rotate(-90 61.9547 26.1455)" fill="#3C3C3C"/>
<ellipse cx="11.597" cy="8.49983" rx="2.05217" ry="2.05357" transform="rotate(-90 11.597 8.49983)" fill="#3C3C3C"/>
<ellipse cx="17.0194" cy="9.91987" rx="2.05217" ry="2.05357" transform="rotate(-90 17.0194 9.91987)" fill="#3C3C3C"/>
<ellipse cx="20.798" cy="13.3684" rx="2.05217" ry="2.05357" transform="rotate(-90 20.798 13.3684)" fill="#3C3C3C"/>
<ellipse cx="23.0702" cy="17.0639" rx="2.05217" ry="2.05357" transform="rotate(-90 23.0702 17.0639)" fill="#3C3C3C"/>
<ellipse cx="25.5884" cy="19.306" rx="2.05217" ry="2.05357" transform="rotate(-90 25.5884 19.306)" fill="#3C3C3C"/>
<ellipse cx="29.9612" cy="20.0986" rx="2.05217" ry="2.05357" transform="rotate(-90 29.9612 20.0986)" fill="#3C3C3C"/>
<ellipse cx="34.4529" cy="20.6837" rx="2.05217" ry="2.05357" transform="rotate(-90 34.4529 20.6837)" fill="#3C3C3C"/>
<ellipse cx="37.4114" cy="21.4273" rx="2.05217" ry="2.05357" transform="rotate(-90 37.4114 21.4273)" fill="#3C3C3C"/>
<ellipse cx="39.0952" cy="21.6989" rx="2.05217" ry="2.05357" transform="rotate(-90 39.0952 21.6989)" fill="#3C3C3C"/>
<ellipse cx="41.5351" cy="21.2621" rx="2.05217" ry="2.05357" transform="rotate(-90 41.5351 21.2621)" fill="#3C3C3C"/>
<ellipse cx="45.6465" cy="20.7537" rx="2.05217" ry="2.05357" transform="rotate(-90 45.6465 20.7537)" fill="#3C3C3C"/>
<ellipse cx="49.5444" cy="19.9525" rx="2.05217" ry="2.05357" transform="rotate(-90 49.5444 19.9525)" fill="#3C3C3C"/>
<ellipse cx="53.7433" cy="19.0318" rx="2.05217" ry="2.05357" transform="rotate(-90 53.7433 19.0318)" fill="#3C3C3C"/>
<ellipse cx="58.9577" cy="18.5041" rx="2.05217" ry="2.05357" transform="rotate(-90 58.9577 18.5041)" fill="#3C3C3C"/>
<ellipse cx="11.3971" cy="2.75227" rx="2.05217" ry="2.05357" transform="rotate(-90 11.3971 2.75227)" fill="#3C3C3C"/>
<ellipse cx="16.7138" cy="4.28828" rx="2.05217" ry="2.05357" transform="rotate(-90 16.7138 4.28828)" fill="#3C3C3C"/>
<ellipse cx="20.1852" cy="7.91737" rx="2.05217" ry="2.05357" transform="rotate(-90 20.1852 7.91737)" fill="#3C3C3C"/>
<ellipse cx="22.1234" cy="11.5818" rx="2.05217" ry="2.05357" transform="rotate(-90 22.1234 11.5818)" fill="#3C3C3C"/>
<ellipse cx="24.5127" cy="13.6478" rx="2.05217" ry="2.05357" transform="rotate(-90 24.5127 13.6478)" fill="#3C3C3C"/>
<ellipse cx="28.9193" cy="14.324" rx="2.05217" ry="2.05357" transform="rotate(-90 28.9193 14.324)" fill="#3C3C3C"/>
<ellipse cx="33.5052" cy="14.7974" rx="2.05217" ry="2.05357" transform="rotate(-90 33.5052 14.7974)" fill="#3C3C3C"/>
<ellipse cx="36.5779" cy="15.3875" rx="2.05217" ry="2.05357" transform="rotate(-90 36.5779 15.3875)" fill="#3C3C3C"/>
<ellipse cx="38.4294" cy="15.5088" rx="2.05217" ry="2.05357" transform="rotate(-90 38.4294 15.5088)" fill="#3C3C3C"/>
<ellipse cx="41.056" cy="15.0043" rx="2.05217" ry="2.05357" transform="rotate(-90 41.056 15.0043)" fill="#3C3C3C"/>
<ellipse cx="45.2451" cy="14.4739" rx="2.05217" ry="2.05357" transform="rotate(-90 45.2451 14.4739)" fill="#3C3C3C"/>
<ellipse cx="48.925" cy="13.5291" rx="2.05217" ry="2.05357" transform="rotate(-90 48.925 13.5291)" fill="#3C3C3C"/>
<ellipse cx="52.9088" cy="12.4129" rx="2.05217" ry="2.05357" transform="rotate(-90 52.9088 12.4129)" fill="#3C3C3C"/>
<ellipse cx="58.1721" cy="11.8637" rx="2.05217" ry="2.05357" transform="rotate(-90 58.1721 11.8637)" fill="#3C3C3C"/>
<circle cx="2.21128" cy="2.21128" r="2.21128" transform="matrix(1.19249e-08 1 1 -1.19249e-08 5.95813 130.82)" fill="#3C3C3C"/>
<circle cx="2.21128" cy="2.21128" r="2.21128" transform="matrix(1.19249e-08 1 1 -1.19249e-08 12.6986 130.749)" fill="#3C3C3C"/>
<circle cx="2.21128" cy="2.21128" r="2.21128" transform="matrix(1.19249e-08 1 1 -1.19249e-08 23.4325 129.13)" fill="#3C3C3C"/>
<circle cx="2.21128" cy="2.21128" r="2.21128" transform="matrix(1.19249e-08 1 1 -1.19249e-08 35.2921 129.42)" fill="#3C3C3C"/>
<circle cx="2.21128" cy="2.21128" r="2.21128" transform="matrix(1.19249e-08 1 1 -1.19249e-08 47.2621 132.886)" fill="#3C3C3C"/>
<circle cx="2.21128" cy="2.21128" r="2.21128" transform="matrix(1.19249e-08 1 1 -1.19249e-08 55.5654 135.487)" fill="#3C3C3C"/>
<circle cx="2.21128" cy="2.21128" r="2.21128" transform="matrix(1.19249e-08 1 1 -1.19249e-08 5.71021 137.62)" fill="#3C3C3C"/>
<circle cx="2.21128" cy="2.21128" r="2.21128" transform="matrix(1.19249e-08 1 1 -1.19249e-08 14.8743 136.29)" fill="#3C3C3C"/>
<circle cx="2.21128" cy="2.21128" r="2.21128" transform="matrix(1.19249e-08 1 1 -1.19249e-08 24.1896 135.651)" fill="#3C3C3C"/>
<circle cx="2.21128" cy="2.21128" r="2.21128" transform="matrix(1.19249e-08 1 1 -1.19249e-08 35.0795 135.99)" fill="#3C3C3C"/>
<circle cx="2.21128" cy="2.21128" r="2.21128" transform="matrix(1.19249e-08 1 1 -1.19249e-08 46.8883 139.102)" fill="#3C3C3C"/>
<circle cx="2.21128" cy="2.21128" r="2.21128" transform="matrix(1.19249e-08 1 1 -1.19249e-08 54.8232 140.767)" fill="#3C3C3C"/>
<circle cx="2.21128" cy="2.21128" r="2.21128" transform="matrix(1.19249e-08 1 1 -1.19249e-08 62.6411 143.23)" fill="#3C3C3C"/>
<circle cx="2.21128" cy="2.21128" r="2.21128" transform="matrix(1.19249e-08 1 1 -1.19249e-08 7.32825 143.308)" fill="#3C3C3C"/>
<circle cx="2.21128" cy="2.21128" r="2.21128" transform="matrix(1.19249e-08 1 1 -1.19249e-08 14.072 143.256)" fill="#3C3C3C"/>
<circle cx="2.21128" cy="2.21128" r="2.21128" transform="matrix(1.19249e-08 1 1 -1.19249e-08 23.802 142.332)" fill="#3C3C3C"/>
<circle cx="2.21128" cy="2.21128" r="2.21128" transform="matrix(1.19249e-08 1 1 -1.19249e-08 34.1523 142.406)" fill="#3C3C3C"/>
<circle cx="2.21128" cy="2.21128" r="2.21128" transform="matrix(1.19249e-08 1 1 -1.19249e-08 44.4781 143.804)" fill="#3C3C3C"/>
<circle cx="2.21128" cy="2.21128" r="2.21128" transform="matrix(1.19249e-08 1 1 -1.19249e-08 54.0164 146.295)" fill="#3C3C3C"/>
<circle cx="2.21128" cy="2.21128" r="2.21128" transform="matrix(1.19249e-08 1 1 -1.19249e-08 62.4307 149.293)" fill="#3C3C3C"/>
<circle cx="2.21128" cy="2.21128" r="2.21128" transform="matrix(1.19249e-08 1 1 -1.19249e-08 8.33057 149.521)" fill="#3C3C3C"/>
<circle cx="2.21128" cy="2.21128" r="2.21128" transform="matrix(1.19249e-08 1 1 -1.19249e-08 14.3861 149.748)" fill="#3C3C3C"/>
<circle cx="2.21128" cy="2.21128" r="2.21128" transform="matrix(1.19249e-08 1 1 -1.19249e-08 23.4122 149.028)" fill="#3C3C3C"/>
<circle cx="2.21128" cy="2.21128" r="2.21128" transform="matrix(1.19249e-08 1 1 -1.19249e-08 33.4861 148.933)" fill="#3C3C3C"/>
<circle cx="2.21128" cy="2.21128" r="2.21128" transform="matrix(1.19249e-08 1 1 -1.19249e-08 43.8284 150.076)" fill="#3C3C3C"/>
<circle cx="2.21128" cy="2.21128" r="2.21128" transform="matrix(1.19249e-08 1 1 -1.19249e-08 53.0839 151.93)" fill="#3C3C3C"/>
<circle cx="2.21128" cy="2.21128" r="2.21128" transform="matrix(1.19249e-08 1 1 -1.19249e-08 61.516 154.127)" fill="#3C3C3C"/>
<circle cx="2.21128" cy="2.21128" r="2.21128" transform="matrix(1.19249e-08 1 1 -1.19249e-08 9.54346 155.787)" fill="#3C3C3C"/>
<circle cx="2.21128" cy="2.21128" r="2.21128" transform="matrix(1.19249e-08 1 1 -1.19249e-08 17.2145 155.589)" fill="#3C3C3C"/>
<circle cx="2.21128" cy="2.21128" r="2.21128" transform="matrix(1.19249e-08 1 1 -1.19249e-08 24.3074 155.533)" fill="#3C3C3C"/>
<circle cx="2.21128" cy="2.21128" r="2.21128" transform="matrix(1.19249e-08 1 1 -1.19249e-08 33.9568 155.634)" fill="#3C3C3C"/>
<circle cx="2.21128" cy="2.21128" r="2.21128" transform="matrix(1.19249e-08 1 1 -1.19249e-08 44.549 157.11)" fill="#3C3C3C"/>
<circle cx="2.21128" cy="2.21128" r="2.21128" transform="matrix(1.19249e-08 1 1 -1.19249e-08 51.1237 157.076)" fill="#3C3C3C"/>
<circle cx="2.21128" cy="2.21128" r="2.21128" transform="matrix(1.19249e-08 1 1 -1.19249e-08 58.8651 157.833)" fill="#3C3C3C"/>
<circle cx="2.21128" cy="2.21128" r="2.21128" transform="matrix(1.19249e-08 1 1 -1.19249e-08 10.025 162.314)" fill="#3C3C3C"/>
<circle cx="2.21128" cy="2.21128" r="2.21128" transform="matrix(1.19249e-08 1 1 -1.19249e-08 19.2051 162.114)" fill="#3C3C3C"/>
<circle cx="2.21128" cy="2.21128" r="2.21128" transform="matrix(1.19249e-08 1 1 -1.19249e-08 27.7557 162.348)" fill="#3C3C3C"/>
<circle cx="2.21128" cy="2.21128" r="2.21128" transform="matrix(1.19249e-08 1 1 -1.19249e-08 35.2799 162.573)" fill="#3C3C3C"/>
<circle cx="2.21128" cy="2.21128" r="2.21128" transform="matrix(1.19249e-08 1 1 -1.19249e-08 40.8322 162.31)" fill="#3C3C3C"/>
<circle cx="2.21128" cy="2.21128" r="2.21128" transform="matrix(1.19249e-08 1 1 -1.19249e-08 50.5992 163.412)" fill="#3C3C3C"/>
<circle cx="2.21128" cy="2.21128" r="2.21128" transform="matrix(1.19249e-08 1 1 -1.19249e-08 57.6702 163.657)" fill="#3C3C3C"/>
<circle cx="2.21128" cy="2.21128" r="2.21128" transform="matrix(1.19249e-08 1 1 -1.19249e-08 9.33582 169.102)" fill="#3C3C3C"/>
<circle cx="2.21128" cy="2.21128" r="2.21128" transform="matrix(1.19249e-08 1 1 -1.19249e-08 18.2281 168.754)" fill="#3C3C3C"/>
<circle cx="2.21128" cy="2.21128" r="2.21128" transform="matrix(1.19249e-08 1 1 -1.19249e-08 27.8893 169.008)" fill="#3C3C3C"/>
<circle cx="2.21128" cy="2.21128" r="2.21128" transform="matrix(1.19249e-08 1 1 -1.19249e-08 36.4794 169.636)" fill="#3C3C3C"/>
<circle cx="2.21128" cy="2.21128" r="2.21128" transform="matrix(1.19249e-08 1 1 -1.19249e-08 43.9032 170.01)" fill="#3C3C3C"/>
<circle cx="2.21128" cy="2.21128" r="2.21128" transform="matrix(1.19249e-08 1 1 -1.19249e-08 50.1315 169.81)" fill="#3C3C3C"/>
<circle cx="2.21128" cy="2.21128" r="2.21128" transform="matrix(1.19249e-08 1 1 -1.19249e-08 58.2985 170.685)" fill="#3C3C3C"/>
<circle cx="2.21128" cy="2.21128" r="2.21128" transform="matrix(1.19249e-08 1 1 -1.19249e-08 10.1439 175.555)" fill="#3C3C3C"/>
<circle cx="2.21128" cy="2.21128" r="2.21128" transform="matrix(1.19249e-08 1 1 -1.19249e-08 19.7347 175.408)" fill="#3C3C3C"/>
<circle cx="2.21128" cy="2.21128" r="2.21128" transform="matrix(1.19249e-08 1 1 -1.19249e-08 28.9435 175.928)" fill="#3C3C3C"/>
<circle cx="2.21128" cy="2.21128" r="2.21128" transform="matrix(1.19249e-08 1 1 -1.19249e-08 36.3768 176.224)" fill="#3C3C3C"/>
<circle cx="2.21128" cy="2.21128" r="2.21128" transform="matrix(1.19249e-08 1 1 -1.19249e-08 44.4062 176.919)" fill="#3C3C3C"/>
<circle cx="2.21128" cy="2.21128" r="2.21128" transform="matrix(1.19249e-08 1 1 -1.19249e-08 52.462 177.909)" fill="#3C3C3C"/>
<circle cx="2.21128" cy="2.21128" r="2.21128" transform="matrix(1.19249e-08 1 1 -1.19249e-08 57.0175 176.565)" fill="#3C3C3C"/>
<circle cx="2.21128" cy="2.21128" r="2.21128" transform="matrix(1.19249e-08 1 1 -1.19249e-08 62.4244 176.04)" fill="#3C3C3C"/>
<circle cx="2.21128" cy="2.21128" r="2.21128" transform="matrix(1.19249e-08 1 1 -1.19249e-08 11.9669 182.004)" fill="#3C3C3C"/>
<circle cx="2.21128" cy="2.21128" r="2.21128" transform="matrix(1.19249e-08 1 1 -1.19249e-08 21.0604 182.229)" fill="#3C3C3C"/>
<circle cx="2.21128" cy="2.21128" r="2.21128" transform="matrix(1.19249e-08 1 1 -1.19249e-08 29.0292 182.588)" fill="#3C3C3C"/>
<circle cx="2.21128" cy="2.21128" r="2.21128" transform="matrix(1.19249e-08 1 1 -1.19249e-08 35.1975 182.444)" fill="#3C3C3C"/>
<circle cx="2.21128" cy="2.21128" r="2.21128" transform="matrix(1.19249e-08 1 1 -1.19249e-08 42.6088 182.7)" fill="#3C3C3C"/>
<circle cx="2.21128" cy="2.21128" r="2.21128" transform="matrix(1.19249e-08 1 1 -1.19249e-08 50.9768 183.515)" fill="#3C3C3C"/>
<circle cx="2.21128" cy="2.21128" r="2.21128" transform="matrix(1.19249e-08 1 1 -1.19249e-08 54.2662 182.239)" fill="#3C3C3C"/>
<circle cx="2.21128" cy="2.21128" r="2.21128" transform="matrix(1.19249e-08 1 1 -1.19249e-08 59.8339 182.07)" fill="#3C3C3C"/>
<circle cx="2.21128" cy="2.21128" r="2.21128" transform="matrix(1.19249e-08 1 1 -1.19249e-08 13.5006 188.711)" fill="#3C3C3C"/>
<circle cx="2.21128" cy="2.21128" r="2.21128" transform="matrix(1.19249e-08 1 1 -1.19249e-08 21.1602 188.881)" fill="#3C3C3C"/>
<circle cx="2.21128" cy="2.21128" r="2.21128" transform="matrix(1.19249e-08 1 1 -1.19249e-08 27.2045 188.772)" fill="#3C3C3C"/>
<circle cx="2.21128" cy="2.21128" r="2.21128" transform="matrix(1.19249e-08 1 1 -1.19249e-08 32.6312 188.647)" fill="#3C3C3C"/>
<circle cx="2.21128" cy="2.21128" r="2.21128" transform="matrix(1.19249e-08 1 1 -1.19249e-08 40.223 188.736)" fill="#3C3C3C"/>
<circle cx="2.21128" cy="2.21128" r="2.21128" transform="matrix(1.19249e-08 1 1 -1.19249e-08 47.5607 188.855)" fill="#3C3C3C"/>
<circle cx="2.21128" cy="2.21128" r="2.21128" transform="matrix(1.19249e-08 1 1 -1.19249e-08 51.6893 188.637)" fill="#3C3C3C"/>
<circle cx="2.21128" cy="2.21128" r="2.21128" transform="matrix(1.19249e-08 1 1 -1.19249e-08 56.5038 188.829)" fill="#3C3C3C"/>
<circle cx="2.21128" cy="2.21128" r="2.21128" transform="matrix(1.19249e-08 1 1 -1.19249e-08 62.292 189.022)" fill="#3C3C3C"/>
<circle cx="2.21128" cy="2.21128" r="2.21128" transform="matrix(1.19249e-08 1 1 -1.19249e-08 13.5031 195.343)" fill="#3C3C3C"/>
<circle cx="2.21128" cy="2.21128" r="2.21128" transform="matrix(1.19249e-08 1 1 -1.19249e-08 22.7305 195.969)" fill="#3C3C3C"/>
<circle cx="2.21128" cy="2.21128" r="2.21128" transform="matrix(1.19249e-08 1 1 -1.19249e-08 25.9679 195.277)" fill="#3C3C3C"/>
<circle cx="2.21128" cy="2.21128" r="2.21128" transform="matrix(1.19249e-08 1 1 -1.19249e-08 30.5093 195.374)" fill="#3C3C3C"/>
<circle cx="2.21128" cy="2.21128" r="2.21128" transform="matrix(1.19249e-08 1 1 -1.19249e-08 39.1764 195.275)" fill="#3C3C3C"/>
<circle cx="2.21128" cy="2.21128" r="2.21128" transform="matrix(1.19249e-08 1 1 -1.19249e-08 45.299 195.265)" fill="#3C3C3C"/>
<circle cx="2.21128" cy="2.21128" r="2.21128" transform="matrix(1.19249e-08 1 1 -1.19249e-08 50.3375 195.383)" fill="#3C3C3C"/>
<circle cx="2.21128" cy="2.21128" r="2.21128" transform="matrix(1.19249e-08 1 1 -1.19249e-08 54.7654 195.936)" fill="#3C3C3C"/>
<circle cx="2.21128" cy="2.21128" r="2.21128" transform="matrix(1.19249e-08 1 1 -1.19249e-08 61.1226 196.039)" fill="#3C3C3C"/>
<circle cx="2.21128" cy="2.21128" r="2.21128" transform="matrix(1.19249e-08 1 1 -1.19249e-08 17.7238 203.355)" fill="#3C3C3C"/>
<circle cx="2.21128" cy="2.21128" r="2.21128" transform="matrix(1.19249e-08 1 1 -1.19249e-08 22.0845 202.383)" fill="#3C3C3C"/>
<circle cx="2.21128" cy="2.21128" r="2.21128" transform="matrix(1.19249e-08 1 1 -1.19249e-08 28.2406 202.25)" fill="#3C3C3C"/>
<circle cx="2.21128" cy="2.21128" r="2.21128" transform="matrix(1.19249e-08 1 1 -1.19249e-08 34.5687 202.176)" fill="#3C3C3C"/>
<circle cx="2.21128" cy="2.21128" r="2.21128" transform="matrix(1.19249e-08 1 1 -1.19249e-08 42.6561 202.612)" fill="#3C3C3C"/>
<circle cx="2.21128" cy="2.21128" r="2.21128" transform="matrix(1.19249e-08 1 1 -1.19249e-08 49.2024 202.581)" fill="#3C3C3C"/>
<circle cx="2.21128" cy="2.21128" r="2.21128" transform="matrix(1.19249e-08 1 1 -1.19249e-08 53.3823 201.986)" fill="#3C3C3C"/>
<circle cx="2.21128" cy="2.21128" r="2.21128" transform="matrix(1.19249e-08 1 1 -1.19249e-08 55.5835 202.307)" fill="#3C3C3C"/>
<circle cx="2.21128" cy="2.21128" r="2.21128" transform="matrix(1.19249e-08 1 1 -1.19249e-08 61.7711 202.44)" fill="#3C3C3C"/>
<circle cx="2.21128" cy="2.21128" r="2.21128" transform="matrix(1.19249e-08 1 1 -1.19249e-08 18.6211 210.551)" fill="#3C3C3C"/>
<circle cx="2.21128" cy="2.21128" r="2.21128" transform="matrix(1.19249e-08 1 1 -1.19249e-08 25.0389 210.406)" fill="#3C3C3C"/>
<circle cx="2.21128" cy="2.21128" r="2.21128" transform="matrix(1.19249e-08 1 1 -1.19249e-08 30.0334 209.506)" fill="#3C3C3C"/>
<circle cx="2.21128" cy="2.21128" r="2.21128" transform="matrix(1.19249e-08 1 1 -1.19249e-08 35.5378 209.074)" fill="#3C3C3C"/>
<circle cx="2.21128" cy="2.21128" r="2.21128" transform="matrix(1.19249e-08 1 1 -1.19249e-08 42.8126 209.303)" fill="#3C3C3C"/>
<circle cx="2.21128" cy="2.21128" r="2.21128" transform="matrix(1.19249e-08 1 1 -1.19249e-08 48.5712 209.002)" fill="#3C3C3C"/>
<circle cx="2.21128" cy="2.21128" r="2.21128" transform="matrix(1.19249e-08 1 1 -1.19249e-08 52.5635 208.544)" fill="#3C3C3C"/>
<circle cx="2.21128" cy="2.21128" r="2.21128" transform="matrix(1.19249e-08 1 1 -1.19249e-08 56.2145 208.782)" fill="#3C3C3C"/>
<circle cx="2.21128" cy="2.21128" r="2.21128" transform="matrix(1.19249e-08 1 1 -1.19249e-08 62.5297 208.856)" fill="#3C3C3C"/>
<circle cx="2.21128" cy="2.21128" r="2.21128" transform="matrix(1.19249e-08 1 1 -1.19249e-08 17.7966 216.66)" fill="#3C3C3C"/>
<circle cx="2.21128" cy="2.21128" r="2.21128" transform="matrix(1.19249e-08 1 1 -1.19249e-08 24.6671 216.801)" fill="#3C3C3C"/>
<circle cx="2.21128" cy="2.21128" r="2.21128" transform="matrix(1.19249e-08 1 1 -1.19249e-08 29.024 215.744)" fill="#3C3C3C"/>
<circle cx="2.21128" cy="2.21128" r="2.21128" transform="matrix(1.19249e-08 1 1 -1.19249e-08 34.3462 215.391)" fill="#3C3C3C"/>
<circle cx="2.21128" cy="2.21128" r="2.21128" transform="matrix(1.19249e-08 1 1 -1.19249e-08 41.8643 215.612)" fill="#3C3C3C"/>
<circle cx="2.21128" cy="2.21128" r="2.21128" transform="matrix(1.19249e-08 1 1 -1.19249e-08 47.4806 215.365)" fill="#3C3C3C"/>
<circle cx="2.21128" cy="2.21128" r="2.21128" transform="matrix(1.19249e-08 1 1 -1.19249e-08 51.4969 215.169)" fill="#3C3C3C"/>
<circle cx="2.21128" cy="2.21128" r="2.21128" transform="matrix(1.19249e-08 1 1 -1.19249e-08 57.0208 215.27)" fill="#3C3C3C"/>
<circle cx="2.21128" cy="2.21128" r="2.21128" transform="matrix(1.19249e-08 1 1 -1.19249e-08 15.1517 222.191)" fill="#3C3C3C"/>
<circle cx="2.21128" cy="2.21128" r="2.21128" transform="matrix(1.19249e-08 1 1 -1.19249e-08 20.506 221.919)" fill="#3C3C3C"/>
<circle cx="2.21128" cy="2.21128" r="2.21128" transform="matrix(1.19249e-08 1 1 -1.19249e-08 25.3662 221.791)" fill="#3C3C3C"/>
<circle cx="2.21128" cy="2.21128" r="2.21128" transform="matrix(1.19249e-08 1 1 -1.19249e-08 31.2411 221.821)" fill="#3C3C3C"/>
<circle cx="2.21128" cy="2.21128" r="2.21128" transform="matrix(1.19249e-08 1 1 -1.19249e-08 38.5514 221.792)" fill="#3C3C3C"/>
<circle cx="2.21128" cy="2.21128" r="2.21128" transform="matrix(1.19249e-08 1 1 -1.19249e-08 43.9399 221.877)" fill="#3C3C3C"/>
<circle cx="2.21128" cy="2.21128" r="2.21128" transform="matrix(1.19249e-08 1 1 -1.19249e-08 49.4008 222.087)" fill="#3C3C3C"/>
<circle cx="2.21128" cy="2.21128" r="2.21128" transform="matrix(1.19249e-08 1 1 -1.19249e-08 58.5974 221.791)" fill="#3C3C3C"/>
<circle cx="2.21128" cy="2.21128" r="2.21128" transform="matrix(1.19249e-08 1 1 -1.19249e-08 14.5349 228.672)" fill="#3C3C3C"/>
<circle cx="2.21128" cy="2.21128" r="2.21128" transform="matrix(1.19249e-08 1 1 -1.19249e-08 20.6331 228.571)" fill="#3C3C3C"/>
<circle cx="2.21128" cy="2.21128" r="2.21128" transform="matrix(1.19249e-08 1 1 -1.19249e-08 26.6633 228.489)" fill="#3C3C3C"/>
<circle cx="2.21128" cy="2.21128" r="2.21128" transform="matrix(1.19249e-08 1 1 -1.19249e-08 32.2721 228.424)" fill="#3C3C3C"/>
<circle cx="2.21128" cy="2.21128" r="2.21128" transform="matrix(1.19249e-08 1 1 -1.19249e-08 37.6353 228.473)" fill="#3C3C3C"/>
<circle cx="2.21128" cy="2.21128" r="2.21128" transform="matrix(1.19249e-08 1 1 -1.19249e-08 42.7001 228.734)" fill="#3C3C3C"/>
<circle cx="2.21128" cy="2.21128" r="2.21128" transform="matrix(1.19249e-08 1 1 -1.19249e-08 50.4178 228.529)" fill="#3C3C3C"/>
<circle cx="2.21128" cy="2.21128" r="2.21128" transform="matrix(1.19249e-08 1 1 -1.19249e-08 60.4191 228.571)" fill="#3C3C3C"/>
<circle cx="2.21128" cy="2.21128" r="2.21128" transform="matrix(1.19249e-08 1 1 -1.19249e-08 16.9261 236.103)" fill="#3C3C3C"/>
<circle cx="2.21128" cy="2.21128" r="2.21128" transform="matrix(1.19249e-08 1 1 -1.19249e-08 21.3175 235.337)" fill="#3C3C3C"/>
<circle cx="2.21128" cy="2.21128" r="2.21128" transform="matrix(1.19249e-08 1 1 -1.19249e-08 28.496 235.476)" fill="#3C3C3C"/>
<circle cx="2.21128" cy="2.21128" r="2.21128" transform="matrix(1.19249e-08 1 1 -1.19249e-08 35.0345 235.45)" fill="#3C3C3C"/>
<circle cx="2.21128" cy="2.21128" r="2.21128" transform="matrix(1.19249e-08 1 1 -1.19249e-08 41.0829 235.308)" fill="#3C3C3C"/>
<circle cx="2.21128" cy="2.21128" r="2.21128" transform="matrix(1.19249e-08 1 1 -1.19249e-08 47.9747 235.367)" fill="#3C3C3C"/>
<circle cx="2.21128" cy="2.21128" r="2.21128" transform="matrix(1.19249e-08 1 1 -1.19249e-08 56.8058 236.146)" fill="#3C3C3C"/>
<circle cx="2.21128" cy="2.21128" r="2.21128" transform="matrix(1.19249e-08 1 1 -1.19249e-08 19.9945 244.836)" fill="#3C3C3C"/>
<circle cx="2.21128" cy="2.21128" r="2.21128" transform="matrix(1.19249e-08 1 1 -1.19249e-08 26.4656 244.685)" fill="#3C3C3C"/>
<circle cx="2.21128" cy="2.21128" r="2.21128" transform="matrix(1.19249e-08 1 1 -1.19249e-08 32.4558 244.135)" fill="#3C3C3C"/>
<circle cx="2.21128" cy="2.21128" r="2.21128" transform="matrix(1.19249e-08 1 1 -1.19249e-08 38.5697 243.747)" fill="#3C3C3C"/>
<circle cx="2.21128" cy="2.21128" r="2.21128" transform="matrix(1.19249e-08 1 1 -1.19249e-08 45.4651 243.939)" fill="#3C3C3C"/>
<circle cx="2.21128" cy="2.21128" r="2.21128" transform="matrix(1.19249e-08 1 1 -1.19249e-08 53.1102 244.796)" fill="#3C3C3C"/>
<circle cx="2.21128" cy="2.21128" r="2.21128" transform="matrix(1.19249e-08 1 1 -1.19249e-08 60.8599 246.031)" fill="#3C3C3C"/>
<circle cx="2.21128" cy="2.21128" r="2.21128" transform="matrix(1.19249e-08 1 1 -1.19249e-08 21.443 253.169)" fill="#3C3C3C"/>
<circle cx="2.21128" cy="2.21128" r="2.21128" transform="matrix(1.19249e-08 1 1 -1.19249e-08 28.3472 253.582)" fill="#3C3C3C"/>
<circle cx="2.21128" cy="2.21128" r="2.21128" transform="matrix(1.19249e-08 1 1 -1.19249e-08 33.6736 251.89)" fill="#3C3C3C"/>
<circle cx="2.21128" cy="2.21128" r="2.21128" transform="matrix(1.19249e-08 1 1 -1.19249e-08 39.4543 251.071)" fill="#3C3C3C"/>
<circle cx="2.21128" cy="2.21128" r="2.21128" transform="matrix(1.19249e-08 1 1 -1.19249e-08 46.5985 251.543)" fill="#3C3C3C"/>
<circle cx="2.21128" cy="2.21128" r="2.21128" transform="matrix(1.19249e-08 1 1 -1.19249e-08 54.3328 252.799)" fill="#3C3C3C"/>
<circle cx="2.21128" cy="2.21128" r="2.21128" transform="matrix(1.19249e-08 1 1 -1.19249e-08 61.8429 254.155)" fill="#3C3C3C"/>
<circle cx="2.21128" cy="2.21128" r="2.21128" transform="matrix(1.19249e-08 1 1 -1.19249e-08 22.6157 261.965)" fill="#3C3C3C"/>
<circle cx="2.21128" cy="2.21128" r="2.21128" transform="matrix(1.19249e-08 1 1 -1.19249e-08 28.928 261.253)" fill="#3C3C3C"/>
<circle cx="2.21128" cy="2.21128" r="2.21128" transform="matrix(1.19249e-08 1 1 -1.19249e-08 33.5693 258.411)" fill="#3C3C3C"/>
<circle cx="2.21128" cy="2.21128" r="2.21128" transform="matrix(1.19249e-08 1 1 -1.19249e-08 38.9972 257.327)" fill="#3C3C3C"/>
<circle cx="2.21128" cy="2.21128" r="2.21128" transform="matrix(1.19249e-08 1 1 -1.19249e-08 45.7772 257.444)" fill="#3C3C3C"/>
<circle cx="2.21128" cy="2.21128" r="2.21128" transform="matrix(1.19249e-08 1 1 -1.19249e-08 53.4102 258.356)" fill="#3C3C3C"/>
<circle cx="2.21128" cy="2.21128" r="2.21128" transform="matrix(1.19249e-08 1 1 -1.19249e-08 61.3077 259.911)" fill="#3C3C3C"/>
</svg>
