<svg width="335" height="25" viewBox="0 0 335 25" fill="none" xmlns="http://www.w3.org/2000/svg">
<circle cx="326.133" cy="14.0986" r="2.14534" transform="rotate(-45 326.133 14.0986)" fill="#3C3C3C"/>
<circle cx="326.027" cy="4.6731" r="2.14534" transform="rotate(-45 326.027 4.6731)" fill="#3C3C3C"/>
<circle cx="329.061" cy="19.6218" r="2.14534" transform="rotate(-45 329.061 19.6218)" fill="#3C3C3C"/>
<circle cx="320.766" cy="27.3896" r="2.14534" transform="rotate(-45 320.766 27.3896)" fill="#3C3C3C"/>
<circle cx="330.895" cy="10.2803" r="2.14534" transform="rotate(-45 330.895 10.2803)" fill="#3C3C3C"/>
<circle cx="333.929" cy="25.2288" r="2.14534" transform="rotate(-45 333.929 25.2288)" fill="#3C3C3C"/>
<circle cx="298.554" cy="23.407" r="2.14534" transform="rotate(-45 298.554 23.407)" fill="#3C3C3C"/>
<circle cx="318.671" cy="21.9531" r="2.14534" transform="rotate(-45 318.671 21.9531)" fill="#3C3C3C"/>
<circle cx="323.8" cy="18.7517" r="2.14534" transform="rotate(-45 323.8 18.7517)" fill="#3C3C3C"/>
<circle cx="278.366" cy="21.4338" r="2.14534" transform="rotate(-45 278.366 21.4338)" fill="#3C3C3C"/>
<circle cx="283.732" cy="21.4338" r="2.14534" transform="rotate(-45 283.732 21.4338)" fill="#3C3C3C"/>
<circle cx="269.175" cy="19.7207" r="2.14534" transform="rotate(-45 269.175 19.7207)" fill="#3C3C3C"/>
<circle cx="262.332" cy="18.5549" r="2.14534" transform="rotate(-45 262.332 18.5549)" fill="#3C3C3C"/>
<circle cx="254.513" cy="20.3564" r="2.14534" transform="rotate(-45 254.513 20.3564)" fill="#3C3C3C"/>
<circle cx="303.042" cy="18.7517" r="2.14534" transform="rotate(-45 303.042 18.7517)" fill="#3C3C3C"/>
<circle cx="334.03" cy="16.5378" r="2.14534" transform="rotate(-45 334.03 16.5378)" fill="#3C3C3C"/>
<circle cx="325.734" cy="24.3057" r="2.14534" transform="rotate(-45 325.734 24.3057)" fill="#3C3C3C"/>
<circle cx="335.742" cy="7.14331" r="2.14534" transform="rotate(-45 335.742 7.14331)" fill="#3C3C3C"/>
<circle cx="282.887" cy="10.9407" r="2.14534" transform="rotate(-45 282.887 10.9407)" fill="#3C3C3C"/>
<circle cx="303.003" cy="9.48706" r="2.14534" transform="rotate(-45 303.003 9.48706)" fill="#3C3C3C"/>
<circle cx="298.397" cy="13.2112" r="2.14534" transform="rotate(-45 298.397 13.2112)" fill="#3C3C3C"/>
<circle cx="297.666" cy="5.56592" r="2.14534" transform="rotate(-45 297.666 5.56592)" fill="#3C3C3C"/>
<circle cx="287.773" cy="17.4165" r="2.14534" transform="rotate(-45 287.773 17.4165)" fill="#3C3C3C"/>
<circle cx="274.023" cy="16.9316" r="2.14534" transform="rotate(-45 274.023 16.9316)" fill="#3C3C3C"/>
<circle cx="307.889" cy="15.9626" r="2.14534" transform="rotate(-45 307.889 15.9626)" fill="#3C3C3C"/>
<circle cx="292.393" cy="22.8608" r="2.14534" transform="rotate(-45 292.393 22.8608)" fill="#3C3C3C"/>
<circle cx="279.791" cy="15.1902" r="2.14534" transform="rotate(-45 279.791 15.1902)" fill="#3C3C3C"/>
<circle cx="312.509" cy="21.407" r="2.14534" transform="rotate(-45 312.509 21.407)" fill="#3C3C3C"/>
<circle cx="292.33" cy="12.9224" r="2.14534" transform="rotate(-45 292.33 12.9224)" fill="#3C3C3C"/>
<circle cx="312.446" cy="11.4685" r="2.14534" transform="rotate(-45 312.446 11.4685)" fill="#3C3C3C"/>
<circle cx="317.064" cy="4.40869" r="2.14534" transform="rotate(-45 317.064 4.40869)" fill="#3C3C3C"/>
<circle cx="296.948" cy="18.3999" r="2.14534" transform="rotate(-45 296.948 18.3999)" fill="#3C3C3C"/>
<circle cx="317.064" cy="16.946" r="2.14534" transform="rotate(-45 317.064 16.946)" fill="#3C3C3C"/>
<circle cx="320.766" cy="11.8438" r="2.14534" transform="rotate(-45 320.766 11.8438)" fill="#3C3C3C"/>
<circle cx="-2.12199" cy="24.9686" r="2.14534" fill="#3C3C3C"/>
<circle cx="3.326" cy="10.4163" r="2.14534" fill="#3C3C3C"/>
<circle cx="3.49544" cy="15.3077" r="2.14534" fill="#3C3C3C"/>
<circle cx="3.77571" cy="20.3294" r="2.14534" fill="#3C3C3C"/>
<circle cx="4.26228" cy="25.1148" r="2.14534" fill="#3C3C3C"/>
<circle cx="9.66634" cy="8.34749" r="2.14534" fill="#3C3C3C"/>
<circle cx="9.66634" cy="14.2869" r="2.14534" fill="#3C3C3C"/>
<circle cx="10.3365" cy="19.8438" r="2.14534" fill="#3C3C3C"/>
<circle cx="10.6395" cy="25.285" r="2.14534" fill="#3C3C3C"/>
<circle cx="2.51106" cy="3.6136" r="2.14534" fill="#3C3C3C"/>
<circle cx="16.148" cy="8.15462" r="2.14534" fill="#3C3C3C"/>
<circle cx="16.148" cy="14.0938" r="2.14534" fill="#3C3C3C"/>
<circle cx="16.8597" cy="19.536" r="2.14534" fill="#3C3C3C"/>
<circle cx="17.1749" cy="24.9993" r="2.14534" fill="#3C3C3C"/>
<circle cx="22.6383" cy="12.722" r="2.14534" fill="#3C3C3C"/>
<circle cx="22.0094" cy="6.12581" r="2.14534" fill="#3C3C3C"/>
<circle cx="23.0992" cy="18.4163" r="2.14534" fill="#3C3C3C"/>
<circle cx="24.233" cy="23.4866" r="2.14534" fill="#3C3C3C"/>
<circle cx="29.0445" cy="18.5775" r="2.14534" fill="#3C3C3C"/>
<circle cx="29.3656" cy="24.6199" r="2.14534" fill="#3C3C3C"/>
<circle cx="37.8726" cy="25.5777" r="2.14534" fill="#3C3C3C"/>
<circle cx="34.2869" cy="21.2869" r="2.14534" fill="#3C3C3C"/>
<circle cx="27.2203" cy="14.0074" r="2.14534" fill="#3C3C3C"/>
<circle cx="31.2528" cy="11.5156" r="2.14534" transform="rotate(8.84594 31.2528 11.5156)" fill="#3C3C3C"/>
<circle cx="29.67" cy="5.61672" r="2.14534" transform="rotate(8.84594 29.67 5.61672)" fill="#3C3C3C"/>
<circle cx="36.4322" cy="9.52517" r="2.14534" transform="rotate(8.84594 36.4322 9.52517)" fill="#3C3C3C"/>
<circle cx="35.453" cy="14.5496" r="2.14534" transform="rotate(8.84594 35.453 14.5496)" fill="#3C3C3C"/>
<circle cx="39.9925" cy="13.4817" r="2.14534" transform="rotate(8.84594 39.9925 13.4817)" fill="#3C3C3C"/>
<circle cx="40.0601" cy="6.12581" r="2.14534" fill="#3C3C3C"/>
<circle cx="39.3619" cy="19.1043" r="2.14534" transform="rotate(8.84594 39.3619 19.1043)" fill="#3C3C3C"/>
<circle cx="120.912" cy="6.12581" r="2.14534" fill="#3C3C3C"/>
<circle cx="120.483" cy="12.0003" r="2.14534" fill="#3C3C3C"/>
<circle cx="45.8461" cy="13.6101" r="2.14534" transform="rotate(8.84594 45.8461 13.6101)" fill="#3C3C3C"/>
<circle cx="45.6524" cy="3.82674" r="2.14534" fill="#3C3C3C"/>
<circle cx="45.2413" cy="17.6926" r="2.14534" transform="rotate(8.84594 45.2413 17.6926)" fill="#3C3C3C"/>
<circle cx="126.504" cy="3.82674" r="2.14534" fill="#3C3C3C"/>
<circle cx="45.7825" cy="9.11287" r="2.14534" fill="#3C3C3C"/>
<circle cx="44.5568" cy="22.9358" r="2.14534" transform="rotate(8.84594 44.5568 22.9358)" fill="#3C3C3C"/>
<circle cx="126.634" cy="9.11287" r="2.14534" fill="#3C3C3C"/>
<circle cx="126.206" cy="14.9874" r="2.14534" fill="#3C3C3C"/>
<circle cx="124.489" cy="25.1527" r="2.14534" fill="#3C3C3C"/>
<circle cx="121.915" cy="19.441" r="2.14534" fill="#3C3C3C"/>
<circle cx="52.5504" cy="2.97566" r="2.14534" fill="#3C3C3C"/>
<circle cx="52.1884" cy="17.9124" r="2.14534" transform="rotate(8.84594 52.1884 17.9124)" fill="#3C3C3C"/>
<circle cx="133.402" cy="2.97566" r="2.14534" fill="#3C3C3C"/>
<circle cx="52.1182" cy="6.92073" r="2.14534" fill="#3C3C3C"/>
<circle cx="51.1547" cy="21.7439" r="2.14534" transform="rotate(8.84594 51.1547 21.7439)" fill="#3C3C3C"/>
<circle cx="132.97" cy="6.92073" r="2.14534" fill="#3C3C3C"/>
<circle cx="52.0367" cy="11.315" r="2.14534" fill="#3C3C3C"/>
<circle cx="50.3983" cy="26.0738" r="2.14534" transform="rotate(8.84594 50.3983 26.0738)" fill="#3C3C3C"/>
<circle cx="132.888" cy="11.315" r="2.14534" fill="#3C3C3C"/>
<circle cx="132.46" cy="17.1898" r="2.14534" fill="#3C3C3C"/>
<circle cx="128.169" cy="21.6434" r="2.14534" fill="#3C3C3C"/>
<circle cx="60.7999" cy="17.6541" r="2.14534" transform="rotate(8.84594 60.7999 17.6541)" fill="#3C3C3C"/>
<circle cx="59.8524" cy="5.56258" r="2.14534" fill="#3C3C3C"/>
<circle cx="59.0052" cy="21.5913" r="2.14534" transform="rotate(8.84594 59.0052 21.5913)" fill="#3C3C3C"/>
<circle cx="140.704" cy="5.56258" r="2.14534" fill="#3C3C3C"/>
<circle cx="59.0023" cy="9.47566" r="2.14534" fill="#3C3C3C"/>
<circle cx="57.5638" cy="25.3274" r="2.14534" transform="rotate(8.84594 57.5638 25.3274)" fill="#3C3C3C"/>
<circle cx="139.854" cy="9.47566" r="2.14534" fill="#3C3C3C"/>
<circle cx="137.708" cy="24.285" r="2.14534" fill="#3C3C3C"/>
<circle cx="58.5377" cy="13.1785" r="2.14534" fill="#3C3C3C"/>
<circle cx="139.389" cy="13.1785" r="2.14534" fill="#3C3C3C"/>
<circle cx="138.961" cy="19.0531" r="2.14534" fill="#3C3C3C"/>
<circle cx="67.7242" cy="19.8657" r="2.14534" transform="rotate(8.84594 67.7242 19.8657)" fill="#3C3C3C"/>
<circle cx="66.9298" cy="6.90877" r="2.14534" fill="#3C3C3C"/>
<circle cx="65.7919" cy="24.0098" r="2.14534" transform="rotate(8.84594 65.7919 24.0098)" fill="#3C3C3C"/>
<circle cx="147.781" cy="6.90877" r="2.14534" fill="#3C3C3C"/>
<circle cx="65.9146" cy="11.0416" r="2.14534" fill="#3C3C3C"/>
<circle cx="146.766" cy="11.0416" r="2.14534" fill="#3C3C3C"/>
<circle cx="144.621" cy="25.8507" r="2.14534" fill="#3C3C3C"/>
<circle cx="65.192" cy="14.783" r="2.14534" fill="#3C3C3C"/>
<circle cx="146.044" cy="14.783" r="2.14534" fill="#3C3C3C"/>
<circle cx="145.615" cy="20.6575" r="2.14534" fill="#3C3C3C"/>
<circle cx="74.2638" cy="21.199" r="2.14534" transform="rotate(8.84594 74.2638 21.199)" fill="#3C3C3C"/>
<circle cx="73.6214" cy="7.37385" r="2.14534" fill="#3C3C3C"/>
<circle cx="72.3319" cy="25.4986" r="2.14534" transform="rotate(8.84594 72.3319 25.4986)" fill="#3C3C3C"/>
<circle cx="154.473" cy="7.37385" r="2.14534" fill="#3C3C3C"/>
<circle cx="72.5797" cy="11.647" r="2.14534" fill="#3C3C3C"/>
<circle cx="153.431" cy="11.647" r="2.14534" fill="#3C3C3C"/>
<circle cx="151.286" cy="26.4564" r="2.14534" fill="#3C3C3C"/>
<circle cx="71.7176" cy="15.2369" r="2.14534" fill="#3C3C3C"/>
<circle cx="152.569" cy="15.2369" r="2.14534" fill="#3C3C3C"/>
<circle cx="152.141" cy="21.1114" r="2.14534" fill="#3C3C3C"/>
<circle cx="81.5023" cy="3.08406" r="2.14534" fill="#3C3C3C"/>
<circle cx="80.7789" cy="22.4717" r="2.14534" transform="rotate(8.84594 80.7789 22.4717)" fill="#3C3C3C"/>
<circle cx="162.354" cy="3.08406" r="2.14534" fill="#3C3C3C"/>
<circle cx="80.254" cy="7.70979" r="2.14534" fill="#3C3C3C"/>
<circle cx="78.8344" cy="26.8504" r="2.14534" transform="rotate(8.84594 78.8344 26.8504)" fill="#3C3C3C"/>
<circle cx="161.106" cy="7.70979" r="2.14534" fill="#3C3C3C"/>
<circle cx="79.2371" cy="12.1768" r="2.14534" fill="#3C3C3C"/>
<circle cx="160.089" cy="12.1768" r="2.14534" fill="#3C3C3C"/>
<circle cx="157.943" cy="26.9859" r="2.14534" fill="#3C3C3C"/>
<circle cx="78.2784" cy="15.7828" r="2.14534" fill="#3C3C3C"/>
<circle cx="159.13" cy="15.7828" r="2.14534" fill="#3C3C3C"/>
<circle cx="158.701" cy="21.6573" r="2.14534" fill="#3C3C3C"/>
<circle cx="232.958" cy="24.4305" r="2.14534" transform="rotate(165 232.958 24.4305)" fill="#3C3C3C"/>
<circle cx="232.226" cy="18.6844" r="2.14534" transform="rotate(165 232.226 18.6844)" fill="#3C3C3C"/>
<circle cx="88.366" cy="3.60628" r="2.14534" fill="#3C3C3C"/>
<circle cx="87.4807" cy="24.0432" r="2.14534" transform="rotate(8.84594 87.4807 24.0432)" fill="#3C3C3C"/>
<circle cx="169.218" cy="3.60628" r="2.14534" fill="#3C3C3C"/>
<circle cx="232.126" cy="13.4283" r="2.14534" transform="rotate(165 232.126 13.4283)" fill="#3C3C3C"/>
<circle cx="87.2105" cy="8.52522" r="2.14534" fill="#3C3C3C"/>
<circle cx="168.062" cy="8.52522" r="2.14534" fill="#3C3C3C"/>
<circle cx="165.917" cy="24.565" r="2.14534" fill="#3C3C3C"/>
<circle cx="231.969" cy="8.37804" r="2.14534" transform="rotate(165 231.969 8.37804)" fill="#3C3C3C"/>
<circle cx="86.2616" cy="13.3895" r="2.14534" fill="#3C3C3C"/>
<circle cx="167.113" cy="13.3895" r="2.14534" fill="#3C3C3C"/>
<circle cx="231.627" cy="3.43394" r="2.14534" transform="rotate(165 231.627 3.43394)" fill="#3C3C3C"/>
<circle cx="85.2581" cy="17.5755" r="2.14534" fill="#3C3C3C"/>
<circle cx="166.11" cy="17.5755" r="2.14534" fill="#3C3C3C"/>
<circle cx="227.594" cy="26.5235" r="2.14534" transform="rotate(165 227.594 26.5235)" fill="#3C3C3C"/>
<circle cx="226.874" cy="20.8524" r="2.14534" transform="rotate(165 226.874 20.8524)" fill="#3C3C3C"/>
<circle cx="94.9588" cy="3.78743" r="2.14534" fill="#3C3C3C"/>
<circle cx="93.9672" cy="25.2359" r="2.14534" transform="rotate(8.84594 93.9672 25.2359)" fill="#3C3C3C"/>
<circle cx="175.81" cy="3.78743" r="2.14534" fill="#3C3C3C"/>
<circle cx="225.711" cy="14.9598" r="2.14534" transform="rotate(165 225.711 14.9598)" fill="#3C3C3C"/>
<circle cx="94.4918" cy="9.66804" r="2.14534" fill="#3C3C3C"/>
<circle cx="175.343" cy="9.66804" r="2.14534" fill="#3C3C3C"/>
<circle cx="173.198" cy="25.7078" r="2.14534" fill="#3C3C3C"/>
<circle cx="224.64" cy="9.1588" r="2.14534" transform="rotate(165 224.64 9.1588)" fill="#3C3C3C"/>
<circle cx="93.6849" cy="15.0179" r="2.14534" fill="#3C3C3C"/>
<circle cx="174.536" cy="15.0179" r="2.14534" fill="#3C3C3C"/>
<circle cx="224.035" cy="3.78233" r="2.14534" transform="rotate(165 224.035 3.78233)" fill="#3C3C3C"/>
<circle cx="92.755" cy="19.932" r="2.14534" fill="#3C3C3C"/>
<circle cx="173.607" cy="19.932" r="2.14534" fill="#3C3C3C"/>
<circle cx="221.661" cy="23.1905" r="2.14534" transform="rotate(165 221.661 23.1905)" fill="#3C3C3C"/>
<circle cx="101.377" cy="3.76717" r="2.14534" fill="#3C3C3C"/>
<circle cx="100.312" cy="26.2029" r="2.14534" transform="rotate(8.84594 100.312 26.2029)" fill="#3C3C3C"/>
<circle cx="182.229" cy="3.76717" r="2.14534" fill="#3C3C3C"/>
<circle cx="219.516" cy="16.6405" r="2.14534" transform="rotate(165 219.516 16.6405)" fill="#3C3C3C"/>
<circle cx="101.603" cy="10.4569" r="2.14534" fill="#3C3C3C"/>
<circle cx="182.454" cy="10.4569" r="2.14534" fill="#3C3C3C"/>
<circle cx="180.309" cy="26.4967" r="2.14534" fill="#3C3C3C"/>
<circle cx="217.567" cy="10.2372" r="2.14534" transform="rotate(165 217.567 10.2372)" fill="#3C3C3C"/>
<circle cx="101.006" cy="16.2003" r="2.14534" fill="#3C3C3C"/>
<circle cx="181.857" cy="16.2003" r="2.14534" fill="#3C3C3C"/>
<circle cx="216.657" cy="4.53502" r="2.14534" transform="rotate(165 216.657 4.53502)" fill="#3C3C3C"/>
<circle cx="100.253" cy="21.6434" r="2.14534" fill="#3C3C3C"/>
<circle cx="181.104" cy="21.6434" r="2.14534" fill="#3C3C3C"/>
<circle cx="215.396" cy="24.8212" r="2.14534" transform="rotate(165 215.396 24.8212)" fill="#3C3C3C"/>
<circle cx="107.891" cy="3.85628" r="2.14534" fill="#3C3C3C"/>
<circle cx="106.735" cy="27.2927" r="2.14534" transform="rotate(8.84594 106.735 27.2927)" fill="#3C3C3C"/>
<circle cx="188.743" cy="3.85628" r="2.14534" fill="#3C3C3C"/>
<circle cx="213.201" cy="18.2403" r="2.14534" transform="rotate(165 213.201 18.2403)" fill="#3C3C3C"/>
<circle cx="108.206" cy="10.6378" r="2.14534" fill="#3C3C3C"/>
<circle cx="189.057" cy="10.6378" r="2.14534" fill="#3C3C3C"/>
<circle cx="186.912" cy="26.6776" r="2.14534" fill="#3C3C3C"/>
<circle cx="211.142" cy="11.7713" r="2.14534" transform="rotate(165 211.142 11.7713)" fill="#3C3C3C"/>
<circle cx="107.765" cy="16.5836" r="2.14534" fill="#3C3C3C"/>
<circle cx="188.616" cy="16.5836" r="2.14534" fill="#3C3C3C"/>
<circle cx="210.029" cy="5.91417" r="2.14534" transform="rotate(165 210.029 5.91417)" fill="#3C3C3C"/>
<circle cx="107.052" cy="22.1409" r="2.14534" fill="#3C3C3C"/>
<circle cx="187.904" cy="22.1409" r="2.14534" fill="#3C3C3C"/>
<circle cx="208.392" cy="25.9559" r="2.14534" transform="rotate(165 208.392 25.9559)" fill="#3C3C3C"/>
<circle cx="200.157" cy="11.5082" r="2.14534" transform="rotate(165 200.157 11.5082)" fill="#3C3C3C"/>
<circle cx="198.966" cy="22.0455" r="2.14534" transform="rotate(165 198.966 22.0455)" fill="#3C3C3C"/>
<circle cx="203.99" cy="23.7887" r="2.14534" transform="rotate(165 203.99 23.7887)" fill="#3C3C3C"/>
<circle cx="199.686" cy="27.4728" r="2.14534" transform="rotate(165 199.686 27.4728)" fill="#3C3C3C"/>
<circle cx="201.202" cy="16.9352" r="2.14534" transform="rotate(165 201.202 16.9352)" fill="#3C3C3C"/>
<circle cx="199.686" cy="5.3734" r="2.14534" transform="rotate(165 199.686 5.3734)" fill="#3C3C3C"/>
<circle cx="114.467" cy="4.01155" r="2.14534" fill="#3C3C3C"/>
<circle cx="118.462" cy="24.3111" r="2.14534" transform="rotate(8.84594 118.462 24.3111)" fill="#3C3C3C"/>
<circle cx="195.318" cy="4.01155" r="2.14534" fill="#3C3C3C"/>
<circle cx="206.809" cy="19.7923" r="2.14534" transform="rotate(165 206.809 19.7923)" fill="#3C3C3C"/>
<circle cx="114.452" cy="10.4317" r="2.14534" fill="#3C3C3C"/>
<circle cx="195.304" cy="10.4317" r="2.14534" fill="#3C3C3C"/>
<circle cx="193.158" cy="26.4715" r="2.14534" fill="#3C3C3C"/>
<circle cx="205.162" cy="13.587" r="2.14534" transform="rotate(165 205.162 13.587)" fill="#3C3C3C"/>
<circle cx="114.061" cy="16.4207" r="2.14534" fill="#3C3C3C"/>
<circle cx="194.913" cy="16.4207" r="2.14534" fill="#3C3C3C"/>
<circle cx="203.99" cy="7.70103" r="2.14534" transform="rotate(165 203.99 7.70103)" fill="#3C3C3C"/>
<circle cx="113.17" cy="21.7081" r="2.14534" fill="#3C3C3C"/>
<circle cx="194.022" cy="21.7081" r="2.14534" fill="#3C3C3C"/>
<circle cx="279.83" cy="3.88975" r="2.14534" transform="rotate(165 279.83 3.88975)" fill="#3C3C3C"/>
<circle cx="275.331" cy="10.4283" r="2.14534" transform="rotate(165 275.331 10.4283)" fill="#3C3C3C"/>
<circle cx="274.424" cy="6.13878" r="2.14534" transform="rotate(165 274.424 6.13878)" fill="#3C3C3C"/>
<circle cx="267.993" cy="14.068" r="2.14534" transform="rotate(165 267.993 14.068)" fill="#3C3C3C"/>
<circle cx="269.169" cy="25.0065" r="2.14534" transform="rotate(165 269.169 25.0065)" fill="#3C3C3C"/>
<circle cx="267.326" cy="9.08116" r="2.14534" transform="rotate(165 267.326 9.08116)" fill="#3C3C3C"/>
<circle cx="266.885" cy="4.76793" r="2.14534" transform="rotate(165 266.885 4.76793)" fill="#3C3C3C"/>
<circle cx="259.377" cy="13.5045" r="2.14534" transform="rotate(165 259.377 13.5045)" fill="#3C3C3C"/>
<circle cx="260.553" cy="24.443" r="2.14534" transform="rotate(165 260.553 24.443)" fill="#3C3C3C"/>
<circle cx="259.113" cy="8.4857" r="2.14534" transform="rotate(165 259.113 8.4857)" fill="#3C3C3C"/>
<circle cx="259.162" cy="4.1588" r="2.14534" transform="rotate(165 259.162 4.1588)" fill="#3C3C3C"/>
<circle cx="252.181" cy="14.4718" r="2.14534" transform="rotate(165 252.181 14.4718)" fill="#3C3C3C"/>
<circle cx="253.357" cy="25.4103" r="2.14534" transform="rotate(165 253.357 25.4103)" fill="#3C3C3C"/>
<circle cx="251.885" cy="9.26207" r="2.14534" transform="rotate(165 251.885 9.26207)" fill="#3C3C3C"/>
<circle cx="251.977" cy="4.69029" r="2.14534" transform="rotate(165 251.977 4.69029)" fill="#3C3C3C"/>
<circle cx="245.64" cy="15.9276" r="2.14534" transform="rotate(165 245.64 15.9276)" fill="#3C3C3C"/>
<circle cx="246.816" cy="26.8661" r="2.14534" transform="rotate(165 246.816 26.8661)" fill="#3C3C3C"/>
<circle cx="245.365" cy="10.6864" r="2.14534" transform="rotate(165 245.365 10.6864)" fill="#3C3C3C"/>
<circle cx="246.54" cy="21.6249" r="2.14534" transform="rotate(165 246.54 21.6249)" fill="#3C3C3C"/>
<circle cx="245.393" cy="5.97301" r="2.14534" transform="rotate(165 245.393 5.97301)" fill="#3C3C3C"/>
<circle cx="240.044" cy="23.2008" r="2.14534" transform="rotate(165 240.044 23.2008)" fill="#3C3C3C"/>
<circle cx="238.979" cy="17.3226" r="2.14534" transform="rotate(165 238.979 17.3226)" fill="#3C3C3C"/>
<circle cx="238.891" cy="12.1564" r="2.14534" transform="rotate(165 238.891 12.1564)" fill="#3C3C3C"/>
<circle cx="238.9" cy="7.3651" r="2.14534" transform="rotate(165 238.9 7.3651)" fill="#3C3C3C"/>
<circle cx="305.435" cy="4.59277" r="2.14534" transform="rotate(-45 305.435 4.59277)" fill="#3C3C3C"/>
<circle cx="302.941" cy="27.4434" r="2.14534" transform="rotate(-45 302.941 27.4434)" fill="#3C3C3C"/>
<circle cx="287.672" cy="25.76" r="2.14534" transform="rotate(-45 287.672 25.76)" fill="#3C3C3C"/>
<circle cx="273.921" cy="25.2749" r="2.14534" transform="rotate(-45 273.921 25.2749)" fill="#3C3C3C"/>
<circle cx="307.788" cy="24.3064" r="2.14534" transform="rotate(-45 307.788 24.3064)" fill="#3C3C3C"/>
<circle cx="314.698" cy="28.0217" r="2.14534" transform="rotate(-45 314.698 28.0217)" fill="#3C3C3C"/>
<circle cx="291.166" cy="5.50772" r="2.14534" transform="rotate(173.673 291.166 5.50772)" fill="#3C3C3C"/>
</svg>
