<svg width="87" height="87" viewBox="0 0 87 87" fill="none" xmlns="http://www.w3.org/2000/svg">
<path d="M53.2754 30.3384C55.0947 31.7911 56.1452 33.2161 56.6944 34.9783C57.2503 36.7619 57.3085 38.9383 57.0436 41.9274C56.8354 44.2779 57.0729 46.1386 57.2705 47.6869C57.3306 48.1583 57.3871 48.6007 57.4262 49.0192C57.5106 49.9243 57.5169 50.7188 57.3389 51.4992C57.1623 52.2733 56.7977 53.0623 56.1007 53.9394C55.3994 54.8219 54.7899 55.2623 54.2239 55.4724C53.6584 55.6823 53.0782 55.6845 52.3857 55.5823C52.049 55.5326 51.6824 55.4555 51.2841 55.3716C50.0794 55.1181 48.5834 54.8033 46.7393 55.0006C45.9849 55.0813 45.4229 55.4858 44.9495 55.9524C44.7138 56.1847 44.4882 56.4444 44.2686 56.7003C44.2461 56.7264 44.2237 56.7525 44.2014 56.7787C44.0009 57.0124 43.8022 57.2442 43.5876 57.4717C43.114 57.9738 42.5861 58.4297 41.8988 58.7414C41.2153 59.0513 40.3429 59.2325 39.1629 59.1359C36.7218 58.9361 35.8432 58.3409 35.3358 57.6357C35.0671 57.2623 34.8821 56.8322 34.6523 56.2982L34.632 56.251C34.3983 55.708 34.1257 55.0864 33.6867 54.4408C33.2729 53.8324 32.7707 53.5494 32.2207 53.4536C31.7942 53.3793 31.3382 53.4224 30.948 53.4592C30.8818 53.4655 30.8175 53.4716 30.7555 53.4769C30.2951 53.5162 29.8899 53.5258 29.4942 53.3999C29.1127 53.2785 28.6935 53.015 28.252 52.4199C26.9554 50.6728 26.9021 48.2362 27.605 45.733C28.1912 43.6456 27.8278 42.2141 27.2799 41.0118C27.1463 40.7188 27.0026 40.4408 26.8644 40.1772C26.8433 40.137 26.8224 40.0973 26.8016 40.0579C26.6846 39.8354 26.5736 39.6243 26.4704 39.4114C26.2291 38.9134 26.0498 38.4429 25.9884 37.9294C25.9477 37.5888 26.0995 37.2852 26.55 36.9552C27.0124 36.6164 27.6937 36.3266 28.4927 36.0321C28.7244 35.9467 28.9665 35.8607 29.2126 35.7734C29.7856 35.57 30.3799 35.3591 30.9121 35.1303C31.667 34.8057 32.4064 34.4029 32.858 33.8346C33.2732 33.3121 33.6049 32.6146 33.9012 31.9046C34.0388 31.575 34.1728 31.2322 34.3052 30.8933C34.3171 30.8631 34.3289 30.8329 34.3407 30.8027C34.4856 30.4321 34.6295 30.0667 34.7795 29.7152C35.0822 29.0056 35.3953 28.3893 35.7567 27.94C36.1135 27.4965 36.482 27.2586 36.8977 27.2141C39.1258 26.9758 42.2667 27.9389 44.2177 29.4967C45.231 30.3058 46.1425 30.5977 47.0101 30.5802C47.8347 30.5636 48.571 30.2642 49.2121 30.0036L49.2455 29.99C49.9226 29.7149 50.501 29.4856 51.1257 29.473C51.7218 29.461 52.4118 29.6489 53.2754 30.3384Z" stroke="#E4B7FF"/>
<path d="M55.3328 27.7474C57.5176 29.4918 58.7864 31.2095 59.4498 33.3378C60.1198 35.4874 60.1877 38.1032 59.871 41.6774C59.6233 44.4738 59.9051 46.6827 60.141 48.5314C60.2131 49.0965 60.2809 49.6279 60.328 50.1322C60.4293 51.2178 60.4377 52.1788 60.2217 53.1258C60.0071 54.0665 59.5644 55.0221 58.7238 56.08C57.8788 57.1433 57.1371 57.6831 56.4393 57.9421C55.742 58.201 55.0302 58.2017 54.1953 58.0784C53.7851 58.0179 53.3419 57.9247 52.8624 57.8238C51.4249 57.5214 49.6603 57.1501 47.4742 57.3839C46.6043 57.477 45.9524 57.943 45.3937 58.4936C45.1153 58.768 44.8483 59.0754 44.5858 59.3812C44.5589 59.4125 44.5321 59.4438 44.5053 59.475C44.266 59.7541 44.0271 60.0327 43.7691 60.3063C43.1988 60.9109 42.558 61.4654 41.7211 61.8449C40.8878 62.2227 39.8287 62.4412 38.4045 62.3246C35.4748 62.0848 34.3914 61.3678 33.7613 60.4922C33.434 60.0373 33.2091 59.5146 32.9366 58.881L32.9101 58.8194C32.631 58.1711 32.3084 57.4361 31.7896 56.6731C31.3102 55.9681 30.7332 55.6449 30.102 55.5349C29.6066 55.4485 29.0769 55.4985 28.6099 55.5425C28.5301 55.55 28.4521 55.5573 28.3765 55.5638C27.8246 55.611 27.3241 55.6243 26.8319 55.4676C26.3539 55.3155 25.8371 54.9869 25.2992 54.2621C23.7241 52.1396 23.6674 49.192 24.5108 46.1888C25.2036 43.7216 24.7746 42.0352 24.1275 40.6153C23.9691 40.2679 23.7985 39.9378 23.6334 39.6232C23.6083 39.5753 23.5834 39.5279 23.5587 39.4809C23.4189 39.2152 23.2854 38.9613 23.1614 38.7054C22.871 38.1063 22.6516 37.5329 22.5764 36.9039C22.5219 36.4479 22.7337 36.0548 23.2865 35.6498C23.8512 35.2361 24.677 34.886 25.6313 34.5342C25.9104 34.4313 26.2012 34.3281 26.4959 34.2235C27.1792 33.981 27.8841 33.7308 28.5169 33.4587C29.4168 33.0718 30.2805 32.5983 30.804 31.9396C31.291 31.3267 31.683 30.5044 32.0366 29.657C32.2005 29.2643 32.3602 28.8558 32.5185 28.4508C32.5326 28.4147 32.5467 28.3786 32.5608 28.3426C32.734 27.8999 32.9063 27.4621 33.0861 27.0406C33.4486 26.1911 33.8268 25.4446 34.2674 24.897C34.7032 24.3552 35.1647 24.0509 35.6957 23.9941C38.3854 23.7064 42.1629 24.8662 44.5119 26.7418C45.7078 27.6967 46.7752 28.0353 47.7853 28.015C48.7522 27.9955 49.6175 27.6438 50.3868 27.331L50.4213 27.317C51.2274 26.9894 51.9349 26.7077 52.7022 26.6922C53.4407 26.6773 54.2866 26.912 55.3328 27.7474Z" stroke="#E4B7FF"/>
<path d="M57.2376 25.3489C59.7605 27.3633 61.2316 29.352 62.0005 31.8191C62.7761 34.3076 62.8531 37.3301 62.4884 41.4459C62.2041 44.6551 62.527 47.1863 62.7983 49.313C62.8815 49.9648 62.9598 50.5786 63.0143 51.1623C63.1312 52.415 63.1415 53.5301 62.8904 54.6313C62.6406 55.7263 62.1256 56.8361 61.152 58.0613C60.174 59.2921 59.31 59.9238 58.4902 60.2282C57.6708 60.5323 56.8373 60.5316 55.8706 60.3889C55.3922 60.3183 54.8782 60.2102 54.3235 60.0935C52.6707 59.7459 50.6573 59.3223 48.1546 59.59C47.1779 59.6945 46.4428 60.2174 45.8051 60.8459C45.4872 61.1592 45.1818 61.5107 44.8796 61.8628C44.8487 61.8987 44.8179 61.9346 44.7871 61.9706C44.5118 62.2916 44.2357 62.6137 43.9374 62.93C43.2775 63.6296 42.5323 64.2753 41.5567 64.7176C40.5848 65.1583 39.353 65.4112 37.7027 65.2761C34.3208 64.9993 33.0477 64.1696 32.3041 63.1362C31.9225 62.6058 31.6608 61.9974 31.3485 61.2715C31.3379 61.2468 31.3272 61.2219 31.3164 61.1968C30.9953 60.4509 30.6265 59.6109 30.0339 58.7395C29.4936 57.945 28.8474 57.5845 28.1411 57.4614C27.5817 57.3639 26.984 57.4201 26.4458 57.4708C26.3535 57.4794 26.2629 57.488 26.1746 57.4955C25.538 57.5499 24.9493 57.5666 24.3678 57.3816C23.8005 57.201 23.1932 56.8122 22.5662 55.9673C20.7332 53.4973 20.6734 50.0767 21.6468 46.6106C22.4383 43.7919 21.9486 41.8696 21.2097 40.2483C21.0284 39.8505 20.8329 39.4722 20.6429 39.1102C20.6141 39.0553 20.5855 39.0008 20.557 38.9467C20.3962 38.641 20.2419 38.3476 20.0986 38.0519C19.7629 37.3591 19.5063 36.6905 19.4184 35.9547C19.3511 35.3917 19.6184 34.9157 20.2659 34.4414C20.9252 33.9584 21.8848 33.5524 22.9828 33.1477C23.306 33.0285 23.6417 32.9094 23.9815 32.7888C24.7667 32.5101 25.574 32.2235 26.3 31.9114C27.3342 31.4668 28.3129 30.9279 28.9028 30.1855C29.4563 29.4889 29.9042 28.551 30.3108 27.5765C30.4991 27.1254 30.6826 26.656 30.8649 26.1897C30.8811 26.1482 30.8973 26.1068 30.9135 26.0654C31.1127 25.556 31.3114 25.0511 31.5189 24.5648C31.9367 23.5858 32.3752 22.7188 32.8889 22.0802C33.398 21.4475 33.9455 21.0817 34.5834 21.0134C37.7002 20.6801 42.067 22.022 44.7843 24.1916C46.1494 25.2816 47.361 25.6634 48.503 25.6404C49.6018 25.6183 50.5864 25.218 51.4747 24.857L51.5099 24.8427C52.4355 24.4665 53.2625 24.1363 54.1616 24.1181C55.032 24.1006 56.0222 24.3785 57.2376 25.3489Z" stroke="#E4B7FF"/>
<path d="M59.2593 22.8025C62.1414 25.1037 63.827 27.38 64.7081 30.2068C65.5958 33.055 65.6824 36.5093 65.2668 41.2001C64.9437 44.8475 65.3102 47.7209 65.6191 50.1427C65.714 50.8866 65.8034 51.5879 65.8658 52.2559C65.9993 53.686 66.0117 54.9647 65.7232 56.2297C65.4361 57.4883 64.8443 58.762 63.7295 60.1648C62.6104 61.5732 61.6165 62.3026 60.6671 62.6551C59.7182 63.0073 58.7555 63.0051 57.6488 62.8418C57.0981 62.7605 56.5088 62.6366 55.8743 62.5031C53.993 62.1074 51.7154 61.6284 48.8766 61.9321C47.7865 62.0487 46.963 62.6321 46.2415 63.3431C45.8817 63.6977 45.5355 64.0961 45.1911 64.4973C45.1559 64.5382 45.1208 64.5793 45.0856 64.6203C44.7722 64.9858 44.4566 65.3539 44.1156 65.7154C43.3607 66.5158 42.5046 67.2583 41.3818 67.7674C40.2628 68.2748 38.8477 68.5643 36.9573 68.4096C33.0953 68.0935 31.6209 67.1441 30.7567 65.9432C30.3175 65.3327 30.0166 64.6332 29.6621 63.8092C29.6495 63.7799 29.6368 63.7504 29.6241 63.7208C29.2585 62.8713 28.8405 61.9198 28.1695 60.9331C27.5647 60.0436 26.845 59.6436 26.0589 59.5066C25.4317 59.3973 24.7616 59.4602 24.1479 59.5179C24.0423 59.5278 23.9383 59.5376 23.8365 59.5463C23.1101 59.6084 22.4277 59.6286 21.7514 59.4134C21.0893 59.2027 20.386 58.7499 19.6644 57.7775C17.5576 54.9387 17.4945 51.0159 18.6058 47.0584C19.5022 43.8664 18.948 41.6938 18.1116 39.8586C17.9059 39.4073 17.684 38.9778 17.4677 38.5656C17.435 38.5032 17.4024 38.4412 17.37 38.3796C17.1868 38.0314 17.0105 37.696 16.8467 37.358C16.4627 36.5658 16.1668 35.7962 16.0653 34.9468C15.9844 34.2703 16.3107 33.7064 17.0587 33.1585C17.8185 32.6018 18.9201 32.1365 20.1706 31.6756C20.5406 31.5392 20.924 31.4031 21.3117 31.2655C22.2052 30.9484 23.1212 30.6233 23.946 30.2687C25.1229 29.7628 26.2236 29.1544 26.8841 28.3232C27.5082 27.5378 28.0154 26.477 28.4783 25.3677C28.6924 24.8546 28.9011 24.3207 29.1088 23.7894C29.1273 23.7421 29.1458 23.6949 29.1642 23.6477C29.3912 23.0674 29.6179 22.4915 29.8547 21.9364C30.3312 20.8199 30.8337 19.8248 31.4252 19.0897C32.0119 18.3604 32.6508 17.9293 33.4021 17.849C36.9725 17.4671 41.9648 19.0023 45.0732 21.4842C46.6178 22.7175 47.9826 23.1452 49.2647 23.1194C50.5034 23.0944 51.6148 22.6427 52.6295 22.2303L52.6652 22.2158C53.7177 21.7881 54.6715 21.4063 55.7106 21.3853C56.721 21.365 57.8644 21.6888 59.2593 22.8025Z" stroke="#E4B7FF"/>
<path d="M61.5087 19.957C64.7914 22.5788 66.7165 25.1768 67.7227 28.4057C68.7356 31.6561 68.8331 35.5932 68.3608 40.9268C67.9945 45.0641 68.4097 48.3201 68.7607 51.0718C68.8687 51.9186 68.9706 52.7177 69.0418 53.48C69.1938 55.1084 69.2086 56.5701 68.8785 58.018C68.5498 59.4597 67.8724 60.9164 66.6001 62.5178C65.3236 64.1248 64.1849 64.9634 63.0909 65.3695C61.9975 65.7755 60.8905 65.7716 59.6276 65.5851C58.9963 65.4919 58.323 65.3503 57.5996 65.1981C55.4634 64.7487 52.891 64.2075 49.6772 64.5513C48.4607 64.6814 47.5386 65.3323 46.7236 66.1357C46.3171 66.5365 45.9254 66.9872 45.534 67.4433C45.4941 67.4898 45.4542 67.5363 45.4142 67.5829C45.0582 67.9982 44.6985 68.4179 44.3098 68.8301C43.4489 69.7432 42.4691 70.5939 41.1822 71.1775C39.8991 71.7594 38.2793 72.0899 36.1211 71.9131C31.7236 71.553 30.0244 70.4697 29.0258 69.0815C28.5222 68.3815 28.1776 67.5802 27.776 66.6464C27.7612 66.612 27.7464 66.5774 27.7314 66.5427C27.316 65.5774 26.8432 64.5013 26.0848 63.3857C25.4079 62.39 24.6063 61.9458 23.7311 61.7932C23.0284 61.6706 22.2775 61.741 21.5796 61.8065C21.4591 61.8178 21.3402 61.8289 21.2234 61.8389C20.3967 61.9096 19.6099 61.9339 18.8277 61.6849C18.0598 61.4405 17.2494 60.9161 16.4222 59.8012C14.0099 56.5499 13.943 52.0657 15.2081 47.5589C16.2213 43.9496 15.5951 41.497 14.6499 39.4227C14.417 38.9117 14.1656 38.425 13.9199 37.9566C13.8827 37.8857 13.8457 37.8153 13.809 37.7454C13.6009 37.3496 13.3999 36.9673 13.2132 36.5821C12.7755 35.6787 12.4356 34.7961 12.3189 33.8198C12.2229 33.0165 12.615 32.3543 13.475 31.7241C14.347 31.0852 15.607 30.5536 17.0277 30.0298C17.4498 29.8742 17.8865 29.7192 18.3275 29.5626C19.3418 29.2026 20.379 28.8343 21.3141 28.4323C22.65 27.8579 23.8869 27.1719 24.6261 26.2414C25.3289 25.3567 25.9022 24.1587 26.4279 22.8985C26.6709 22.316 26.9077 21.7099 27.1438 21.1058C27.1648 21.0522 27.1857 20.9986 27.2066 20.9451C27.4645 20.2856 27.7224 19.6301 27.992 18.9982C28.5338 17.7279 29.1078 16.5898 29.7859 15.7467C30.4594 14.9094 31.2002 14.4055 32.078 14.3116C36.1544 13.8756 41.8446 15.6271 45.3893 18.4582C47.1343 19.8518 48.67 20.3309 50.1082 20.302C51.5031 20.2739 52.7559 19.7646 53.9116 19.2948L53.9479 19.2801C55.1418 18.7948 56.2371 18.3553 57.4325 18.3313C58.5991 18.3078 59.9134 18.683 61.5087 19.957Z" stroke="#E4B7FF"/>
<ellipse cx="43.0174" cy="43.2564" rx="7.16896" ry="7.20043" transform="rotate(-90 43.0174 43.2564)" fill="#E4B7FF"/>
</svg>
