<svg width="247" height="248" viewBox="0 0 247 248" fill="none" xmlns="http://www.w3.org/2000/svg">
<circle cx="122.104" cy="123.504" r="14.2916" fill="white"/>
<path d="M141.963 101.064C145.215 103.671 147.011 106.158 147.951 109.188C148.918 112.303 149.043 116.186 148.555 121.72C148.157 126.229 148.618 129.853 148.987 132.747C149.096 133.604 149.197 134.396 149.265 135.129C149.417 136.768 149.419 138.118 149.125 139.411C148.837 140.679 148.239 142.005 147.033 143.529C145.81 145.075 144.827 145.746 144.014 146.049C143.203 146.351 142.331 146.376 141.13 146.198C140.589 146.118 139.968 145.986 139.271 145.838C137.024 145.362 133.997 144.721 130.386 145.109C128.641 145.296 127.386 146.24 126.433 147.183C125.96 147.652 125.515 148.167 125.109 148.642C125.067 148.691 125.026 148.739 124.985 148.787C124.611 149.225 124.259 149.638 123.879 150.042C123.05 150.925 122.181 151.667 121.081 152.168C119.995 152.662 118.561 152.978 116.531 152.811C112.149 152.451 110.891 151.407 110.212 150.46C109.783 149.86 109.481 149.155 109.026 148.094L109.021 148.083C108.586 147.068 108.047 145.826 107.169 144.53C106.239 143.155 105.054 142.464 103.749 142.236C102.802 142.07 101.787 142.169 101.076 142.238C100.961 142.249 100.855 142.259 100.757 142.267C99.923 142.339 99.3515 142.337 98.8312 142.171C98.368 142.022 97.7676 141.684 97.0617 140.729C94.944 137.862 94.7679 133.726 96.033 129.201C97.2022 125.02 96.4721 122.089 95.3731 119.668C95.1121 119.092 94.8336 118.552 94.576 118.059C94.5359 117.982 94.4964 117.907 94.4576 117.832C94.2404 117.417 94.0437 117.042 93.8607 116.662C93.4355 115.781 93.1597 115.029 93.0662 114.243L91.0868 114.479L93.0662 114.243C93.0659 114.24 93.0655 114.237 93.0652 114.234C93.0527 114.136 93.0233 113.903 93.6797 113.42C94.4035 112.888 95.537 112.391 97.023 111.841C97.4263 111.692 97.8596 111.537 98.307 111.378C99.384 110.994 100.543 110.58 101.563 110.14C102.985 109.526 104.572 108.69 105.586 107.409C106.455 106.31 107.117 104.892 107.671 103.559C107.931 102.933 108.184 102.283 108.428 101.654C108.451 101.597 108.473 101.54 108.495 101.483C108.764 100.792 109.025 100.125 109.297 99.4871C109.85 98.1851 110.384 97.1487 110.96 96.4305C111.516 95.7355 111.967 95.513 112.36 95.4707C116.189 95.0594 121.74 96.7525 125.16 99.4952C127.201 101.131 129.128 101.787 131.028 101.748C132.758 101.713 134.283 101.09 135.444 100.615C135.481 100.6 135.518 100.585 135.554 100.57C136.841 100.045 137.733 99.7042 138.663 99.6854C139.479 99.6689 140.522 99.9075 141.963 101.064Z" stroke="#E4B7FF" stroke-width="4"/>
<path d="M155.187 103.703C158.056 108.172 159.243 111.951 159.148 116.061C159.05 120.262 157.611 125.01 154.809 131.42C152.557 136.572 151.671 140.996 150.952 144.586C150.737 145.659 150.537 146.659 150.32 147.58C149.84 149.615 149.287 151.283 148.379 152.773C147.484 154.24 146.184 155.633 144.082 157.002C141.957 158.386 140.428 158.837 139.218 158.877C138.01 158.916 136.872 158.556 135.478 157.846C134.831 157.516 134.118 157.096 133.33 156.631C130.848 155.168 127.607 153.257 123.243 152.294C121.253 151.855 119.506 152.423 118.039 153.142C117.31 153.5 116.591 153.926 115.917 154.329C115.848 154.371 115.779 154.412 115.71 154.453C115.091 154.824 114.496 155.18 113.871 155.516C112.501 156.252 111.103 156.82 109.501 156.985C107.915 157.15 105.994 156.934 103.574 155.893C98.4359 153.683 97.1976 151.851 96.7053 150.245C96.4173 149.306 96.3357 148.296 96.222 146.891L96.2171 146.829C96.1054 145.449 95.9622 143.797 95.4505 141.955C94.9295 140.08 93.8849 138.896 92.5441 138.168C91.5495 137.628 90.382 137.357 89.5015 137.152C89.3564 137.118 89.2192 137.087 89.0917 137.056C88.0605 136.805 87.2963 136.555 86.6569 136.086C86.0658 135.651 85.4293 134.912 84.9431 133.406C83.4972 128.926 85.0387 123.759 88.3941 118.821C91.3774 114.43 91.6658 110.777 91.3359 107.548C91.2568 106.774 91.1434 106.031 91.0341 105.342C91.0173 105.236 91.0005 105.131 90.984 105.027C90.8914 104.447 90.806 103.911 90.7387 103.377C90.5819 102.134 90.5477 101.062 90.7675 100.009C90.8449 99.638 91.078 99.2405 92.173 98.8895C93.3237 98.5206 94.9377 98.383 96.9252 98.3225C97.4784 98.3057 98.0642 98.2949 98.6654 98.2839C100.095 98.2577 101.611 98.2299 102.985 98.1149C104.912 97.9538 107.025 97.5993 108.631 96.5533C110.041 95.635 111.357 94.2577 112.547 92.896C113.103 92.2594 113.66 91.5912 114.204 90.9391C114.253 90.8804 114.302 90.8218 114.351 90.7634C114.948 90.0483 115.53 89.3535 116.114 88.6956C117.3 87.359 118.39 86.295 119.423 85.6305C120.432 84.9822 121.197 84.8328 121.86 84.9791C126.726 86.0526 132.768 90.3772 135.808 95.1137C137.53 97.7952 139.473 99.2603 141.617 99.933C143.599 100.555 145.582 100.428 147.166 100.327C147.209 100.324 147.251 100.322 147.294 100.319C149.02 100.209 150.314 100.149 151.533 100.531C152.643 100.879 153.88 101.667 155.187 103.703Z" stroke="#E4B7FF" stroke-width="4"/>
<path d="M116.813 70.1402C124.453 69.237 130.215 70.0801 135.608 72.8627C141.082 75.6865 146.356 80.5965 152.838 88.2048C157.967 94.2251 162.983 98.0441 167.126 101.199C168.382 102.155 169.557 103.05 170.631 103.926C172.968 105.834 174.84 107.65 176.252 109.853C177.651 112.034 178.663 114.693 179.12 118.35C179.58 122.035 179.207 124.442 178.421 126.2C177.636 127.957 176.34 129.294 174.506 130.678C173.626 131.342 172.604 132.019 171.488 132.759C168.076 135.02 163.778 137.868 159.916 142.741C158.284 144.801 157.933 147.166 157.94 149.41C157.943 150.527 158.037 151.681 158.134 152.799C158.143 152.913 158.153 153.027 158.163 153.141C158.252 154.163 158.34 155.167 158.381 156.199C158.471 158.471 158.326 160.739 157.487 163.038C156.654 165.321 155.089 167.764 152.151 170.298C146.027 175.578 142.664 176.197 139.946 175.77C138.47 175.539 137.048 174.983 135.227 174.272L135.087 174.217C133.251 173.5 131.112 172.681 128.521 172.204C126.02 171.744 124.085 172.292 122.503 173.422C121.293 174.287 120.301 175.508 119.483 176.515C119.345 176.685 119.212 176.848 119.084 177.003C118.109 178.18 117.224 179.117 116.066 179.726C114.961 180.307 113.432 180.677 111.049 180.339C104.028 179.344 98.1853 173.878 93.8936 166.4C90.2489 160.049 85.9287 157.516 81.7357 155.979C80.7186 155.607 79.7154 155.294 78.7664 155.005C78.621 154.961 78.4773 154.917 78.335 154.874C77.5337 154.631 76.7794 154.402 76.0388 154.15C74.3087 153.562 72.8131 152.901 71.4924 151.878C70.7231 151.283 70.3559 150.361 70.6114 148.584C70.8753 146.749 71.7536 144.497 72.9144 141.916C73.2471 141.177 73.6043 140.407 73.9683 139.623C74.821 137.787 75.711 135.87 76.4103 134.065C77.399 131.513 78.1912 128.754 77.8807 126.268C77.5991 124.014 76.6971 121.562 75.6977 119.197C75.2328 118.097 74.7284 116.975 74.2316 115.869C74.1871 115.77 74.1427 115.671 74.0984 115.573C73.5548 114.363 73.023 113.172 72.5388 112C71.5596 109.631 70.838 107.484 70.6171 105.625C70.3998 103.795 70.6903 102.467 71.4784 101.473C76.0396 95.7173 85.5584 90.5751 93.7239 89.6097C98.071 89.0957 100.965 87.5925 103.006 85.4316C104.929 83.3956 105.952 80.9032 106.821 78.7874L106.873 78.6586C107.8 76.4031 108.581 74.5573 109.956 73.1014C111.253 71.729 113.228 70.5641 116.813 70.1402Z" stroke="#E4B7FF" stroke-width="4"/>
<path d="M191.877 133.34C190.535 142.958 187.652 149.775 182.483 155.52C177.254 161.332 169.555 166.199 158.261 171.644C149.392 175.921 143.229 180.74 138.094 184.755C136.529 185.979 135.059 187.128 133.637 188.165C130.566 190.404 127.72 192.131 124.527 193.167C121.359 194.196 117.739 194.58 113.096 193.964C108.426 193.343 105.531 192.103 103.556 190.517C101.584 188.933 100.334 186.849 99.2244 184.151C98.6834 182.835 98.1785 181.356 97.6304 179.75C95.9763 174.905 93.928 168.906 89.3036 162.75C87.4246 160.249 84.7986 159.112 82.1248 158.421C80.793 158.076 79.3842 157.826 77.9984 157.588C77.8568 157.564 77.7153 157.54 77.5739 157.515C76.3084 157.299 75.0517 157.084 73.7761 156.803C70.9604 156.183 68.1884 155.268 65.5944 153.47C63.014 151.681 60.4977 148.94 58.3273 144.506C53.843 135.346 54.0988 130.908 55.5632 127.555C56.335 125.789 57.4895 124.201 58.9146 122.242L59.0436 122.065C60.4946 120.069 62.1409 117.772 63.5198 114.83C64.8133 112.071 64.7587 109.695 63.9399 107.545C63.3031 105.874 62.1856 104.347 61.2223 103.031C61.0586 102.807 60.8993 102.59 60.7475 102.378C59.6252 100.816 58.7199 99.3774 58.3256 97.6774C57.9448 96.0358 58.0014 93.9574 59.2025 91.094C62.7271 82.6917 71.3882 77.2807 81.8798 74.4376C90.5952 72.0757 94.9438 67.7314 98.0835 63.2155C98.8495 62.1138 99.5403 61.0077 100.192 59.9503C100.291 59.7891 100.389 59.6294 100.486 59.4711C101.036 58.5776 101.558 57.7282 102.103 56.9031C103.379 54.9729 104.692 53.3175 106.414 51.9922C107.585 51.092 109.034 50.9944 111.193 51.9049C113.405 52.8382 115.904 54.66 118.661 56.8853C119.463 57.5319 120.288 58.2142 121.125 58.9072C123.074 60.519 125.092 62.1885 127.044 63.5993C129.814 65.6018 132.819 67.3711 135.797 67.7667C138.543 68.1314 141.742 67.8273 144.92 67.3681C146.394 67.155 147.909 66.9012 149.407 66.65C149.541 66.6276 149.675 66.6052 149.808 66.5828C151.447 66.3085 153.065 66.041 154.648 65.8252C157.84 65.3899 160.728 65.1892 163.122 65.5219C165.487 65.8505 167.15 66.6655 168.213 68.0798C173.825 75.5508 177.058 88.8551 175.618 99.1759C174.874 104.511 175.764 108.372 177.662 111.415C179.468 114.313 182.099 116.296 184.401 118.031L184.517 118.118C186.944 119.948 189.011 121.533 190.396 123.754C191.72 125.877 192.516 128.764 191.877 133.34Z" stroke="#E4B7FF" stroke-width="4"/>
<path d="M176.2 57.7594C185.532 65.243 190.962 72.6213 193.8 81.7687C196.665 91.0021 196.953 102.228 195.602 117.541C194.547 129.501 195.746 138.942 196.752 146.859C197.06 149.282 197.349 151.562 197.551 153.728C197.983 158.384 198.02 162.517 197.095 166.593C196.174 170.645 194.276 174.757 190.68 179.302C187.067 183.87 183.885 186.201 180.878 187.322C177.874 188.442 174.813 188.442 171.242 187.913C169.481 187.652 167.584 187.251 165.534 186.818C159.407 185.524 151.913 183.94 142.615 184.939C138.95 185.333 136.198 187.304 133.825 189.653C132.643 190.824 131.507 192.136 130.388 193.446C130.273 193.58 130.159 193.714 130.045 193.847C129.025 195.042 128.004 196.238 126.901 197.413C124.462 200.01 121.715 202.398 118.124 204.034C114.547 205.663 110.007 206.602 103.913 206.101C91.4016 205.072 86.735 201.993 84.0154 198.197C82.6108 196.236 81.6466 193.985 80.4869 191.277C80.4484 191.188 80.4098 191.097 80.3709 191.007C79.1811 188.23 77.8097 185.093 75.6054 181.837C73.5814 178.847 71.1524 177.483 68.4965 177.018C66.4033 176.652 64.166 176.864 62.1731 177.052C61.8319 177.084 61.4979 177.116 61.1731 177.144C58.8169 177.346 56.6598 177.405 54.5339 176.726C52.4652 176.065 50.2391 174.638 47.9313 171.515C41.1782 162.375 40.946 149.699 44.5476 136.817C47.4914 126.288 45.6695 119.099 42.9202 113.04C42.2466 111.556 41.5206 110.145 40.8167 108.798C40.7098 108.593 40.6036 108.39 40.4981 108.189C39.9023 107.051 39.3319 105.961 38.8019 104.863C37.5608 102.291 36.618 99.8195 36.2948 97.1038C36.054 95.0805 37.0004 93.3532 39.3788 91.6032C41.8042 89.8185 45.3425 88.3132 49.4115 86.8069C50.6054 86.3648 51.8472 85.9221 53.1053 85.4736C56.0169 84.4357 59.0156 83.3667 61.7099 82.2033C65.5451 80.5473 69.1998 78.5303 71.4089 75.7381C73.4728 73.1294 75.1385 69.6229 76.6457 65.995C77.3439 64.3144 78.0244 62.5663 78.6997 60.8311C78.7599 60.6767 78.8199 60.5223 78.88 60.3681C79.6183 58.4721 80.3539 56.5952 81.1218 54.7876C82.6686 51.1467 84.2875 47.9344 86.1785 45.5736C88.0511 43.2358 90.0492 41.9038 92.3624 41.6553C103.871 40.4189 120.014 45.3995 130.055 53.4523C135.136 57.5263 139.657 58.9625 143.928 58.8761C148.026 58.7932 151.695 57.2951 154.981 55.9536L155.12 55.8969C158.554 54.4953 161.594 53.2775 164.895 53.2107C168.081 53.1462 171.718 54.1654 176.2 57.7594Z" stroke="#E4B7FF" stroke-width="4"/>
</svg>
