<svg width="149" height="171" viewBox="0 0 149 171" fill="none" xmlns="http://www.w3.org/2000/svg">
<path d="M139.531 92.0415V121.484C139.531 125.388 137.98 129.132 135.219 131.893C132.458 134.654 128.714 136.205 124.81 136.205H21.7621C17.8578 136.205 14.1135 134.654 11.3527 131.893C8.59198 129.132 7.04102 125.388 7.04102 121.484V92.0415" stroke="white" stroke-width="6" stroke-linecap="round" stroke-linejoin="round"/>
<path d="M110.088 40.5178L73.2856 3.71509M73.2856 3.71509L36.4829 40.5178M73.2856 3.71509V92.0415" stroke="#E4B7FF" stroke-width="6" stroke-linecap="round" stroke-linejoin="round"/>
<path d="M15.022 155.205V152.305H17.902V155.205H15.022ZM24.474 144.945V147.425H21.954V151.545C21.954 152.011 22.0607 152.345 22.274 152.545C22.5007 152.731 22.8474 152.825 23.314 152.825H24.474V155.205H23.114C21.7407 155.205 20.7407 154.911 20.114 154.325C19.4874 153.725 19.174 152.845 19.174 151.685V147.425H17.694V144.945H19.174V142.305H21.954V144.945H24.474ZM35.3103 155.205H31.9903L30.1903 152.105L28.3703 155.205H25.1303L28.4303 149.985L25.2103 144.945H28.5103L30.2303 147.865L31.9303 144.945H35.1703L31.9703 149.945L35.3103 155.205ZM42.6772 144.945V147.425H40.1572V151.545C40.1572 152.011 40.2638 152.345 40.4772 152.545C40.7038 152.731 41.0505 152.825 41.5172 152.825H42.6772V155.205H41.3172C39.9438 155.205 38.9438 154.911 38.3172 154.325C37.6905 153.725 37.3772 152.845 37.3772 151.685V147.425H35.8972V144.945H37.3772V142.305H40.1572V144.945H42.6772ZM47.6587 155.205V152.305H50.5387V155.205H47.6587ZM57.2222 147.365C56.8222 147.365 56.4488 147.438 56.1022 147.585C55.7688 147.718 55.4755 147.911 55.2222 148.165C54.9688 148.418 54.7688 148.711 54.6222 149.045C54.4888 149.378 54.4222 149.738 54.4222 150.125C54.4222 150.511 54.4955 150.871 54.6422 151.205C54.7888 151.538 54.9888 151.831 55.2422 152.085C55.4955 152.325 55.7888 152.518 56.1222 152.665C56.4688 152.811 56.8355 152.885 57.2222 152.885C57.5955 152.885 57.9488 152.811 58.2822 152.665C58.6155 152.518 58.9022 152.325 59.1422 152.085C59.3822 151.831 59.5688 151.538 59.7022 151.205C59.8488 150.871 59.9222 150.511 59.9222 150.125C59.9222 149.738 59.8488 149.378 59.7022 149.045C59.5688 148.711 59.3822 148.418 59.1422 148.165C58.9022 147.911 58.6155 147.718 58.2822 147.585C57.9488 147.438 57.5955 147.365 57.2222 147.365ZM57.4622 155.345C56.8755 155.345 56.3155 155.265 55.7822 155.105C55.2622 154.931 54.8222 154.705 54.4622 154.425V158.725H51.6822V144.945H54.4622V145.745C54.8222 145.465 55.2622 145.245 55.7822 145.085C56.3155 144.925 56.8755 144.845 57.4622 144.845C58.1555 144.845 58.8155 144.978 59.4422 145.245C60.0822 145.511 60.6355 145.878 61.1022 146.345C61.5688 146.811 61.9422 147.365 62.2222 148.005C62.5022 148.645 62.6422 149.331 62.6422 150.065C62.6422 150.811 62.5022 151.505 62.2222 152.145C61.9422 152.785 61.5688 153.345 61.1022 153.825C60.6355 154.291 60.0822 154.665 59.4422 154.945C58.8155 155.211 58.1555 155.345 57.4622 155.345ZM68.8167 152.885C69.2167 152.885 69.5834 152.818 69.9167 152.685C70.2634 152.538 70.5634 152.338 70.8167 152.085C71.07 151.831 71.2634 151.538 71.3967 151.205C71.5434 150.871 71.6167 150.511 71.6167 150.125C71.6167 149.751 71.5434 149.398 71.3967 149.065C71.25 148.718 71.05 148.425 70.7967 148.185C70.5434 147.931 70.2434 147.731 69.8967 147.585C69.5634 147.438 69.2034 147.365 68.8167 147.365C68.43 147.365 68.07 147.438 67.7367 147.585C67.4167 147.731 67.1367 147.931 66.8967 148.185C66.6567 148.425 66.4634 148.718 66.3167 149.065C66.1834 149.398 66.1167 149.751 66.1167 150.125C66.1167 150.511 66.1834 150.871 66.3167 151.205C66.4634 151.538 66.6567 151.831 66.8967 152.085C67.1367 152.338 67.4167 152.538 67.7367 152.685C68.07 152.818 68.43 152.885 68.8167 152.885ZM71.5767 154.445C71.2167 154.725 70.77 154.945 70.2367 155.105C69.7167 155.265 69.1634 155.345 68.5767 155.345C67.87 155.345 67.2034 155.211 66.5767 154.945C65.95 154.678 65.4034 154.311 64.9367 153.845C64.47 153.378 64.0967 152.831 63.8167 152.205C63.5367 151.565 63.3967 150.871 63.3967 150.125C63.3967 149.391 63.5367 148.705 63.8167 148.065C64.0967 147.411 64.47 146.851 64.9367 146.385C65.4034 145.905 65.95 145.531 66.5767 145.265C67.2034 144.985 67.87 144.845 68.5767 144.845C69.1634 144.845 69.7167 144.931 70.2367 145.105C70.77 145.265 71.2167 145.485 71.5767 145.765V141.505H74.3567V155.205H71.5767V154.445ZM81.0512 143.645C80.5979 143.645 80.2579 143.738 80.0312 143.925C79.8046 144.111 79.6912 144.418 79.6912 144.845V144.945H82.0112V147.425H79.6912V155.205H76.9112V147.425H75.3112V144.945H76.9112V144.825C76.9112 143.718 77.2446 142.865 77.9112 142.265C78.5912 141.665 79.5979 141.365 80.9312 141.365H82.0112V143.645H81.0512ZM95.4365 147.405H92.4365V155.205H89.6565V147.405H86.6565V144.945H95.4365V147.405ZM105.766 153.005C105.259 153.765 104.606 154.365 103.806 154.805C103.019 155.231 102.053 155.445 100.906 155.445C100.079 155.445 99.3327 155.311 98.6661 155.045C98.0127 154.765 97.4461 154.391 96.9661 153.925C96.4994 153.445 96.1394 152.878 95.8861 152.225C95.6327 151.571 95.5061 150.865 95.5061 150.105C95.5061 149.371 95.6327 148.678 95.8861 148.025C96.1527 147.371 96.5261 146.805 97.0061 146.325C97.4861 145.831 98.0594 145.445 98.7261 145.165C99.3927 144.885 100.126 144.745 100.926 144.745C101.739 144.745 102.466 144.878 103.106 145.145C103.746 145.411 104.286 145.778 104.726 146.245C105.179 146.711 105.526 147.265 105.766 147.905C106.006 148.531 106.126 149.218 106.126 149.965C106.126 150.165 106.119 150.371 106.106 150.585C106.093 150.798 106.086 150.918 106.086 150.945H98.2461C98.3927 151.598 98.6994 152.118 99.1661 152.505C99.6461 152.891 100.246 153.085 100.966 153.085C101.593 153.085 102.126 152.965 102.566 152.725C103.019 152.471 103.393 152.138 103.686 151.725L105.766 153.005ZM100.906 147.025C100.253 147.025 99.7061 147.191 99.2661 147.525C98.8394 147.845 98.5327 148.298 98.3461 148.885H103.326C103.179 148.258 102.879 147.791 102.426 147.485C101.973 147.178 101.466 147.025 100.906 147.025ZM109.892 149.545L113.292 144.945H116.452L112.512 150.045L116.612 155.205H113.152L109.892 150.985V155.205H107.092V144.945H109.892V149.545ZM125.628 152.825C125.135 153.625 124.495 154.265 123.708 154.745C122.935 155.211 121.981 155.445 120.848 155.445C120.048 155.445 119.315 155.305 118.648 155.025C117.995 154.745 117.428 154.365 116.948 153.885C116.468 153.405 116.095 152.845 115.828 152.205C115.561 151.551 115.428 150.851 115.428 150.105C115.428 149.358 115.561 148.658 115.828 148.005C116.095 147.351 116.468 146.785 116.948 146.305C117.428 145.825 117.995 145.445 118.648 145.165C119.315 144.885 120.048 144.745 120.848 144.745C121.981 144.745 122.941 144.991 123.728 145.485C124.528 145.978 125.168 146.625 125.648 147.425L123.468 148.785C123.201 148.358 122.875 148.005 122.488 147.725C122.101 147.431 121.588 147.285 120.948 147.285C120.135 147.285 119.475 147.545 118.968 148.065C118.475 148.585 118.228 149.265 118.228 150.105C118.228 150.945 118.475 151.631 118.968 152.165C119.475 152.685 120.135 152.945 120.948 152.945C121.588 152.945 122.101 152.805 122.488 152.525C122.875 152.231 123.201 151.871 123.468 151.445L125.628 152.825ZM134.792 147.405H131.792V155.205H129.012V147.405H126.012V144.945H134.792V147.405Z" fill="white"/>
</svg>
