<svg width="1080" height="1080" viewBox="0 0 1080 1080" fill="none" xmlns="http://www.w3.org/2000/svg">
<path d="M708.333 673.473C689.394 697.158 670.62 711.055 647.28 718.319C623.79 725.629 595.344 726.33 556.828 722.922C526.966 720.281 503.472 723.273 483.604 725.803C477.487 726.582 471.714 727.317 466.205 727.83C454.442 728.927 443.874 729.034 433.402 726.65C422.974 724.275 412.44 719.38 400.864 710.195C389.249 700.98 383.178 692.752 380.235 684.837C377.294 676.926 377.325 668.923 378.672 659.807C379.346 655.245 380.37 650.384 381.47 645.163C384.714 629.76 388.615 611.233 386.134 588.073C385.198 579.336 380.518 572.708 374.725 566.839C371.835 563.911 368.584 561.09 365.29 558.266C364.955 557.979 364.618 557.691 364.282 557.402C361.283 554.835 358.251 552.239 355.273 549.434C348.673 543.22 342.519 536.141 338.296 526.841C334.085 517.568 331.697 505.868 332.974 490.288C335.575 458.559 343.402 446.271 353.46 439.045C358.524 435.407 364.319 432.918 371.057 430.024C371.307 429.916 371.558 429.809 371.811 429.7C378.78 426.705 386.542 423.299 394.589 417.835C401.756 412.969 404.948 407.211 406.045 400.927C406.927 395.874 406.42 390.475 405.948 385.441C405.866 384.571 405.786 383.713 405.713 382.869C405.203 376.904 405.025 371.212 406.829 365.551C408.601 359.99 412.402 354.129 420.466 348.154C443.979 330.73 476.398 330.255 508.957 339.384C534.987 346.683 552.67 342.174 567.631 335.365C571.318 333.687 574.83 331.876 578.212 330.104C578.723 329.836 579.231 329.569 579.736 329.304C582.594 327.803 585.356 326.353 588.139 325.006C594.666 321.847 601.052 319.39 608.118 318.547C613.975 317.848 618.793 320.711 623.357 326.932C627.981 333.235 631.824 342.336 635.606 352.581C636.731 355.628 637.851 358.78 638.982 361.962C641.582 369.274 644.239 376.749 647.14 383.489C651.288 393.122 656.232 402.019 662.927 407.331C669.301 412.388 677.939 416.518 687.037 420.309C691.242 422.061 695.617 423.768 699.978 425.471C700.366 425.622 700.753 425.773 701.14 425.925C705.901 427.784 710.636 429.645 715.201 431.59C724.376 435.499 732.606 439.644 738.707 444.545C744.767 449.414 748.429 454.782 749.112 461.151C752.264 490.58 739.608 531.642 719.152 557.224C709.101 569.793 705.653 580.846 705.862 591.189C706.064 601.229 709.735 610.248 713.13 618.587L713.233 618.842C716.737 627.449 719.919 635.367 720.093 644.011C720.263 652.453 717.544 661.954 708.333 673.473Z" stroke="#E4B7FF" stroke-width="7"/>
<path d="M726.949 688.233C705.914 714.539 685.037 730.003 659.067 738.085C632.947 746.214 601.345 746.985 558.625 743.206C525.56 740.281 499.564 743.591 477.538 746.395C470.748 747.26 464.336 748.077 458.21 748.648C445.151 749.865 433.386 749.988 421.717 747.33C410.092 744.683 398.36 739.228 385.486 729.013C372.573 718.767 365.787 709.59 362.493 700.73C359.2 691.873 359.241 682.926 360.74 672.789C361.492 667.699 362.631 662.288 363.853 656.486C367.448 639.414 371.756 618.959 369.012 593.345C367.988 583.78 362.865 576.507 356.469 570.026C353.277 566.792 349.683 563.673 346.03 560.542C345.658 560.223 345.286 559.904 344.913 559.584C341.588 556.738 338.219 553.854 334.909 550.737C327.573 543.828 320.71 535.94 316 525.566C311.301 515.219 308.645 502.18 310.066 484.848C312.954 449.614 321.657 435.856 332.938 427.75C338.588 423.691 345.049 420.916 352.506 417.714C352.789 417.592 353.073 417.47 353.359 417.348C361.086 414.027 369.662 410.262 378.552 404.226C386.413 398.889 389.895 392.595 391.093 385.728C392.062 380.18 391.506 374.252 390.982 368.668C390.891 367.701 390.801 366.745 390.721 365.802C390.154 359.182 389.95 352.806 391.975 346.453C393.968 340.199 398.235 333.638 407.232 326.972C433.442 307.549 469.532 307.05 505.683 317.187C534.442 325.251 553.956 320.271 570.48 312.751C574.558 310.895 578.444 308.89 582.193 306.926C582.76 306.629 583.322 306.334 583.881 306.04C587.05 304.376 590.119 302.765 593.212 301.268C600.466 297.757 607.59 295.013 615.486 294.071C622.173 293.273 627.634 296.567 632.736 303.521C637.899 310.557 642.176 320.695 646.369 332.054C647.619 335.442 648.863 338.942 650.118 342.473C652.999 350.577 655.938 358.845 659.15 366.307C663.746 376.98 669.198 386.768 676.542 392.595C683.566 398.168 693.1 402.731 703.186 406.933C707.844 408.873 712.691 410.766 717.528 412.654C717.957 412.821 718.386 412.989 718.815 413.156C724.095 415.218 729.35 417.284 734.417 419.443C744.597 423.78 753.763 428.392 760.57 433.86C767.337 439.297 771.476 445.332 772.247 452.529C775.754 485.269 761.685 530.897 738.946 559.334C727.847 573.214 724.063 585.385 724.292 596.75C724.516 607.812 728.563 617.756 732.333 627.019L732.438 627.277C736.318 636.81 739.877 645.654 740.072 655.32C740.263 664.784 737.208 675.403 726.949 688.233Z" stroke="white" stroke-width="7"/>
<path d="M744.589 702.219C721.568 731.009 698.698 747.958 670.236 756.815C641.624 765.72 607.031 766.556 560.327 762.425C524.226 759.232 495.86 762.843 471.79 765.908C464.363 766.854 457.344 767.747 450.634 768.373C436.346 769.705 423.448 769.842 410.645 766.926C397.886 764.021 385.019 758.035 370.914 746.843C356.77 735.621 349.308 725.546 345.68 715.789C342.055 706.036 342.106 696.195 343.748 685.09C344.574 679.5 345.823 673.568 347.161 667.214C351.088 648.563 355.781 626.279 352.788 598.34C351.679 587.991 346.138 580.106 339.169 573.046C335.691 569.522 331.773 566.121 327.78 562.698C327.373 562.349 326.966 562 326.557 561.651C322.925 558.541 319.237 555.383 315.613 551.971C307.579 544.405 300.046 535.749 294.873 524.358C289.712 512.993 286.802 498.685 288.359 479.693C291.52 441.138 301.051 425.988 313.493 417.048C319.698 412.59 326.79 409.545 334.928 406.049C335.242 405.915 335.557 405.779 335.874 405.643C344.319 402.014 353.668 397.91 363.356 391.332C371.874 385.548 375.63 378.746 376.925 371.326C377.976 365.309 377.373 358.881 376.801 352.774C376.701 351.716 376.603 350.667 376.514 349.631C375.894 342.389 375.665 335.365 377.899 328.356C380.101 321.447 384.812 314.221 394.691 306.901C423.457 285.585 463.026 285.062 502.581 296.154C533.926 304.943 555.174 299.517 573.18 291.323C577.628 289.298 581.869 287.111 585.966 284.964C586.584 284.64 587.199 284.317 587.81 283.996C591.273 282.178 594.633 280.413 598.019 278.775C605.962 274.931 613.786 271.914 622.468 270.878C629.941 269.986 636.011 273.688 641.623 281.338C647.296 289.069 651.984 300.19 656.566 312.604C657.936 316.315 659.298 320.145 660.67 324.007C663.817 332.86 667.023 341.88 670.53 350.026C675.55 361.685 681.483 372.318 689.443 378.633C697.082 384.694 707.467 389.667 718.487 394.258C723.574 396.378 728.869 398.444 734.156 400.509C734.625 400.692 735.094 400.875 735.563 401.058C741.333 403.311 747.082 405.571 752.625 407.933C763.758 412.676 773.81 417.731 781.286 423.737C788.722 429.71 793.313 436.378 794.168 444.359C798.011 480.236 782.603 530.192 757.701 561.333C745.609 576.455 741.507 589.686 741.756 602.02C741.999 614.049 746.404 624.871 750.53 635.01L750.636 635.269C754.873 645.68 758.789 655.401 759.003 666.036C759.214 676.469 755.841 688.147 744.589 702.219Z" stroke="#E4B7FF" stroke-width="7"/>
<path d="M761.829 715.889C736.866 747.106 712.049 765.506 681.152 775.122C650.104 784.784 612.587 785.686 561.991 781.21C522.922 777.754 492.239 781.661 466.172 784.98C458.121 786.005 450.51 786.974 443.228 787.653C427.74 789.096 413.734 789.248 399.822 786.08C385.954 782.922 371.979 776.417 356.671 764.27C341.324 752.094 333.201 741.141 329.248 730.508C325.296 719.88 325.358 709.165 327.139 697.113C328.038 691.034 329.394 684.593 330.845 677.7C335.098 657.505 340.166 633.435 336.93 603.223C335.739 592.107 329.789 583.625 322.26 575.998C318.503 572.191 314.267 568.514 309.942 564.806C309.501 564.428 309.059 564.049 308.616 563.67C304.683 560.303 300.683 556.878 296.753 553.178C288.036 544.969 279.848 535.564 274.223 523.178C268.61 510.818 265.453 495.27 267.143 474.655C270.569 432.855 280.911 416.343 294.487 406.589C301.235 401.741 308.943 398.43 317.747 394.65C318.091 394.502 318.437 394.353 318.784 394.204C327.93 390.273 338.034 385.837 348.502 378.729C357.664 372.509 361.688 365.21 363.077 357.251C364.207 350.775 363.559 343.857 362.939 337.241C362.832 336.092 362.725 334.953 362.629 333.827C361.957 325.976 361.703 318.32 364.141 310.669C366.547 303.119 371.691 295.245 382.434 287.284C413.697 264.117 456.666 263.573 499.548 275.597C533.42 285.095 556.364 279.233 575.817 270.38C580.628 268.191 585.215 265.824 589.652 263.5C590.322 263.149 590.988 262.799 591.65 262.451C595.401 260.482 599.044 258.568 602.716 256.792C611.332 252.622 619.84 249.339 629.291 248.211C637.532 247.227 644.198 251.328 650.308 259.657C656.48 268.068 661.569 280.148 666.532 293.594C668.019 297.621 669.495 301.774 670.983 305.96C674.389 315.544 677.857 325.299 681.652 334.113C687.087 346.736 693.49 358.194 702.051 364.987C710.291 371.526 721.508 376.899 733.442 381.871C738.949 384.166 744.68 386.403 750.409 388.639C750.916 388.837 751.424 389.035 751.931 389.234C758.181 391.675 764.411 394.123 770.421 396.683C782.484 401.823 793.402 407.311 801.533 413.843C809.623 420.341 814.655 427.627 815.593 436.375C819.764 475.318 803.047 529.503 776.031 563.288C762.969 579.624 758.556 593.89 758.824 607.17C759.086 620.147 763.839 631.826 768.314 642.82L768.421 643.082C773.007 654.35 777.272 664.929 777.505 676.51C777.735 687.889 774.051 700.603 761.829 715.889Z" stroke="white" stroke-width="7"/>
<path d="M781.508 731.491C754.33 765.479 727.289 785.536 693.612 796.016C659.785 806.544 618.93 807.52 563.89 802.651C521.435 798.895 488.107 803.139 459.759 806.748C450.996 807.863 442.71 808.918 434.776 809.658C417.917 811.229 402.646 811.397 387.47 807.941C372.336 804.494 357.095 797.397 340.414 784.162C323.695 770.895 314.816 758.94 310.491 747.308C306.168 735.68 306.241 723.967 308.182 710.836C309.163 704.197 310.642 697.175 312.223 689.668C316.846 667.711 322.343 641.601 318.829 608.795C317.545 596.804 311.127 587.64 302.961 579.366C298.884 575.235 294.286 571.244 289.581 567.21C289.102 566.8 288.622 566.389 288.141 565.977C283.863 562.314 279.506 558.584 275.226 554.554C265.73 545.611 256.793 535.35 250.653 521.828C244.525 508.333 241.084 491.37 242.926 468.903C246.656 423.398 257.923 405.332 272.794 394.648C280.16 389.355 288.572 385.742 298.137 381.635C298.515 381.473 298.896 381.309 299.278 381.145C309.224 376.87 320.189 372.055 331.549 364.342C341.444 357.624 345.774 349.758 347.27 341.183C348.492 334.184 347.792 326.707 347.118 319.508C347.001 318.257 346.885 317.014 346.779 315.784C346.048 307.24 345.767 298.861 348.438 290.479C351.077 282.197 356.716 273.582 368.443 264.891C402.558 239.612 449.408 239.042 496.087 252.131C532.844 262.437 557.723 256.078 578.829 246.472C584.053 244.095 589.035 241.525 593.861 238.997C594.589 238.616 595.312 238.236 596.032 237.858C600.111 235.716 604.08 233.632 608.078 231.697C617.462 227.155 626.752 223.568 637.08 222.335C646.198 221.247 653.543 225.803 660.223 234.907C666.963 244.094 672.511 257.27 677.909 271.893C679.529 276.281 681.136 280.803 682.755 285.357C686.458 295.777 690.224 306.371 694.347 315.948C700.256 329.672 707.196 342.072 716.443 349.409C725.37 356.492 737.536 362.323 750.512 367.73C756.498 370.224 762.729 372.656 768.96 375.088C769.512 375.304 770.064 375.519 770.616 375.735C777.413 378.39 784.193 381.054 790.734 383.841C803.861 389.434 815.767 395.416 824.644 402.547C833.481 409.646 839.018 417.636 840.049 427.259C844.595 469.702 826.384 528.714 796.955 565.517C782.785 583.239 778.017 598.687 778.307 613.048C778.591 627.105 783.742 639.762 788.615 651.735L788.722 651.997C793.707 664.245 798.37 675.802 798.626 688.464C798.877 700.924 794.839 714.82 781.508 731.491Z" stroke="#E4B7FF" stroke-width="7"/>
<path d="M624.58 552.617V588.541C624.58 593.305 622.693 597.874 619.334 601.243C615.975 604.611 611.42 606.504 606.67 606.504H481.298C476.548 606.504 471.993 604.611 468.634 601.243C465.275 597.874 463.388 593.305 463.388 588.541V552.617M588.76 489.75L543.984 444.845M543.984 444.845L499.208 489.75M543.984 444.845V552.617" stroke="white" stroke-width="7" stroke-linecap="round" stroke-linejoin="round"/>
<path d="M492.363 635.919V634.759H493.363V635.919H492.363ZM498.609 625.919V626.799H495.829V632.879C495.829 633.306 495.889 633.652 496.009 633.919C496.143 634.186 496.303 634.399 496.489 634.559C496.689 634.719 496.903 634.832 497.129 634.899C497.369 634.952 497.603 634.979 497.829 634.979H498.589V635.919H497.809C497.463 635.919 497.116 635.872 496.769 635.779C496.423 635.672 496.109 635.499 495.829 635.259C495.549 635.019 495.316 634.706 495.129 634.319C494.956 633.932 494.869 633.452 494.869 632.879V626.799H493.369V625.919H494.869V623.019H495.829V625.919H498.609ZM508.382 635.919H507.142L503.882 631.479L500.602 635.919H499.402L503.222 630.759L499.702 625.919H500.942L503.902 630.019L506.882 625.919H508.102L504.542 630.739L508.382 635.919ZM514.117 625.919V626.799H511.337V632.879C511.337 633.306 511.397 633.652 511.517 633.919C511.65 634.186 511.81 634.399 511.997 634.559C512.197 634.719 512.41 634.832 512.637 634.899C512.877 634.952 513.11 634.979 513.337 634.979H514.097V635.919H513.317C512.97 635.919 512.624 635.872 512.277 635.779C511.93 635.672 511.617 635.499 511.337 635.259C511.057 635.019 510.824 634.706 510.637 634.319C510.464 633.932 510.377 633.452 510.377 632.879V626.799H508.877V625.919H510.377V623.019H511.337V625.919H514.117ZM519.414 635.919V634.759H520.414V635.919H519.414ZM527.112 626.699C526.525 626.699 525.972 626.806 525.452 627.019C524.945 627.232 524.505 627.532 524.132 627.919C523.758 628.292 523.465 628.739 523.252 629.259C523.038 629.766 522.932 630.319 522.932 630.919C522.932 631.519 523.038 632.072 523.252 632.579C523.465 633.086 523.758 633.532 524.132 633.919C524.505 634.292 524.945 634.586 525.452 634.799C525.972 635.012 526.525 635.119 527.112 635.119C527.712 635.119 528.265 635.012 528.772 634.799C529.292 634.586 529.732 634.292 530.092 633.919C530.465 633.532 530.758 633.086 530.972 632.579C531.185 632.059 531.292 631.506 531.292 630.919C531.292 630.319 531.185 629.766 530.972 629.259C530.758 628.739 530.465 628.292 530.092 627.919C529.732 627.532 529.292 627.232 528.772 627.019C528.265 626.806 527.712 626.699 527.112 626.699ZM527.172 636.059C526.212 636.059 525.378 635.866 524.672 635.479C523.965 635.079 523.405 634.566 522.992 633.939V639.399H522.012V625.919H522.992V627.879C523.405 627.252 523.965 626.746 524.672 626.359C525.378 625.959 526.212 625.759 527.172 625.759C527.892 625.759 528.558 625.892 529.172 626.159C529.798 626.426 530.338 626.792 530.792 627.259C531.258 627.712 531.618 628.252 531.872 628.879C532.138 629.506 532.272 630.179 532.272 630.899C532.272 631.632 532.138 632.312 531.872 632.939C531.618 633.566 531.258 634.112 530.792 634.579C530.338 635.032 529.798 635.392 529.172 635.659C528.558 635.926 527.892 636.059 527.172 636.059ZM538.434 635.119C539.021 635.119 539.567 635.012 540.074 634.799C540.594 634.586 541.041 634.292 541.414 633.919C541.787 633.532 542.081 633.086 542.294 632.579C542.507 632.059 542.614 631.499 542.614 630.899C542.614 630.299 542.507 629.746 542.294 629.239C542.081 628.732 541.787 628.292 541.414 627.919C541.041 627.532 540.594 627.232 540.074 627.019C539.567 626.806 539.021 626.699 538.434 626.699C537.834 626.699 537.274 626.806 536.754 627.019C536.247 627.232 535.807 627.532 535.434 627.919C535.074 628.292 534.787 628.739 534.574 629.259C534.361 629.766 534.254 630.312 534.254 630.899C534.254 631.499 534.361 632.059 534.574 632.579C534.787 633.086 535.074 633.532 535.434 633.919C535.807 634.292 536.247 634.586 536.754 634.799C537.274 635.012 537.834 635.119 538.434 635.119ZM542.554 633.939C542.141 634.566 541.587 635.079 540.894 635.479C540.201 635.866 539.361 636.059 538.374 636.059C537.654 636.059 536.981 635.926 536.354 635.659C535.741 635.392 535.201 635.032 534.734 634.579C534.281 634.112 533.921 633.566 533.654 632.939C533.401 632.312 533.274 631.639 533.274 630.919C533.274 630.186 533.401 629.506 533.654 628.879C533.921 628.252 534.281 627.712 534.734 627.259C535.201 626.792 535.741 626.426 536.354 626.159C536.981 625.892 537.654 625.759 538.374 625.759C539.334 625.759 540.167 625.959 540.874 626.359C541.581 626.746 542.141 627.252 542.554 627.879V622.219H543.534V635.899H542.554V633.939ZM549.117 623.159C548.89 623.159 548.663 623.192 548.437 623.259C548.21 623.312 548.003 623.419 547.817 623.579C547.63 623.739 547.477 623.959 547.357 624.239C547.25 624.506 547.197 624.846 547.197 625.259V625.919H549.777V626.799H547.197V635.919H546.237V626.799H544.737V625.919H546.237V625.259C546.237 624.686 546.323 624.206 546.497 623.819C546.67 623.432 546.89 623.119 547.157 622.879C547.423 622.639 547.723 622.472 548.057 622.379C548.403 622.272 548.75 622.219 549.097 622.219H549.757V623.159H549.117ZM562.82 626.799H559.14V635.919H558.16V626.799H554.48V625.919H562.82V626.799ZM572.449 633.559C571.983 634.319 571.376 634.926 570.629 635.379C569.896 635.832 568.963 636.059 567.829 636.059C567.069 636.059 566.369 635.926 565.729 635.659C565.103 635.392 564.556 635.032 564.089 634.579C563.636 634.112 563.276 633.566 563.009 632.939C562.756 632.312 562.629 631.632 562.629 630.899C562.629 630.179 562.756 629.506 563.009 628.879C563.276 628.252 563.636 627.712 564.089 627.259C564.556 626.792 565.096 626.426 565.709 626.159C566.336 625.892 567.016 625.759 567.749 625.759C568.496 625.759 569.176 625.892 569.789 626.159C570.416 626.426 570.949 626.779 571.389 627.219C571.843 627.659 572.189 628.172 572.429 628.759C572.683 629.346 572.809 629.959 572.809 630.599C572.809 630.759 572.803 630.892 572.789 630.999C572.789 631.106 572.783 631.192 572.769 631.259H563.669C563.709 631.872 563.843 632.419 564.069 632.899C564.309 633.366 564.616 633.766 564.989 634.099C565.376 634.419 565.809 634.666 566.289 634.839C566.769 635.012 567.283 635.099 567.829 635.099C568.816 635.099 569.609 634.919 570.209 634.559C570.809 634.186 571.303 633.679 571.689 633.039L572.449 633.559ZM567.749 626.699C567.243 626.699 566.756 626.786 566.289 626.959C565.823 627.132 565.403 627.379 565.029 627.699C564.669 628.006 564.363 628.386 564.109 628.839C563.869 629.292 563.723 629.799 563.669 630.359H571.789C571.736 629.799 571.589 629.292 571.349 628.839C571.123 628.386 570.829 627.999 570.469 627.679C570.109 627.359 569.696 627.119 569.229 626.959C568.763 626.786 568.269 626.699 567.749 626.699ZM575.081 631.239V635.919H574.101V625.919H575.081V630.799L579.881 625.919H581.041L576.121 630.939L581.661 635.919H580.281L575.081 631.239ZM590.219 633.559C589.752 634.319 589.145 634.926 588.399 635.379C587.652 635.832 586.725 636.059 585.619 636.059C584.885 636.059 584.205 635.926 583.579 635.659C582.965 635.392 582.432 635.026 581.979 634.559C581.539 634.092 581.192 633.546 580.939 632.919C580.699 632.292 580.579 631.612 580.579 630.879C580.579 630.159 580.699 629.492 580.939 628.879C581.192 628.252 581.539 627.712 581.979 627.259C582.432 626.792 582.965 626.426 583.579 626.159C584.205 625.892 584.885 625.759 585.619 625.759C586.779 625.759 587.719 625.992 588.439 626.459C589.172 626.912 589.765 627.519 590.219 628.279L589.459 628.799C589.072 628.159 588.579 627.652 587.979 627.279C587.379 626.906 586.592 626.719 585.619 626.719C585.019 626.719 584.465 626.826 583.959 627.039C583.465 627.252 583.039 627.546 582.679 627.919C582.319 628.292 582.039 628.739 581.839 629.259C581.652 629.766 581.559 630.312 581.559 630.899C581.559 631.486 581.659 632.039 581.859 632.559C582.059 633.066 582.339 633.512 582.699 633.899C583.059 634.272 583.485 634.566 583.979 634.779C584.485 634.992 585.039 635.099 585.639 635.099C586.612 635.099 587.392 634.919 587.979 634.559C588.579 634.186 589.072 633.679 589.459 633.039L590.219 633.559ZM598.875 626.799H595.195V635.919H594.215V626.799H590.535V625.919H598.875V626.799Z" fill="white"/>
</svg>
